<?xml version="1.0" standalone="no"?>
 <!DOCTYPE svg PUBLIC "-//W3C//DTD SVG 1.1//EN" 
 "http://www.w3.org/Graphics/SVG/1.1/DTD/svg11.dtd"> 
<svg
  xmlns:svg="http://www.w3.org/2000/svg"
  xmlns="http://www.w3.org/2000/svg"
  xmlns:xlink="http://www.w3.org/1999/xlink"
  xmlns:inkscape="http://www.inkscape.org/namespaces/inkscape"
  version="1.1"
  width="279.400000mm" height="215.900000mm" viewBox="0.000000 0.000000 279.400000 215.900000">
<title>SVG Image created as grbl_expando_step_stick-F_Paste.svg date 2026-06-13T22:30:40 </title>
  <desc>Image generated by PCBNEW </desc>
<g style="fill:#000000; fill-opacity:1.000000;stroke:#000000; stroke-opacity:1.000000;
stroke-linecap:round; stroke-linejoin:round;"
 transform="translate(0 0) scale(1 1)">
<path style="fill:#000000; fill-opacity:1.000000; stroke:none;fill-rule:evenodd;"
d="M 90.600000,140.880000
90.617127,140.793896
90.665901,140.720901
90.738896,140.672127
90.825000,140.655000
91.275000,140.655000
91.361104,140.672127
91.434099,140.720901
91.482873,140.793896
91.500000,140.880000
91.500000,141.380000
91.482873,141.466104
91.434099,141.539099
91.361104,141.587873
91.275000,141.605000
90.825000,141.605000
90.738896,141.587873
90.665901,141.539099
90.617127,141.466104
90.600000,141.380000
Z" /> 
<path style="fill:#000000; fill-opacity:1.000000; stroke:none;fill-rule:evenodd;"
d="M 92.150000,140.880000
92.167127,140.793896
92.215901,140.720901
92.288896,140.672127
92.375000,140.655000
92.825000,140.655000
92.911104,140.672127
92.984099,140.720901
93.032873,140.793896
93.050000,140.880000
93.050000,141.380000
93.032873,141.466104
92.984099,141.539099
92.911104,141.587873
92.825000,141.605000
92.375000,141.605000
92.288896,141.587873
92.215901,141.539099
92.167127,141.466104
92.150000,141.380000
Z" /> 
<path style="fill:#000000; fill-opacity:1.000000; stroke:none;fill-rule:evenodd;"
d="M 108.880000,98.950000
108.830251,98.940104
108.788076,98.911924
108.759896,98.869749
108.750000,98.820000
108.750000,97.780000
108.759896,97.730251
108.788076,97.688076
108.830251,97.659896
108.880000,97.650000
113.120000,97.650000
113.169749,97.659896
113.211924,97.688076
113.240104,97.730251
113.250000,97.780000
113.250000,98.820000
113.240104,98.869749
113.211924,98.911924
113.169749,98.940104
113.120000,98.950000
Z" /> 
<path style="fill:#000000; fill-opacity:1.000000; stroke:none;fill-rule:evenodd;"
d="M 108.880000,101.450000
108.830251,101.440104
108.788076,101.411924
108.759896,101.369749
108.750000,101.320000
108.750000,100.280000
108.759896,100.230251
108.788076,100.188076
108.830251,100.159896
108.880000,100.150000
113.120000,100.150000
113.169749,100.159896
113.211924,100.188076
113.240104,100.230251
113.250000,100.280000
113.250000,101.320000
113.240104,101.369749
113.211924,101.411924
113.169749,101.440104
113.120000,101.450000
Z" /> 
<path style="fill:#000000; fill-opacity:1.000000; stroke:none;fill-rule:evenodd;"
d="M 108.880000,103.950000
108.830251,103.940104
108.788076,103.911924
108.759896,103.869749
108.750000,103.820000
108.750000,102.780000
108.759896,102.730251
108.788076,102.688076
108.830251,102.659896
108.880000,102.650000
113.120000,102.650000
113.169749,102.659896
113.211924,102.688076
113.240104,102.730251
113.250000,102.780000
113.250000,103.820000
113.240104,103.869749
113.211924,103.911924
113.169749,103.940104
113.120000,103.950000
Z" /> 
<path style="fill:#000000; fill-opacity:1.000000; stroke:none;fill-rule:evenodd;"
d="M 108.880000,106.450000
108.830251,106.440104
108.788076,106.411924
108.759896,106.369749
108.750000,106.320000
108.750000,105.280000
108.759896,105.230251
108.788076,105.188076
108.830251,105.159896
108.880000,105.150000
113.120000,105.150000
113.169749,105.159896
113.211924,105.188076
113.240104,105.230251
113.250000,105.280000
113.250000,106.320000
113.240104,106.369749
113.211924,106.411924
113.169749,106.440104
113.120000,106.450000
Z" /> 
<path style="fill:#000000; fill-opacity:1.000000; stroke:none;fill-rule:evenodd;"
d="M 112.730000,109.900000
112.661117,109.886298
112.602721,109.847279
112.563702,109.788883
112.550000,109.720000
112.550000,108.280000
112.563702,108.211117
112.602721,108.152721
112.661117,108.113702
112.730000,108.100000
116.270000,108.100000
116.338883,108.113702
116.397279,108.152721
116.436298,108.211117
116.450000,108.280000
116.450000,109.720000
116.436298,109.788883
116.397279,109.847279
116.338883,109.886298
116.270000,109.900000
Z" /> 
<path style="fill:#000000; fill-opacity:1.000000; stroke:none;fill-rule:evenodd;"
d="M 112.730000,96.000000
112.661117,95.986298
112.602721,95.947279
112.563702,95.888883
112.550000,95.820000
112.550000,94.380000
112.563702,94.311117
112.602721,94.252721
112.661117,94.213702
112.730000,94.200000
116.270000,94.200000
116.338883,94.213702
116.397279,94.252721
116.436298,94.311117
116.450000,94.380000
116.450000,95.820000
116.436298,95.888883
116.397279,95.947279
116.338883,95.986298
116.270000,96.000000
Z" /> 
<path style="fill:#000000; fill-opacity:1.000000; stroke:none;fill-rule:evenodd;"
d="M 119.475000,79.650000
119.398463,79.634776
119.333579,79.591421
119.290224,79.526537
119.275000,79.450000
119.275000,79.050000
119.290224,78.973463
119.333579,78.908579
119.398463,78.865224
119.475000,78.850000
120.025000,78.850000
120.101537,78.865224
120.166421,78.908579
120.209776,78.973463
120.225000,79.050000
120.225000,79.450000
120.209776,79.526537
120.166421,79.591421
120.101537,79.634776
120.025000,79.650000
Z" /> 
<path style="fill:#000000; fill-opacity:1.000000; stroke:none;fill-rule:evenodd;"
d="M 119.475000,78.000000
119.398463,77.984776
119.333579,77.941421
119.290224,77.876537
119.275000,77.800000
119.275000,77.400000
119.290224,77.323463
119.333579,77.258579
119.398463,77.215224
119.475000,77.200000
120.025000,77.200000
120.101537,77.215224
120.166421,77.258579
120.209776,77.323463
120.225000,77.400000
120.225000,77.800000
120.209776,77.876537
120.166421,77.941421
120.101537,77.984776
120.025000,78.000000
Z" /> 
<path style="fill:#000000; fill-opacity:1.000000; stroke:none;fill-rule:evenodd;"
d="M 101.550000,144.180000
101.567127,144.093896
101.615901,144.020901
101.688896,143.972127
101.775000,143.955000
102.225000,143.955000
102.311104,143.972127
102.384099,144.020901
102.432873,144.093896
102.450000,144.180000
102.450000,144.680000
102.432873,144.766104
102.384099,144.839099
102.311104,144.887873
102.225000,144.905000
101.775000,144.905000
101.688896,144.887873
101.615901,144.839099
101.567127,144.766104
101.550000,144.680000
Z" /> 
<path style="fill:#000000; fill-opacity:1.000000; stroke:none;fill-rule:evenodd;"
d="M 103.100000,144.180000
103.117127,144.093896
103.165901,144.020901
103.238896,143.972127
103.325000,143.955000
103.775000,143.955000
103.861104,143.972127
103.934099,144.020901
103.982873,144.093896
104.000000,144.180000
104.000000,144.680000
103.982873,144.766104
103.934099,144.839099
103.861104,144.887873
103.775000,144.905000
103.325000,144.905000
103.238896,144.887873
103.165901,144.839099
103.117127,144.766104
103.100000,144.680000
Z" /> 
<path style="fill:#000000; fill-opacity:1.000000; stroke:none;fill-rule:evenodd;"
d="M 120.375000,146.450000
120.363582,146.507403
120.331066,146.556066
120.282403,146.588582
120.225000,146.600000
118.575000,146.600000
118.517597,146.588582
118.468934,146.556066
118.436418,146.507403
118.425000,146.450000
118.425000,146.150000
118.436418,146.092597
118.468934,146.043934
118.517597,146.011418
118.575000,146.000000
120.225000,146.000000
120.282403,146.011418
120.331066,146.043934
120.363582,146.092597
120.375000,146.150000
Z" /> 
<path style="fill:#000000; fill-opacity:1.000000; stroke:none;fill-rule:evenodd;"
d="M 120.375000,145.180000
120.363582,145.237403
120.331066,145.286066
120.282403,145.318582
120.225000,145.330000
118.575000,145.330000
118.517597,145.318582
118.468934,145.286066
118.436418,145.237403
118.425000,145.180000
118.425000,144.880000
118.436418,144.822597
118.468934,144.773934
118.517597,144.741418
118.575000,144.730000
120.225000,144.730000
120.282403,144.741418
120.331066,144.773934
120.363582,144.822597
120.375000,144.880000
Z" /> 
<path style="fill:#000000; fill-opacity:1.000000; stroke:none;fill-rule:evenodd;"
d="M 120.375000,143.910000
120.363582,143.967403
120.331066,144.016066
120.282403,144.048582
120.225000,144.060000
118.575000,144.060000
118.517597,144.048582
118.468934,144.016066
118.436418,143.967403
118.425000,143.910000
118.425000,143.610000
118.436418,143.552597
118.468934,143.503934
118.517597,143.471418
118.575000,143.460000
120.225000,143.460000
120.282403,143.471418
120.331066,143.503934
120.363582,143.552597
120.375000,143.610000
Z" /> 
<path style="fill:#000000; fill-opacity:1.000000; stroke:none;fill-rule:evenodd;"
d="M 120.375000,142.640000
120.363582,142.697403
120.331066,142.746066
120.282403,142.778582
120.225000,142.790000
118.575000,142.790000
118.517597,142.778582
118.468934,142.746066
118.436418,142.697403
118.425000,142.640000
118.425000,142.340000
118.436418,142.282597
118.468934,142.233934
118.517597,142.201418
118.575000,142.190000
120.225000,142.190000
120.282403,142.201418
120.331066,142.233934
120.363582,142.282597
120.375000,142.340000
Z" /> 
<path style="fill:#000000; fill-opacity:1.000000; stroke:none;fill-rule:evenodd;"
d="M 120.375000,141.370000
120.363582,141.427403
120.331066,141.476066
120.282403,141.508582
120.225000,141.520000
118.575000,141.520000
118.517597,141.508582
118.468934,141.476066
118.436418,141.427403
118.425000,141.370000
118.425000,141.070000
118.436418,141.012597
118.468934,140.963934
118.517597,140.931418
118.575000,140.920000
120.225000,140.920000
120.282403,140.931418
120.331066,140.963934
120.363582,141.012597
120.375000,141.070000
Z" /> 
<path style="fill:#000000; fill-opacity:1.000000; stroke:none;fill-rule:evenodd;"
d="M 120.375000,140.100000
120.363582,140.157403
120.331066,140.206066
120.282403,140.238582
120.225000,140.250000
118.575000,140.250000
118.517597,140.238582
118.468934,140.206066
118.436418,140.157403
118.425000,140.100000
118.425000,139.800000
118.436418,139.742597
118.468934,139.693934
118.517597,139.661418
118.575000,139.650000
120.225000,139.650000
120.282403,139.661418
120.331066,139.693934
120.363582,139.742597
120.375000,139.800000
Z" /> 
<path style="fill:#000000; fill-opacity:1.000000; stroke:none;fill-rule:evenodd;"
d="M 120.375000,138.830000
120.363582,138.887403
120.331066,138.936066
120.282403,138.968582
120.225000,138.980000
118.575000,138.980000
118.517597,138.968582
118.468934,138.936066
118.436418,138.887403
118.425000,138.830000
118.425000,138.530000
118.436418,138.472597
118.468934,138.423934
118.517597,138.391418
118.575000,138.380000
120.225000,138.380000
120.282403,138.391418
120.331066,138.423934
120.363582,138.472597
120.375000,138.530000
Z" /> 
<path style="fill:#000000; fill-opacity:1.000000; stroke:none;fill-rule:evenodd;"
d="M 120.375000,137.560000
120.363582,137.617403
120.331066,137.666066
120.282403,137.698582
120.225000,137.710000
118.575000,137.710000
118.517597,137.698582
118.468934,137.666066
118.436418,137.617403
118.425000,137.560000
118.425000,137.260000
118.436418,137.202597
118.468934,137.153934
118.517597,137.121418
118.575000,137.110000
120.225000,137.110000
120.282403,137.121418
120.331066,137.153934
120.363582,137.202597
120.375000,137.260000
Z" /> 
<path style="fill:#000000; fill-opacity:1.000000; stroke:none;fill-rule:evenodd;"
d="M 115.425000,137.560000
115.413582,137.617403
115.381066,137.666066
115.332403,137.698582
115.275000,137.710000
113.625000,137.710000
113.567597,137.698582
113.518934,137.666066
113.486418,137.617403
113.475000,137.560000
113.475000,137.260000
113.486418,137.202597
113.518934,137.153934
113.567597,137.121418
113.625000,137.110000
115.275000,137.110000
115.332403,137.121418
115.381066,137.153934
115.413582,137.202597
115.425000,137.260000
Z" /> 
<path style="fill:#000000; fill-opacity:1.000000; stroke:none;fill-rule:evenodd;"
d="M 115.425000,138.830000
115.413582,138.887403
115.381066,138.936066
115.332403,138.968582
115.275000,138.980000
113.625000,138.980000
113.567597,138.968582
113.518934,138.936066
113.486418,138.887403
113.475000,138.830000
113.475000,138.530000
113.486418,138.472597
113.518934,138.423934
113.567597,138.391418
113.625000,138.380000
115.275000,138.380000
115.332403,138.391418
115.381066,138.423934
115.413582,138.472597
115.425000,138.530000
Z" /> 
<path style="fill:#000000; fill-opacity:1.000000; stroke:none;fill-rule:evenodd;"
d="M 115.425000,140.100000
115.413582,140.157403
115.381066,140.206066
115.332403,140.238582
115.275000,140.250000
113.625000,140.250000
113.567597,140.238582
113.518934,140.206066
113.486418,140.157403
113.475000,140.100000
113.475000,139.800000
113.486418,139.742597
113.518934,139.693934
113.567597,139.661418
113.625000,139.650000
115.275000,139.650000
115.332403,139.661418
115.381066,139.693934
115.413582,139.742597
115.425000,139.800000
Z" /> 
<path style="fill:#000000; fill-opacity:1.000000; stroke:none;fill-rule:evenodd;"
d="M 115.425000,141.370000
115.413582,141.427403
115.381066,141.476066
115.332403,141.508582
115.275000,141.520000
113.625000,141.520000
113.567597,141.508582
113.518934,141.476066
113.486418,141.427403
113.475000,141.370000
113.475000,141.070000
113.486418,141.012597
113.518934,140.963934
113.567597,140.931418
113.625000,140.920000
115.275000,140.920000
115.332403,140.931418
115.381066,140.963934
115.413582,141.012597
115.425000,141.070000
Z" /> 
<path style="fill:#000000; fill-opacity:1.000000; stroke:none;fill-rule:evenodd;"
d="M 115.425000,142.640000
115.413582,142.697403
115.381066,142.746066
115.332403,142.778582
115.275000,142.790000
113.625000,142.790000
113.567597,142.778582
113.518934,142.746066
113.486418,142.697403
113.475000,142.640000
113.475000,142.340000
113.486418,142.282597
113.518934,142.233934
113.567597,142.201418
113.625000,142.190000
115.275000,142.190000
115.332403,142.201418
115.381066,142.233934
115.413582,142.282597
115.425000,142.340000
Z" /> 
<path style="fill:#000000; fill-opacity:1.000000; stroke:none;fill-rule:evenodd;"
d="M 115.425000,143.910000
115.413582,143.967403
115.381066,144.016066
115.332403,144.048582
115.275000,144.060000
113.625000,144.060000
113.567597,144.048582
113.518934,144.016066
113.486418,143.967403
113.475000,143.910000
113.475000,143.610000
113.486418,143.552597
113.518934,143.503934
113.567597,143.471418
113.625000,143.460000
115.275000,143.460000
115.332403,143.471418
115.381066,143.503934
115.413582,143.552597
115.425000,143.610000
Z" /> 
<path style="fill:#000000; fill-opacity:1.000000; stroke:none;fill-rule:evenodd;"
d="M 115.425000,145.180000
115.413582,145.237403
115.381066,145.286066
115.332403,145.318582
115.275000,145.330000
113.625000,145.330000
113.567597,145.318582
113.518934,145.286066
113.486418,145.237403
113.475000,145.180000
113.475000,144.880000
113.486418,144.822597
113.518934,144.773934
113.567597,144.741418
113.625000,144.730000
115.275000,144.730000
115.332403,144.741418
115.381066,144.773934
115.413582,144.822597
115.425000,144.880000
Z" /> 
<path style="fill:#000000; fill-opacity:1.000000; stroke:none;fill-rule:evenodd;"
d="M 115.425000,146.450000
115.413582,146.507403
115.381066,146.556066
115.332403,146.588582
115.275000,146.600000
113.625000,146.600000
113.567597,146.588582
113.518934,146.556066
113.486418,146.507403
113.475000,146.450000
113.475000,146.150000
113.486418,146.092597
113.518934,146.043934
113.567597,146.011418
113.625000,146.000000
115.275000,146.000000
115.332403,146.011418
115.381066,146.043934
115.413582,146.092597
115.425000,146.150000
Z" /> 
<path style="fill:#000000; fill-opacity:1.000000; stroke:none;fill-rule:evenodd;"
d="M 135.756250,81.837500
135.839962,81.854151
135.910930,81.901570
135.958349,81.972538
135.975000,82.056250
135.975000,82.493750
135.958349,82.577462
135.910930,82.648430
135.839962,82.695849
135.756250,82.712500
135.243750,82.712500
135.160038,82.695849
135.089070,82.648430
135.041651,82.577462
135.025000,82.493750
135.025000,82.056250
135.041651,81.972538
135.089070,81.901570
135.160038,81.854151
135.243750,81.837500
Z" /> 
<path style="fill:#000000; fill-opacity:1.000000; stroke:none;fill-rule:evenodd;"
d="M 135.756250,83.412500
135.839962,83.429151
135.910930,83.476570
135.958349,83.547538
135.975000,83.631250
135.975000,84.068750
135.958349,84.152462
135.910930,84.223430
135.839962,84.270849
135.756250,84.287500
135.243750,84.287500
135.160038,84.270849
135.089070,84.223430
135.041651,84.152462
135.025000,84.068750
135.025000,83.631250
135.041651,83.547538
135.089070,83.476570
135.160038,83.429151
135.243750,83.412500
Z" /> 
<path style="fill:#000000; fill-opacity:1.000000; stroke:none;fill-rule:evenodd;"
d="M 112.400000,147.805000
112.417127,147.718896
112.465901,147.645901
112.538896,147.597127
112.625000,147.580000
113.075000,147.580000
113.161104,147.597127
113.234099,147.645901
113.282873,147.718896
113.300000,147.805000
113.300000,148.305000
113.282873,148.391104
113.234099,148.464099
113.161104,148.512873
113.075000,148.530000
112.625000,148.530000
112.538896,148.512873
112.465901,148.464099
112.417127,148.391104
112.400000,148.305000
Z" /> 
<path style="fill:#000000; fill-opacity:1.000000; stroke:none;fill-rule:evenodd;"
d="M 113.950000,147.805000
113.967127,147.718896
114.015901,147.645901
114.088896,147.597127
114.175000,147.580000
114.625000,147.580000
114.711104,147.597127
114.784099,147.645901
114.832873,147.718896
114.850000,147.805000
114.850000,148.305000
114.832873,148.391104
114.784099,148.464099
114.711104,148.512873
114.625000,148.530000
114.175000,148.530000
114.088896,148.512873
114.015901,148.464099
113.967127,148.391104
113.950000,148.305000
Z" /> 
<path style="fill:#000000; fill-opacity:1.000000; stroke:none;fill-rule:evenodd;"
d="M 119.475000,118.825000
119.398463,118.809776
119.333579,118.766421
119.290224,118.701537
119.275000,118.625000
119.275000,118.225000
119.290224,118.148463
119.333579,118.083579
119.398463,118.040224
119.475000,118.025000
120.025000,118.025000
120.101537,118.040224
120.166421,118.083579
120.209776,118.148463
120.225000,118.225000
120.225000,118.625000
120.209776,118.701537
120.166421,118.766421
120.101537,118.809776
120.025000,118.825000
Z" /> 
<path style="fill:#000000; fill-opacity:1.000000; stroke:none;fill-rule:evenodd;"
d="M 119.475000,117.175000
119.398463,117.159776
119.333579,117.116421
119.290224,117.051537
119.275000,116.975000
119.275000,116.575000
119.290224,116.498463
119.333579,116.433579
119.398463,116.390224
119.475000,116.375000
120.025000,116.375000
120.101537,116.390224
120.166421,116.433579
120.209776,116.498463
120.225000,116.575000
120.225000,116.975000
120.209776,117.051537
120.166421,117.116421
120.101537,117.159776
120.025000,117.175000
Z" /> 
<path style="fill:#000000; fill-opacity:1.000000; stroke:none;fill-rule:evenodd;"
d="M 89.825000,135.200000
89.748463,135.184776
89.683579,135.141421
89.640224,135.076537
89.625000,135.000000
89.625000,134.600000
89.640224,134.523463
89.683579,134.458579
89.748463,134.415224
89.825000,134.400000
90.375000,134.400000
90.451537,134.415224
90.516421,134.458579
90.559776,134.523463
90.575000,134.600000
90.575000,135.000000
90.559776,135.076537
90.516421,135.141421
90.451537,135.184776
90.375000,135.200000
Z" /> 
<path style="fill:#000000; fill-opacity:1.000000; stroke:none;fill-rule:evenodd;"
d="M 89.825000,133.550000
89.748463,133.534776
89.683579,133.491421
89.640224,133.426537
89.625000,133.350000
89.625000,132.950000
89.640224,132.873463
89.683579,132.808579
89.748463,132.765224
89.825000,132.750000
90.375000,132.750000
90.451537,132.765224
90.516421,132.808579
90.559776,132.873463
90.575000,132.950000
90.575000,133.350000
90.559776,133.426537
90.516421,133.491421
90.451537,133.534776
90.375000,133.550000
Z" /> 
<path style="fill:#000000; fill-opacity:1.000000; stroke:none;fill-rule:evenodd;"
d="M 108.880000,78.950000
108.830251,78.940104
108.788076,78.911924
108.759896,78.869749
108.750000,78.820000
108.750000,77.780000
108.759896,77.730251
108.788076,77.688076
108.830251,77.659896
108.880000,77.650000
113.120000,77.650000
113.169749,77.659896
113.211924,77.688076
113.240104,77.730251
113.250000,77.780000
113.250000,78.820000
113.240104,78.869749
113.211924,78.911924
113.169749,78.940104
113.120000,78.950000
Z" /> 
<path style="fill:#000000; fill-opacity:1.000000; stroke:none;fill-rule:evenodd;"
d="M 108.880000,81.450000
108.830251,81.440104
108.788076,81.411924
108.759896,81.369749
108.750000,81.320000
108.750000,80.280000
108.759896,80.230251
108.788076,80.188076
108.830251,80.159896
108.880000,80.150000
113.120000,80.150000
113.169749,80.159896
113.211924,80.188076
113.240104,80.230251
113.250000,80.280000
113.250000,81.320000
113.240104,81.369749
113.211924,81.411924
113.169749,81.440104
113.120000,81.450000
Z" /> 
<path style="fill:#000000; fill-opacity:1.000000; stroke:none;fill-rule:evenodd;"
d="M 108.880000,83.950000
108.830251,83.940104
108.788076,83.911924
108.759896,83.869749
108.750000,83.820000
108.750000,82.780000
108.759896,82.730251
108.788076,82.688076
108.830251,82.659896
108.880000,82.650000
113.120000,82.650000
113.169749,82.659896
113.211924,82.688076
113.240104,82.730251
113.250000,82.780000
113.250000,83.820000
113.240104,83.869749
113.211924,83.911924
113.169749,83.940104
113.120000,83.950000
Z" /> 
<path style="fill:#000000; fill-opacity:1.000000; stroke:none;fill-rule:evenodd;"
d="M 108.880000,86.450000
108.830251,86.440104
108.788076,86.411924
108.759896,86.369749
108.750000,86.320000
108.750000,85.280000
108.759896,85.230251
108.788076,85.188076
108.830251,85.159896
108.880000,85.150000
113.120000,85.150000
113.169749,85.159896
113.211924,85.188076
113.240104,85.230251
113.250000,85.280000
113.250000,86.320000
113.240104,86.369749
113.211924,86.411924
113.169749,86.440104
113.120000,86.450000
Z" /> 
<path style="fill:#000000; fill-opacity:1.000000; stroke:none;fill-rule:evenodd;"
d="M 112.730000,89.900000
112.661117,89.886298
112.602721,89.847279
112.563702,89.788883
112.550000,89.720000
112.550000,88.280000
112.563702,88.211117
112.602721,88.152721
112.661117,88.113702
112.730000,88.100000
116.270000,88.100000
116.338883,88.113702
116.397279,88.152721
116.436298,88.211117
116.450000,88.280000
116.450000,89.720000
116.436298,89.788883
116.397279,89.847279
116.338883,89.886298
116.270000,89.900000
Z" /> 
<path style="fill:#000000; fill-opacity:1.000000; stroke:none;fill-rule:evenodd;"
d="M 112.730000,76.000000
112.661117,75.986298
112.602721,75.947279
112.563702,75.888883
112.550000,75.820000
112.550000,74.380000
112.563702,74.311117
112.602721,74.252721
112.661117,74.213702
112.730000,74.200000
116.270000,74.200000
116.338883,74.213702
116.397279,74.252721
116.436298,74.311117
116.450000,74.380000
116.450000,75.820000
116.436298,75.888883
116.397279,75.947279
116.338883,75.986298
116.270000,76.000000
Z" /> 
<path style="fill:#000000; fill-opacity:1.000000; stroke:none;fill-rule:evenodd;"
d="M 120.006250,113.262500
120.089962,113.279151
120.160930,113.326570
120.208349,113.397538
120.225000,113.481250
120.225000,113.918750
120.208349,114.002462
120.160930,114.073430
120.089962,114.120849
120.006250,114.137500
119.493750,114.137500
119.410038,114.120849
119.339070,114.073430
119.291651,114.002462
119.275000,113.918750
119.275000,113.481250
119.291651,113.397538
119.339070,113.326570
119.410038,113.279151
119.493750,113.262500
Z" /> 
<path style="fill:#000000; fill-opacity:1.000000; stroke:none;fill-rule:evenodd;"
d="M 120.006250,114.837500
120.089962,114.854151
120.160930,114.901570
120.208349,114.972538
120.225000,115.056250
120.225000,115.493750
120.208349,115.577462
120.160930,115.648430
120.089962,115.695849
120.006250,115.712500
119.493750,115.712500
119.410038,115.695849
119.339070,115.648430
119.291651,115.577462
119.275000,115.493750
119.275000,115.056250
119.291651,114.972538
119.339070,114.901570
119.410038,114.854151
119.493750,114.837500
Z" /> 
<path style="fill:#000000; fill-opacity:1.000000; stroke:none;fill-rule:evenodd;"
d="M 136.256250,125.337500
136.339962,125.354151
136.410930,125.401570
136.458349,125.472538
136.475000,125.556250
136.475000,125.993750
136.458349,126.077462
136.410930,126.148430
136.339962,126.195849
136.256250,126.212500
135.743750,126.212500
135.660038,126.195849
135.589070,126.148430
135.541651,126.077462
135.525000,125.993750
135.525000,125.556250
135.541651,125.472538
135.589070,125.401570
135.660038,125.354151
135.743750,125.337500
Z" /> 
<path style="fill:#000000; fill-opacity:1.000000; stroke:none;fill-rule:evenodd;"
d="M 136.256250,126.912500
136.339962,126.929151
136.410930,126.976570
136.458349,127.047538
136.475000,127.131250
136.475000,127.568750
136.458349,127.652462
136.410930,127.723430
136.339962,127.770849
136.256250,127.787500
135.743750,127.787500
135.660038,127.770849
135.589070,127.723430
135.541651,127.652462
135.525000,127.568750
135.525000,127.131250
135.541651,127.047538
135.589070,126.976570
135.660038,126.929151
135.743750,126.912500
Z" /> 
<path style="fill:#000000; fill-opacity:1.000000; stroke:none;fill-rule:evenodd;"
d="M 124.630000,86.925000
124.580251,86.915104
124.538076,86.886924
124.509896,86.844749
124.500000,86.795000
124.500000,85.755000
124.509896,85.705251
124.538076,85.663076
124.580251,85.634896
124.630000,85.625000
128.870000,85.625000
128.919749,85.634896
128.961924,85.663076
128.990104,85.705251
129.000000,85.755000
129.000000,86.795000
128.990104,86.844749
128.961924,86.886924
128.919749,86.915104
128.870000,86.925000
Z" /> 
<path style="fill:#000000; fill-opacity:1.000000; stroke:none;fill-rule:evenodd;"
d="M 124.630000,89.425000
124.580251,89.415104
124.538076,89.386924
124.509896,89.344749
124.500000,89.295000
124.500000,88.255000
124.509896,88.205251
124.538076,88.163076
124.580251,88.134896
124.630000,88.125000
128.870000,88.125000
128.919749,88.134896
128.961924,88.163076
128.990104,88.205251
129.000000,88.255000
129.000000,89.295000
128.990104,89.344749
128.961924,89.386924
128.919749,89.415104
128.870000,89.425000
Z" /> 
<path style="fill:#000000; fill-opacity:1.000000; stroke:none;fill-rule:evenodd;"
d="M 124.630000,91.925000
124.580251,91.915104
124.538076,91.886924
124.509896,91.844749
124.500000,91.795000
124.500000,90.755000
124.509896,90.705251
124.538076,90.663076
124.580251,90.634896
124.630000,90.625000
128.870000,90.625000
128.919749,90.634896
128.961924,90.663076
128.990104,90.705251
129.000000,90.755000
129.000000,91.795000
128.990104,91.844749
128.961924,91.886924
128.919749,91.915104
128.870000,91.925000
Z" /> 
<path style="fill:#000000; fill-opacity:1.000000; stroke:none;fill-rule:evenodd;"
d="M 124.630000,94.425000
124.580251,94.415104
124.538076,94.386924
124.509896,94.344749
124.500000,94.295000
124.500000,93.255000
124.509896,93.205251
124.538076,93.163076
124.580251,93.134896
124.630000,93.125000
128.870000,93.125000
128.919749,93.134896
128.961924,93.163076
128.990104,93.205251
129.000000,93.255000
129.000000,94.295000
128.990104,94.344749
128.961924,94.386924
128.919749,94.415104
128.870000,94.425000
Z" /> 
<path style="fill:#000000; fill-opacity:1.000000; stroke:none;fill-rule:evenodd;"
d="M 128.480000,97.875000
128.411117,97.861298
128.352721,97.822279
128.313702,97.763883
128.300000,97.695000
128.300000,96.255000
128.313702,96.186117
128.352721,96.127721
128.411117,96.088702
128.480000,96.075000
132.020000,96.075000
132.088883,96.088702
132.147279,96.127721
132.186298,96.186117
132.200000,96.255000
132.200000,97.695000
132.186298,97.763883
132.147279,97.822279
132.088883,97.861298
132.020000,97.875000
Z" /> 
<path style="fill:#000000; fill-opacity:1.000000; stroke:none;fill-rule:evenodd;"
d="M 128.480000,83.975000
128.411117,83.961298
128.352721,83.922279
128.313702,83.863883
128.300000,83.795000
128.300000,82.355000
128.313702,82.286117
128.352721,82.227721
128.411117,82.188702
128.480000,82.175000
132.020000,82.175000
132.088883,82.188702
132.147279,82.227721
132.186298,82.286117
132.200000,82.355000
132.200000,83.795000
132.186298,83.863883
132.147279,83.922279
132.088883,83.961298
132.020000,83.975000
Z" /> 
<path style="fill:#000000; fill-opacity:1.000000; stroke:none;fill-rule:evenodd;"
d="M 119.475000,99.325000
119.398463,99.309776
119.333579,99.266421
119.290224,99.201537
119.275000,99.125000
119.275000,98.725000
119.290224,98.648463
119.333579,98.583579
119.398463,98.540224
119.475000,98.525000
120.025000,98.525000
120.101537,98.540224
120.166421,98.583579
120.209776,98.648463
120.225000,98.725000
120.225000,99.125000
120.209776,99.201537
120.166421,99.266421
120.101537,99.309776
120.025000,99.325000
Z" /> 
<path style="fill:#000000; fill-opacity:1.000000; stroke:none;fill-rule:evenodd;"
d="M 119.475000,97.675000
119.398463,97.659776
119.333579,97.616421
119.290224,97.551537
119.275000,97.475000
119.275000,97.075000
119.290224,96.998463
119.333579,96.933579
119.398463,96.890224
119.475000,96.875000
120.025000,96.875000
120.101537,96.890224
120.166421,96.933579
120.209776,96.998463
120.225000,97.075000
120.225000,97.475000
120.209776,97.551537
120.166421,97.616421
120.101537,97.659776
120.025000,97.675000
Z" /> 
<path style="fill:#000000; fill-opacity:1.000000; stroke:none;fill-rule:evenodd;"
d="M 135.725000,130.900000
135.648463,130.884776
135.583579,130.841421
135.540224,130.776537
135.525000,130.700000
135.525000,130.300000
135.540224,130.223463
135.583579,130.158579
135.648463,130.115224
135.725000,130.100000
136.275000,130.100000
136.351537,130.115224
136.416421,130.158579
136.459776,130.223463
136.475000,130.300000
136.475000,130.700000
136.459776,130.776537
136.416421,130.841421
136.351537,130.884776
136.275000,130.900000
Z" /> 
<path style="fill:#000000; fill-opacity:1.000000; stroke:none;fill-rule:evenodd;"
d="M 135.725000,129.250000
135.648463,129.234776
135.583579,129.191421
135.540224,129.126537
135.525000,129.050000
135.525000,128.650000
135.540224,128.573463
135.583579,128.508579
135.648463,128.465224
135.725000,128.450000
136.275000,128.450000
136.351537,128.465224
136.416421,128.508579
136.459776,128.573463
136.475000,128.650000
136.475000,129.050000
136.459776,129.126537
136.416421,129.191421
136.351537,129.234776
136.275000,129.250000
Z" /> 
<path style="fill:#000000; fill-opacity:1.000000; stroke:none;fill-rule:evenodd;"
d="M 124.630000,106.925000
124.580251,106.915104
124.538076,106.886924
124.509896,106.844749
124.500000,106.795000
124.500000,105.755000
124.509896,105.705251
124.538076,105.663076
124.580251,105.634896
124.630000,105.625000
128.870000,105.625000
128.919749,105.634896
128.961924,105.663076
128.990104,105.705251
129.000000,105.755000
129.000000,106.795000
128.990104,106.844749
128.961924,106.886924
128.919749,106.915104
128.870000,106.925000
Z" /> 
<path style="fill:#000000; fill-opacity:1.000000; stroke:none;fill-rule:evenodd;"
d="M 124.630000,109.425000
124.580251,109.415104
124.538076,109.386924
124.509896,109.344749
124.500000,109.295000
124.500000,108.255000
124.509896,108.205251
124.538076,108.163076
124.580251,108.134896
124.630000,108.125000
128.870000,108.125000
128.919749,108.134896
128.961924,108.163076
128.990104,108.205251
129.000000,108.255000
129.000000,109.295000
128.990104,109.344749
128.961924,109.386924
128.919749,109.415104
128.870000,109.425000
Z" /> 
<path style="fill:#000000; fill-opacity:1.000000; stroke:none;fill-rule:evenodd;"
d="M 124.630000,111.925000
124.580251,111.915104
124.538076,111.886924
124.509896,111.844749
124.500000,111.795000
124.500000,110.755000
124.509896,110.705251
124.538076,110.663076
124.580251,110.634896
124.630000,110.625000
128.870000,110.625000
128.919749,110.634896
128.961924,110.663076
128.990104,110.705251
129.000000,110.755000
129.000000,111.795000
128.990104,111.844749
128.961924,111.886924
128.919749,111.915104
128.870000,111.925000
Z" /> 
<path style="fill:#000000; fill-opacity:1.000000; stroke:none;fill-rule:evenodd;"
d="M 124.630000,114.425000
124.580251,114.415104
124.538076,114.386924
124.509896,114.344749
124.500000,114.295000
124.500000,113.255000
124.509896,113.205251
124.538076,113.163076
124.580251,113.134896
124.630000,113.125000
128.870000,113.125000
128.919749,113.134896
128.961924,113.163076
128.990104,113.205251
129.000000,113.255000
129.000000,114.295000
128.990104,114.344749
128.961924,114.386924
128.919749,114.415104
128.870000,114.425000
Z" /> 
<path style="fill:#000000; fill-opacity:1.000000; stroke:none;fill-rule:evenodd;"
d="M 128.480000,117.875000
128.411117,117.861298
128.352721,117.822279
128.313702,117.763883
128.300000,117.695000
128.300000,116.255000
128.313702,116.186117
128.352721,116.127721
128.411117,116.088702
128.480000,116.075000
132.020000,116.075000
132.088883,116.088702
132.147279,116.127721
132.186298,116.186117
132.200000,116.255000
132.200000,117.695000
132.186298,117.763883
132.147279,117.822279
132.088883,117.861298
132.020000,117.875000
Z" /> 
<path style="fill:#000000; fill-opacity:1.000000; stroke:none;fill-rule:evenodd;"
d="M 128.480000,103.975000
128.411117,103.961298
128.352721,103.922279
128.313702,103.863883
128.300000,103.795000
128.300000,102.355000
128.313702,102.286117
128.352721,102.227721
128.411117,102.188702
128.480000,102.175000
132.020000,102.175000
132.088883,102.188702
132.147279,102.227721
132.186298,102.286117
132.200000,102.355000
132.200000,103.795000
132.186298,103.863883
132.147279,103.922279
132.088883,103.961298
132.020000,103.975000
Z" /> 
<path style="fill:#000000; fill-opacity:1.000000; stroke:none;fill-rule:evenodd;"
d="M 109.475000,142.650000
109.463582,142.707403
109.431066,142.756066
109.382403,142.788582
109.325000,142.800000
107.675000,142.800000
107.617597,142.788582
107.568934,142.756066
107.536418,142.707403
107.525000,142.650000
107.525000,142.350000
107.536418,142.292597
107.568934,142.243934
107.617597,142.211418
107.675000,142.200000
109.325000,142.200000
109.382403,142.211418
109.431066,142.243934
109.463582,142.292597
109.475000,142.350000
Z" /> 
<path style="fill:#000000; fill-opacity:1.000000; stroke:none;fill-rule:evenodd;"
d="M 109.475000,141.380000
109.463582,141.437403
109.431066,141.486066
109.382403,141.518582
109.325000,141.530000
107.675000,141.530000
107.617597,141.518582
107.568934,141.486066
107.536418,141.437403
107.525000,141.380000
107.525000,141.080000
107.536418,141.022597
107.568934,140.973934
107.617597,140.941418
107.675000,140.930000
109.325000,140.930000
109.382403,140.941418
109.431066,140.973934
109.463582,141.022597
109.475000,141.080000
Z" /> 
<path style="fill:#000000; fill-opacity:1.000000; stroke:none;fill-rule:evenodd;"
d="M 109.475000,140.110000
109.463582,140.167403
109.431066,140.216066
109.382403,140.248582
109.325000,140.260000
107.675000,140.260000
107.617597,140.248582
107.568934,140.216066
107.536418,140.167403
107.525000,140.110000
107.525000,139.810000
107.536418,139.752597
107.568934,139.703934
107.617597,139.671418
107.675000,139.660000
109.325000,139.660000
109.382403,139.671418
109.431066,139.703934
109.463582,139.752597
109.475000,139.810000
Z" /> 
<path style="fill:#000000; fill-opacity:1.000000; stroke:none;fill-rule:evenodd;"
d="M 109.475000,138.840000
109.463582,138.897403
109.431066,138.946066
109.382403,138.978582
109.325000,138.990000
107.675000,138.990000
107.617597,138.978582
107.568934,138.946066
107.536418,138.897403
107.525000,138.840000
107.525000,138.540000
107.536418,138.482597
107.568934,138.433934
107.617597,138.401418
107.675000,138.390000
109.325000,138.390000
109.382403,138.401418
109.431066,138.433934
109.463582,138.482597
109.475000,138.540000
Z" /> 
<path style="fill:#000000; fill-opacity:1.000000; stroke:none;fill-rule:evenodd;"
d="M 109.475000,137.570000
109.463582,137.627403
109.431066,137.676066
109.382403,137.708582
109.325000,137.720000
107.675000,137.720000
107.617597,137.708582
107.568934,137.676066
107.536418,137.627403
107.525000,137.570000
107.525000,137.270000
107.536418,137.212597
107.568934,137.163934
107.617597,137.131418
107.675000,137.120000
109.325000,137.120000
109.382403,137.131418
109.431066,137.163934
109.463582,137.212597
109.475000,137.270000
Z" /> 
<path style="fill:#000000; fill-opacity:1.000000; stroke:none;fill-rule:evenodd;"
d="M 109.475000,136.300000
109.463582,136.357403
109.431066,136.406066
109.382403,136.438582
109.325000,136.450000
107.675000,136.450000
107.617597,136.438582
107.568934,136.406066
107.536418,136.357403
107.525000,136.300000
107.525000,136.000000
107.536418,135.942597
107.568934,135.893934
107.617597,135.861418
107.675000,135.850000
109.325000,135.850000
109.382403,135.861418
109.431066,135.893934
109.463582,135.942597
109.475000,136.000000
Z" /> 
<path style="fill:#000000; fill-opacity:1.000000; stroke:none;fill-rule:evenodd;"
d="M 109.475000,135.030000
109.463582,135.087403
109.431066,135.136066
109.382403,135.168582
109.325000,135.180000
107.675000,135.180000
107.617597,135.168582
107.568934,135.136066
107.536418,135.087403
107.525000,135.030000
107.525000,134.730000
107.536418,134.672597
107.568934,134.623934
107.617597,134.591418
107.675000,134.580000
109.325000,134.580000
109.382403,134.591418
109.431066,134.623934
109.463582,134.672597
109.475000,134.730000
Z" /> 
<path style="fill:#000000; fill-opacity:1.000000; stroke:none;fill-rule:evenodd;"
d="M 109.475000,133.760000
109.463582,133.817403
109.431066,133.866066
109.382403,133.898582
109.325000,133.910000
107.675000,133.910000
107.617597,133.898582
107.568934,133.866066
107.536418,133.817403
107.525000,133.760000
107.525000,133.460000
107.536418,133.402597
107.568934,133.353934
107.617597,133.321418
107.675000,133.310000
109.325000,133.310000
109.382403,133.321418
109.431066,133.353934
109.463582,133.402597
109.475000,133.460000
Z" /> 
<path style="fill:#000000; fill-opacity:1.000000; stroke:none;fill-rule:evenodd;"
d="M 104.525000,133.760000
104.513582,133.817403
104.481066,133.866066
104.432403,133.898582
104.375000,133.910000
102.725000,133.910000
102.667597,133.898582
102.618934,133.866066
102.586418,133.817403
102.575000,133.760000
102.575000,133.460000
102.586418,133.402597
102.618934,133.353934
102.667597,133.321418
102.725000,133.310000
104.375000,133.310000
104.432403,133.321418
104.481066,133.353934
104.513582,133.402597
104.525000,133.460000
Z" /> 
<path style="fill:#000000; fill-opacity:1.000000; stroke:none;fill-rule:evenodd;"
d="M 104.525000,135.030000
104.513582,135.087403
104.481066,135.136066
104.432403,135.168582
104.375000,135.180000
102.725000,135.180000
102.667597,135.168582
102.618934,135.136066
102.586418,135.087403
102.575000,135.030000
102.575000,134.730000
102.586418,134.672597
102.618934,134.623934
102.667597,134.591418
102.725000,134.580000
104.375000,134.580000
104.432403,134.591418
104.481066,134.623934
104.513582,134.672597
104.525000,134.730000
Z" /> 
<path style="fill:#000000; fill-opacity:1.000000; stroke:none;fill-rule:evenodd;"
d="M 104.525000,136.300000
104.513582,136.357403
104.481066,136.406066
104.432403,136.438582
104.375000,136.450000
102.725000,136.450000
102.667597,136.438582
102.618934,136.406066
102.586418,136.357403
102.575000,136.300000
102.575000,136.000000
102.586418,135.942597
102.618934,135.893934
102.667597,135.861418
102.725000,135.850000
104.375000,135.850000
104.432403,135.861418
104.481066,135.893934
104.513582,135.942597
104.525000,136.000000
Z" /> 
<path style="fill:#000000; fill-opacity:1.000000; stroke:none;fill-rule:evenodd;"
d="M 104.525000,137.570000
104.513582,137.627403
104.481066,137.676066
104.432403,137.708582
104.375000,137.720000
102.725000,137.720000
102.667597,137.708582
102.618934,137.676066
102.586418,137.627403
102.575000,137.570000
102.575000,137.270000
102.586418,137.212597
102.618934,137.163934
102.667597,137.131418
102.725000,137.120000
104.375000,137.120000
104.432403,137.131418
104.481066,137.163934
104.513582,137.212597
104.525000,137.270000
Z" /> 
<path style="fill:#000000; fill-opacity:1.000000; stroke:none;fill-rule:evenodd;"
d="M 104.525000,138.840000
104.513582,138.897403
104.481066,138.946066
104.432403,138.978582
104.375000,138.990000
102.725000,138.990000
102.667597,138.978582
102.618934,138.946066
102.586418,138.897403
102.575000,138.840000
102.575000,138.540000
102.586418,138.482597
102.618934,138.433934
102.667597,138.401418
102.725000,138.390000
104.375000,138.390000
104.432403,138.401418
104.481066,138.433934
104.513582,138.482597
104.525000,138.540000
Z" /> 
<path style="fill:#000000; fill-opacity:1.000000; stroke:none;fill-rule:evenodd;"
d="M 104.525000,140.110000
104.513582,140.167403
104.481066,140.216066
104.432403,140.248582
104.375000,140.260000
102.725000,140.260000
102.667597,140.248582
102.618934,140.216066
102.586418,140.167403
102.575000,140.110000
102.575000,139.810000
102.586418,139.752597
102.618934,139.703934
102.667597,139.671418
102.725000,139.660000
104.375000,139.660000
104.432403,139.671418
104.481066,139.703934
104.513582,139.752597
104.525000,139.810000
Z" /> 
<path style="fill:#000000; fill-opacity:1.000000; stroke:none;fill-rule:evenodd;"
d="M 104.525000,141.380000
104.513582,141.437403
104.481066,141.486066
104.432403,141.518582
104.375000,141.530000
102.725000,141.530000
102.667597,141.518582
102.618934,141.486066
102.586418,141.437403
102.575000,141.380000
102.575000,141.080000
102.586418,141.022597
102.618934,140.973934
102.667597,140.941418
102.725000,140.930000
104.375000,140.930000
104.432403,140.941418
104.481066,140.973934
104.513582,141.022597
104.525000,141.080000
Z" /> 
<path style="fill:#000000; fill-opacity:1.000000; stroke:none;fill-rule:evenodd;"
d="M 104.525000,142.650000
104.513582,142.707403
104.481066,142.756066
104.432403,142.788582
104.375000,142.800000
102.725000,142.800000
102.667597,142.788582
102.618934,142.756066
102.586418,142.707403
102.575000,142.650000
102.575000,142.350000
102.586418,142.292597
102.618934,142.243934
102.667597,142.211418
102.725000,142.200000
104.375000,142.200000
104.432403,142.211418
104.481066,142.243934
104.513582,142.292597
104.525000,142.350000
Z" /> 
<path style="fill:#000000; fill-opacity:1.000000; stroke:none;fill-rule:evenodd;"
d="M 98.525000,139.560000
98.513582,139.617403
98.481066,139.666066
98.432403,139.698582
98.375000,139.710000
96.725000,139.710000
96.667597,139.698582
96.618934,139.666066
96.586418,139.617403
96.575000,139.560000
96.575000,139.260000
96.586418,139.202597
96.618934,139.153934
96.667597,139.121418
96.725000,139.110000
98.375000,139.110000
98.432403,139.121418
98.481066,139.153934
98.513582,139.202597
98.525000,139.260000
Z" /> 
<path style="fill:#000000; fill-opacity:1.000000; stroke:none;fill-rule:evenodd;"
d="M 98.525000,138.290000
98.513582,138.347403
98.481066,138.396066
98.432403,138.428582
98.375000,138.440000
96.725000,138.440000
96.667597,138.428582
96.618934,138.396066
96.586418,138.347403
96.575000,138.290000
96.575000,137.990000
96.586418,137.932597
96.618934,137.883934
96.667597,137.851418
96.725000,137.840000
98.375000,137.840000
98.432403,137.851418
98.481066,137.883934
98.513582,137.932597
98.525000,137.990000
Z" /> 
<path style="fill:#000000; fill-opacity:1.000000; stroke:none;fill-rule:evenodd;"
d="M 98.525000,137.020000
98.513582,137.077403
98.481066,137.126066
98.432403,137.158582
98.375000,137.170000
96.725000,137.170000
96.667597,137.158582
96.618934,137.126066
96.586418,137.077403
96.575000,137.020000
96.575000,136.720000
96.586418,136.662597
96.618934,136.613934
96.667597,136.581418
96.725000,136.570000
98.375000,136.570000
98.432403,136.581418
98.481066,136.613934
98.513582,136.662597
98.525000,136.720000
Z" /> 
<path style="fill:#000000; fill-opacity:1.000000; stroke:none;fill-rule:evenodd;"
d="M 98.525000,135.750000
98.513582,135.807403
98.481066,135.856066
98.432403,135.888582
98.375000,135.900000
96.725000,135.900000
96.667597,135.888582
96.618934,135.856066
96.586418,135.807403
96.575000,135.750000
96.575000,135.450000
96.586418,135.392597
96.618934,135.343934
96.667597,135.311418
96.725000,135.300000
98.375000,135.300000
98.432403,135.311418
98.481066,135.343934
98.513582,135.392597
98.525000,135.450000
Z" /> 
<path style="fill:#000000; fill-opacity:1.000000; stroke:none;fill-rule:evenodd;"
d="M 98.525000,134.480000
98.513582,134.537403
98.481066,134.586066
98.432403,134.618582
98.375000,134.630000
96.725000,134.630000
96.667597,134.618582
96.618934,134.586066
96.586418,134.537403
96.575000,134.480000
96.575000,134.180000
96.586418,134.122597
96.618934,134.073934
96.667597,134.041418
96.725000,134.030000
98.375000,134.030000
98.432403,134.041418
98.481066,134.073934
98.513582,134.122597
98.525000,134.180000
Z" /> 
<path style="fill:#000000; fill-opacity:1.000000; stroke:none;fill-rule:evenodd;"
d="M 98.525000,133.210000
98.513582,133.267403
98.481066,133.316066
98.432403,133.348582
98.375000,133.360000
96.725000,133.360000
96.667597,133.348582
96.618934,133.316066
96.586418,133.267403
96.575000,133.210000
96.575000,132.910000
96.586418,132.852597
96.618934,132.803934
96.667597,132.771418
96.725000,132.760000
98.375000,132.760000
98.432403,132.771418
98.481066,132.803934
98.513582,132.852597
98.525000,132.910000
Z" /> 
<path style="fill:#000000; fill-opacity:1.000000; stroke:none;fill-rule:evenodd;"
d="M 98.525000,131.940000
98.513582,131.997403
98.481066,132.046066
98.432403,132.078582
98.375000,132.090000
96.725000,132.090000
96.667597,132.078582
96.618934,132.046066
96.586418,131.997403
96.575000,131.940000
96.575000,131.640000
96.586418,131.582597
96.618934,131.533934
96.667597,131.501418
96.725000,131.490000
98.375000,131.490000
98.432403,131.501418
98.481066,131.533934
98.513582,131.582597
98.525000,131.640000
Z" /> 
<path style="fill:#000000; fill-opacity:1.000000; stroke:none;fill-rule:evenodd;"
d="M 98.525000,130.670000
98.513582,130.727403
98.481066,130.776066
98.432403,130.808582
98.375000,130.820000
96.725000,130.820000
96.667597,130.808582
96.618934,130.776066
96.586418,130.727403
96.575000,130.670000
96.575000,130.370000
96.586418,130.312597
96.618934,130.263934
96.667597,130.231418
96.725000,130.220000
98.375000,130.220000
98.432403,130.231418
98.481066,130.263934
98.513582,130.312597
98.525000,130.370000
Z" /> 
<path style="fill:#000000; fill-opacity:1.000000; stroke:none;fill-rule:evenodd;"
d="M 93.575000,130.670000
93.563582,130.727403
93.531066,130.776066
93.482403,130.808582
93.425000,130.820000
91.775000,130.820000
91.717597,130.808582
91.668934,130.776066
91.636418,130.727403
91.625000,130.670000
91.625000,130.370000
91.636418,130.312597
91.668934,130.263934
91.717597,130.231418
91.775000,130.220000
93.425000,130.220000
93.482403,130.231418
93.531066,130.263934
93.563582,130.312597
93.575000,130.370000
Z" /> 
<path style="fill:#000000; fill-opacity:1.000000; stroke:none;fill-rule:evenodd;"
d="M 93.575000,131.940000
93.563582,131.997403
93.531066,132.046066
93.482403,132.078582
93.425000,132.090000
91.775000,132.090000
91.717597,132.078582
91.668934,132.046066
91.636418,131.997403
91.625000,131.940000
91.625000,131.640000
91.636418,131.582597
91.668934,131.533934
91.717597,131.501418
91.775000,131.490000
93.425000,131.490000
93.482403,131.501418
93.531066,131.533934
93.563582,131.582597
93.575000,131.640000
Z" /> 
<path style="fill:#000000; fill-opacity:1.000000; stroke:none;fill-rule:evenodd;"
d="M 93.575000,133.210000
93.563582,133.267403
93.531066,133.316066
93.482403,133.348582
93.425000,133.360000
91.775000,133.360000
91.717597,133.348582
91.668934,133.316066
91.636418,133.267403
91.625000,133.210000
91.625000,132.910000
91.636418,132.852597
91.668934,132.803934
91.717597,132.771418
91.775000,132.760000
93.425000,132.760000
93.482403,132.771418
93.531066,132.803934
93.563582,132.852597
93.575000,132.910000
Z" /> 
<path style="fill:#000000; fill-opacity:1.000000; stroke:none;fill-rule:evenodd;"
d="M 93.575000,134.480000
93.563582,134.537403
93.531066,134.586066
93.482403,134.618582
93.425000,134.630000
91.775000,134.630000
91.717597,134.618582
91.668934,134.586066
91.636418,134.537403
91.625000,134.480000
91.625000,134.180000
91.636418,134.122597
91.668934,134.073934
91.717597,134.041418
91.775000,134.030000
93.425000,134.030000
93.482403,134.041418
93.531066,134.073934
93.563582,134.122597
93.575000,134.180000
Z" /> 
<path style="fill:#000000; fill-opacity:1.000000; stroke:none;fill-rule:evenodd;"
d="M 93.575000,135.750000
93.563582,135.807403
93.531066,135.856066
93.482403,135.888582
93.425000,135.900000
91.775000,135.900000
91.717597,135.888582
91.668934,135.856066
91.636418,135.807403
91.625000,135.750000
91.625000,135.450000
91.636418,135.392597
91.668934,135.343934
91.717597,135.311418
91.775000,135.300000
93.425000,135.300000
93.482403,135.311418
93.531066,135.343934
93.563582,135.392597
93.575000,135.450000
Z" /> 
<path style="fill:#000000; fill-opacity:1.000000; stroke:none;fill-rule:evenodd;"
d="M 93.575000,137.020000
93.563582,137.077403
93.531066,137.126066
93.482403,137.158582
93.425000,137.170000
91.775000,137.170000
91.717597,137.158582
91.668934,137.126066
91.636418,137.077403
91.625000,137.020000
91.625000,136.720000
91.636418,136.662597
91.668934,136.613934
91.717597,136.581418
91.775000,136.570000
93.425000,136.570000
93.482403,136.581418
93.531066,136.613934
93.563582,136.662597
93.575000,136.720000
Z" /> 
<path style="fill:#000000; fill-opacity:1.000000; stroke:none;fill-rule:evenodd;"
d="M 93.575000,138.290000
93.563582,138.347403
93.531066,138.396066
93.482403,138.428582
93.425000,138.440000
91.775000,138.440000
91.717597,138.428582
91.668934,138.396066
91.636418,138.347403
91.625000,138.290000
91.625000,137.990000
91.636418,137.932597
91.668934,137.883934
91.717597,137.851418
91.775000,137.840000
93.425000,137.840000
93.482403,137.851418
93.531066,137.883934
93.563582,137.932597
93.575000,137.990000
Z" /> 
<path style="fill:#000000; fill-opacity:1.000000; stroke:none;fill-rule:evenodd;"
d="M 93.575000,139.560000
93.563582,139.617403
93.531066,139.666066
93.482403,139.698582
93.425000,139.710000
91.775000,139.710000
91.717597,139.698582
91.668934,139.666066
91.636418,139.617403
91.625000,139.560000
91.625000,139.260000
91.636418,139.202597
91.668934,139.153934
91.717597,139.121418
91.775000,139.110000
93.425000,139.110000
93.482403,139.121418
93.531066,139.153934
93.563582,139.202597
93.575000,139.260000
Z" /> 
<path style="fill:#000000; fill-opacity:1.000000; stroke:none;fill-rule:evenodd;"
d="M 135.225000,87.400000
135.148463,87.384776
135.083579,87.341421
135.040224,87.276537
135.025000,87.200000
135.025000,86.800000
135.040224,86.723463
135.083579,86.658579
135.148463,86.615224
135.225000,86.600000
135.775000,86.600000
135.851537,86.615224
135.916421,86.658579
135.959776,86.723463
135.975000,86.800000
135.975000,87.200000
135.959776,87.276537
135.916421,87.341421
135.851537,87.384776
135.775000,87.400000
Z" /> 
<path style="fill:#000000; fill-opacity:1.000000; stroke:none;fill-rule:evenodd;"
d="M 135.225000,85.750000
135.148463,85.734776
135.083579,85.691421
135.040224,85.626537
135.025000,85.550000
135.025000,85.150000
135.040224,85.073463
135.083579,85.008579
135.148463,84.965224
135.225000,84.950000
135.775000,84.950000
135.851537,84.965224
135.916421,85.008579
135.959776,85.073463
135.975000,85.150000
135.975000,85.550000
135.959776,85.626537
135.916421,85.691421
135.851537,85.734776
135.775000,85.750000
Z" /> 
<path style="fill:#000000; fill-opacity:1.000000; stroke:none;fill-rule:evenodd;"
d="M 135.225000,107.337500
135.148463,107.322276
135.083579,107.278921
135.040224,107.214037
135.025000,107.137500
135.025000,106.737500
135.040224,106.660963
135.083579,106.596079
135.148463,106.552724
135.225000,106.537500
135.775000,106.537500
135.851537,106.552724
135.916421,106.596079
135.959776,106.660963
135.975000,106.737500
135.975000,107.137500
135.959776,107.214037
135.916421,107.278921
135.851537,107.322276
135.775000,107.337500
Z" /> 
<path style="fill:#000000; fill-opacity:1.000000; stroke:none;fill-rule:evenodd;"
d="M 135.225000,105.687500
135.148463,105.672276
135.083579,105.628921
135.040224,105.564037
135.025000,105.487500
135.025000,105.087500
135.040224,105.010963
135.083579,104.946079
135.148463,104.902724
135.225000,104.887500
135.775000,104.887500
135.851537,104.902724
135.916421,104.946079
135.959776,105.010963
135.975000,105.087500
135.975000,105.487500
135.959776,105.564037
135.916421,105.628921
135.851537,105.672276
135.775000,105.687500
Z" /> 
<path style="fill:#000000; fill-opacity:1.000000; stroke:none;fill-rule:evenodd;"
d="M 108.880000,118.950000
108.830251,118.940104
108.788076,118.911924
108.759896,118.869749
108.750000,118.820000
108.750000,117.780000
108.759896,117.730251
108.788076,117.688076
108.830251,117.659896
108.880000,117.650000
113.120000,117.650000
113.169749,117.659896
113.211924,117.688076
113.240104,117.730251
113.250000,117.780000
113.250000,118.820000
113.240104,118.869749
113.211924,118.911924
113.169749,118.940104
113.120000,118.950000
Z" /> 
<path style="fill:#000000; fill-opacity:1.000000; stroke:none;fill-rule:evenodd;"
d="M 108.880000,121.450000
108.830251,121.440104
108.788076,121.411924
108.759896,121.369749
108.750000,121.320000
108.750000,120.280000
108.759896,120.230251
108.788076,120.188076
108.830251,120.159896
108.880000,120.150000
113.120000,120.150000
113.169749,120.159896
113.211924,120.188076
113.240104,120.230251
113.250000,120.280000
113.250000,121.320000
113.240104,121.369749
113.211924,121.411924
113.169749,121.440104
113.120000,121.450000
Z" /> 
<path style="fill:#000000; fill-opacity:1.000000; stroke:none;fill-rule:evenodd;"
d="M 108.880000,123.950000
108.830251,123.940104
108.788076,123.911924
108.759896,123.869749
108.750000,123.820000
108.750000,122.780000
108.759896,122.730251
108.788076,122.688076
108.830251,122.659896
108.880000,122.650000
113.120000,122.650000
113.169749,122.659896
113.211924,122.688076
113.240104,122.730251
113.250000,122.780000
113.250000,123.820000
113.240104,123.869749
113.211924,123.911924
113.169749,123.940104
113.120000,123.950000
Z" /> 
<path style="fill:#000000; fill-opacity:1.000000; stroke:none;fill-rule:evenodd;"
d="M 108.880000,126.450000
108.830251,126.440104
108.788076,126.411924
108.759896,126.369749
108.750000,126.320000
108.750000,125.280000
108.759896,125.230251
108.788076,125.188076
108.830251,125.159896
108.880000,125.150000
113.120000,125.150000
113.169749,125.159896
113.211924,125.188076
113.240104,125.230251
113.250000,125.280000
113.250000,126.320000
113.240104,126.369749
113.211924,126.411924
113.169749,126.440104
113.120000,126.450000
Z" /> 
<path style="fill:#000000; fill-opacity:1.000000; stroke:none;fill-rule:evenodd;"
d="M 112.730000,129.900000
112.661117,129.886298
112.602721,129.847279
112.563702,129.788883
112.550000,129.720000
112.550000,128.280000
112.563702,128.211117
112.602721,128.152721
112.661117,128.113702
112.730000,128.100000
116.270000,128.100000
116.338883,128.113702
116.397279,128.152721
116.436298,128.211117
116.450000,128.280000
116.450000,129.720000
116.436298,129.788883
116.397279,129.847279
116.338883,129.886298
116.270000,129.900000
Z" /> 
<path style="fill:#000000; fill-opacity:1.000000; stroke:none;fill-rule:evenodd;"
d="M 112.730000,116.000000
112.661117,115.986298
112.602721,115.947279
112.563702,115.888883
112.550000,115.820000
112.550000,114.380000
112.563702,114.311117
112.602721,114.252721
112.661117,114.213702
112.730000,114.200000
116.270000,114.200000
116.338883,114.213702
116.397279,114.252721
116.436298,114.311117
116.450000,114.380000
116.450000,115.820000
116.436298,115.888883
116.397279,115.947279
116.338883,115.986298
116.270000,116.000000
Z" /> 
<path style="fill:#000000; fill-opacity:1.000000; stroke:none;fill-rule:evenodd;"
d="M 86.125000,82.500000
86.048463,82.484776
85.983579,82.441421
85.940224,82.376537
85.925000,82.300000
85.925000,81.900000
85.940224,81.823463
85.983579,81.758579
86.048463,81.715224
86.125000,81.700000
86.675000,81.700000
86.751537,81.715224
86.816421,81.758579
86.859776,81.823463
86.875000,81.900000
86.875000,82.300000
86.859776,82.376537
86.816421,82.441421
86.751537,82.484776
86.675000,82.500000
Z" /> 
<path style="fill:#000000; fill-opacity:1.000000; stroke:none;fill-rule:evenodd;"
d="M 86.125000,80.850000
86.048463,80.834776
85.983579,80.791421
85.940224,80.726537
85.925000,80.650000
85.925000,80.250000
85.940224,80.173463
85.983579,80.108579
86.048463,80.065224
86.125000,80.050000
86.675000,80.050000
86.751537,80.065224
86.816421,80.108579
86.859776,80.173463
86.875000,80.250000
86.875000,80.650000
86.859776,80.726537
86.816421,80.791421
86.751537,80.834776
86.675000,80.850000
Z" /> 
<path style="fill:#000000; fill-opacity:1.000000; stroke:none;fill-rule:evenodd;"
d="M 120.006250,74.087500
120.089962,74.104151
120.160930,74.151570
120.208349,74.222538
120.225000,74.306250
120.225000,74.743750
120.208349,74.827462
120.160930,74.898430
120.089962,74.945849
120.006250,74.962500
119.493750,74.962500
119.410038,74.945849
119.339070,74.898430
119.291651,74.827462
119.275000,74.743750
119.275000,74.306250
119.291651,74.222538
119.339070,74.151570
119.410038,74.104151
119.493750,74.087500
Z" /> 
<path style="fill:#000000; fill-opacity:1.000000; stroke:none;fill-rule:evenodd;"
d="M 120.006250,75.662500
120.089962,75.679151
120.160930,75.726570
120.208349,75.797538
120.225000,75.881250
120.225000,76.318750
120.208349,76.402462
120.160930,76.473430
120.089962,76.520849
120.006250,76.537500
119.493750,76.537500
119.410038,76.520849
119.339070,76.473430
119.291651,76.402462
119.275000,76.318750
119.275000,75.881250
119.291651,75.797538
119.339070,75.726570
119.410038,75.679151
119.493750,75.662500
Z" /> 
<path style="fill:#000000; fill-opacity:1.000000; stroke:none;fill-rule:evenodd;"
d="M 124.630000,126.925000
124.580251,126.915104
124.538076,126.886924
124.509896,126.844749
124.500000,126.795000
124.500000,125.755000
124.509896,125.705251
124.538076,125.663076
124.580251,125.634896
124.630000,125.625000
128.870000,125.625000
128.919749,125.634896
128.961924,125.663076
128.990104,125.705251
129.000000,125.755000
129.000000,126.795000
128.990104,126.844749
128.961924,126.886924
128.919749,126.915104
128.870000,126.925000
Z" /> 
<path style="fill:#000000; fill-opacity:1.000000; stroke:none;fill-rule:evenodd;"
d="M 124.630000,129.425000
124.580251,129.415104
124.538076,129.386924
124.509896,129.344749
124.500000,129.295000
124.500000,128.255000
124.509896,128.205251
124.538076,128.163076
124.580251,128.134896
124.630000,128.125000
128.870000,128.125000
128.919749,128.134896
128.961924,128.163076
128.990104,128.205251
129.000000,128.255000
129.000000,129.295000
128.990104,129.344749
128.961924,129.386924
128.919749,129.415104
128.870000,129.425000
Z" /> 
<path style="fill:#000000; fill-opacity:1.000000; stroke:none;fill-rule:evenodd;"
d="M 124.630000,131.925000
124.580251,131.915104
124.538076,131.886924
124.509896,131.844749
124.500000,131.795000
124.500000,130.755000
124.509896,130.705251
124.538076,130.663076
124.580251,130.634896
124.630000,130.625000
128.870000,130.625000
128.919749,130.634896
128.961924,130.663076
128.990104,130.705251
129.000000,130.755000
129.000000,131.795000
128.990104,131.844749
128.961924,131.886924
128.919749,131.915104
128.870000,131.925000
Z" /> 
<path style="fill:#000000; fill-opacity:1.000000; stroke:none;fill-rule:evenodd;"
d="M 124.630000,134.425000
124.580251,134.415104
124.538076,134.386924
124.509896,134.344749
124.500000,134.295000
124.500000,133.255000
124.509896,133.205251
124.538076,133.163076
124.580251,133.134896
124.630000,133.125000
128.870000,133.125000
128.919749,133.134896
128.961924,133.163076
128.990104,133.205251
129.000000,133.255000
129.000000,134.295000
128.990104,134.344749
128.961924,134.386924
128.919749,134.415104
128.870000,134.425000
Z" /> 
<path style="fill:#000000; fill-opacity:1.000000; stroke:none;fill-rule:evenodd;"
d="M 128.480000,137.875000
128.411117,137.861298
128.352721,137.822279
128.313702,137.763883
128.300000,137.695000
128.300000,136.255000
128.313702,136.186117
128.352721,136.127721
128.411117,136.088702
128.480000,136.075000
132.020000,136.075000
132.088883,136.088702
132.147279,136.127721
132.186298,136.186117
132.200000,136.255000
132.200000,137.695000
132.186298,137.763883
132.147279,137.822279
132.088883,137.861298
132.020000,137.875000
Z" /> 
<path style="fill:#000000; fill-opacity:1.000000; stroke:none;fill-rule:evenodd;"
d="M 128.480000,123.975000
128.411117,123.961298
128.352721,123.922279
128.313702,123.863883
128.300000,123.795000
128.300000,122.355000
128.313702,122.286117
128.352721,122.227721
128.411117,122.188702
128.480000,122.175000
132.020000,122.175000
132.088883,122.188702
132.147279,122.227721
132.186298,122.286117
132.200000,122.355000
132.200000,123.795000
132.186298,123.863883
132.147279,123.922279
132.088883,123.961298
132.020000,123.975000
Z" /> 
<path style="fill:#000000; fill-opacity:1.000000; stroke:none;fill-rule:evenodd;"
d="M 95.550000,80.920000
95.540104,80.969749
95.511924,81.011924
95.469749,81.040104
95.420000,81.050000
94.380000,81.050000
94.330251,81.040104
94.288076,81.011924
94.259896,80.969749
94.250000,80.920000
94.250000,76.680000
94.259896,76.630251
94.288076,76.588076
94.330251,76.559896
94.380000,76.550000
95.420000,76.550000
95.469749,76.559896
95.511924,76.588076
95.540104,76.630251
95.550000,76.680000
Z" /> 
<path style="fill:#000000; fill-opacity:1.000000; stroke:none;fill-rule:evenodd;"
d="M 98.050000,80.920000
98.040104,80.969749
98.011924,81.011924
97.969749,81.040104
97.920000,81.050000
96.880000,81.050000
96.830251,81.040104
96.788076,81.011924
96.759896,80.969749
96.750000,80.920000
96.750000,76.680000
96.759896,76.630251
96.788076,76.588076
96.830251,76.559896
96.880000,76.550000
97.920000,76.550000
97.969749,76.559896
98.011924,76.588076
98.040104,76.630251
98.050000,76.680000
Z" /> 
<path style="fill:#000000; fill-opacity:1.000000; stroke:none;fill-rule:evenodd;"
d="M 100.550000,80.920000
100.540104,80.969749
100.511924,81.011924
100.469749,81.040104
100.420000,81.050000
99.380000,81.050000
99.330251,81.040104
99.288076,81.011924
99.259896,80.969749
99.250000,80.920000
99.250000,76.680000
99.259896,76.630251
99.288076,76.588076
99.330251,76.559896
99.380000,76.550000
100.420000,76.550000
100.469749,76.559896
100.511924,76.588076
100.540104,76.630251
100.550000,76.680000
Z" /> 
<path style="fill:#000000; fill-opacity:1.000000; stroke:none;fill-rule:evenodd;"
d="M 104.000000,77.070000
103.986298,77.138883
103.947279,77.197279
103.888883,77.236298
103.820000,77.250000
102.380000,77.250000
102.311117,77.236298
102.252721,77.197279
102.213702,77.138883
102.200000,77.070000
102.200000,73.530000
102.213702,73.461117
102.252721,73.402721
102.311117,73.363702
102.380000,73.350000
103.820000,73.350000
103.888883,73.363702
103.947279,73.402721
103.986298,73.461117
104.000000,73.530000
Z" /> 
<path style="fill:#000000; fill-opacity:1.000000; stroke:none;fill-rule:evenodd;"
d="M 92.600000,77.070000
92.586298,77.138883
92.547279,77.197279
92.488883,77.236298
92.420000,77.250000
90.980000,77.250000
90.911117,77.236298
90.852721,77.197279
90.813702,77.138883
90.800000,77.070000
90.800000,73.530000
90.813702,73.461117
90.852721,73.402721
90.911117,73.363702
90.980000,73.350000
92.420000,73.350000
92.488883,73.363702
92.547279,73.402721
92.586298,73.461117
92.600000,73.530000
Z" /> 
<path style="fill:#000000; fill-opacity:1.000000; stroke:none;fill-rule:evenodd;"
d="M 92.892500,81.185000
92.969037,81.200224
93.033921,81.243579
93.077276,81.308463
93.092500,81.385000
93.092500,81.785000
93.077276,81.861537
93.033921,81.926421
92.969037,81.969776
92.892500,81.985000
92.342500,81.985000
92.265963,81.969776
92.201079,81.926421
92.157724,81.861537
92.142500,81.785000
92.142500,81.385000
92.157724,81.308463
92.201079,81.243579
92.265963,81.200224
92.342500,81.185000
Z" /> 
<path style="fill:#000000; fill-opacity:1.000000; stroke:none;fill-rule:evenodd;"
d="M 92.892500,82.835000
92.969037,82.850224
93.033921,82.893579
93.077276,82.958463
93.092500,83.035000
93.092500,83.435000
93.077276,83.511537
93.033921,83.576421
92.969037,83.619776
92.892500,83.635000
92.342500,83.635000
92.265963,83.619776
92.201079,83.576421
92.157724,83.511537
92.142500,83.435000
92.142500,83.035000
92.157724,82.958463
92.201079,82.893579
92.265963,82.850224
92.342500,82.835000
Z" /> 
<path style="fill:#000000; fill-opacity:1.000000; stroke:none;fill-rule:evenodd;"
d="M 101.800000,94.495000
103.800000,94.495000
103.800000,95.105000
101.800000,95.105000
Z" /> 
<path style="fill:#000000; fill-opacity:1.000000; stroke:none;fill-rule:evenodd;"
d="M 101.800000,95.495000
103.800000,95.495000
103.800000,96.105000
101.800000,96.105000
Z" /> 
<path style="fill:#000000; fill-opacity:1.000000; stroke:none;fill-rule:evenodd;"
d="M 101.800000,96.495000
103.800000,96.495000
103.800000,97.105000
101.800000,97.105000
Z" /> 
<path style="fill:#000000; fill-opacity:1.000000; stroke:none;fill-rule:evenodd;"
d="M 101.800000,97.495000
103.800000,97.495000
103.800000,98.105000
101.800000,98.105000
Z" /> 
<path style="fill:#000000; fill-opacity:1.000000; stroke:none;fill-rule:evenodd;"
d="M 101.800000,98.495000
103.800000,98.495000
103.800000,99.105000
101.800000,99.105000
Z" /> 
<path style="fill:#000000; fill-opacity:1.000000; stroke:none;fill-rule:evenodd;"
d="M 101.800000,99.495000
103.800000,99.495000
103.800000,100.105000
101.800000,100.105000
Z" /> 
<path style="fill:#000000; fill-opacity:1.000000; stroke:none;fill-rule:evenodd;"
d="M 101.800000,100.495000
103.800000,100.495000
103.800000,101.105000
101.800000,101.105000
Z" /> 
<path style="fill:#000000; fill-opacity:1.000000; stroke:none;fill-rule:evenodd;"
d="M 101.800000,101.495000
103.800000,101.495000
103.800000,102.105000
101.800000,102.105000
Z" /> 
<path style="fill:#000000; fill-opacity:1.000000; stroke:none;fill-rule:evenodd;"
d="M 101.800000,102.495000
103.800000,102.495000
103.800000,103.105000
101.800000,103.105000
Z" /> 
<path style="fill:#000000; fill-opacity:1.000000; stroke:none;fill-rule:evenodd;"
d="M 101.800000,103.495000
103.800000,103.495000
103.800000,104.105000
101.800000,104.105000
Z" /> 
<path style="fill:#000000; fill-opacity:1.000000; stroke:none;fill-rule:evenodd;"
d="M 101.800000,104.495000
103.800000,104.495000
103.800000,105.105000
101.800000,105.105000
Z" /> 
<path style="fill:#000000; fill-opacity:1.000000; stroke:none;fill-rule:evenodd;"
d="M 101.800000,105.495000
103.800000,105.495000
103.800000,106.105000
101.800000,106.105000
Z" /> 
<path style="fill:#000000; fill-opacity:1.000000; stroke:none;fill-rule:evenodd;"
d="M 101.800000,106.495000
103.800000,106.495000
103.800000,107.105000
101.800000,107.105000
Z" /> 
<path style="fill:#000000; fill-opacity:1.000000; stroke:none;fill-rule:evenodd;"
d="M 101.800000,107.495000
103.800000,107.495000
103.800000,108.105000
101.800000,108.105000
Z" /> 
<path style="fill:#000000; fill-opacity:1.000000; stroke:none;fill-rule:evenodd;"
d="M 101.800000,108.495000
103.800000,108.495000
103.800000,109.105000
101.800000,109.105000
Z" /> 
<path style="fill:#000000; fill-opacity:1.000000; stroke:none;fill-rule:evenodd;"
d="M 101.800000,109.495000
103.800000,109.495000
103.800000,110.105000
101.800000,110.105000
Z" /> 
<path style="fill:#000000; fill-opacity:1.000000; stroke:none;fill-rule:evenodd;"
d="M 98.200000,90.470000
101.800000,90.470000
101.800000,93.150000
98.200000,93.150000
Z" /> 
<path style="fill:#000000; fill-opacity:1.000000; stroke:none;fill-rule:evenodd;"
d="M 98.200000,111.450000
101.800000,111.450000
101.800000,114.130000
98.200000,114.130000
Z" /> 
<path style="fill:#000000; fill-opacity:1.000000; stroke:none;fill-rule:evenodd;"
d="M 87.780000,80.285000
87.791418,80.227597
87.823934,80.178934
87.872597,80.146418
87.930000,80.135000
89.105000,80.135000
89.162403,80.146418
89.211066,80.178934
89.243582,80.227597
89.255000,80.285000
89.255000,80.585000
89.243582,80.642403
89.211066,80.691066
89.162403,80.723582
89.105000,80.735000
87.930000,80.735000
87.872597,80.723582
87.823934,80.691066
87.791418,80.642403
87.780000,80.585000
Z" /> 
<path style="fill:#000000; fill-opacity:1.000000; stroke:none;fill-rule:evenodd;"
d="M 87.780000,82.185000
87.791418,82.127597
87.823934,82.078934
87.872597,82.046418
87.930000,82.035000
89.105000,82.035000
89.162403,82.046418
89.211066,82.078934
89.243582,82.127597
89.255000,82.185000
89.255000,82.485000
89.243582,82.542403
89.211066,82.591066
89.162403,82.623582
89.105000,82.635000
87.930000,82.635000
87.872597,82.623582
87.823934,82.591066
87.791418,82.542403
87.780000,82.485000
Z" /> 
<path style="fill:#000000; fill-opacity:1.000000; stroke:none;fill-rule:evenodd;"
d="M 89.655000,81.235000
89.666418,81.177597
89.698934,81.128934
89.747597,81.096418
89.805000,81.085000
90.980000,81.085000
91.037403,81.096418
91.086066,81.128934
91.118582,81.177597
91.130000,81.235000
91.130000,81.535000
91.118582,81.592403
91.086066,81.641066
91.037403,81.673582
90.980000,81.685000
89.805000,81.685000
89.747597,81.673582
89.698934,81.641066
89.666418,81.592403
89.655000,81.535000
Z" /> 
<path style="fill:#000000; fill-opacity:1.000000; stroke:none;fill-rule:evenodd;"
d="M 135.756250,101.775000
135.839962,101.791651
135.910930,101.839070
135.958349,101.910038
135.975000,101.993750
135.975000,102.431250
135.958349,102.514962
135.910930,102.585930
135.839962,102.633349
135.756250,102.650000
135.243750,102.650000
135.160038,102.633349
135.089070,102.585930
135.041651,102.514962
135.025000,102.431250
135.025000,101.993750
135.041651,101.910038
135.089070,101.839070
135.160038,101.791651
135.243750,101.775000
Z" /> 
<path style="fill:#000000; fill-opacity:1.000000; stroke:none;fill-rule:evenodd;"
d="M 135.756250,103.350000
135.839962,103.366651
135.910930,103.414070
135.958349,103.485038
135.975000,103.568750
135.975000,104.006250
135.958349,104.089962
135.910930,104.160930
135.839962,104.208349
135.756250,104.225000
135.243750,104.225000
135.160038,104.208349
135.089070,104.160930
135.041651,104.089962
135.025000,104.006250
135.025000,103.568750
135.041651,103.485038
135.089070,103.414070
135.160038,103.366651
135.243750,103.350000
Z" /> 
<path style="fill:#000000; fill-opacity:1.000000; stroke:none;fill-rule:evenodd;"
d="M 120.006250,93.762500
120.089962,93.779151
120.160930,93.826570
120.208349,93.897538
120.225000,93.981250
120.225000,94.418750
120.208349,94.502462
120.160930,94.573430
120.089962,94.620849
120.006250,94.637500
119.493750,94.637500
119.410038,94.620849
119.339070,94.573430
119.291651,94.502462
119.275000,94.418750
119.275000,93.981250
119.291651,93.897538
119.339070,93.826570
119.410038,93.779151
119.493750,93.762500
Z" /> 
<path style="fill:#000000; fill-opacity:1.000000; stroke:none;fill-rule:evenodd;"
d="M 120.006250,95.337500
120.089962,95.354151
120.160930,95.401570
120.208349,95.472538
120.225000,95.556250
120.225000,95.993750
120.208349,96.077462
120.160930,96.148430
120.089962,96.195849
120.006250,96.212500
119.493750,96.212500
119.410038,96.195849
119.339070,96.148430
119.291651,96.077462
119.275000,95.993750
119.275000,95.556250
119.291651,95.472538
119.339070,95.401570
119.410038,95.354151
119.493750,95.337500
Z" /> 
</g> 
</svg>
