<?xml version="1.0" standalone="no"?>
 <!DOCTYPE svg PUBLIC "-//W3C//DTD SVG 1.1//EN" 
 "http://www.w3.org/Graphics/SVG/1.1/DTD/svg11.dtd"> 
<svg
  xmlns:svg="http://www.w3.org/2000/svg"
  xmlns="http://www.w3.org/2000/svg"
  xmlns:xlink="http://www.w3.org/1999/xlink"
  xmlns:inkscape="http://www.inkscape.org/namespaces/inkscape"
  version="1.1"
  width="279.400000mm" height="215.900000mm" viewBox="0.000000 0.000000 279.400000 215.900000">
<title>SVG Image created as grbl_expando_limits-F_Paste.svg date 2026-06-13T22:33:25 </title>
  <desc>Image generated by PCBNEW </desc>
<g style="fill:#000000; fill-opacity:1.000000;stroke:#000000; stroke-opacity:1.000000;
stroke-linecap:round; stroke-linejoin:round;"
 transform="translate(0 0) scale(1 1)">
<path style="fill:#000000; fill-opacity:1.000000; stroke:none;fill-rule:evenodd;"
d="M 117.135000,93.722000
117.115970,93.817671
117.061777,93.898777
116.980671,93.952970
116.885000,93.972000
116.385000,93.972000
116.289329,93.952970
116.208223,93.898777
116.154030,93.817671
116.135000,93.722000
116.135000,88.722000
116.154030,88.626329
116.208223,88.545223
116.289329,88.491030
116.385000,88.472000
116.885000,88.472000
116.980671,88.491030
117.061777,88.545223
117.115970,88.626329
117.135000,88.722000
Z" /> 
<path style="fill:#000000; fill-opacity:1.000000; stroke:none;fill-rule:evenodd;"
d="M 115.135000,93.722000
115.115970,93.817671
115.061777,93.898777
114.980671,93.952970
114.885000,93.972000
114.385000,93.972000
114.289329,93.952970
114.208223,93.898777
114.154030,93.817671
114.135000,93.722000
114.135000,88.722000
114.154030,88.626329
114.208223,88.545223
114.289329,88.491030
114.385000,88.472000
114.885000,88.472000
114.980671,88.491030
115.061777,88.545223
115.115970,88.626329
115.135000,88.722000
Z" /> 
<path style="fill:#000000; fill-opacity:1.000000; stroke:none;fill-rule:evenodd;"
d="M 113.135000,93.722000
113.115970,93.817671
113.061777,93.898777
112.980671,93.952970
112.885000,93.972000
112.385000,93.972000
112.289329,93.952970
112.208223,93.898777
112.154030,93.817671
112.135000,93.722000
112.135000,88.722000
112.154030,88.626329
112.208223,88.545223
112.289329,88.491030
112.385000,88.472000
112.885000,88.472000
112.980671,88.491030
113.061777,88.545223
113.115970,88.626329
113.135000,88.722000
Z" /> 
<path style="fill:#000000; fill-opacity:1.000000; stroke:none;fill-rule:evenodd;"
d="M 119.835000,94.722000
119.815970,94.817671
119.761777,94.898777
119.680671,94.952970
119.585000,94.972000
118.485000,94.972000
118.389329,94.952970
118.308223,94.898777
118.254030,94.817671
118.235000,94.722000
118.235000,92.222000
118.254030,92.126329
118.308223,92.045223
118.389329,91.991030
118.485000,91.972000
119.585000,91.972000
119.680671,91.991030
119.761777,92.045223
119.815970,92.126329
119.835000,92.222000
Z" /> 
<path style="fill:#000000; fill-opacity:1.000000; stroke:none;fill-rule:evenodd;"
d="M 111.035000,94.722000
111.015970,94.817671
110.961777,94.898777
110.880671,94.952970
110.785000,94.972000
109.685000,94.972000
109.589329,94.952970
109.508223,94.898777
109.454030,94.817671
109.435000,94.722000
109.435000,92.222000
109.454030,92.126329
109.508223,92.045223
109.589329,91.991030
109.685000,91.972000
110.785000,91.972000
110.880671,91.991030
110.961777,92.045223
111.015970,92.126329
111.035000,92.222000
Z" /> 
<path style="fill:#000000; fill-opacity:1.000000; stroke:none;fill-rule:evenodd;"
d="M 121.640000,130.353000
121.655224,130.276463
121.698579,130.211579
121.763463,130.168224
121.840000,130.153000
122.240000,130.153000
122.316537,130.168224
122.381421,130.211579
122.424776,130.276463
122.440000,130.353000
122.440000,130.903000
122.424776,130.979537
122.381421,131.044421
122.316537,131.087776
122.240000,131.103000
121.840000,131.103000
121.763463,131.087776
121.698579,131.044421
121.655224,130.979537
121.640000,130.903000
Z" /> 
<path style="fill:#000000; fill-opacity:1.000000; stroke:none;fill-rule:evenodd;"
d="M 123.290000,130.353000
123.305224,130.276463
123.348579,130.211579
123.413463,130.168224
123.490000,130.153000
123.890000,130.153000
123.966537,130.168224
124.031421,130.211579
124.074776,130.276463
124.090000,130.353000
124.090000,130.903000
124.074776,130.979537
124.031421,131.044421
123.966537,131.087776
123.890000,131.103000
123.490000,131.103000
123.413463,131.087776
123.348579,131.044421
123.305224,130.979537
123.290000,130.903000
Z" /> 
<path style="fill:#000000; fill-opacity:1.000000; stroke:none;fill-rule:evenodd;"
d="M 121.640000,141.145000
121.655224,141.068463
121.698579,141.003579
121.763463,140.960224
121.840000,140.945000
122.240000,140.945000
122.316537,140.960224
122.381421,141.003579
122.424776,141.068463
122.440000,141.145000
122.440000,141.695000
122.424776,141.771537
122.381421,141.836421
122.316537,141.879776
122.240000,141.895000
121.840000,141.895000
121.763463,141.879776
121.698579,141.836421
121.655224,141.771537
121.640000,141.695000
Z" /> 
<path style="fill:#000000; fill-opacity:1.000000; stroke:none;fill-rule:evenodd;"
d="M 123.290000,141.145000
123.305224,141.068463
123.348579,141.003579
123.413463,140.960224
123.490000,140.945000
123.890000,140.945000
123.966537,140.960224
124.031421,141.003579
124.074776,141.068463
124.090000,141.145000
124.090000,141.695000
124.074776,141.771537
124.031421,141.836421
123.966537,141.879776
123.890000,141.895000
123.490000,141.895000
123.413463,141.879776
123.348579,141.836421
123.305224,141.771537
123.290000,141.695000
Z" /> 
<path style="fill:#000000; fill-opacity:1.000000; stroke:none;fill-rule:evenodd;"
d="M 121.640000,90.447000
121.655224,90.370463
121.698579,90.305579
121.763463,90.262224
121.840000,90.247000
122.240000,90.247000
122.316537,90.262224
122.381421,90.305579
122.424776,90.370463
122.440000,90.447000
122.440000,90.997000
122.424776,91.073537
122.381421,91.138421
122.316537,91.181776
122.240000,91.197000
121.840000,91.197000
121.763463,91.181776
121.698579,91.138421
121.655224,91.073537
121.640000,90.997000
Z" /> 
<path style="fill:#000000; fill-opacity:1.000000; stroke:none;fill-rule:evenodd;"
d="M 123.290000,90.447000
123.305224,90.370463
123.348579,90.305579
123.413463,90.262224
123.490000,90.247000
123.890000,90.247000
123.966537,90.262224
124.031421,90.305579
124.074776,90.370463
124.090000,90.447000
124.090000,90.997000
124.074776,91.073537
124.031421,91.138421
123.966537,91.181776
123.890000,91.197000
123.490000,91.197000
123.413463,91.181776
123.348579,91.138421
123.305224,91.073537
123.290000,90.997000
Z" /> 
<path style="fill:#000000; fill-opacity:1.000000; stroke:none;fill-rule:evenodd;"
d="M 121.452500,116.951000
121.467724,116.874463
121.511079,116.809579
121.575963,116.766224
121.652500,116.751000
122.052500,116.751000
122.129037,116.766224
122.193921,116.809579
122.237276,116.874463
122.252500,116.951000
122.252500,117.501000
122.237276,117.577537
122.193921,117.642421
122.129037,117.685776
122.052500,117.701000
121.652500,117.701000
121.575963,117.685776
121.511079,117.642421
121.467724,117.577537
121.452500,117.501000
Z" /> 
<path style="fill:#000000; fill-opacity:1.000000; stroke:none;fill-rule:evenodd;"
d="M 123.102500,116.951000
123.117724,116.874463
123.161079,116.809579
123.225963,116.766224
123.302500,116.751000
123.702500,116.751000
123.779037,116.766224
123.843921,116.809579
123.887276,116.874463
123.902500,116.951000
123.902500,117.501000
123.887276,117.577537
123.843921,117.642421
123.779037,117.685776
123.702500,117.701000
123.302500,117.701000
123.225963,117.685776
123.161079,117.642421
123.117724,117.577537
123.102500,117.501000
Z" /> 
<path style="fill:#000000; fill-opacity:1.000000; stroke:none;fill-rule:evenodd;"
d="M 117.135000,133.628000
117.115970,133.723671
117.061777,133.804777
116.980671,133.858970
116.885000,133.878000
116.385000,133.878000
116.289329,133.858970
116.208223,133.804777
116.154030,133.723671
116.135000,133.628000
116.135000,128.628000
116.154030,128.532329
116.208223,128.451223
116.289329,128.397030
116.385000,128.378000
116.885000,128.378000
116.980671,128.397030
117.061777,128.451223
117.115970,128.532329
117.135000,128.628000
Z" /> 
<path style="fill:#000000; fill-opacity:1.000000; stroke:none;fill-rule:evenodd;"
d="M 115.135000,133.628000
115.115970,133.723671
115.061777,133.804777
114.980671,133.858970
114.885000,133.878000
114.385000,133.878000
114.289329,133.858970
114.208223,133.804777
114.154030,133.723671
114.135000,133.628000
114.135000,128.628000
114.154030,128.532329
114.208223,128.451223
114.289329,128.397030
114.385000,128.378000
114.885000,128.378000
114.980671,128.397030
115.061777,128.451223
115.115970,128.532329
115.135000,128.628000
Z" /> 
<path style="fill:#000000; fill-opacity:1.000000; stroke:none;fill-rule:evenodd;"
d="M 113.135000,133.628000
113.115970,133.723671
113.061777,133.804777
112.980671,133.858970
112.885000,133.878000
112.385000,133.878000
112.289329,133.858970
112.208223,133.804777
112.154030,133.723671
112.135000,133.628000
112.135000,128.628000
112.154030,128.532329
112.208223,128.451223
112.289329,128.397030
112.385000,128.378000
112.885000,128.378000
112.980671,128.397030
113.061777,128.451223
113.115970,128.532329
113.135000,128.628000
Z" /> 
<path style="fill:#000000; fill-opacity:1.000000; stroke:none;fill-rule:evenodd;"
d="M 119.835000,134.628000
119.815970,134.723671
119.761777,134.804777
119.680671,134.858970
119.585000,134.878000
118.485000,134.878000
118.389329,134.858970
118.308223,134.804777
118.254030,134.723671
118.235000,134.628000
118.235000,132.128000
118.254030,132.032329
118.308223,131.951223
118.389329,131.897030
118.485000,131.878000
119.585000,131.878000
119.680671,131.897030
119.761777,131.951223
119.815970,132.032329
119.835000,132.128000
Z" /> 
<path style="fill:#000000; fill-opacity:1.000000; stroke:none;fill-rule:evenodd;"
d="M 111.035000,134.628000
111.015970,134.723671
110.961777,134.804777
110.880671,134.858970
110.785000,134.878000
109.685000,134.878000
109.589329,134.858970
109.508223,134.804777
109.454030,134.723671
109.435000,134.628000
109.435000,132.128000
109.454030,132.032329
109.508223,131.951223
109.589329,131.897030
109.685000,131.878000
110.785000,131.878000
110.880671,131.897030
110.961777,131.951223
111.015970,132.032329
111.035000,132.128000
Z" /> 
<path style="fill:#000000; fill-opacity:1.000000; stroke:none;fill-rule:evenodd;"
d="M 121.640000,143.655000
121.655224,143.578463
121.698579,143.513579
121.763463,143.470224
121.840000,143.455000
122.240000,143.455000
122.316537,143.470224
122.381421,143.513579
122.424776,143.578463
122.440000,143.655000
122.440000,144.205000
122.424776,144.281537
122.381421,144.346421
122.316537,144.389776
122.240000,144.405000
121.840000,144.405000
121.763463,144.389776
121.698579,144.346421
121.655224,144.281537
121.640000,144.205000
Z" /> 
<path style="fill:#000000; fill-opacity:1.000000; stroke:none;fill-rule:evenodd;"
d="M 123.290000,143.655000
123.305224,143.578463
123.348579,143.513579
123.413463,143.470224
123.490000,143.455000
123.890000,143.455000
123.966537,143.470224
124.031421,143.513579
124.074776,143.578463
124.090000,143.655000
124.090000,144.205000
124.074776,144.281537
124.031421,144.346421
123.966537,144.389776
123.890000,144.405000
123.490000,144.405000
123.413463,144.389776
123.348579,144.346421
123.305224,144.281537
123.290000,144.205000
Z" /> 
<path style="fill:#000000; fill-opacity:1.000000; stroke:none;fill-rule:evenodd;"
d="M 121.640000,79.655000
121.655224,79.578463
121.698579,79.513579
121.763463,79.470224
121.840000,79.455000
122.240000,79.455000
122.316537,79.470224
122.381421,79.513579
122.424776,79.578463
122.440000,79.655000
122.440000,80.205000
122.424776,80.281537
122.381421,80.346421
122.316537,80.389776
122.240000,80.405000
121.840000,80.405000
121.763463,80.389776
121.698579,80.346421
121.655224,80.281537
121.640000,80.205000
Z" /> 
<path style="fill:#000000; fill-opacity:1.000000; stroke:none;fill-rule:evenodd;"
d="M 123.290000,79.655000
123.305224,79.578463
123.348579,79.513579
123.413463,79.470224
123.490000,79.455000
123.890000,79.455000
123.966537,79.470224
124.031421,79.513579
124.074776,79.578463
124.090000,79.655000
124.090000,80.205000
124.074776,80.281537
124.031421,80.346421
123.966537,80.389776
123.890000,80.405000
123.490000,80.405000
123.413463,80.389776
123.348579,80.346421
123.305224,80.281537
123.290000,80.205000
Z" /> 
<path style="fill:#000000; fill-opacity:1.000000; stroke:none;fill-rule:evenodd;"
d="M 121.640000,77.145000
121.655224,77.068463
121.698579,77.003579
121.763463,76.960224
121.840000,76.945000
122.240000,76.945000
122.316537,76.960224
122.381421,77.003579
122.424776,77.068463
122.440000,77.145000
122.440000,77.695000
122.424776,77.771537
122.381421,77.836421
122.316537,77.879776
122.240000,77.895000
121.840000,77.895000
121.763463,77.879776
121.698579,77.836421
121.655224,77.771537
121.640000,77.695000
Z" /> 
<path style="fill:#000000; fill-opacity:1.000000; stroke:none;fill-rule:evenodd;"
d="M 123.290000,77.145000
123.305224,77.068463
123.348579,77.003579
123.413463,76.960224
123.490000,76.945000
123.890000,76.945000
123.966537,76.960224
124.031421,77.003579
124.074776,77.068463
124.090000,77.145000
124.090000,77.695000
124.074776,77.771537
124.031421,77.836421
123.966537,77.879776
123.890000,77.895000
123.490000,77.895000
123.413463,77.879776
123.348579,77.836421
123.305224,77.771537
123.290000,77.695000
Z" /> 
<path style="fill:#000000; fill-opacity:1.000000; stroke:none;fill-rule:evenodd;"
d="M 117.590000,99.197750
117.606651,99.114038
117.654070,99.043070
117.725038,98.995651
117.808750,98.979000
118.246250,98.979000
118.329962,98.995651
118.400930,99.043070
118.448349,99.114038
118.465000,99.197750
118.465000,99.710250
118.448349,99.793962
118.400930,99.864930
118.329962,99.912349
118.246250,99.929000
117.808750,99.929000
117.725038,99.912349
117.654070,99.864930
117.606651,99.793962
117.590000,99.710250
Z" /> 
<path style="fill:#000000; fill-opacity:1.000000; stroke:none;fill-rule:evenodd;"
d="M 119.165000,99.197750
119.181651,99.114038
119.229070,99.043070
119.300038,98.995651
119.383750,98.979000
119.821250,98.979000
119.904962,98.995651
119.975930,99.043070
120.023349,99.114038
120.040000,99.197750
120.040000,99.710250
120.023349,99.793962
119.975930,99.864930
119.904962,99.912349
119.821250,99.929000
119.383750,99.929000
119.300038,99.912349
119.229070,99.864930
119.181651,99.793962
119.165000,99.710250
Z" /> 
<path style="fill:#000000; fill-opacity:1.000000; stroke:none;fill-rule:evenodd;"
d="M 121.640000,146.165000
121.655224,146.088463
121.698579,146.023579
121.763463,145.980224
121.840000,145.965000
122.240000,145.965000
122.316537,145.980224
122.381421,146.023579
122.424776,146.088463
122.440000,146.165000
122.440000,146.715000
122.424776,146.791537
122.381421,146.856421
122.316537,146.899776
122.240000,146.915000
121.840000,146.915000
121.763463,146.899776
121.698579,146.856421
121.655224,146.791537
121.640000,146.715000
Z" /> 
<path style="fill:#000000; fill-opacity:1.000000; stroke:none;fill-rule:evenodd;"
d="M 123.290000,146.165000
123.305224,146.088463
123.348579,146.023579
123.413463,145.980224
123.490000,145.965000
123.890000,145.965000
123.966537,145.980224
124.031421,146.023579
124.074776,146.088463
124.090000,146.165000
124.090000,146.715000
124.074776,146.791537
124.031421,146.856421
123.966537,146.899776
123.890000,146.915000
123.490000,146.915000
123.413463,146.899776
123.348579,146.856421
123.305224,146.791537
123.290000,146.715000
Z" /> 
<path style="fill:#000000; fill-opacity:1.000000; stroke:none;fill-rule:evenodd;"
d="M 121.640000,106.259000
121.655224,106.182463
121.698579,106.117579
121.763463,106.074224
121.840000,106.059000
122.240000,106.059000
122.316537,106.074224
122.381421,106.117579
122.424776,106.182463
122.440000,106.259000
122.440000,106.809000
122.424776,106.885537
122.381421,106.950421
122.316537,106.993776
122.240000,107.009000
121.840000,107.009000
121.763463,106.993776
121.698579,106.950421
121.655224,106.885537
121.640000,106.809000
Z" /> 
<path style="fill:#000000; fill-opacity:1.000000; stroke:none;fill-rule:evenodd;"
d="M 123.290000,106.259000
123.305224,106.182463
123.348579,106.117579
123.413463,106.074224
123.490000,106.059000
123.890000,106.059000
123.966537,106.074224
124.031421,106.117579
124.074776,106.182463
124.090000,106.259000
124.090000,106.809000
124.074776,106.885537
124.031421,106.950421
123.966537,106.993776
123.890000,107.009000
123.490000,107.009000
123.413463,106.993776
123.348579,106.950421
123.305224,106.885537
123.290000,106.809000
Z" /> 
<path style="fill:#000000; fill-opacity:1.000000; stroke:none;fill-rule:evenodd;"
d="M 121.452500,114.441000
121.467724,114.364463
121.511079,114.299579
121.575963,114.256224
121.652500,114.241000
122.052500,114.241000
122.129037,114.256224
122.193921,114.299579
122.237276,114.364463
122.252500,114.441000
122.252500,114.991000
122.237276,115.067537
122.193921,115.132421
122.129037,115.175776
122.052500,115.191000
121.652500,115.191000
121.575963,115.175776
121.511079,115.132421
121.467724,115.067537
121.452500,114.991000
Z" /> 
<path style="fill:#000000; fill-opacity:1.000000; stroke:none;fill-rule:evenodd;"
d="M 123.102500,114.441000
123.117724,114.364463
123.161079,114.299579
123.225963,114.256224
123.302500,114.241000
123.702500,114.241000
123.779037,114.256224
123.843921,114.299579
123.887276,114.364463
123.902500,114.441000
123.902500,114.991000
123.887276,115.067537
123.843921,115.132421
123.779037,115.175776
123.702500,115.191000
123.302500,115.191000
123.225963,115.175776
123.161079,115.132421
123.117724,115.067537
123.102500,114.991000
Z" /> 
<path style="fill:#000000; fill-opacity:1.000000; stroke:none;fill-rule:evenodd;"
d="M 121.640000,132.863000
121.655224,132.786463
121.698579,132.721579
121.763463,132.678224
121.840000,132.663000
122.240000,132.663000
122.316537,132.678224
122.381421,132.721579
122.424776,132.786463
122.440000,132.863000
122.440000,133.413000
122.424776,133.489537
122.381421,133.554421
122.316537,133.597776
122.240000,133.613000
121.840000,133.613000
121.763463,133.597776
121.698579,133.554421
121.655224,133.489537
121.640000,133.413000
Z" /> 
<path style="fill:#000000; fill-opacity:1.000000; stroke:none;fill-rule:evenodd;"
d="M 123.290000,132.863000
123.305224,132.786463
123.348579,132.721579
123.413463,132.678224
123.490000,132.663000
123.890000,132.663000
123.966537,132.678224
124.031421,132.721579
124.074776,132.786463
124.090000,132.863000
124.090000,133.413000
124.074776,133.489537
124.031421,133.554421
123.966537,133.597776
123.890000,133.613000
123.490000,133.613000
123.413463,133.597776
123.348579,133.554421
123.305224,133.489537
123.290000,133.413000
Z" /> 
<path style="fill:#000000; fill-opacity:1.000000; stroke:none;fill-rule:evenodd;"
d="M 117.590000,72.593750
117.606651,72.510038
117.654070,72.439070
117.725038,72.391651
117.808750,72.375000
118.246250,72.375000
118.329962,72.391651
118.400930,72.439070
118.448349,72.510038
118.465000,72.593750
118.465000,73.106250
118.448349,73.189962
118.400930,73.260930
118.329962,73.308349
118.246250,73.325000
117.808750,73.325000
117.725038,73.308349
117.654070,73.260930
117.606651,73.189962
117.590000,73.106250
Z" /> 
<path style="fill:#000000; fill-opacity:1.000000; stroke:none;fill-rule:evenodd;"
d="M 119.165000,72.593750
119.181651,72.510038
119.229070,72.439070
119.300038,72.391651
119.383750,72.375000
119.821250,72.375000
119.904962,72.391651
119.975930,72.439070
120.023349,72.510038
120.040000,72.593750
120.040000,73.106250
120.023349,73.189962
119.975930,73.260930
119.904962,73.308349
119.821250,73.325000
119.383750,73.325000
119.300038,73.308349
119.229070,73.260930
119.181651,73.189962
119.165000,73.106250
Z" /> 
<path style="fill:#000000; fill-opacity:1.000000; stroke:none;fill-rule:evenodd;"
d="M 117.322500,120.326000
117.303470,120.421671
117.249277,120.502777
117.168171,120.556970
117.072500,120.576000
116.572500,120.576000
116.476829,120.556970
116.395723,120.502777
116.341530,120.421671
116.322500,120.326000
116.322500,115.326000
116.341530,115.230329
116.395723,115.149223
116.476829,115.095030
116.572500,115.076000
117.072500,115.076000
117.168171,115.095030
117.249277,115.149223
117.303470,115.230329
117.322500,115.326000
Z" /> 
<path style="fill:#000000; fill-opacity:1.000000; stroke:none;fill-rule:evenodd;"
d="M 115.322500,120.326000
115.303470,120.421671
115.249277,120.502777
115.168171,120.556970
115.072500,120.576000
114.572500,120.576000
114.476829,120.556970
114.395723,120.502777
114.341530,120.421671
114.322500,120.326000
114.322500,115.326000
114.341530,115.230329
114.395723,115.149223
114.476829,115.095030
114.572500,115.076000
115.072500,115.076000
115.168171,115.095030
115.249277,115.149223
115.303470,115.230329
115.322500,115.326000
Z" /> 
<path style="fill:#000000; fill-opacity:1.000000; stroke:none;fill-rule:evenodd;"
d="M 113.322500,120.326000
113.303470,120.421671
113.249277,120.502777
113.168171,120.556970
113.072500,120.576000
112.572500,120.576000
112.476829,120.556970
112.395723,120.502777
112.341530,120.421671
112.322500,120.326000
112.322500,115.326000
112.341530,115.230329
112.395723,115.149223
112.476829,115.095030
112.572500,115.076000
113.072500,115.076000
113.168171,115.095030
113.249277,115.149223
113.303470,115.230329
113.322500,115.326000
Z" /> 
<path style="fill:#000000; fill-opacity:1.000000; stroke:none;fill-rule:evenodd;"
d="M 120.022500,121.326000
120.003470,121.421671
119.949277,121.502777
119.868171,121.556970
119.772500,121.576000
118.672500,121.576000
118.576829,121.556970
118.495723,121.502777
118.441530,121.421671
118.422500,121.326000
118.422500,118.826000
118.441530,118.730329
118.495723,118.649223
118.576829,118.595030
118.672500,118.576000
119.772500,118.576000
119.868171,118.595030
119.949277,118.649223
120.003470,118.730329
120.022500,118.826000
Z" /> 
<path style="fill:#000000; fill-opacity:1.000000; stroke:none;fill-rule:evenodd;"
d="M 111.222500,121.326000
111.203470,121.421671
111.149277,121.502777
111.068171,121.556970
110.972500,121.576000
109.872500,121.576000
109.776829,121.556970
109.695723,121.502777
109.641530,121.421671
109.622500,121.326000
109.622500,118.826000
109.641530,118.730329
109.695723,118.649223
109.776829,118.595030
109.872500,118.576000
110.972500,118.576000
111.068171,118.595030
111.149277,118.649223
111.203470,118.730329
111.222500,118.826000
Z" /> 
<path style="fill:#000000; fill-opacity:1.000000; stroke:none;fill-rule:evenodd;"
d="M 121.452500,119.461000
121.467724,119.384463
121.511079,119.319579
121.575963,119.276224
121.652500,119.261000
122.052500,119.261000
122.129037,119.276224
122.193921,119.319579
122.237276,119.384463
122.252500,119.461000
122.252500,120.011000
122.237276,120.087537
122.193921,120.152421
122.129037,120.195776
122.052500,120.211000
121.652500,120.211000
121.575963,120.195776
121.511079,120.152421
121.467724,120.087537
121.452500,120.011000
Z" /> 
<path style="fill:#000000; fill-opacity:1.000000; stroke:none;fill-rule:evenodd;"
d="M 123.102500,119.461000
123.117724,119.384463
123.161079,119.319579
123.225963,119.276224
123.302500,119.261000
123.702500,119.261000
123.779037,119.276224
123.843921,119.319579
123.887276,119.384463
123.902500,119.461000
123.902500,120.011000
123.887276,120.087537
123.843921,120.152421
123.779037,120.195776
123.702500,120.211000
123.302500,120.211000
123.225963,120.195776
123.161079,120.152421
123.117724,120.087537
123.102500,120.011000
Z" /> 
<path style="fill:#000000; fill-opacity:1.000000; stroke:none;fill-rule:evenodd;"
d="M 121.640000,127.843000
121.655224,127.766463
121.698579,127.701579
121.763463,127.658224
121.840000,127.643000
122.240000,127.643000
122.316537,127.658224
122.381421,127.701579
122.424776,127.766463
122.440000,127.843000
122.440000,128.393000
122.424776,128.469537
122.381421,128.534421
122.316537,128.577776
122.240000,128.593000
121.840000,128.593000
121.763463,128.577776
121.698579,128.534421
121.655224,128.469537
121.640000,128.393000
Z" /> 
<path style="fill:#000000; fill-opacity:1.000000; stroke:none;fill-rule:evenodd;"
d="M 123.290000,127.843000
123.305224,127.766463
123.348579,127.701579
123.413463,127.658224
123.490000,127.643000
123.890000,127.643000
123.966537,127.658224
124.031421,127.701579
124.074776,127.766463
124.090000,127.843000
124.090000,128.393000
124.074776,128.469537
124.031421,128.534421
123.966537,128.577776
123.890000,128.593000
123.490000,128.593000
123.413463,128.577776
123.348579,128.534421
123.305224,128.469537
123.290000,128.393000
Z" /> 
<path style="fill:#000000; fill-opacity:1.000000; stroke:none;fill-rule:evenodd;"
d="M 121.640000,135.398000
121.657127,135.311896
121.705901,135.238901
121.778896,135.190127
121.865000,135.173000
122.315000,135.173000
122.401104,135.190127
122.474099,135.238901
122.522873,135.311896
122.540000,135.398000
122.540000,135.898000
122.522873,135.984104
122.474099,136.057099
122.401104,136.105873
122.315000,136.123000
121.865000,136.123000
121.778896,136.105873
121.705901,136.057099
121.657127,135.984104
121.640000,135.898000
Z" /> 
<path style="fill:#000000; fill-opacity:1.000000; stroke:none;fill-rule:evenodd;"
d="M 123.190000,135.398000
123.207127,135.311896
123.255901,135.238901
123.328896,135.190127
123.415000,135.173000
123.865000,135.173000
123.951104,135.190127
124.024099,135.238901
124.072873,135.311896
124.090000,135.398000
124.090000,135.898000
124.072873,135.984104
124.024099,136.057099
123.951104,136.105873
123.865000,136.123000
123.415000,136.123000
123.328896,136.105873
123.255901,136.057099
123.207127,135.984104
123.190000,135.898000
Z" /> 
<path style="fill:#000000; fill-opacity:1.000000; stroke:none;fill-rule:evenodd;"
d="M 117.590000,139.103750
117.606651,139.020038
117.654070,138.949070
117.725038,138.901651
117.808750,138.885000
118.246250,138.885000
118.329962,138.901651
118.400930,138.949070
118.448349,139.020038
118.465000,139.103750
118.465000,139.616250
118.448349,139.699962
118.400930,139.770930
118.329962,139.818349
118.246250,139.835000
117.808750,139.835000
117.725038,139.818349
117.654070,139.770930
117.606651,139.699962
117.590000,139.616250
Z" /> 
<path style="fill:#000000; fill-opacity:1.000000; stroke:none;fill-rule:evenodd;"
d="M 119.165000,139.103750
119.181651,139.020038
119.229070,138.949070
119.300038,138.901651
119.383750,138.885000
119.821250,138.885000
119.904962,138.901651
119.975930,138.949070
120.023349,139.020038
120.040000,139.103750
120.040000,139.616250
120.023349,139.699962
119.975930,139.770930
119.904962,139.818349
119.821250,139.835000
119.383750,139.835000
119.300038,139.818349
119.229070,139.770930
119.181651,139.699962
119.165000,139.616250
Z" /> 
<path style="fill:#000000; fill-opacity:1.000000; stroke:none;fill-rule:evenodd;"
d="M 121.640000,92.957000
121.655224,92.880463
121.698579,92.815579
121.763463,92.772224
121.840000,92.757000
122.240000,92.757000
122.316537,92.772224
122.381421,92.815579
122.424776,92.880463
122.440000,92.957000
122.440000,93.507000
122.424776,93.583537
122.381421,93.648421
122.316537,93.691776
122.240000,93.707000
121.840000,93.707000
121.763463,93.691776
121.698579,93.648421
121.655224,93.583537
121.640000,93.507000
Z" /> 
<path style="fill:#000000; fill-opacity:1.000000; stroke:none;fill-rule:evenodd;"
d="M 123.290000,92.957000
123.305224,92.880463
123.348579,92.815579
123.413463,92.772224
123.490000,92.757000
123.890000,92.757000
123.966537,92.772224
124.031421,92.815579
124.074776,92.880463
124.090000,92.957000
124.090000,93.507000
124.074776,93.583537
124.031421,93.648421
123.966537,93.691776
123.890000,93.707000
123.490000,93.707000
123.413463,93.691776
123.348579,93.648421
123.305224,93.583537
123.290000,93.507000
Z" /> 
<path style="fill:#000000; fill-opacity:1.000000; stroke:none;fill-rule:evenodd;"
d="M 121.640000,82.190000
121.657127,82.103896
121.705901,82.030901
121.778896,81.982127
121.865000,81.965000
122.315000,81.965000
122.401104,81.982127
122.474099,82.030901
122.522873,82.103896
122.540000,82.190000
122.540000,82.690000
122.522873,82.776104
122.474099,82.849099
122.401104,82.897873
122.315000,82.915000
121.865000,82.915000
121.778896,82.897873
121.705901,82.849099
121.657127,82.776104
121.640000,82.690000
Z" /> 
<path style="fill:#000000; fill-opacity:1.000000; stroke:none;fill-rule:evenodd;"
d="M 123.190000,82.190000
123.207127,82.103896
123.255901,82.030901
123.328896,81.982127
123.415000,81.965000
123.865000,81.965000
123.951104,81.982127
124.024099,82.030901
124.072873,82.103896
124.090000,82.190000
124.090000,82.690000
124.072873,82.776104
124.024099,82.849099
123.951104,82.897873
123.865000,82.915000
123.415000,82.915000
123.328896,82.897873
123.255901,82.849099
123.207127,82.776104
123.190000,82.690000
Z" /> 
<path style="fill:#000000; fill-opacity:1.000000; stroke:none;fill-rule:evenodd;"
d="M 121.640000,103.749000
121.655224,103.672463
121.698579,103.607579
121.763463,103.564224
121.840000,103.549000
122.240000,103.549000
122.316537,103.564224
122.381421,103.607579
122.424776,103.672463
122.440000,103.749000
122.440000,104.299000
122.424776,104.375537
122.381421,104.440421
122.316537,104.483776
122.240000,104.499000
121.840000,104.499000
121.763463,104.483776
121.698579,104.440421
121.655224,104.375537
121.640000,104.299000
Z" /> 
<path style="fill:#000000; fill-opacity:1.000000; stroke:none;fill-rule:evenodd;"
d="M 123.290000,103.749000
123.305224,103.672463
123.348579,103.607579
123.413463,103.564224
123.490000,103.549000
123.890000,103.549000
123.966537,103.564224
124.031421,103.607579
124.074776,103.672463
124.090000,103.749000
124.090000,104.299000
124.074776,104.375537
124.031421,104.440421
123.966537,104.483776
123.890000,104.499000
123.490000,104.499000
123.413463,104.483776
123.348579,104.440421
123.305224,104.375537
123.290000,104.299000
Z" /> 
<path style="fill:#000000; fill-opacity:1.000000; stroke:none;fill-rule:evenodd;"
d="M 121.640000,148.700000
121.657127,148.613896
121.705901,148.540901
121.778896,148.492127
121.865000,148.475000
122.315000,148.475000
122.401104,148.492127
122.474099,148.540901
122.522873,148.613896
122.540000,148.700000
122.540000,149.200000
122.522873,149.286104
122.474099,149.359099
122.401104,149.407873
122.315000,149.425000
121.865000,149.425000
121.778896,149.407873
121.705901,149.359099
121.657127,149.286104
121.640000,149.200000
Z" /> 
<path style="fill:#000000; fill-opacity:1.000000; stroke:none;fill-rule:evenodd;"
d="M 123.190000,148.700000
123.207127,148.613896
123.255901,148.540901
123.328896,148.492127
123.415000,148.475000
123.865000,148.475000
123.951104,148.492127
124.024099,148.540901
124.072873,148.613896
124.090000,148.700000
124.090000,149.200000
124.072873,149.286104
124.024099,149.359099
123.951104,149.407873
123.865000,149.425000
123.415000,149.425000
123.328896,149.407873
123.255901,149.359099
123.207127,149.286104
123.190000,149.200000
Z" /> 
<path style="fill:#000000; fill-opacity:1.000000; stroke:none;fill-rule:evenodd;"
d="M 117.135000,107.024000
117.115970,107.119671
117.061777,107.200777
116.980671,107.254970
116.885000,107.274000
116.385000,107.274000
116.289329,107.254970
116.208223,107.200777
116.154030,107.119671
116.135000,107.024000
116.135000,102.024000
116.154030,101.928329
116.208223,101.847223
116.289329,101.793030
116.385000,101.774000
116.885000,101.774000
116.980671,101.793030
117.061777,101.847223
117.115970,101.928329
117.135000,102.024000
Z" /> 
<path style="fill:#000000; fill-opacity:1.000000; stroke:none;fill-rule:evenodd;"
d="M 115.135000,107.024000
115.115970,107.119671
115.061777,107.200777
114.980671,107.254970
114.885000,107.274000
114.385000,107.274000
114.289329,107.254970
114.208223,107.200777
114.154030,107.119671
114.135000,107.024000
114.135000,102.024000
114.154030,101.928329
114.208223,101.847223
114.289329,101.793030
114.385000,101.774000
114.885000,101.774000
114.980671,101.793030
115.061777,101.847223
115.115970,101.928329
115.135000,102.024000
Z" /> 
<path style="fill:#000000; fill-opacity:1.000000; stroke:none;fill-rule:evenodd;"
d="M 113.135000,107.024000
113.115970,107.119671
113.061777,107.200777
112.980671,107.254970
112.885000,107.274000
112.385000,107.274000
112.289329,107.254970
112.208223,107.200777
112.154030,107.119671
112.135000,107.024000
112.135000,102.024000
112.154030,101.928329
112.208223,101.847223
112.289329,101.793030
112.385000,101.774000
112.885000,101.774000
112.980671,101.793030
113.061777,101.847223
113.115970,101.928329
113.135000,102.024000
Z" /> 
<path style="fill:#000000; fill-opacity:1.000000; stroke:none;fill-rule:evenodd;"
d="M 119.835000,108.024000
119.815970,108.119671
119.761777,108.200777
119.680671,108.254970
119.585000,108.274000
118.485000,108.274000
118.389329,108.254970
118.308223,108.200777
118.254030,108.119671
118.235000,108.024000
118.235000,105.524000
118.254030,105.428329
118.308223,105.347223
118.389329,105.293030
118.485000,105.274000
119.585000,105.274000
119.680671,105.293030
119.761777,105.347223
119.815970,105.428329
119.835000,105.524000
Z" /> 
<path style="fill:#000000; fill-opacity:1.000000; stroke:none;fill-rule:evenodd;"
d="M 111.035000,108.024000
111.015970,108.119671
110.961777,108.200777
110.880671,108.254970
110.785000,108.274000
109.685000,108.274000
109.589329,108.254970
109.508223,108.200777
109.454030,108.119671
109.435000,108.024000
109.435000,105.524000
109.454030,105.428329
109.508223,105.347223
109.589329,105.293030
109.685000,105.274000
110.785000,105.274000
110.880671,105.293030
110.961777,105.347223
111.015970,105.428329
111.035000,105.524000
Z" /> 
<path style="fill:#000000; fill-opacity:1.000000; stroke:none;fill-rule:evenodd;"
d="M 121.640000,108.794000
121.657127,108.707896
121.705901,108.634901
121.778896,108.586127
121.865000,108.569000
122.315000,108.569000
122.401104,108.586127
122.474099,108.634901
122.522873,108.707896
122.540000,108.794000
122.540000,109.294000
122.522873,109.380104
122.474099,109.453099
122.401104,109.501873
122.315000,109.519000
121.865000,109.519000
121.778896,109.501873
121.705901,109.453099
121.657127,109.380104
121.640000,109.294000
Z" /> 
<path style="fill:#000000; fill-opacity:1.000000; stroke:none;fill-rule:evenodd;"
d="M 123.190000,108.794000
123.207127,108.707896
123.255901,108.634901
123.328896,108.586127
123.415000,108.569000
123.865000,108.569000
123.951104,108.586127
124.024099,108.634901
124.072873,108.707896
124.090000,108.794000
124.090000,109.294000
124.072873,109.380104
124.024099,109.453099
123.951104,109.501873
123.865000,109.519000
123.415000,109.519000
123.328896,109.501873
123.255901,109.453099
123.207127,109.380104
123.190000,109.294000
Z" /> 
<path style="fill:#000000; fill-opacity:1.000000; stroke:none;fill-rule:evenodd;"
d="M 117.135000,146.930000
117.115970,147.025671
117.061777,147.106777
116.980671,147.160970
116.885000,147.180000
116.385000,147.180000
116.289329,147.160970
116.208223,147.106777
116.154030,147.025671
116.135000,146.930000
116.135000,141.930000
116.154030,141.834329
116.208223,141.753223
116.289329,141.699030
116.385000,141.680000
116.885000,141.680000
116.980671,141.699030
117.061777,141.753223
117.115970,141.834329
117.135000,141.930000
Z" /> 
<path style="fill:#000000; fill-opacity:1.000000; stroke:none;fill-rule:evenodd;"
d="M 115.135000,146.930000
115.115970,147.025671
115.061777,147.106777
114.980671,147.160970
114.885000,147.180000
114.385000,147.180000
114.289329,147.160970
114.208223,147.106777
114.154030,147.025671
114.135000,146.930000
114.135000,141.930000
114.154030,141.834329
114.208223,141.753223
114.289329,141.699030
114.385000,141.680000
114.885000,141.680000
114.980671,141.699030
115.061777,141.753223
115.115970,141.834329
115.135000,141.930000
Z" /> 
<path style="fill:#000000; fill-opacity:1.000000; stroke:none;fill-rule:evenodd;"
d="M 113.135000,146.930000
113.115970,147.025671
113.061777,147.106777
112.980671,147.160970
112.885000,147.180000
112.385000,147.180000
112.289329,147.160970
112.208223,147.106777
112.154030,147.025671
112.135000,146.930000
112.135000,141.930000
112.154030,141.834329
112.208223,141.753223
112.289329,141.699030
112.385000,141.680000
112.885000,141.680000
112.980671,141.699030
113.061777,141.753223
113.115970,141.834329
113.135000,141.930000
Z" /> 
<path style="fill:#000000; fill-opacity:1.000000; stroke:none;fill-rule:evenodd;"
d="M 119.835000,147.930000
119.815970,148.025671
119.761777,148.106777
119.680671,148.160970
119.585000,148.180000
118.485000,148.180000
118.389329,148.160970
118.308223,148.106777
118.254030,148.025671
118.235000,147.930000
118.235000,145.430000
118.254030,145.334329
118.308223,145.253223
118.389329,145.199030
118.485000,145.180000
119.585000,145.180000
119.680671,145.199030
119.761777,145.253223
119.815970,145.334329
119.835000,145.430000
Z" /> 
<path style="fill:#000000; fill-opacity:1.000000; stroke:none;fill-rule:evenodd;"
d="M 111.035000,147.930000
111.015970,148.025671
110.961777,148.106777
110.880671,148.160970
110.785000,148.180000
109.685000,148.180000
109.589329,148.160970
109.508223,148.106777
109.454030,148.025671
109.435000,147.930000
109.435000,145.430000
109.454030,145.334329
109.508223,145.253223
109.589329,145.199030
109.685000,145.180000
110.785000,145.180000
110.880671,145.199030
110.961777,145.253223
111.015970,145.334329
111.035000,145.430000
Z" /> 
<path style="fill:#000000; fill-opacity:1.000000; stroke:none;fill-rule:evenodd;"
d="M 121.640000,101.239000
121.655224,101.162463
121.698579,101.097579
121.763463,101.054224
121.840000,101.039000
122.240000,101.039000
122.316537,101.054224
122.381421,101.097579
122.424776,101.162463
122.440000,101.239000
122.440000,101.789000
122.424776,101.865537
122.381421,101.930421
122.316537,101.973776
122.240000,101.989000
121.840000,101.989000
121.763463,101.973776
121.698579,101.930421
121.655224,101.865537
121.640000,101.789000
Z" /> 
<path style="fill:#000000; fill-opacity:1.000000; stroke:none;fill-rule:evenodd;"
d="M 123.290000,101.239000
123.305224,101.162463
123.348579,101.097579
123.413463,101.054224
123.490000,101.039000
123.890000,101.039000
123.966537,101.054224
124.031421,101.097579
124.074776,101.162463
124.090000,101.239000
124.090000,101.789000
124.074776,101.865537
124.031421,101.930421
123.966537,101.973776
123.890000,101.989000
123.490000,101.989000
123.413463,101.973776
123.348579,101.930421
123.305224,101.865537
123.290000,101.789000
Z" /> 
<path style="fill:#000000; fill-opacity:1.000000; stroke:none;fill-rule:evenodd;"
d="M 117.590000,85.895750
117.606651,85.812038
117.654070,85.741070
117.725038,85.693651
117.808750,85.677000
118.246250,85.677000
118.329962,85.693651
118.400930,85.741070
118.448349,85.812038
118.465000,85.895750
118.465000,86.408250
118.448349,86.491962
118.400930,86.562930
118.329962,86.610349
118.246250,86.627000
117.808750,86.627000
117.725038,86.610349
117.654070,86.562930
117.606651,86.491962
117.590000,86.408250
Z" /> 
<path style="fill:#000000; fill-opacity:1.000000; stroke:none;fill-rule:evenodd;"
d="M 119.165000,85.895750
119.181651,85.812038
119.229070,85.741070
119.300038,85.693651
119.383750,85.677000
119.821250,85.677000
119.904962,85.693651
119.975930,85.741070
120.023349,85.812038
120.040000,85.895750
120.040000,86.408250
120.023349,86.491962
119.975930,86.562930
119.904962,86.610349
119.821250,86.627000
119.383750,86.627000
119.300038,86.610349
119.229070,86.562930
119.181651,86.491962
119.165000,86.408250
Z" /> 
<path style="fill:#000000; fill-opacity:1.000000; stroke:none;fill-rule:evenodd;"
d="M 121.640000,95.492000
121.657127,95.405896
121.705901,95.332901
121.778896,95.284127
121.865000,95.267000
122.315000,95.267000
122.401104,95.284127
122.474099,95.332901
122.522873,95.405896
122.540000,95.492000
122.540000,95.992000
122.522873,96.078104
122.474099,96.151099
122.401104,96.199873
122.315000,96.217000
121.865000,96.217000
121.778896,96.199873
121.705901,96.151099
121.657127,96.078104
121.640000,95.992000
Z" /> 
<path style="fill:#000000; fill-opacity:1.000000; stroke:none;fill-rule:evenodd;"
d="M 123.190000,95.492000
123.207127,95.405896
123.255901,95.332901
123.328896,95.284127
123.415000,95.267000
123.865000,95.267000
123.951104,95.284127
124.024099,95.332901
124.072873,95.405896
124.090000,95.492000
124.090000,95.992000
124.072873,96.078104
124.024099,96.151099
123.951104,96.199873
123.865000,96.217000
123.415000,96.217000
123.328896,96.199873
123.255901,96.151099
123.207127,96.078104
123.190000,95.992000
Z" /> 
<path style="fill:#000000; fill-opacity:1.000000; stroke:none;fill-rule:evenodd;"
d="M 117.135000,80.420000
117.115970,80.515671
117.061777,80.596777
116.980671,80.650970
116.885000,80.670000
116.385000,80.670000
116.289329,80.650970
116.208223,80.596777
116.154030,80.515671
116.135000,80.420000
116.135000,75.420000
116.154030,75.324329
116.208223,75.243223
116.289329,75.189030
116.385000,75.170000
116.885000,75.170000
116.980671,75.189030
117.061777,75.243223
117.115970,75.324329
117.135000,75.420000
Z" /> 
<path style="fill:#000000; fill-opacity:1.000000; stroke:none;fill-rule:evenodd;"
d="M 115.135000,80.420000
115.115970,80.515671
115.061777,80.596777
114.980671,80.650970
114.885000,80.670000
114.385000,80.670000
114.289329,80.650970
114.208223,80.596777
114.154030,80.515671
114.135000,80.420000
114.135000,75.420000
114.154030,75.324329
114.208223,75.243223
114.289329,75.189030
114.385000,75.170000
114.885000,75.170000
114.980671,75.189030
115.061777,75.243223
115.115970,75.324329
115.135000,75.420000
Z" /> 
<path style="fill:#000000; fill-opacity:1.000000; stroke:none;fill-rule:evenodd;"
d="M 113.135000,80.420000
113.115970,80.515671
113.061777,80.596777
112.980671,80.650970
112.885000,80.670000
112.385000,80.670000
112.289329,80.650970
112.208223,80.596777
112.154030,80.515671
112.135000,80.420000
112.135000,75.420000
112.154030,75.324329
112.208223,75.243223
112.289329,75.189030
112.385000,75.170000
112.885000,75.170000
112.980671,75.189030
113.061777,75.243223
113.115970,75.324329
113.135000,75.420000
Z" /> 
<path style="fill:#000000; fill-opacity:1.000000; stroke:none;fill-rule:evenodd;"
d="M 119.835000,81.420000
119.815970,81.515671
119.761777,81.596777
119.680671,81.650970
119.585000,81.670000
118.485000,81.670000
118.389329,81.650970
118.308223,81.596777
118.254030,81.515671
118.235000,81.420000
118.235000,78.920000
118.254030,78.824329
118.308223,78.743223
118.389329,78.689030
118.485000,78.670000
119.585000,78.670000
119.680671,78.689030
119.761777,78.743223
119.815970,78.824329
119.835000,78.920000
Z" /> 
<path style="fill:#000000; fill-opacity:1.000000; stroke:none;fill-rule:evenodd;"
d="M 111.035000,81.420000
111.015970,81.515671
110.961777,81.596777
110.880671,81.650970
110.785000,81.670000
109.685000,81.670000
109.589329,81.650970
109.508223,81.596777
109.454030,81.515671
109.435000,81.420000
109.435000,78.920000
109.454030,78.824329
109.508223,78.743223
109.589329,78.689030
109.685000,78.670000
110.785000,78.670000
110.880671,78.689030
110.961777,78.743223
111.015970,78.824329
111.035000,78.920000
Z" /> 
<path style="fill:#000000; fill-opacity:1.000000; stroke:none;fill-rule:evenodd;"
d="M 121.452500,121.996000
121.469627,121.909896
121.518401,121.836901
121.591396,121.788127
121.677500,121.771000
122.127500,121.771000
122.213604,121.788127
122.286599,121.836901
122.335373,121.909896
122.352500,121.996000
122.352500,122.496000
122.335373,122.582104
122.286599,122.655099
122.213604,122.703873
122.127500,122.721000
121.677500,122.721000
121.591396,122.703873
121.518401,122.655099
121.469627,122.582104
121.452500,122.496000
Z" /> 
<path style="fill:#000000; fill-opacity:1.000000; stroke:none;fill-rule:evenodd;"
d="M 123.002500,121.996000
123.019627,121.909896
123.068401,121.836901
123.141396,121.788127
123.227500,121.771000
123.677500,121.771000
123.763604,121.788127
123.836599,121.836901
123.885373,121.909896
123.902500,121.996000
123.902500,122.496000
123.885373,122.582104
123.836599,122.655099
123.763604,122.703873
123.677500,122.721000
123.227500,122.721000
123.141396,122.703873
123.068401,122.655099
123.019627,122.582104
123.002500,122.496000
Z" /> 
<path style="fill:#000000; fill-opacity:1.000000; stroke:none;fill-rule:evenodd;"
d="M 121.640000,74.635000
121.655224,74.558463
121.698579,74.493579
121.763463,74.450224
121.840000,74.435000
122.240000,74.435000
122.316537,74.450224
122.381421,74.493579
122.424776,74.558463
122.440000,74.635000
122.440000,75.185000
122.424776,75.261537
122.381421,75.326421
122.316537,75.369776
122.240000,75.385000
121.840000,75.385000
121.763463,75.369776
121.698579,75.326421
121.655224,75.261537
121.640000,75.185000
Z" /> 
<path style="fill:#000000; fill-opacity:1.000000; stroke:none;fill-rule:evenodd;"
d="M 123.290000,74.635000
123.305224,74.558463
123.348579,74.493579
123.413463,74.450224
123.490000,74.435000
123.890000,74.435000
123.966537,74.450224
124.031421,74.493579
124.074776,74.558463
124.090000,74.635000
124.090000,75.185000
124.074776,75.261537
124.031421,75.326421
123.966537,75.369776
123.890000,75.385000
123.490000,75.385000
123.413463,75.369776
123.348579,75.326421
123.305224,75.261537
123.290000,75.185000
Z" /> 
<path style="fill:#000000; fill-opacity:1.000000; stroke:none;fill-rule:evenodd;"
d="M 117.590000,125.801750
117.606651,125.718038
117.654070,125.647070
117.725038,125.599651
117.808750,125.583000
118.246250,125.583000
118.329962,125.599651
118.400930,125.647070
118.448349,125.718038
118.465000,125.801750
118.465000,126.314250
118.448349,126.397962
118.400930,126.468930
118.329962,126.516349
118.246250,126.533000
117.808750,126.533000
117.725038,126.516349
117.654070,126.468930
117.606651,126.397962
117.590000,126.314250
Z" /> 
<path style="fill:#000000; fill-opacity:1.000000; stroke:none;fill-rule:evenodd;"
d="M 119.165000,125.801750
119.181651,125.718038
119.229070,125.647070
119.300038,125.599651
119.383750,125.583000
119.821250,125.583000
119.904962,125.599651
119.975930,125.647070
120.023349,125.718038
120.040000,125.801750
120.040000,126.314250
120.023349,126.397962
119.975930,126.468930
119.904962,126.516349
119.821250,126.533000
119.383750,126.533000
119.300038,126.516349
119.229070,126.468930
119.181651,126.397962
119.165000,126.314250
Z" /> 
<path style="fill:#000000; fill-opacity:1.000000; stroke:none;fill-rule:evenodd;"
d="M 117.695000,112.599750
117.711651,112.516038
117.759070,112.445070
117.830038,112.397651
117.913750,112.381000
118.351250,112.381000
118.434962,112.397651
118.505930,112.445070
118.553349,112.516038
118.570000,112.599750
118.570000,113.112250
118.553349,113.195962
118.505930,113.266930
118.434962,113.314349
118.351250,113.331000
117.913750,113.331000
117.830038,113.314349
117.759070,113.266930
117.711651,113.195962
117.695000,113.112250
Z" /> 
<path style="fill:#000000; fill-opacity:1.000000; stroke:none;fill-rule:evenodd;"
d="M 119.270000,112.599750
119.286651,112.516038
119.334070,112.445070
119.405038,112.397651
119.488750,112.381000
119.926250,112.381000
120.009962,112.397651
120.080930,112.445070
120.128349,112.516038
120.145000,112.599750
120.145000,113.112250
120.128349,113.195962
120.080930,113.266930
120.009962,113.314349
119.926250,113.331000
119.488750,113.331000
119.405038,113.314349
119.334070,113.266930
119.286651,113.195962
119.270000,113.112250
Z" /> 
<path style="fill:#000000; fill-opacity:1.000000; stroke:none;fill-rule:evenodd;"
d="M 121.640000,87.937000
121.655224,87.860463
121.698579,87.795579
121.763463,87.752224
121.840000,87.737000
122.240000,87.737000
122.316537,87.752224
122.381421,87.795579
122.424776,87.860463
122.440000,87.937000
122.440000,88.487000
122.424776,88.563537
122.381421,88.628421
122.316537,88.671776
122.240000,88.687000
121.840000,88.687000
121.763463,88.671776
121.698579,88.628421
121.655224,88.563537
121.640000,88.487000
Z" /> 
<path style="fill:#000000; fill-opacity:1.000000; stroke:none;fill-rule:evenodd;"
d="M 123.290000,87.937000
123.305224,87.860463
123.348579,87.795579
123.413463,87.752224
123.490000,87.737000
123.890000,87.737000
123.966537,87.752224
124.031421,87.795579
124.074776,87.860463
124.090000,87.937000
124.090000,88.487000
124.074776,88.563537
124.031421,88.628421
123.966537,88.671776
123.890000,88.687000
123.490000,88.687000
123.413463,88.671776
123.348579,88.628421
123.305224,88.563537
123.290000,88.487000
Z" /> 
<path style="fill:#000000; fill-opacity:1.000000; stroke:none;fill-rule:evenodd;"
d="M 130.650000,111.385000
128.650000,111.385000
128.650000,110.775000
130.650000,110.775000
Z" /> 
<path style="fill:#000000; fill-opacity:1.000000; stroke:none;fill-rule:evenodd;"
d="M 130.650000,110.385000
128.650000,110.385000
128.650000,109.775000
130.650000,109.775000
Z" /> 
<path style="fill:#000000; fill-opacity:1.000000; stroke:none;fill-rule:evenodd;"
d="M 130.650000,109.385000
128.650000,109.385000
128.650000,108.775000
130.650000,108.775000
Z" /> 
<path style="fill:#000000; fill-opacity:1.000000; stroke:none;fill-rule:evenodd;"
d="M 130.650000,108.385000
128.650000,108.385000
128.650000,107.775000
130.650000,107.775000
Z" /> 
<path style="fill:#000000; fill-opacity:1.000000; stroke:none;fill-rule:evenodd;"
d="M 130.650000,107.385000
128.650000,107.385000
128.650000,106.775000
130.650000,106.775000
Z" /> 
<path style="fill:#000000; fill-opacity:1.000000; stroke:none;fill-rule:evenodd;"
d="M 130.650000,106.385000
128.650000,106.385000
128.650000,105.775000
130.650000,105.775000
Z" /> 
<path style="fill:#000000; fill-opacity:1.000000; stroke:none;fill-rule:evenodd;"
d="M 130.650000,105.385000
128.650000,105.385000
128.650000,104.775000
130.650000,104.775000
Z" /> 
<path style="fill:#000000; fill-opacity:1.000000; stroke:none;fill-rule:evenodd;"
d="M 130.650000,104.385000
128.650000,104.385000
128.650000,103.775000
130.650000,103.775000
Z" /> 
<path style="fill:#000000; fill-opacity:1.000000; stroke:none;fill-rule:evenodd;"
d="M 130.650000,103.385000
128.650000,103.385000
128.650000,102.775000
130.650000,102.775000
Z" /> 
<path style="fill:#000000; fill-opacity:1.000000; stroke:none;fill-rule:evenodd;"
d="M 130.650000,102.385000
128.650000,102.385000
128.650000,101.775000
130.650000,101.775000
Z" /> 
<path style="fill:#000000; fill-opacity:1.000000; stroke:none;fill-rule:evenodd;"
d="M 130.650000,101.385000
128.650000,101.385000
128.650000,100.775000
130.650000,100.775000
Z" /> 
<path style="fill:#000000; fill-opacity:1.000000; stroke:none;fill-rule:evenodd;"
d="M 130.650000,100.385000
128.650000,100.385000
128.650000,99.775000
130.650000,99.775000
Z" /> 
<path style="fill:#000000; fill-opacity:1.000000; stroke:none;fill-rule:evenodd;"
d="M 130.650000,99.385000
128.650000,99.385000
128.650000,98.775000
130.650000,98.775000
Z" /> 
<path style="fill:#000000; fill-opacity:1.000000; stroke:none;fill-rule:evenodd;"
d="M 130.650000,98.385000
128.650000,98.385000
128.650000,97.775000
130.650000,97.775000
Z" /> 
<path style="fill:#000000; fill-opacity:1.000000; stroke:none;fill-rule:evenodd;"
d="M 130.650000,97.385000
128.650000,97.385000
128.650000,96.775000
130.650000,96.775000
Z" /> 
<path style="fill:#000000; fill-opacity:1.000000; stroke:none;fill-rule:evenodd;"
d="M 130.650000,96.385000
128.650000,96.385000
128.650000,95.775000
130.650000,95.775000
Z" /> 
<path style="fill:#000000; fill-opacity:1.000000; stroke:none;fill-rule:evenodd;"
d="M 134.250000,115.410000
130.650000,115.410000
130.650000,112.730000
134.250000,112.730000
Z" /> 
<path style="fill:#000000; fill-opacity:1.000000; stroke:none;fill-rule:evenodd;"
d="M 134.250000,94.430000
130.650000,94.430000
130.650000,91.750000
134.250000,91.750000
Z" /> 
</g> 
</svg>
