<?xml version="1.0" standalone="no"?>
 <!DOCTYPE svg PUBLIC "-//W3C//DTD SVG 1.1//EN" 
 "http://www.w3.org/Graphics/SVG/1.1/DTD/svg11.dtd"> 
<svg
  xmlns:svg="http://www.w3.org/2000/svg"
  xmlns="http://www.w3.org/2000/svg"
  xmlns:xlink="http://www.w3.org/1999/xlink"
  xmlns:inkscape="http://www.inkscape.org/namespaces/inkscape"
  version="1.1"
  width="297.002200mm" height="210.007200mm" viewBox="0.000000 0.000000 297.002200 210.007200">
<title>SVG Image created as ringLight-F_Paste.svg date 2026-06-13T21:49:56 </title>
  <desc>Image generated by PCBNEW </desc>
<g style="fill:#000000; fill-opacity:1.000000;stroke:#000000; stroke-opacity:1.000000;
stroke-linecap:round; stroke-linejoin:round;"
 transform="translate(0 0) scale(1 1)">
<path style="fill:#000000; fill-opacity:1.000000; stroke:none;fill-rule:evenodd;"
d="M 16.800000,-36.100000
16.800000,-37.100000
18.300000,-37.100000
18.300000,-36.100000
Z" /> 
<path style="fill:#000000; fill-opacity:1.000000; stroke:none;fill-rule:evenodd;"
d="M 16.800000,-32.900000
16.800000,-33.900000
18.300000,-33.900000
18.300000,-32.900000
Z" /> 
<path style="fill:#000000; fill-opacity:1.000000; stroke:none;fill-rule:evenodd;"
d="M 21.700000,-32.900000
21.700000,-33.900000
23.200000,-33.900000
23.200000,-32.900000
Z" /> 
<path style="fill:#000000; fill-opacity:1.000000; stroke:none;fill-rule:evenodd;"
d="M 21.700000,-36.100000
21.700000,-37.100000
23.200000,-37.100000
23.200000,-36.100000
Z" /> 
<path style="fill:#000000; fill-opacity:1.000000; stroke:none;fill-rule:evenodd;"
d="M 6.352840,-29.121677
5.645734,-29.828783
6.706394,-30.889443
7.413500,-30.182337
Z" /> 
<path style="fill:#000000; fill-opacity:1.000000; stroke:none;fill-rule:evenodd;"
d="M 8.615581,-26.858936
7.908475,-27.566042
8.969135,-28.626702
9.676241,-27.919596
Z" /> 
<path style="fill:#000000; fill-opacity:1.000000; stroke:none;fill-rule:evenodd;"
d="M 12.080404,-30.323759
11.373298,-31.030865
12.433958,-32.091525
13.141064,-31.384419
Z" /> 
<path style="fill:#000000; fill-opacity:1.000000; stroke:none;fill-rule:evenodd;"
d="M 9.817663,-32.586500
9.110557,-33.293606
10.171217,-34.354266
10.878323,-33.647160
Z" /> 
<path style="fill:#000000; fill-opacity:1.000000; stroke:none;fill-rule:evenodd;"
d="M 3.900000,-16.800000
2.900000,-16.800000
2.900000,-18.300000
3.900000,-18.300000
Z" /> 
<path style="fill:#000000; fill-opacity:1.000000; stroke:none;fill-rule:evenodd;"
d="M 7.100000,-16.800000
6.100000,-16.800000
6.100000,-18.300000
7.100000,-18.300000
Z" /> 
<path style="fill:#000000; fill-opacity:1.000000; stroke:none;fill-rule:evenodd;"
d="M 7.100000,-21.700000
6.100000,-21.700000
6.100000,-23.200000
7.100000,-23.200000
Z" /> 
<path style="fill:#000000; fill-opacity:1.000000; stroke:none;fill-rule:evenodd;"
d="M 3.900000,-21.700000
2.900000,-21.700000
2.900000,-23.200000
3.900000,-23.200000
Z" /> 
<path style="fill:#000000; fill-opacity:1.000000; stroke:none;fill-rule:evenodd;"
d="M 10.878323,-6.352840
10.171217,-5.645734
9.110557,-6.706394
9.817663,-7.413500
Z" /> 
<path style="fill:#000000; fill-opacity:1.000000; stroke:none;fill-rule:evenodd;"
d="M 13.141064,-8.615581
12.433958,-7.908475
11.373298,-8.969135
12.080404,-9.676241
Z" /> 
<path style="fill:#000000; fill-opacity:1.000000; stroke:none;fill-rule:evenodd;"
d="M 9.676241,-12.080404
8.969135,-11.373298
7.908475,-12.433958
8.615581,-13.141064
Z" /> 
<path style="fill:#000000; fill-opacity:1.000000; stroke:none;fill-rule:evenodd;"
d="M 7.413500,-9.817663
6.706394,-9.110557
5.645734,-10.171217
6.352840,-10.878323
Z" /> 
<path style="fill:#000000; fill-opacity:1.000000; stroke:none;fill-rule:evenodd;"
d="M 23.200000,-3.900000
23.200000,-2.900000
21.700000,-2.900000
21.700000,-3.900000
Z" /> 
<path style="fill:#000000; fill-opacity:1.000000; stroke:none;fill-rule:evenodd;"
d="M 23.200000,-7.100000
23.200000,-6.100000
21.700000,-6.100000
21.700000,-7.100000
Z" /> 
<path style="fill:#000000; fill-opacity:1.000000; stroke:none;fill-rule:evenodd;"
d="M 18.300000,-7.100000
18.300000,-6.100000
16.800000,-6.100000
16.800000,-7.100000
Z" /> 
<path style="fill:#000000; fill-opacity:1.000000; stroke:none;fill-rule:evenodd;"
d="M 18.300000,-3.900000
18.300000,-2.900000
16.800000,-2.900000
16.800000,-3.900000
Z" /> 
<path style="fill:#000000; fill-opacity:1.000000; stroke:none;fill-rule:evenodd;"
d="M 33.647160,-10.878323
34.354266,-10.171217
33.293606,-9.110557
32.586500,-9.817663
Z" /> 
<path style="fill:#000000; fill-opacity:1.000000; stroke:none;fill-rule:evenodd;"
d="M 31.384419,-13.141064
32.091525,-12.433958
31.030865,-11.373298
30.323759,-12.080404
Z" /> 
<path style="fill:#000000; fill-opacity:1.000000; stroke:none;fill-rule:evenodd;"
d="M 27.919596,-9.676241
28.626702,-8.969135
27.566042,-7.908475
26.858936,-8.615581
Z" /> 
<path style="fill:#000000; fill-opacity:1.000000; stroke:none;fill-rule:evenodd;"
d="M 30.182337,-7.413500
30.889443,-6.706394
29.828783,-5.645734
29.121677,-6.352840
Z" /> 
<path style="fill:#000000; fill-opacity:1.000000; stroke:none;fill-rule:evenodd;"
d="M 36.100000,-23.200000
37.100000,-23.200000
37.100000,-21.700000
36.100000,-21.700000
Z" /> 
<path style="fill:#000000; fill-opacity:1.000000; stroke:none;fill-rule:evenodd;"
d="M 32.900000,-23.200000
33.900000,-23.200000
33.900000,-21.700000
32.900000,-21.700000
Z" /> 
<path style="fill:#000000; fill-opacity:1.000000; stroke:none;fill-rule:evenodd;"
d="M 32.900000,-18.300000
33.900000,-18.300000
33.900000,-16.800000
32.900000,-16.800000
Z" /> 
<path style="fill:#000000; fill-opacity:1.000000; stroke:none;fill-rule:evenodd;"
d="M 36.100000,-18.300000
37.100000,-18.300000
37.100000,-16.800000
36.100000,-16.800000
Z" /> 
<path style="fill:#000000; fill-opacity:1.000000; stroke:none;fill-rule:evenodd;"
d="M 29.121677,-33.647160
29.828783,-34.354266
30.889443,-33.293606
30.182337,-32.586500
Z" /> 
<path style="fill:#000000; fill-opacity:1.000000; stroke:none;fill-rule:evenodd;"
d="M 26.858936,-31.384419
27.566042,-32.091525
28.626702,-31.030865
27.919596,-30.323759
Z" /> 
<path style="fill:#000000; fill-opacity:1.000000; stroke:none;fill-rule:evenodd;"
d="M 30.323759,-27.919596
31.030865,-28.626702
32.091525,-27.566042
31.384419,-26.858936
Z" /> 
<path style="fill:#000000; fill-opacity:1.000000; stroke:none;fill-rule:evenodd;"
d="M 32.586500,-30.182337
33.293606,-30.889443
34.354266,-29.828783
33.647160,-29.121677
Z" /> 
<path style="fill:#000000; fill-opacity:1.000000; stroke:none;fill-rule:evenodd;"
d="M 15.573496,-36.995586
15.669167,-36.976556
15.750273,-36.922363
15.804466,-36.841257
15.823496,-36.745586
15.823496,-36.245586
15.804466,-36.149915
15.750273,-36.068809
15.669167,-36.014616
15.573496,-35.995586
14.623496,-35.995586
14.527825,-36.014616
14.446719,-36.068809
14.392526,-36.149915
14.373496,-36.245586
14.373496,-36.745586
14.392526,-36.841257
14.446719,-36.922363
14.527825,-36.976556
14.623496,-36.995586
Z" /> 
<path style="fill:#000000; fill-opacity:1.000000; stroke:none;fill-rule:evenodd;"
d="M 15.573496,-35.095586
15.669167,-35.076556
15.750273,-35.022363
15.804466,-34.941257
15.823496,-34.845586
15.823496,-34.345586
15.804466,-34.249915
15.750273,-34.168809
15.669167,-34.114616
15.573496,-34.095586
14.623496,-34.095586
14.527825,-34.114616
14.446719,-34.168809
14.392526,-34.249915
14.373496,-34.345586
14.373496,-34.845586
14.392526,-34.941257
14.446719,-35.022363
14.527825,-35.076556
14.623496,-35.095586
Z" /> 
<path style="fill:#000000; fill-opacity:1.000000; stroke:none;fill-rule:evenodd;"
d="M 3.004414,-15.573496
3.023444,-15.669167
3.077637,-15.750273
3.158743,-15.804466
3.254414,-15.823496
3.754414,-15.823496
3.850085,-15.804466
3.931191,-15.750273
3.985384,-15.669167
4.004414,-15.573496
4.004414,-14.623496
3.985384,-14.527825
3.931191,-14.446719
3.850085,-14.392526
3.754414,-14.373496
3.254414,-14.373496
3.158743,-14.392526
3.077637,-14.446719
3.023444,-14.527825
3.004414,-14.623496
Z" /> 
<path style="fill:#000000; fill-opacity:1.000000; stroke:none;fill-rule:evenodd;"
d="M 4.904414,-15.573496
4.923444,-15.669167
4.977637,-15.750273
5.058743,-15.804466
5.154414,-15.823496
5.654414,-15.823496
5.750085,-15.804466
5.831191,-15.750273
5.885384,-15.669167
5.904414,-15.573496
5.904414,-14.623496
5.885384,-14.527825
5.831191,-14.446719
5.750085,-14.392526
5.654414,-14.373496
5.154414,-14.373496
5.058743,-14.392526
4.977637,-14.446719
4.923444,-14.527825
4.904414,-14.623496
Z" /> 
<path style="fill:#000000; fill-opacity:1.000000; stroke:none;fill-rule:evenodd;"
d="M 24.426504,-3.004414
24.330833,-3.023444
24.249727,-3.077637
24.195534,-3.158743
24.176504,-3.254414
24.176504,-3.754414
24.195534,-3.850085
24.249727,-3.931191
24.330833,-3.985384
24.426504,-4.004414
25.376504,-4.004414
25.472175,-3.985384
25.553281,-3.931191
25.607474,-3.850085
25.626504,-3.754414
25.626504,-3.254414
25.607474,-3.158743
25.553281,-3.077637
25.472175,-3.023444
25.376504,-3.004414
Z" /> 
<path style="fill:#000000; fill-opacity:1.000000; stroke:none;fill-rule:evenodd;"
d="M 24.426504,-4.904414
24.330833,-4.923444
24.249727,-4.977637
24.195534,-5.058743
24.176504,-5.154414
24.176504,-5.654414
24.195534,-5.750085
24.249727,-5.831191
24.330833,-5.885384
24.426504,-5.904414
25.376504,-5.904414
25.472175,-5.885384
25.553281,-5.831191
25.607474,-5.750085
25.626504,-5.654414
25.626504,-5.154414
25.607474,-5.058743
25.553281,-4.977637
25.472175,-4.923444
25.376504,-4.904414
Z" /> 
<path style="fill:#000000; fill-opacity:1.000000; stroke:none;fill-rule:evenodd;"
d="M 36.995586,-24.426504
36.976556,-24.330833
36.922363,-24.249727
36.841257,-24.195534
36.745586,-24.176504
36.245586,-24.176504
36.149915,-24.195534
36.068809,-24.249727
36.014616,-24.330833
35.995586,-24.426504
35.995586,-25.376504
36.014616,-25.472175
36.068809,-25.553281
36.149915,-25.607474
36.245586,-25.626504
36.745586,-25.626504
36.841257,-25.607474
36.922363,-25.553281
36.976556,-25.472175
36.995586,-25.376504
Z" /> 
<path style="fill:#000000; fill-opacity:1.000000; stroke:none;fill-rule:evenodd;"
d="M 35.095586,-24.426504
35.076556,-24.330833
35.022363,-24.249727
34.941257,-24.195534
34.845586,-24.176504
34.345586,-24.176504
34.249915,-24.195534
34.168809,-24.249727
34.114616,-24.330833
34.095586,-24.426504
34.095586,-25.376504
34.114616,-25.472175
34.168809,-25.553281
34.249915,-25.607474
34.345586,-25.626504
34.845586,-25.626504
34.941257,-25.607474
35.022363,-25.553281
35.076556,-25.472175
35.095586,-25.376504
Z" /> 
<path style="fill:#000000; fill-opacity:1.000000; stroke:none;fill-rule:evenodd;"
d="M 35.147705,-11.112318
35.066599,-11.058125
34.970928,-11.039094
34.875257,-11.058125
34.794151,-11.112318
34.440598,-11.465871
34.386405,-11.546977
34.367374,-11.642648
34.386405,-11.738319
34.440598,-11.819425
35.112349,-12.491176
35.193455,-12.545369
35.289126,-12.564400
35.384797,-12.545369
35.465903,-12.491176
35.819456,-12.137623
35.873649,-12.056517
35.892680,-11.960846
35.873649,-11.865175
35.819456,-11.784069
Z" /> 
<path style="fill:#000000; fill-opacity:1.000000; stroke:none;fill-rule:evenodd;"
d="M 33.804203,-12.455820
33.723097,-12.401627
33.627426,-12.382596
33.531755,-12.401627
33.450649,-12.455820
33.097096,-12.809373
33.042903,-12.890479
33.023872,-12.986150
33.042903,-13.081821
33.097096,-13.162927
33.768847,-13.834678
33.849953,-13.888871
33.945624,-13.907902
34.041295,-13.888871
34.122401,-13.834678
34.475954,-13.481125
34.530147,-13.400019
34.549178,-13.304348
34.530147,-13.208677
34.475954,-13.127571
Z" /> 
<path style="fill:#000000; fill-opacity:1.000000; stroke:none;fill-rule:evenodd;"
d="M 4.852295,-28.887682
4.933401,-28.941875
5.029072,-28.960906
5.124743,-28.941875
5.205849,-28.887682
5.559402,-28.534129
5.613595,-28.453023
5.632626,-28.357352
5.613595,-28.261681
5.559402,-28.180575
4.887651,-27.508824
4.806545,-27.454631
4.710874,-27.435600
4.615203,-27.454631
4.534097,-27.508824
4.180544,-27.862377
4.126351,-27.943483
4.107320,-28.039154
4.126351,-28.134825
4.180544,-28.215931
Z" /> 
<path style="fill:#000000; fill-opacity:1.000000; stroke:none;fill-rule:evenodd;"
d="M 6.195797,-27.544180
6.276903,-27.598373
6.372574,-27.617404
6.468245,-27.598373
6.549351,-27.544180
6.902904,-27.190627
6.957097,-27.109521
6.976128,-27.013850
6.957097,-26.918179
6.902904,-26.837073
6.231153,-26.165322
6.150047,-26.111129
6.054376,-26.092098
5.958705,-26.111129
5.877599,-26.165322
5.524046,-26.518875
5.469853,-26.599981
5.450822,-26.695652
5.469853,-26.791323
5.524046,-26.872429
Z" /> 
<path style="fill:#000000; fill-opacity:1.000000; stroke:none;fill-rule:evenodd;"
d="M 11.112318,-4.852295
11.058125,-4.933401
11.039094,-5.029072
11.058125,-5.124743
11.112318,-5.205849
11.465871,-5.559402
11.546977,-5.613595
11.642648,-5.632626
11.738319,-5.613595
11.819425,-5.559402
12.491176,-4.887651
12.545369,-4.806545
12.564400,-4.710874
12.545369,-4.615203
12.491176,-4.534097
12.137623,-4.180544
12.056517,-4.126351
11.960846,-4.107320
11.865175,-4.126351
11.784069,-4.180544
Z" /> 
<path style="fill:#000000; fill-opacity:1.000000; stroke:none;fill-rule:evenodd;"
d="M 12.455820,-6.195797
12.401627,-6.276903
12.382596,-6.372574
12.401627,-6.468245
12.455820,-6.549351
12.809373,-6.902904
12.890479,-6.957097
12.986150,-6.976128
13.081821,-6.957097
13.162927,-6.902904
13.834678,-6.231153
13.888871,-6.150047
13.907902,-6.054376
13.888871,-5.958705
13.834678,-5.877599
13.481125,-5.524046
13.400019,-5.469853
13.304348,-5.450822
13.208677,-5.469853
13.127571,-5.524046
Z" /> 
<path style="fill:#000000; fill-opacity:1.000000; stroke:none;fill-rule:evenodd;"
d="M 26.725000,-35.849999
26.705970,-35.754329
26.651777,-35.673223
26.570671,-35.619030
26.475000,-35.600001
25.949999,-35.600000
25.854329,-35.619030
25.773223,-35.673223
25.719030,-35.754329
25.700001,-35.850000
25.700000,-36.750001
25.719030,-36.845671
25.773223,-36.926777
25.854329,-36.980970
25.950000,-36.999999
26.475001,-37.000000
26.570671,-36.980970
26.651777,-36.926777
26.705970,-36.845671
26.724999,-36.750000
Z" /> 
<path style="fill:#000000; fill-opacity:1.000000; stroke:none;fill-rule:evenodd;"
d="M 24.900000,-35.849999
24.880970,-35.754329
24.826777,-35.673223
24.745671,-35.619030
24.650000,-35.600001
24.124999,-35.600000
24.029329,-35.619030
23.948223,-35.673223
23.894030,-35.754329
23.875001,-35.850000
23.875000,-36.750001
23.894030,-36.845671
23.948223,-36.926777
24.029329,-36.980970
24.125000,-36.999999
24.650001,-37.000000
24.745671,-36.980970
24.826777,-36.926777
24.880970,-36.845671
24.899999,-36.750000
Z" /> 
<path style="fill:#000000; fill-opacity:1.000000; stroke:none;fill-rule:evenodd;"
d="M 26.375000,-33.250000
26.375000,-32.850000
25.725000,-32.850000
25.725000,-33.250000
Z" /> 
<path style="fill:#000000; fill-opacity:1.000000; stroke:none;fill-rule:evenodd;"
d="M 26.375000,-33.900000
26.375000,-33.500000
25.725000,-33.500000
25.725000,-33.900000
Z" /> 
<path style="fill:#000000; fill-opacity:1.000000; stroke:none;fill-rule:evenodd;"
d="M 26.375000,-34.550000
26.375000,-34.150000
25.725000,-34.150000
25.725000,-34.550000
Z" /> 
<path style="fill:#000000; fill-opacity:1.000000; stroke:none;fill-rule:evenodd;"
d="M 24.475000,-34.550000
24.475000,-34.150000
23.825000,-34.150000
23.825000,-34.550000
Z" /> 
<path style="fill:#000000; fill-opacity:1.000000; stroke:none;fill-rule:evenodd;"
d="M 24.475000,-33.250000
24.475000,-32.850000
23.825000,-32.850000
23.825000,-33.250000
Z" /> 
<path style="fill:#000000; fill-opacity:1.000000; stroke:none;fill-rule:evenodd;"
d="M 30.032931,-35.661180
30.087124,-35.580074
30.106155,-35.484403
30.087124,-35.388732
30.032931,-35.307626
29.679378,-34.954073
29.598272,-34.899880
29.502601,-34.880849
29.406930,-34.899880
29.325824,-34.954073
28.654073,-35.625824
28.599880,-35.706930
28.580849,-35.802601
28.599880,-35.898272
28.654073,-35.979378
29.007626,-36.332931
29.088732,-36.387124
29.184403,-36.406155
29.280074,-36.387124
29.361180,-36.332931
Z" /> 
<path style="fill:#000000; fill-opacity:1.000000; stroke:none;fill-rule:evenodd;"
d="M 28.689429,-34.317678
28.743622,-34.236572
28.762653,-34.140901
28.743622,-34.045230
28.689429,-33.964124
28.335876,-33.610571
28.254770,-33.556378
28.159099,-33.537347
28.063428,-33.556378
27.982322,-33.610571
27.310571,-34.282322
27.256378,-34.363428
27.237347,-34.459099
27.256378,-34.554770
27.310571,-34.635876
27.664124,-34.989429
27.745230,-35.043622
27.840901,-35.062653
27.936572,-35.043622
28.017678,-34.989429
Z" /> 
<path style="fill:#000000; fill-opacity:1.000000; stroke:none;fill-rule:evenodd;"
d="M 24.950000,-30.525000
24.930970,-30.429329
24.876777,-30.348223
24.795671,-30.294030
24.700000,-30.275000
24.200000,-30.275000
24.104329,-30.294030
24.023223,-30.348223
23.969030,-30.429329
23.950000,-30.525000
23.950000,-31.475000
23.969030,-31.570671
24.023223,-31.651777
24.104329,-31.705970
24.200000,-31.725000
24.700000,-31.725000
24.795671,-31.705970
24.876777,-31.651777
24.930970,-31.570671
24.950000,-31.475000
Z" /> 
<path style="fill:#000000; fill-opacity:1.000000; stroke:none;fill-rule:evenodd;"
d="M 23.050000,-30.525000
23.030970,-30.429329
22.976777,-30.348223
22.895671,-30.294030
22.800000,-30.275000
22.300000,-30.275000
22.204329,-30.294030
22.123223,-30.348223
22.069030,-30.429329
22.050000,-30.525000
22.050000,-31.475000
22.069030,-31.570671
22.123223,-31.651777
22.204329,-31.705970
22.300000,-31.725000
22.800000,-31.725000
22.895671,-31.705970
22.976777,-31.651777
23.030970,-31.570671
23.050000,-31.475000
Z" /> 
</g> 
</svg>
