<?xml version="1.0" standalone="no"?>
 <!DOCTYPE svg PUBLIC "-//W3C//DTD SVG 1.1//EN" 
 "http://www.w3.org/Graphics/SVG/1.1/DTD/svg11.dtd"> 
<svg
  xmlns:svg="http://www.w3.org/2000/svg"
  xmlns="http://www.w3.org/2000/svg"
  xmlns:xlink="http://www.w3.org/1999/xlink"
  xmlns:inkscape="http://www.inkscape.org/namespaces/inkscape"
  version="1.1"
  width="279.400000mm" height="215.900000mm" viewBox="0.000000 0.000000 279.400000 215.900000">
<title>SVG Image created as serial_ttl-F_Paste.svg date 2026-06-13T22:36:40 </title>
  <desc>Image generated by PCBNEW </desc>
<g style="fill:#000000; fill-opacity:1.000000;stroke:#000000; stroke-opacity:1.000000;
stroke-linecap:round; stroke-linejoin:round;"
 transform="translate(0 0) scale(1 1)">
<path style="fill:#000000; fill-opacity:1.000000; stroke:none;fill-rule:evenodd;"
d="M 139.550000,141.650000
139.569030,141.554329
139.623223,141.473223
139.704329,141.419030
139.800000,141.400000
140.300000,141.400000
140.395671,141.419030
140.476777,141.473223
140.530970,141.554329
140.550000,141.650000
140.550000,144.650000
140.530970,144.745671
140.476777,144.826777
140.395671,144.880970
140.300000,144.900000
139.800000,144.900000
139.704329,144.880970
139.623223,144.826777
139.569030,144.745671
139.550000,144.650000
Z" /> 
<path style="fill:#000000; fill-opacity:1.000000; stroke:none;fill-rule:evenodd;"
d="M 141.550000,141.650000
141.569030,141.554329
141.623223,141.473223
141.704329,141.419030
141.800000,141.400000
142.300000,141.400000
142.395671,141.419030
142.476777,141.473223
142.530970,141.554329
142.550000,141.650000
142.550000,144.650000
142.530970,144.745671
142.476777,144.826777
142.395671,144.880970
142.300000,144.900000
141.800000,144.900000
141.704329,144.880970
141.623223,144.826777
141.569030,144.745671
141.550000,144.650000
Z" /> 
<path style="fill:#000000; fill-opacity:1.000000; stroke:none;fill-rule:evenodd;"
d="M 143.550000,141.650000
143.569030,141.554329
143.623223,141.473223
143.704329,141.419030
143.800000,141.400000
144.300000,141.400000
144.395671,141.419030
144.476777,141.473223
144.530970,141.554329
144.550000,141.650000
144.550000,144.650000
144.530970,144.745671
144.476777,144.826777
144.395671,144.880970
144.300000,144.900000
143.800000,144.900000
143.704329,144.880970
143.623223,144.826777
143.569030,144.745671
143.550000,144.650000
Z" /> 
<path style="fill:#000000; fill-opacity:1.000000; stroke:none;fill-rule:evenodd;"
d="M 145.550000,141.650000
145.569030,141.554329
145.623223,141.473223
145.704329,141.419030
145.800000,141.400000
146.300000,141.400000
146.395671,141.419030
146.476777,141.473223
146.530970,141.554329
146.550000,141.650000
146.550000,144.650000
146.530970,144.745671
146.476777,144.826777
146.395671,144.880970
146.300000,144.900000
145.800000,144.900000
145.704329,144.880970
145.623223,144.826777
145.569030,144.745671
145.550000,144.650000
Z" /> 
<path style="fill:#000000; fill-opacity:1.000000; stroke:none;fill-rule:evenodd;"
d="M 136.950000,147.450001
136.969030,147.354330
137.023224,147.273224
137.104330,147.219030
137.200002,147.200001
138.199999,147.200000
138.295670,147.219030
138.376776,147.273224
138.430970,147.354330
138.449999,147.450002
138.450000,150.349999
138.430970,150.445670
138.376776,150.526776
138.295670,150.580970
138.199998,150.599999
137.200001,150.600000
137.104330,150.580970
137.023224,150.526776
136.969030,150.445670
136.950001,150.349998
Z" /> 
<path style="fill:#000000; fill-opacity:1.000000; stroke:none;fill-rule:evenodd;"
d="M 147.650000,147.450001
147.669030,147.354330
147.723224,147.273224
147.804330,147.219030
147.900002,147.200001
148.899999,147.200000
148.995670,147.219030
149.076776,147.273224
149.130970,147.354330
149.149999,147.450002
149.150000,150.349999
149.130970,150.445670
149.076776,150.526776
148.995670,150.580970
148.899998,150.599999
147.900001,150.600000
147.804330,150.580970
147.723224,150.526776
147.669030,150.445670
147.650001,150.349998
Z" /> 
<path style="fill:#000000; fill-opacity:1.000000; stroke:none;fill-rule:evenodd;"
d="M 139.265000,126.830000
139.360671,126.849030
139.441777,126.903223
139.495970,126.984329
139.515000,127.080000
139.515000,127.580000
139.495970,127.675671
139.441777,127.756777
139.360671,127.810970
139.265000,127.830000
138.315000,127.830000
138.219329,127.810970
138.138223,127.756777
138.084030,127.675671
138.065000,127.580000
138.065000,127.080000
138.084030,126.984329
138.138223,126.903223
138.219329,126.849030
138.315000,126.830000
Z" /> 
<path style="fill:#000000; fill-opacity:1.000000; stroke:none;fill-rule:evenodd;"
d="M 139.265000,128.730000
139.360671,128.749030
139.441777,128.803223
139.495970,128.884329
139.515000,128.980000
139.515000,129.480000
139.495970,129.575671
139.441777,129.656777
139.360671,129.710970
139.265000,129.730000
138.315000,129.730000
138.219329,129.710970
138.138223,129.656777
138.084030,129.575671
138.065000,129.480000
138.065000,128.980000
138.084030,128.884329
138.138223,128.803223
138.219329,128.749030
138.315000,128.730000
Z" /> 
<path style="fill:#000000; fill-opacity:1.000000; stroke:none;fill-rule:evenodd;"
d="M 136.825000,140.455000
136.748463,140.439776
136.683579,140.396421
136.640224,140.331537
136.625000,140.255000
136.625000,139.855000
136.640224,139.778463
136.683579,139.713579
136.748463,139.670224
136.825000,139.655000
137.375000,139.655000
137.451537,139.670224
137.516421,139.713579
137.559776,139.778463
137.575000,139.855000
137.575000,140.255000
137.559776,140.331537
137.516421,140.396421
137.451537,140.439776
137.375000,140.455000
Z" /> 
<path style="fill:#000000; fill-opacity:1.000000; stroke:none;fill-rule:evenodd;"
d="M 136.825000,138.805000
136.748463,138.789776
136.683579,138.746421
136.640224,138.681537
136.625000,138.605000
136.625000,138.205000
136.640224,138.128463
136.683579,138.063579
136.748463,138.020224
136.825000,138.005000
137.375000,138.005000
137.451537,138.020224
137.516421,138.063579
137.559776,138.128463
137.575000,138.205000
137.575000,138.605000
137.559776,138.681537
137.516421,138.746421
137.451537,138.789776
137.375000,138.805000
Z" /> 
<path style="fill:#000000; fill-opacity:1.000000; stroke:none;fill-rule:evenodd;"
d="M 138.950000,137.650000
138.961418,137.592597
138.993934,137.543934
139.042597,137.511418
139.100000,137.500000
140.125000,137.500000
140.182403,137.511418
140.231066,137.543934
140.263582,137.592597
140.275000,137.650000
140.275000,137.950000
140.263582,138.007403
140.231066,138.056066
140.182403,138.088582
140.125000,138.100000
139.100000,138.100000
139.042597,138.088582
138.993934,138.056066
138.961418,138.007403
138.950000,137.950000
Z" /> 
<path style="fill:#000000; fill-opacity:1.000000; stroke:none;fill-rule:evenodd;"
d="M 138.950000,138.600000
138.961418,138.542597
138.993934,138.493934
139.042597,138.461418
139.100000,138.450000
140.125000,138.450000
140.182403,138.461418
140.231066,138.493934
140.263582,138.542597
140.275000,138.600000
140.275000,138.900000
140.263582,138.957403
140.231066,139.006066
140.182403,139.038582
140.125000,139.050000
139.100000,139.050000
139.042597,139.038582
138.993934,139.006066
138.961418,138.957403
138.950000,138.900000
Z" /> 
<path style="fill:#000000; fill-opacity:1.000000; stroke:none;fill-rule:evenodd;"
d="M 138.950000,139.550000
138.961418,139.492597
138.993934,139.443934
139.042597,139.411418
139.100000,139.400000
140.125000,139.400000
140.182403,139.411418
140.231066,139.443934
140.263582,139.492597
140.275000,139.550000
140.275000,139.850000
140.263582,139.907403
140.231066,139.956066
140.182403,139.988582
140.125000,140.000000
139.100000,140.000000
139.042597,139.988582
138.993934,139.956066
138.961418,139.907403
138.950000,139.850000
Z" /> 
<path style="fill:#000000; fill-opacity:1.000000; stroke:none;fill-rule:evenodd;"
d="M 141.225000,139.550000
141.236418,139.492597
141.268934,139.443934
141.317597,139.411418
141.375000,139.400000
142.400000,139.400000
142.457403,139.411418
142.506066,139.443934
142.538582,139.492597
142.550000,139.550000
142.550000,139.850000
142.538582,139.907403
142.506066,139.956066
142.457403,139.988582
142.400000,140.000000
141.375000,140.000000
141.317597,139.988582
141.268934,139.956066
141.236418,139.907403
141.225000,139.850000
Z" /> 
<path style="fill:#000000; fill-opacity:1.000000; stroke:none;fill-rule:evenodd;"
d="M 141.225000,138.600000
141.236418,138.542597
141.268934,138.493934
141.317597,138.461418
141.375000,138.450000
142.400000,138.450000
142.457403,138.461418
142.506066,138.493934
142.538582,138.542597
142.550000,138.600000
142.550000,138.900000
142.538582,138.957403
142.506066,139.006066
142.457403,139.038582
142.400000,139.050000
141.375000,139.050000
141.317597,139.038582
141.268934,139.006066
141.236418,138.957403
141.225000,138.900000
Z" /> 
<path style="fill:#000000; fill-opacity:1.000000; stroke:none;fill-rule:evenodd;"
d="M 141.225000,137.650000
141.236418,137.592597
141.268934,137.543934
141.317597,137.511418
141.375000,137.500000
142.400000,137.500000
142.457403,137.511418
142.506066,137.543934
142.538582,137.592597
142.550000,137.650000
142.550000,137.950000
142.538582,138.007403
142.506066,138.056066
142.457403,138.088582
142.400000,138.100000
141.375000,138.100000
141.317597,138.088582
141.268934,138.056066
141.236418,138.007403
141.225000,137.950000
Z" /> 
<path style="fill:#000000; fill-opacity:1.000000; stroke:none;fill-rule:evenodd;"
d="M 144.675000,137.512500
144.770671,137.531530
144.851777,137.585723
144.905970,137.666829
144.925000,137.762500
144.925000,138.262500
144.905970,138.358171
144.851777,138.439277
144.770671,138.493470
144.675000,138.512500
143.725000,138.512500
143.629329,138.493470
143.548223,138.439277
143.494030,138.358171
143.475000,138.262500
143.475000,137.762500
143.494030,137.666829
143.548223,137.585723
143.629329,137.531530
143.725000,137.512500
Z" /> 
<path style="fill:#000000; fill-opacity:1.000000; stroke:none;fill-rule:evenodd;"
d="M 144.675000,139.412500
144.770671,139.431530
144.851777,139.485723
144.905970,139.566829
144.925000,139.662500
144.925000,140.162500
144.905970,140.258171
144.851777,140.339277
144.770671,140.393470
144.675000,140.412500
143.725000,140.412500
143.629329,140.393470
143.548223,140.339277
143.494030,140.258171
143.475000,140.162500
143.475000,139.662500
143.494030,139.566829
143.548223,139.485723
143.629329,139.431530
143.725000,139.412500
Z" /> 
<path style="fill:#000000; fill-opacity:1.000000; stroke:none;fill-rule:evenodd;"
d="M 142.387500,136.225000
142.368470,136.320671
142.314277,136.401777
142.233171,136.455970
142.137500,136.475000
141.637500,136.475000
141.541829,136.455970
141.460723,136.401777
141.406530,136.320671
141.387500,136.225000
141.387500,135.275000
141.406530,135.179329
141.460723,135.098223
141.541829,135.044030
141.637500,135.025000
142.137500,135.025000
142.233171,135.044030
142.314277,135.098223
142.368470,135.179329
142.387500,135.275000
Z" /> 
<path style="fill:#000000; fill-opacity:1.000000; stroke:none;fill-rule:evenodd;"
d="M 140.487500,136.225000
140.468470,136.320671
140.414277,136.401777
140.333171,136.455970
140.237500,136.475000
139.737500,136.475000
139.641829,136.455970
139.560723,136.401777
139.506530,136.320671
139.487500,136.225000
139.487500,135.275000
139.506530,135.179329
139.560723,135.098223
139.641829,135.044030
139.737500,135.025000
140.237500,135.025000
140.333171,135.044030
140.414277,135.098223
140.468470,135.179329
140.487500,135.275000
Z" /> 
<path style="fill:#000000; fill-opacity:1.000000; stroke:none;fill-rule:evenodd;"
d="M 143.705000,136.490000
143.609329,136.470970
143.528223,136.416777
143.474030,136.335671
143.455000,136.240000
143.455000,135.740000
143.474030,135.644329
143.528223,135.563223
143.609329,135.509030
143.705000,135.490000
144.655000,135.490000
144.750671,135.509030
144.831777,135.563223
144.885970,135.644329
144.905000,135.740000
144.905000,136.240000
144.885970,136.335671
144.831777,136.416777
144.750671,136.470970
144.655000,136.490000
Z" /> 
<path style="fill:#000000; fill-opacity:1.000000; stroke:none;fill-rule:evenodd;"
d="M 143.705000,134.590000
143.609329,134.570970
143.528223,134.516777
143.474030,134.435671
143.455000,134.340000
143.455000,133.840000
143.474030,133.744329
143.528223,133.663223
143.609329,133.609030
143.705000,133.590000
144.655000,133.590000
144.750671,133.609030
144.831777,133.663223
144.885970,133.744329
144.905000,133.840000
144.905000,134.340000
144.885970,134.435671
144.831777,134.516777
144.750671,134.570970
144.655000,134.590000
Z" /> 
<path style="fill:#000000; fill-opacity:1.000000; stroke:none;fill-rule:evenodd;"
d="M 137.160000,126.837500
137.246104,126.854627
137.319099,126.903401
137.367873,126.976396
137.385000,127.062500
137.385000,127.512500
137.367873,127.598604
137.319099,127.671599
137.246104,127.720373
137.160000,127.737500
136.660000,127.737500
136.573896,127.720373
136.500901,127.671599
136.452127,127.598604
136.435000,127.512500
136.435000,127.062500
136.452127,126.976396
136.500901,126.903401
136.573896,126.854627
136.660000,126.837500
Z" /> 
<path style="fill:#000000; fill-opacity:1.000000; stroke:none;fill-rule:evenodd;"
d="M 137.160000,128.387500
137.246104,128.404627
137.319099,128.453401
137.367873,128.526396
137.385000,128.612500
137.385000,129.062500
137.367873,129.148604
137.319099,129.221599
137.246104,129.270373
137.160000,129.287500
136.660000,129.287500
136.573896,129.270373
136.500901,129.221599
136.452127,129.148604
136.435000,129.062500
136.435000,128.612500
136.452127,128.526396
136.500901,128.453401
136.573896,128.404627
136.660000,128.387500
Z" /> 
<path style="fill:#000000; fill-opacity:1.000000; stroke:none;fill-rule:evenodd;"
d="M 129.977500,126.775000
130.063604,126.792127
130.136599,126.840901
130.185373,126.913896
130.202500,127.000000
130.202500,127.450000
130.185373,127.536104
130.136599,127.609099
130.063604,127.657873
129.977500,127.675000
129.477500,127.675000
129.391396,127.657873
129.318401,127.609099
129.269627,127.536104
129.252500,127.450000
129.252500,127.000000
129.269627,126.913896
129.318401,126.840901
129.391396,126.792127
129.477500,126.775000
Z" /> 
<path style="fill:#000000; fill-opacity:1.000000; stroke:none;fill-rule:evenodd;"
d="M 129.977500,128.325000
130.063604,128.342127
130.136599,128.390901
130.185373,128.463896
130.202500,128.550000
130.202500,129.000000
130.185373,129.086104
130.136599,129.159099
130.063604,129.207873
129.977500,129.225000
129.477500,129.225000
129.391396,129.207873
129.318401,129.159099
129.269627,129.086104
129.252500,129.000000
129.252500,128.550000
129.269627,128.463896
129.318401,128.390901
129.391396,128.342127
129.477500,128.325000
Z" /> 
<path style="fill:#000000; fill-opacity:1.000000; stroke:none;fill-rule:evenodd;"
d="M 141.120000,131.215000
141.120000,127.785000
143.100000,127.785000
143.100000,131.215000
Z" /> 
<path style="fill:#000000; fill-opacity:1.000000; stroke:none;fill-rule:evenodd;"
d="M 146.510000,131.215000
146.510000,127.785000
148.490000,127.785000
148.490000,131.215000
Z" /> 
<path style="fill:#000000; fill-opacity:1.000000; stroke:none;fill-rule:evenodd;"
d="M 134.232500,126.692500
134.328171,126.711530
134.409277,126.765723
134.463470,126.846829
134.482500,126.942500
134.482500,127.442500
134.463470,127.538171
134.409277,127.619277
134.328171,127.673470
134.232500,127.692500
133.282500,127.692500
133.186829,127.673470
133.105723,127.619277
133.051530,127.538171
133.032500,127.442500
133.032500,126.942500
133.051530,126.846829
133.105723,126.765723
133.186829,126.711530
133.282500,126.692500
Z" /> 
<path style="fill:#000000; fill-opacity:1.000000; stroke:none;fill-rule:evenodd;"
d="M 134.232500,128.592500
134.328171,128.611530
134.409277,128.665723
134.463470,128.746829
134.482500,128.842500
134.482500,129.342500
134.463470,129.438171
134.409277,129.519277
134.328171,129.573470
134.232500,129.592500
133.282500,129.592500
133.186829,129.573470
133.105723,129.519277
133.051530,129.438171
133.032500,129.342500
133.032500,128.842500
133.051530,128.746829
133.105723,128.665723
133.186829,128.611530
133.282500,128.592500
Z" /> 
<path style="fill:#000000; fill-opacity:1.000000; stroke:none;fill-rule:evenodd;"
d="M 132.162500,126.702500
132.258171,126.721530
132.339277,126.775723
132.393470,126.856829
132.412500,126.952500
132.412500,127.452500
132.393470,127.548171
132.339277,127.629277
132.258171,127.683470
132.162500,127.702500
131.212500,127.702500
131.116829,127.683470
131.035723,127.629277
130.981530,127.548171
130.962500,127.452500
130.962500,126.952500
130.981530,126.856829
131.035723,126.775723
131.116829,126.721530
131.212500,126.702500
Z" /> 
<path style="fill:#000000; fill-opacity:1.000000; stroke:none;fill-rule:evenodd;"
d="M 132.162500,128.602500
132.258171,128.621530
132.339277,128.675723
132.393470,128.756829
132.412500,128.852500
132.412500,129.352500
132.393470,129.448171
132.339277,129.529277
132.258171,129.583470
132.162500,129.602500
131.212500,129.602500
131.116829,129.583470
131.035723,129.529277
130.981530,129.448171
130.962500,129.352500
130.962500,128.852500
130.981530,128.756829
131.035723,128.675723
131.116829,128.621530
131.212500,128.602500
Z" /> 
<path style="fill:#000000; fill-opacity:1.000000; stroke:none;fill-rule:evenodd;"
d="M 138.900000,131.450000
138.900000,133.250000
136.400000,133.250000
136.400000,131.450000
Z" /> 
<path style="fill:#000000; fill-opacity:1.000000; stroke:none;fill-rule:evenodd;"
d="M 134.900000,131.450000
134.900000,133.250000
132.400000,133.250000
132.400000,131.450000
Z" /> 
<path style="fill:#000000; fill-opacity:1.000000; stroke:none;fill-rule:evenodd;"
d="M 146.250000,133.650000
148.050000,133.650000
148.050000,136.150000
146.250000,136.150000
Z" /> 
<path style="fill:#000000; fill-opacity:1.000000; stroke:none;fill-rule:evenodd;"
d="M 146.250000,137.650000
148.050000,137.650000
148.050000,140.150000
146.250000,140.150000
Z" /> 
<path style="fill:#000000; fill-opacity:1.000000; stroke:none;fill-rule:evenodd;"
d="M 134.660000,125.860000
133.160000,125.860000
133.160000,123.860000
134.660000,123.860000
Z" /> 
<path style="fill:#000000; fill-opacity:1.000000; stroke:none;fill-rule:evenodd;"
d="M 136.960000,125.860000
135.460000,125.860000
135.460000,123.860000
136.960000,123.860000
Z" /> 
<path style="fill:#000000; fill-opacity:1.000000; stroke:none;fill-rule:evenodd;"
d="M 138.110000,119.560000
134.310000,119.560000
134.310000,117.560000
138.110000,117.560000
Z" /> 
<path style="fill:#000000; fill-opacity:1.000000; stroke:none;fill-rule:evenodd;"
d="M 139.260000,125.860000
137.760000,125.860000
137.760000,123.860000
139.260000,123.860000
Z" /> 
<path style="fill:#000000; fill-opacity:1.000000; stroke:none;fill-rule:evenodd;"
d="M 102.560000,139.163750
102.576651,139.080038
102.624070,139.009070
102.695038,138.961651
102.778750,138.945000
103.216250,138.945000
103.299962,138.961651
103.370930,139.009070
103.418349,139.080038
103.435000,139.163750
103.435000,139.676250
103.418349,139.759962
103.370930,139.830930
103.299962,139.878349
103.216250,139.895000
102.778750,139.895000
102.695038,139.878349
102.624070,139.830930
102.576651,139.759962
102.560000,139.676250
Z" /> 
<path style="fill:#000000; fill-opacity:1.000000; stroke:none;fill-rule:evenodd;"
d="M 104.135000,139.163750
104.151651,139.080038
104.199070,139.009070
104.270038,138.961651
104.353750,138.945000
104.791250,138.945000
104.874962,138.961651
104.945930,139.009070
104.993349,139.080038
105.010000,139.163750
105.010000,139.676250
104.993349,139.759962
104.945930,139.830930
104.874962,139.878349
104.791250,139.895000
104.353750,139.895000
104.270038,139.878349
104.199070,139.830930
104.151651,139.759962
104.135000,139.676250
Z" /> 
<path style="fill:#000000; fill-opacity:1.000000; stroke:none;fill-rule:evenodd;"
d="M 104.975000,137.975000
104.959776,138.051537
104.916421,138.116421
104.851537,138.159776
104.775000,138.175000
104.375000,138.175000
104.298463,138.159776
104.233579,138.116421
104.190224,138.051537
104.175000,137.975000
104.175000,137.425000
104.190224,137.348463
104.233579,137.283579
104.298463,137.240224
104.375000,137.225000
104.775000,137.225000
104.851537,137.240224
104.916421,137.283579
104.959776,137.348463
104.975000,137.425000
Z" /> 
<path style="fill:#000000; fill-opacity:1.000000; stroke:none;fill-rule:evenodd;"
d="M 103.325000,137.975000
103.309776,138.051537
103.266421,138.116421
103.201537,138.159776
103.125000,138.175000
102.725000,138.175000
102.648463,138.159776
102.583579,138.116421
102.540224,138.051537
102.525000,137.975000
102.525000,137.425000
102.540224,137.348463
102.583579,137.283579
102.648463,137.240224
102.725000,137.225000
103.125000,137.225000
103.201537,137.240224
103.266421,137.283579
103.309776,137.348463
103.325000,137.425000
Z" /> 
<path style="fill:#000000; fill-opacity:1.000000; stroke:none;fill-rule:evenodd;"
d="M 136.425000,134.712500
136.501537,134.727724
136.566421,134.771079
136.609776,134.835963
136.625000,134.912500
136.625000,135.312500
136.609776,135.389037
136.566421,135.453921
136.501537,135.497276
136.425000,135.512500
135.875000,135.512500
135.798463,135.497276
135.733579,135.453921
135.690224,135.389037
135.675000,135.312500
135.675000,134.912500
135.690224,134.835963
135.733579,134.771079
135.798463,134.727724
135.875000,134.712500
Z" /> 
<path style="fill:#000000; fill-opacity:1.000000; stroke:none;fill-rule:evenodd;"
d="M 136.425000,136.362500
136.501537,136.377724
136.566421,136.421079
136.609776,136.485963
136.625000,136.562500
136.625000,136.962500
136.609776,137.039037
136.566421,137.103921
136.501537,137.147276
136.425000,137.162500
135.875000,137.162500
135.798463,137.147276
135.733579,137.103921
135.690224,137.039037
135.675000,136.962500
135.675000,136.562500
135.690224,136.485963
135.733579,136.421079
135.798463,136.377724
135.875000,136.362500
Z" /> 
<path style="fill:#000000; fill-opacity:1.000000; stroke:none;fill-rule:evenodd;"
d="M 137.950000,134.712500
138.036104,134.729627
138.109099,134.778401
138.157873,134.851396
138.175000,134.937500
138.175000,135.387500
138.157873,135.473604
138.109099,135.546599
138.036104,135.595373
137.950000,135.612500
137.450000,135.612500
137.363896,135.595373
137.290901,135.546599
137.242127,135.473604
137.225000,135.387500
137.225000,134.937500
137.242127,134.851396
137.290901,134.778401
137.363896,134.729627
137.450000,134.712500
Z" /> 
<path style="fill:#000000; fill-opacity:1.000000; stroke:none;fill-rule:evenodd;"
d="M 137.950000,136.262500
138.036104,136.279627
138.109099,136.328401
138.157873,136.401396
138.175000,136.487500
138.175000,136.937500
138.157873,137.023604
138.109099,137.096599
138.036104,137.145373
137.950000,137.162500
137.450000,137.162500
137.363896,137.145373
137.290901,137.096599
137.242127,137.023604
137.225000,136.937500
137.225000,136.487500
137.242127,136.401396
137.290901,136.328401
137.363896,136.279627
137.450000,136.262500
Z" /> 
<path style="fill:#000000; fill-opacity:1.000000; stroke:none;fill-rule:evenodd;"
d="M 103.450000,141.650000
103.469030,141.554329
103.523223,141.473223
103.604329,141.419030
103.700000,141.400000
104.200000,141.400000
104.295671,141.419030
104.376777,141.473223
104.430970,141.554329
104.450000,141.650000
104.450000,144.650000
104.430970,144.745671
104.376777,144.826777
104.295671,144.880970
104.200000,144.900000
103.700000,144.900000
103.604329,144.880970
103.523223,144.826777
103.469030,144.745671
103.450000,144.650000
Z" /> 
<path style="fill:#000000; fill-opacity:1.000000; stroke:none;fill-rule:evenodd;"
d="M 105.450000,141.650000
105.469030,141.554329
105.523223,141.473223
105.604329,141.419030
105.700000,141.400000
106.200000,141.400000
106.295671,141.419030
106.376777,141.473223
106.430970,141.554329
106.450000,141.650000
106.450000,144.650000
106.430970,144.745671
106.376777,144.826777
106.295671,144.880970
106.200000,144.900000
105.700000,144.900000
105.604329,144.880970
105.523223,144.826777
105.469030,144.745671
105.450000,144.650000
Z" /> 
<path style="fill:#000000; fill-opacity:1.000000; stroke:none;fill-rule:evenodd;"
d="M 107.450000,141.650000
107.469030,141.554329
107.523223,141.473223
107.604329,141.419030
107.700000,141.400000
108.200000,141.400000
108.295671,141.419030
108.376777,141.473223
108.430970,141.554329
108.450000,141.650000
108.450000,144.650000
108.430970,144.745671
108.376777,144.826777
108.295671,144.880970
108.200000,144.900000
107.700000,144.900000
107.604329,144.880970
107.523223,144.826777
107.469030,144.745671
107.450000,144.650000
Z" /> 
<path style="fill:#000000; fill-opacity:1.000000; stroke:none;fill-rule:evenodd;"
d="M 109.450000,141.650000
109.469030,141.554329
109.523223,141.473223
109.604329,141.419030
109.700000,141.400000
110.200000,141.400000
110.295671,141.419030
110.376777,141.473223
110.430970,141.554329
110.450000,141.650000
110.450000,144.650000
110.430970,144.745671
110.376777,144.826777
110.295671,144.880970
110.200000,144.900000
109.700000,144.900000
109.604329,144.880970
109.523223,144.826777
109.469030,144.745671
109.450000,144.650000
Z" /> 
<path style="fill:#000000; fill-opacity:1.000000; stroke:none;fill-rule:evenodd;"
d="M 100.850000,147.450001
100.869030,147.354330
100.923224,147.273224
101.004330,147.219030
101.100002,147.200001
102.099999,147.200000
102.195670,147.219030
102.276776,147.273224
102.330970,147.354330
102.349999,147.450002
102.350000,150.349999
102.330970,150.445670
102.276776,150.526776
102.195670,150.580970
102.099998,150.599999
101.100001,150.600000
101.004330,150.580970
100.923224,150.526776
100.869030,150.445670
100.850001,150.349998
Z" /> 
<path style="fill:#000000; fill-opacity:1.000000; stroke:none;fill-rule:evenodd;"
d="M 111.550000,147.450001
111.569030,147.354330
111.623224,147.273224
111.704330,147.219030
111.800002,147.200001
112.799999,147.200000
112.895670,147.219030
112.976776,147.273224
113.030970,147.354330
113.049999,147.450002
113.050000,150.349999
113.030970,150.445670
112.976776,150.526776
112.895670,150.580970
112.799998,150.599999
111.800001,150.600000
111.704330,150.580970
111.623224,150.526776
111.569030,150.445670
111.550001,150.349998
Z" /> 
<path style="fill:#000000; fill-opacity:1.000000; stroke:none;fill-rule:evenodd;"
d="M 124.566949,106.164131
124.594509,106.164131
124.604593,106.168309
124.611377,106.169061
124.617781,106.173772
124.630557,106.179063
124.646066,106.194573
124.653078,106.199729
124.654525,106.203032
124.658147,106.206653
124.673079,106.242701
124.673416,106.246133
124.673858,106.247139
124.673676,106.248772
124.675000,106.262210
124.675000,107.095678
124.673079,107.115187
124.670471,107.121481
124.670250,107.126133
124.665454,107.133595
124.658147,107.151235
124.646861,107.162521
124.642261,107.169678
124.636984,107.172398
124.630557,107.178825
124.599788,107.191571
124.596250,107.193394
124.478224,107.218981
124.250603,107.299776
124.035043,107.408740
123.835012,107.544118
123.653731,107.703731
123.494118,107.885012
123.358740,108.085043
123.249776,108.300603
123.168981,108.528224
123.143394,108.646250
123.141571,108.649788
123.128825,108.680557
123.122398,108.686984
123.119678,108.692261
123.112521,108.696861
123.101235,108.708147
123.083595,108.715454
123.076133,108.720250
123.071481,108.720471
123.065187,108.723079
123.045678,108.725000
122.212210,108.725000
122.198772,108.723676
122.197139,108.723858
122.196133,108.723416
122.192701,108.723079
122.156653,108.708147
122.153032,108.704525
122.149729,108.703078
122.144573,108.696066
122.129063,108.680557
122.123772,108.667781
122.119061,108.661377
122.118309,108.654593
122.114131,108.644509
122.114131,108.616949
122.113352,108.609929
122.114131,108.606165
122.114131,108.605491
122.114411,108.604816
122.175881,108.307875
122.269924,108.014103
122.394432,107.731891
122.548015,107.464387
122.728960,107.214577
122.935248,106.985248
123.164577,106.778960
123.414387,106.598015
123.681891,106.444432
123.964103,106.319924
124.257875,106.225881
124.554816,106.164411
124.555491,106.164131
124.556166,106.164131
124.559929,106.163352
Z" /> 
<path style="fill:#000000; fill-opacity:1.000000; stroke:none;fill-rule:evenodd;"
d="M 123.065187,109.376921
123.071481,109.379529
123.076133,109.379750
123.083595,109.384546
123.101235,109.391853
123.112521,109.403139
123.119678,109.407739
123.122398,109.413016
123.128825,109.419443
123.141571,109.450212
123.143394,109.453750
123.168981,109.571776
123.249776,109.799397
123.358740,110.014957
123.494118,110.214988
123.653731,110.396269
123.835012,110.555882
124.035043,110.691260
124.250603,110.800224
124.478224,110.881019
124.596250,110.906606
124.599788,110.908429
124.630557,110.921175
124.636984,110.927602
124.642261,110.930322
124.646861,110.937479
124.658147,110.948765
124.665454,110.966405
124.670250,110.973867
124.670471,110.978519
124.673079,110.984813
124.675000,111.004322
124.675000,111.837790
124.673676,111.851228
124.673858,111.852861
124.673416,111.853867
124.673079,111.857299
124.658147,111.893347
124.654525,111.896968
124.653078,111.900271
124.646066,111.905427
124.630557,111.920937
124.617781,111.926228
124.611377,111.930939
124.604593,111.931691
124.594509,111.935869
124.566949,111.935869
124.559929,111.936648
124.556166,111.935869
124.555491,111.935869
124.554816,111.935589
124.257875,111.874119
123.964103,111.780076
123.681891,111.655568
123.414387,111.501985
123.164577,111.321040
122.935248,111.114752
122.728960,110.885423
122.548015,110.635613
122.394432,110.368109
122.269924,110.085897
122.175881,109.792125
122.114411,109.495184
122.114131,109.494509
122.114131,109.493835
122.113352,109.490071
122.114131,109.483051
122.114131,109.455491
122.118309,109.445407
122.119061,109.438623
122.123772,109.432219
122.129063,109.419443
122.144573,109.403934
122.149729,109.396922
122.153032,109.395475
122.156653,109.391853
122.192701,109.376921
122.196133,109.376584
122.197139,109.376142
122.198772,109.376324
122.212210,109.375000
123.045678,109.375000
Z" /> 
<path style="fill:#000000; fill-opacity:1.000000; stroke:none;fill-rule:evenodd;"
d="M 125.443834,106.164131
125.444509,106.164131
125.445184,106.164411
125.742125,106.225881
126.035897,106.319924
126.318109,106.444432
126.585613,106.598015
126.835423,106.778960
127.064752,106.985248
127.271040,107.214577
127.451985,107.464387
127.605568,107.731891
127.730076,108.014103
127.824119,108.307875
127.885589,108.604816
127.885869,108.605491
127.885869,108.606165
127.886648,108.609929
127.885869,108.616949
127.885869,108.644509
127.881691,108.654593
127.880939,108.661377
127.876228,108.667781
127.870937,108.680557
127.855427,108.696066
127.850271,108.703078
127.846968,108.704525
127.843347,108.708147
127.807299,108.723079
127.803867,108.723416
127.802861,108.723858
127.801228,108.723676
127.787790,108.725000
126.954322,108.725000
126.934813,108.723079
126.928519,108.720471
126.923867,108.720250
126.916405,108.715454
126.898765,108.708147
126.887479,108.696861
126.880322,108.692261
126.877602,108.686984
126.871175,108.680557
126.858429,108.649788
126.856606,108.646250
126.831019,108.528224
126.750224,108.300603
126.641260,108.085043
126.505882,107.885012
126.346269,107.703731
126.164988,107.544118
125.964957,107.408740
125.749397,107.299776
125.521776,107.218981
125.403750,107.193394
125.400212,107.191571
125.369443,107.178825
125.363016,107.172398
125.357739,107.169678
125.353139,107.162521
125.341853,107.151235
125.334546,107.133595
125.329750,107.126133
125.329529,107.121481
125.326921,107.115187
125.325000,107.095678
125.325000,106.262210
125.326324,106.248772
125.326142,106.247139
125.326584,106.246133
125.326921,106.242701
125.341853,106.206653
125.345475,106.203032
125.346922,106.199729
125.353934,106.194573
125.369443,106.179063
125.382219,106.173772
125.388623,106.169061
125.395407,106.168309
125.405491,106.164131
125.433051,106.164131
125.440071,106.163352
Z" /> 
<path style="fill:#000000; fill-opacity:1.000000; stroke:none;fill-rule:evenodd;"
d="M 127.801228,109.376324
127.802861,109.376142
127.803867,109.376584
127.807299,109.376921
127.843347,109.391853
127.846968,109.395475
127.850271,109.396922
127.855427,109.403934
127.870937,109.419443
127.876228,109.432219
127.880939,109.438623
127.881691,109.445407
127.885869,109.455491
127.885869,109.483051
127.886648,109.490071
127.885869,109.493835
127.885869,109.494509
127.885589,109.495184
127.824119,109.792125
127.730076,110.085897
127.605568,110.368109
127.451985,110.635613
127.271040,110.885423
127.064752,111.114752
126.835423,111.321040
126.585613,111.501985
126.318109,111.655568
126.035897,111.780076
125.742125,111.874119
125.445184,111.935589
125.444509,111.935869
125.443834,111.935869
125.440071,111.936648
125.433051,111.935869
125.405491,111.935869
125.395407,111.931691
125.388623,111.930939
125.382219,111.926228
125.369443,111.920937
125.353934,111.905427
125.346922,111.900271
125.345475,111.896968
125.341853,111.893347
125.326921,111.857299
125.326584,111.853867
125.326142,111.852861
125.326324,111.851228
125.325000,111.837790
125.325000,111.004322
125.326921,110.984813
125.329529,110.978519
125.329750,110.973867
125.334546,110.966405
125.341853,110.948765
125.353139,110.937479
125.357739,110.930322
125.363016,110.927602
125.369443,110.921175
125.400212,110.908429
125.403750,110.906606
125.521776,110.881019
125.749397,110.800224
125.964957,110.691260
126.164988,110.555882
126.346269,110.396269
126.505882,110.214988
126.641260,110.014957
126.750224,109.799397
126.831019,109.571776
126.856606,109.453750
126.858429,109.450212
126.871175,109.419443
126.877602,109.413016
126.880322,109.407739
126.887479,109.403139
126.898765,109.391853
126.916405,109.384546
126.923867,109.379750
126.928519,109.379529
126.934813,109.376921
126.954322,109.375000
127.787790,109.375000
Z" /> 
<path style="fill:#000000; fill-opacity:1.000000; stroke:none;fill-rule:evenodd;"
d="M 125.900000,93.175000
125.884776,93.251537
125.841421,93.316421
125.776537,93.359776
125.700000,93.375000
125.300000,93.375000
125.223463,93.359776
125.158579,93.316421
125.115224,93.251537
125.100000,93.175000
125.100000,92.625000
125.115224,92.548463
125.158579,92.483579
125.223463,92.440224
125.300000,92.425000
125.700000,92.425000
125.776537,92.440224
125.841421,92.483579
125.884776,92.548463
125.900000,92.625000
Z" /> 
<path style="fill:#000000; fill-opacity:1.000000; stroke:none;fill-rule:evenodd;"
d="M 124.250000,93.175000
124.234776,93.251537
124.191421,93.316421
124.126537,93.359776
124.050000,93.375000
123.650000,93.375000
123.573463,93.359776
123.508579,93.316421
123.465224,93.251537
123.450000,93.175000
123.450000,92.625000
123.465224,92.548463
123.508579,92.483579
123.573463,92.440224
123.650000,92.425000
124.050000,92.425000
124.126537,92.440224
124.191421,92.483579
124.234776,92.548463
124.250000,92.625000
Z" /> 
<path style="fill:#000000; fill-opacity:1.000000; stroke:none;fill-rule:evenodd;"
d="M 125.900000,91.475000
125.884776,91.551537
125.841421,91.616421
125.776537,91.659776
125.700000,91.675000
125.300000,91.675000
125.223463,91.659776
125.158579,91.616421
125.115224,91.551537
125.100000,91.475000
125.100000,90.925000
125.115224,90.848463
125.158579,90.783579
125.223463,90.740224
125.300000,90.725000
125.700000,90.725000
125.776537,90.740224
125.841421,90.783579
125.884776,90.848463
125.900000,90.925000
Z" /> 
<path style="fill:#000000; fill-opacity:1.000000; stroke:none;fill-rule:evenodd;"
d="M 124.250000,91.475000
124.234776,91.551537
124.191421,91.616421
124.126537,91.659776
124.050000,91.675000
123.650000,91.675000
123.573463,91.659776
123.508579,91.616421
123.465224,91.551537
123.450000,91.475000
123.450000,90.925000
123.465224,90.848463
123.508579,90.783579
123.573463,90.740224
123.650000,90.725000
124.050000,90.725000
124.126537,90.740224
124.191421,90.783579
124.234776,90.848463
124.250000,90.925000
Z" /> 
<path style="fill:#000000; fill-opacity:1.000000; stroke:none;fill-rule:evenodd;"
d="M 134.350000,147.180000
134.350000,148.730000
134.050000,148.730000
134.050000,147.180000
Z" /> 
<path style="fill:#000000; fill-opacity:1.000000; stroke:none;fill-rule:evenodd;"
d="M 134.100000,139.630000
134.100000,141.180000
133.800000,141.180000
133.800000,139.630000
Z" /> 
<path style="fill:#000000; fill-opacity:1.000000; stroke:none;fill-rule:evenodd;"
d="M 133.850000,147.180000
133.850000,148.730000
133.550000,148.730000
133.550000,147.180000
Z" /> 
<path style="fill:#000000; fill-opacity:1.000000; stroke:none;fill-rule:evenodd;"
d="M 133.600000,139.630000
133.600000,141.180000
133.300000,141.180000
133.300000,139.630000
Z" /> 
<path style="fill:#000000; fill-opacity:1.000000; stroke:none;fill-rule:evenodd;"
d="M 133.350000,147.180000
133.350000,148.730000
133.050000,148.730000
133.050000,147.180000
Z" /> 
<path style="fill:#000000; fill-opacity:1.000000; stroke:none;fill-rule:evenodd;"
d="M 133.100000,139.630000
133.100000,141.180000
132.800000,141.180000
132.800000,139.630000
Z" /> 
<path style="fill:#000000; fill-opacity:1.000000; stroke:none;fill-rule:evenodd;"
d="M 132.850000,147.180000
132.850000,148.730000
132.550000,148.730000
132.550000,147.180000
Z" /> 
<path style="fill:#000000; fill-opacity:1.000000; stroke:none;fill-rule:evenodd;"
d="M 132.600000,139.630000
132.600000,141.180000
132.300000,141.180000
132.300000,139.630000
Z" /> 
<path style="fill:#000000; fill-opacity:1.000000; stroke:none;fill-rule:evenodd;"
d="M 132.350000,147.180000
132.350000,148.730000
132.050000,148.730000
132.050000,147.180000
Z" /> 
<path style="fill:#000000; fill-opacity:1.000000; stroke:none;fill-rule:evenodd;"
d="M 132.100000,139.630000
132.100000,141.180000
131.800000,141.180000
131.800000,139.630000
Z" /> 
<path style="fill:#000000; fill-opacity:1.000000; stroke:none;fill-rule:evenodd;"
d="M 131.850000,147.180000
131.850000,148.730000
131.550000,148.730000
131.550000,147.180000
Z" /> 
<path style="fill:#000000; fill-opacity:1.000000; stroke:none;fill-rule:evenodd;"
d="M 131.600000,139.630000
131.600000,141.180000
131.300000,141.180000
131.300000,139.630000
Z" /> 
<path style="fill:#000000; fill-opacity:1.000000; stroke:none;fill-rule:evenodd;"
d="M 131.350000,147.180000
131.350000,148.730000
131.050000,148.730000
131.050000,147.180000
Z" /> 
<path style="fill:#000000; fill-opacity:1.000000; stroke:none;fill-rule:evenodd;"
d="M 131.100000,139.630000
131.100000,141.180000
130.800000,141.180000
130.800000,139.630000
Z" /> 
<path style="fill:#000000; fill-opacity:1.000000; stroke:none;fill-rule:evenodd;"
d="M 130.850000,147.180000
130.850000,148.730000
130.550000,148.730000
130.550000,147.180000
Z" /> 
<path style="fill:#000000; fill-opacity:1.000000; stroke:none;fill-rule:evenodd;"
d="M 130.600000,139.630000
130.600000,141.180000
130.300000,141.180000
130.300000,139.630000
Z" /> 
<path style="fill:#000000; fill-opacity:1.000000; stroke:none;fill-rule:evenodd;"
d="M 130.350000,147.180000
130.350000,148.730000
130.050000,148.730000
130.050000,147.180000
Z" /> 
<path style="fill:#000000; fill-opacity:1.000000; stroke:none;fill-rule:evenodd;"
d="M 130.100000,139.630000
130.100000,141.180000
129.800000,141.180000
129.800000,139.630000
Z" /> 
<path style="fill:#000000; fill-opacity:1.000000; stroke:none;fill-rule:evenodd;"
d="M 129.850000,147.180000
129.850000,148.730000
129.550000,148.730000
129.550000,147.180000
Z" /> 
<path style="fill:#000000; fill-opacity:1.000000; stroke:none;fill-rule:evenodd;"
d="M 129.600000,139.630000
129.600000,141.180000
129.300000,141.180000
129.300000,139.630000
Z" /> 
<path style="fill:#000000; fill-opacity:1.000000; stroke:none;fill-rule:evenodd;"
d="M 129.350000,147.180000
129.350000,148.730000
129.050000,148.730000
129.050000,147.180000
Z" /> 
<path style="fill:#000000; fill-opacity:1.000000; stroke:none;fill-rule:evenodd;"
d="M 129.100000,139.630000
129.100000,141.180000
128.800000,141.180000
128.800000,139.630000
Z" /> 
<path style="fill:#000000; fill-opacity:1.000000; stroke:none;fill-rule:evenodd;"
d="M 128.850000,147.180000
128.850000,148.730000
128.550000,148.730000
128.550000,147.180000
Z" /> 
<path style="fill:#000000; fill-opacity:1.000000; stroke:none;fill-rule:evenodd;"
d="M 126.600000,139.630000
126.600000,141.180000
126.300000,141.180000
126.300000,139.630000
Z" /> 
<path style="fill:#000000; fill-opacity:1.000000; stroke:none;fill-rule:evenodd;"
d="M 126.350000,147.180000
126.350000,148.730000
126.050000,148.730000
126.050000,147.180000
Z" /> 
<path style="fill:#000000; fill-opacity:1.000000; stroke:none;fill-rule:evenodd;"
d="M 126.100000,139.630000
126.100000,141.180000
125.800000,141.180000
125.800000,139.630000
Z" /> 
<path style="fill:#000000; fill-opacity:1.000000; stroke:none;fill-rule:evenodd;"
d="M 125.850000,147.180000
125.850000,148.730000
125.550000,148.730000
125.550000,147.180000
Z" /> 
<path style="fill:#000000; fill-opacity:1.000000; stroke:none;fill-rule:evenodd;"
d="M 125.600000,139.630000
125.600000,141.180000
125.300000,141.180000
125.300000,139.630000
Z" /> 
<path style="fill:#000000; fill-opacity:1.000000; stroke:none;fill-rule:evenodd;"
d="M 125.350000,147.180000
125.350000,148.730000
125.050000,148.730000
125.050000,147.180000
Z" /> 
<path style="fill:#000000; fill-opacity:1.000000; stroke:none;fill-rule:evenodd;"
d="M 125.100000,139.630000
125.100000,141.180000
124.800000,141.180000
124.800000,139.630000
Z" /> 
<path style="fill:#000000; fill-opacity:1.000000; stroke:none;fill-rule:evenodd;"
d="M 124.850000,147.180000
124.850000,148.730000
124.550000,148.730000
124.550000,147.180000
Z" /> 
<path style="fill:#000000; fill-opacity:1.000000; stroke:none;fill-rule:evenodd;"
d="M 124.600000,139.630000
124.600000,141.180000
124.300000,141.180000
124.300000,139.630000
Z" /> 
<path style="fill:#000000; fill-opacity:1.000000; stroke:none;fill-rule:evenodd;"
d="M 124.350000,147.180000
124.350000,148.730000
124.050000,148.730000
124.050000,147.180000
Z" /> 
<path style="fill:#000000; fill-opacity:1.000000; stroke:none;fill-rule:evenodd;"
d="M 124.100000,139.630000
124.100000,141.180000
123.800000,141.180000
123.800000,139.630000
Z" /> 
<path style="fill:#000000; fill-opacity:1.000000; stroke:none;fill-rule:evenodd;"
d="M 123.850000,147.180000
123.850000,148.730000
123.550000,148.730000
123.550000,147.180000
Z" /> 
<path style="fill:#000000; fill-opacity:1.000000; stroke:none;fill-rule:evenodd;"
d="M 123.600000,139.630000
123.600000,141.180000
123.300000,141.180000
123.300000,139.630000
Z" /> 
<path style="fill:#000000; fill-opacity:1.000000; stroke:none;fill-rule:evenodd;"
d="M 123.350000,147.180000
123.350000,148.730000
123.050000,148.730000
123.050000,147.180000
Z" /> 
<path style="fill:#000000; fill-opacity:1.000000; stroke:none;fill-rule:evenodd;"
d="M 123.100000,139.630000
123.100000,141.180000
122.800000,141.180000
122.800000,139.630000
Z" /> 
<path style="fill:#000000; fill-opacity:1.000000; stroke:none;fill-rule:evenodd;"
d="M 122.850000,147.180000
122.850000,148.730000
122.550000,148.730000
122.550000,147.180000
Z" /> 
<path style="fill:#000000; fill-opacity:1.000000; stroke:none;fill-rule:evenodd;"
d="M 122.600000,139.630000
122.600000,141.180000
122.300000,141.180000
122.300000,139.630000
Z" /> 
<path style="fill:#000000; fill-opacity:1.000000; stroke:none;fill-rule:evenodd;"
d="M 122.350000,147.180000
122.350000,148.730000
122.050000,148.730000
122.050000,147.180000
Z" /> 
<path style="fill:#000000; fill-opacity:1.000000; stroke:none;fill-rule:evenodd;"
d="M 122.100000,139.630000
122.100000,141.180000
121.800000,141.180000
121.800000,139.630000
Z" /> 
<path style="fill:#000000; fill-opacity:1.000000; stroke:none;fill-rule:evenodd;"
d="M 121.850000,147.180000
121.850000,148.730000
121.550000,148.730000
121.550000,147.180000
Z" /> 
<path style="fill:#000000; fill-opacity:1.000000; stroke:none;fill-rule:evenodd;"
d="M 121.600000,139.630000
121.600000,141.180000
121.300000,141.180000
121.300000,139.630000
Z" /> 
<path style="fill:#000000; fill-opacity:1.000000; stroke:none;fill-rule:evenodd;"
d="M 121.350000,147.180000
121.350000,148.730000
121.050000,148.730000
121.050000,147.180000
Z" /> 
<path style="fill:#000000; fill-opacity:1.000000; stroke:none;fill-rule:evenodd;"
d="M 121.100000,139.630000
121.100000,141.180000
120.800000,141.180000
120.800000,139.630000
Z" /> 
<path style="fill:#000000; fill-opacity:1.000000; stroke:none;fill-rule:evenodd;"
d="M 120.850000,147.180000
120.850000,148.730000
120.550000,148.730000
120.550000,147.180000
Z" /> 
<path style="fill:#000000; fill-opacity:1.000000; stroke:none;fill-rule:evenodd;"
d="M 120.600000,139.630000
120.600000,141.180000
120.300000,141.180000
120.300000,139.630000
Z" /> 
<path style="fill:#000000; fill-opacity:1.000000; stroke:none;fill-rule:evenodd;"
d="M 120.350000,147.180000
120.350000,148.730000
120.050000,148.730000
120.050000,147.180000
Z" /> 
<path style="fill:#000000; fill-opacity:1.000000; stroke:none;fill-rule:evenodd;"
d="M 120.100000,139.630000
120.100000,141.180000
119.800000,141.180000
119.800000,139.630000
Z" /> 
<path style="fill:#000000; fill-opacity:1.000000; stroke:none;fill-rule:evenodd;"
d="M 119.850000,147.180000
119.850000,148.730000
119.550000,148.730000
119.550000,147.180000
Z" /> 
<path style="fill:#000000; fill-opacity:1.000000; stroke:none;fill-rule:evenodd;"
d="M 119.600000,139.630000
119.600000,141.180000
119.300000,141.180000
119.300000,139.630000
Z" /> 
<path style="fill:#000000; fill-opacity:1.000000; stroke:none;fill-rule:evenodd;"
d="M 119.350000,147.180000
119.350000,148.730000
119.050000,148.730000
119.050000,147.180000
Z" /> 
<path style="fill:#000000; fill-opacity:1.000000; stroke:none;fill-rule:evenodd;"
d="M 119.100000,139.630000
119.100000,141.180000
118.800000,141.180000
118.800000,139.630000
Z" /> 
<path style="fill:#000000; fill-opacity:1.000000; stroke:none;fill-rule:evenodd;"
d="M 118.850000,147.180000
118.850000,148.730000
118.550000,148.730000
118.550000,147.180000
Z" /> 
<path style="fill:#000000; fill-opacity:1.000000; stroke:none;fill-rule:evenodd;"
d="M 118.600000,139.630000
118.600000,141.180000
118.300000,141.180000
118.300000,139.630000
Z" /> 
<path style="fill:#000000; fill-opacity:1.000000; stroke:none;fill-rule:evenodd;"
d="M 118.350000,147.180000
118.350000,148.730000
118.050000,148.730000
118.050000,147.180000
Z" /> 
<path style="fill:#000000; fill-opacity:1.000000; stroke:none;fill-rule:evenodd;"
d="M 118.100000,139.630000
118.100000,141.180000
117.800000,141.180000
117.800000,139.630000
Z" /> 
<path style="fill:#000000; fill-opacity:1.000000; stroke:none;fill-rule:evenodd;"
d="M 117.850000,147.180000
117.850000,148.730000
117.550000,148.730000
117.550000,147.180000
Z" /> 
<path style="fill:#000000; fill-opacity:1.000000; stroke:none;fill-rule:evenodd;"
d="M 117.600000,139.630000
117.600000,141.180000
117.300000,141.180000
117.300000,139.630000
Z" /> 
<path style="fill:#000000; fill-opacity:1.000000; stroke:none;fill-rule:evenodd;"
d="M 117.350000,147.180000
117.350000,148.730000
117.050000,148.730000
117.050000,147.180000
Z" /> 
<path style="fill:#000000; fill-opacity:1.000000; stroke:none;fill-rule:evenodd;"
d="M 117.100000,139.630000
117.100000,141.180000
116.800000,141.180000
116.800000,139.630000
Z" /> 
<path style="fill:#000000; fill-opacity:1.000000; stroke:none;fill-rule:evenodd;"
d="M 116.850000,147.180000
116.850000,148.730000
116.550000,148.730000
116.550000,147.180000
Z" /> 
<path style="fill:#000000; fill-opacity:1.000000; stroke:none;fill-rule:evenodd;"
d="M 116.600000,139.630000
116.600000,141.180000
116.300000,141.180000
116.300000,139.630000
Z" /> 
<path style="fill:#000000; fill-opacity:1.000000; stroke:none;fill-rule:evenodd;"
d="M 116.350000,147.180000
116.350000,148.730000
116.050000,148.730000
116.050000,147.180000
Z" /> 
<path style="fill:#000000; fill-opacity:1.000000; stroke:none;fill-rule:evenodd;"
d="M 116.100000,139.630000
116.100000,141.180000
115.800000,141.180000
115.800000,139.630000
Z" /> 
<path style="fill:#000000; fill-opacity:1.000000; stroke:none;fill-rule:evenodd;"
d="M 115.850000,147.180000
115.850000,148.730000
115.550000,148.730000
115.550000,147.180000
Z" /> 
<path style="fill:#000000; fill-opacity:1.000000; stroke:none;fill-rule:evenodd;"
d="M 135.900000,145.805000
135.900000,148.555000
134.700000,148.555000
134.700000,145.805000
Z" /> 
<path style="fill:#000000; fill-opacity:1.000000; stroke:none;fill-rule:evenodd;"
d="M 115.200000,145.805000
115.200000,148.555000
114.000000,148.555000
114.000000,145.805000
Z" /> 
<path style="fill:#000000; fill-opacity:1.000000; stroke:none;fill-rule:evenodd;"
d="M 114.280000,85.010000
113.280000,85.010000
113.280000,82.010000
114.280000,82.010000
Z" /> 
<path style="fill:#000000; fill-opacity:1.000000; stroke:none;fill-rule:evenodd;"
d="M 114.280000,90.050000
113.280000,90.050000
113.280000,87.050000
114.280000,87.050000
Z" /> 
<path style="fill:#000000; fill-opacity:1.000000; stroke:none;fill-rule:evenodd;"
d="M 116.820000,85.010000
115.820000,85.010000
115.820000,82.010000
116.820000,82.010000
Z" /> 
<path style="fill:#000000; fill-opacity:1.000000; stroke:none;fill-rule:evenodd;"
d="M 116.820000,90.050000
115.820000,90.050000
115.820000,87.050000
116.820000,87.050000
Z" /> 
<path style="fill:#000000; fill-opacity:1.000000; stroke:none;fill-rule:evenodd;"
d="M 119.360000,85.010000
118.360000,85.010000
118.360000,82.010000
119.360000,82.010000
Z" /> 
<path style="fill:#000000; fill-opacity:1.000000; stroke:none;fill-rule:evenodd;"
d="M 119.360000,90.050000
118.360000,90.050000
118.360000,87.050000
119.360000,87.050000
Z" /> 
<path style="fill:#000000; fill-opacity:1.000000; stroke:none;fill-rule:evenodd;"
d="M 121.900000,85.010000
120.900000,85.010000
120.900000,82.010000
121.900000,82.010000
Z" /> 
<path style="fill:#000000; fill-opacity:1.000000; stroke:none;fill-rule:evenodd;"
d="M 121.900000,90.050000
120.900000,90.050000
120.900000,87.050000
121.900000,87.050000
Z" /> 
<path style="fill:#000000; fill-opacity:1.000000; stroke:none;fill-rule:evenodd;"
d="M 137.400000,88.400000
137.400000,91.900000
136.200000,91.900000
136.200000,88.400000
Z" /> 
<path style="fill:#000000; fill-opacity:1.000000; stroke:none;fill-rule:evenodd;"
d="M 134.900000,88.400000
134.900000,91.900000
133.700000,91.900000
133.700000,88.400000
Z" /> 
<path style="fill:#000000; fill-opacity:1.000000; stroke:none;fill-rule:evenodd;"
d="M 132.400000,88.400000
132.400000,91.900000
131.200000,91.900000
131.200000,88.400000
Z" /> 
<path style="fill:#000000; fill-opacity:1.000000; stroke:none;fill-rule:evenodd;"
d="M 129.900000,88.400000
129.900000,91.900000
128.700000,91.900000
128.700000,88.400000
Z" /> 
<path style="fill:#000000; fill-opacity:1.000000; stroke:none;fill-rule:evenodd;"
d="M 140.500000,81.700000
140.500000,85.100000
139.000000,85.100000
139.000000,81.700000
Z" /> 
<path style="fill:#000000; fill-opacity:1.000000; stroke:none;fill-rule:evenodd;"
d="M 127.100000,81.700000
127.100000,85.100000
125.600000,85.100000
125.600000,81.700000
Z" /> 
</g> 
</svg>
