<?xml version="1.0" encoding="UTF-8" standalone="no"?>
<!-- Created with Inkscape (http://www.inkscape.org/) -->

<svg
   width="210mm"
   height="297mm"
   viewBox="0 0 210 297"
   version="1.1"
   id="svg1"
   inkscape:version="1.4.2 (f4327f4, 2025-05-13)"
   sodipodi:docname="die_sizes.svg"
   xmlns:inkscape="http://www.inkscape.org/namespaces/inkscape"
   xmlns:sodipodi="http://sodipodi.sourceforge.net/DTD/sodipodi-0.dtd"
   xmlns="http://www.w3.org/2000/svg"
   xmlns:svg="http://www.w3.org/2000/svg">
  <sodipodi:namedview
     id="namedview1"
     pagecolor="#ffffff"
     bordercolor="#000000"
     borderopacity="0.25"
     inkscape:showpageshadow="2"
     inkscape:pageopacity="0.0"
     inkscape:pagecheckerboard="0"
     inkscape:deskcolor="#d1d1d1"
     inkscape:document-units="mm"
     inkscape:zoom="8.2950012"
     inkscape:cx="212.1157"
     inkscape:cy="199.57803"
     inkscape:window-width="2560"
     inkscape:window-height="1494"
     inkscape:window-x="-11"
     inkscape:window-y="-11"
     inkscape:window-maximized="1"
     inkscape:current-layer="layer1" />
  <defs
     id="defs1" />
  <g
     inkscape:label="Layer 1"
     inkscape:groupmode="layer"
     id="layer1">
    <rect
       style="fill:#ff00ff;stroke-width:0"
       id="rect1"
       width="4.8800001"
       height="6.0700002"
       x="36.919422"
       y="43.3876" />
    <path
       id="rect16"
       style="fill:#ff00ff;stroke-width:0"
       d="m 44.461081,49.4576 c 1.559896,0 3.119792,0 4.679688,0 0,-1.957031 0,-3.914063 0,-5.871094 -1.559896,0 -3.119792,0 -4.679688,0 0,1.957031 0,3.914063 0,5.871094 z" />
    <path
       id="path16"
       style="fill:#ff00ff;stroke-width:0"
       d="m 51.802429,49.4576 c 1.493489,0 2.986979,0 4.480468,0 0,-1.890625 0,-3.78125 0,-5.671875 -1.493489,0 -2.986979,0 -4.480468,0 0,1.890625 0,3.78125 0,5.671875 z" />
    <path
       id="path17"
       style="fill:#ff00ff;stroke-width:0"
       d="m 58.944556,49.4576 c 1.427083,0 2.854166,0 4.28125,0 0,-1.824218 0,-3.648437 0,-5.472656 -1.427084,0 -2.854167,0 -4.28125,0 0,1.824219 0,3.648438 0,5.472656 z" />
    <path
       id="path18"
       style="fill:#ff00ff;stroke-width:0"
       d="m 65.887465,49.4576 c 1.360677,0 2.721354,0 4.082031,0 0,-1.757813 0,-3.515625 0,-5.273438 -1.360677,0 -2.721354,0 -4.082031,0 0,1.757813 0,3.515625 0,5.273438 z" />
    <path
       id="path19"
       style="fill:#ff00ff;stroke-width:0"
       d="m 72.631155,49.4576 c 1.294271,0 2.588541,0 3.882812,0 0,-1.691407 0,-3.382813 0,-5.074219 -1.294271,0 -2.588541,0 -3.882812,0 0,1.691406 0,3.382812 0,5.074219 z" />
    <rect
       style="fill:#ff00ff;stroke-width:0"
       id="rect19"
       width="2.9400001"
       height="3.54"
       x="37.876324"
       y="64.981682" />
    <path
       id="rect20"
       style="fill:#ff00ff;stroke-width:0"
       d="m 43.27274,68.521681 c 0.914062,0 1.828125,0 2.742187,0 10e-7,-1.113932 0,-2.227865 0,-3.341797 -0.914062,0 -1.828124,0 -2.742187,0 0,1.113932 0,2.227865 0,3.341797 z" />
    <path
       id="path21"
       style="fill:#ff00ff;stroke-width:0"
       d="m 48.471344,68.521681 c 0.847657,0 1.695313,0 2.542969,0 0,-1.047526 0,-2.095052 0,-3.142579 -0.847656,0 -1.695312,0 -2.542969,0 0,1.047527 0,2.095053 0,3.142579 z" />
    <path
       id="path22"
       style="fill:#ff00ff;stroke-width:0"
       d="m 53.47073,68.521681 c 0.78125,0 1.5625,0 2.34375,0 0,-0.98112 0,-1.962239 0,-2.943359 -0.78125,0 -1.5625,0 -2.34375,0 0,0.98112 0,1.962239 0,2.943359 z" />
    <path
       id="path23"
       style="fill:#ff00ff;stroke-width:0"
       d="m 58.270896,68.52168 c 0.714844,10e-7 1.429688,0 2.144531,0 0,-0.914713 0,-1.829427 0,-2.74414 -0.714843,0 -1.429687,0 -2.144531,0 0,0.914713 0,1.829427 0,2.74414 z" />
    <path
       id="path24"
       style="fill:#ff00ff;stroke-width:0"
       d="m 62.871844,68.521681 c 0.648437,0 1.296875,0 1.945312,0 0,-0.848307 0,-1.696614 0,-2.544922 -0.648437,0 -1.296875,0 -1.945312,0 0,0.848308 0,1.696615 0,2.544922 z" />
    <rect
       style="fill:#ff00ff;stroke-width:0"
       id="rect24"
       width="4.8800001"
       height="3.0349991"
       x="36.855629"
       y="35.222038" />
    <path
       id="path25"
       style="fill:#ff00ff;stroke-width:0"
       d="m 44.397288,38.257038 c 1.559896,0 3.119792,0 4.679688,0 0,-0.978515 0,-1.957031 0,-2.935546 -1.559896,0 -3.119792,0 -4.679688,0 0,0.978515 0,1.957031 0,2.935546 z" />
    <path
       id="path26"
       style="fill:#ff00ff;stroke-width:0"
       d="m 51.738636,38.257038 c 1.493489,0 2.986979,0 4.480468,0 0,-0.945312 0,-1.890624 0,-2.835936 -1.493489,0 -2.986979,0 -4.480468,0 0,0.945312 0,1.890624 0,2.835936 z" />
    <path
       id="path27"
       style="fill:#ff00ff;stroke-width:0"
       d="m 58.880763,38.257038 c 1.427083,0 2.854166,0 4.28125,0 0,-0.912108 0,-1.824218 0,-2.736327 -1.427084,0 -2.854167,0 -4.28125,0 0,0.912109 0,1.824219 0,2.736327 z" />
    <path
       id="path28"
       style="fill:#ff00ff;stroke-width:0"
       d="m 65.823672,38.257038 c 1.360677,0 2.721354,0 4.082031,0 0,-0.878906 0,-1.757812 0,-2.636718 -1.360677,0 -2.721354,0 -4.082031,0 0,0.878906 0,1.757812 0,2.636718 z" />
    <path
       id="path29"
       style="fill:#ff00ff;stroke-width:0"
       d="m 72.567362,38.257038 c 1.294271,0 2.588541,0 3.882812,0 0,-0.845703 0,-1.691406 0,-2.537109 -1.294271,0 -2.588541,0 -3.882812,0 0,0.845703 0,1.691406 0,2.537109 z" />
    <rect
       style="fill:#ff00ff;stroke-width:0"
       id="rect29"
       width="2.4399662"
       height="6.0700002"
       x="37.525455"
       y="53.945415" />
    <path
       id="path30"
       style="fill:#ff00ff;stroke-width:0"
       d="m 43.363142,60.015415 c 0.779937,0 1.559874,0 2.339812,0 0,-1.957031 0,-3.914063 0,-5.871094 -0.779938,0 -1.559875,0 -2.339812,0 0,1.957031 0,3.914063 0,5.871094 z" />
    <path
       id="path31"
       style="fill:#ff00ff;stroke-width:0"
       d="m 49.100673,60.015415 c 0.746734,0 1.493469,0 2.240203,0 0,-1.890625 0,-3.78125 0,-5.671875 -0.746734,0 -1.493469,0 -2.240203,0 0,1.890625 0,3.78125 0,5.671875 z" />
    <path
       id="path32"
       style="fill:#ff00ff;stroke-width:0"
       d="m 54.738595,60.015415 c 0.713531,0 1.427063,0 2.140595,0 0,-1.824218 0,-3.648437 0,-5.472656 -0.713532,0 -1.427064,0 -2.140595,0 0,1.824219 0,3.648438 0,5.472656 z" />
    <path
       id="path33"
       style="fill:#ff00ff;stroke-width:0"
       d="m 60.276909,60.015415 c 0.680329,0 1.360658,0 2.040987,0 0,-1.757813 0,-3.515625 0,-5.273438 -0.680329,0 -1.360658,0 -2.040987,0 0,1.757813 0,3.515625 0,5.273438 z" />
    <path
       id="path34"
       style="fill:#ff00ff;stroke-width:0"
       d="m 65.715615,60.015415 c 0.647126,0 1.294253,0 1.94138,0 0,-1.691407 0,-3.382813 0,-5.074219 -0.647127,0 -1.294254,0 -1.94138,0 0,1.691406 0,3.382812 0,5.074219 z" />
  </g>
</svg>
