<?xml version="1.0" standalone="no"?>
 <!DOCTYPE svg PUBLIC "-//W3C//DTD SVG 1.1//EN" 
 "http://www.w3.org/Graphics/SVG/1.1/DTD/svg11.dtd"> 
<svg
  xmlns:svg="http://www.w3.org/2000/svg"
  xmlns="http://www.w3.org/2000/svg"
  xmlns:xlink="http://www.w3.org/1999/xlink"
  version="1.1"
  width="279.400000mm" height="215.900000mm" viewBox="0.000000 0.000000 279.400000 215.900000">
<title>SVG Image created as grbl_expando-F_Paste.svg date 2026/02/24 22:32:49 </title>
  <desc>Image generated by PCBNEW </desc>
<g style="fill:#000000; fill-opacity:1.000000;stroke:#000000; stroke-opacity:1.000000;
stroke-linecap:round; stroke-linejoin:round;"
 transform="translate(0 0) scale(1 1)">
<path style="fill:#000000; fill-opacity:1.000000; stroke:none;fill-rule:evenodd;"
d="M 142.450000,132.697500
142.536104,132.714627
142.609099,132.763401
142.657873,132.836396
142.675000,132.922500
142.675000,133.372500
142.657873,133.458604
142.609099,133.531599
142.536104,133.580373
142.450000,133.597500
141.950000,133.597500
141.863896,133.580373
141.790901,133.531599
141.742127,133.458604
141.725000,133.372500
141.725000,132.922500
141.742127,132.836396
141.790901,132.763401
141.863896,132.714627
141.950000,132.697500
Z" /> 
<path style="fill:#000000; fill-opacity:1.000000; stroke:none;fill-rule:evenodd;"
d="M 142.450000,134.247500
142.536104,134.264627
142.609099,134.313401
142.657873,134.386396
142.675000,134.472500
142.675000,134.922500
142.657873,135.008604
142.609099,135.081599
142.536104,135.130373
142.450000,135.147500
141.950000,135.147500
141.863896,135.130373
141.790901,135.081599
141.742127,135.008604
141.725000,134.922500
141.725000,134.472500
141.742127,134.386396
141.790901,134.313401
141.863896,134.264627
141.950000,134.247500
Z" /> 
<path style="fill:#000000; fill-opacity:1.000000; stroke:none;fill-rule:evenodd;"
d="M 139.600000,127.950000
139.600000,126.750000
141.100000,126.750000
141.100000,127.950000
Z" /> 
<path style="fill:#000000; fill-opacity:1.000000; stroke:none;fill-rule:evenodd;"
d="M 147.300000,127.950000
147.300000,126.750000
148.800000,126.750000
148.800000,127.950000
Z" /> 
<path style="fill:#000000; fill-opacity:1.000000; stroke:none;fill-rule:evenodd;"
d="M 148.570000,134.305000
148.570000,135.155000
146.970000,135.155000
146.970000,134.305000
Z" /> 
<path style="fill:#000000; fill-opacity:1.000000; stroke:none;fill-rule:evenodd;"
d="M 148.570000,132.555000
148.570000,133.405000
146.970000,133.405000
146.970000,132.555000
Z" /> 
<path style="fill:#000000; fill-opacity:1.000000; stroke:none;fill-rule:evenodd;"
d="M 145.070000,132.555000
145.070000,133.405000
143.470000,133.405000
143.470000,132.555000
Z" /> 
<path style="fill:#000000; fill-opacity:1.000000; stroke:none;fill-rule:evenodd;"
d="M 145.070000,134.305000
145.070000,135.155000
143.470000,135.155000
143.470000,134.305000
Z" /> 
<path style="fill:#000000; fill-opacity:1.000000; stroke:none;fill-rule:evenodd;"
d="M 146.145000,149.720000
146.133582,149.777403
146.101066,149.826066
146.052403,149.858582
145.995000,149.870000
144.820000,149.870000
144.762597,149.858582
144.713934,149.826066
144.681418,149.777403
144.670000,149.720000
144.670000,149.420000
144.681418,149.362597
144.713934,149.313934
144.762597,149.281418
144.820000,149.270000
145.995000,149.270000
146.052403,149.281418
146.101066,149.313934
146.133582,149.362597
146.145000,149.420000
Z" /> 
<path style="fill:#000000; fill-opacity:1.000000; stroke:none;fill-rule:evenodd;"
d="M 146.145000,147.820000
146.133582,147.877403
146.101066,147.926066
146.052403,147.958582
145.995000,147.970000
144.820000,147.970000
144.762597,147.958582
144.713934,147.926066
144.681418,147.877403
144.670000,147.820000
144.670000,147.520000
144.681418,147.462597
144.713934,147.413934
144.762597,147.381418
144.820000,147.370000
145.995000,147.370000
146.052403,147.381418
146.101066,147.413934
146.133582,147.462597
146.145000,147.520000
Z" /> 
<path style="fill:#000000; fill-opacity:1.000000; stroke:none;fill-rule:evenodd;"
d="M 144.270000,148.770000
144.258582,148.827403
144.226066,148.876066
144.177403,148.908582
144.120000,148.920000
142.945000,148.920000
142.887597,148.908582
142.838934,148.876066
142.806418,148.827403
142.795000,148.770000
142.795000,148.470000
142.806418,148.412597
142.838934,148.363934
142.887597,148.331418
142.945000,148.320000
144.120000,148.320000
144.177403,148.331418
144.226066,148.363934
144.258582,148.412597
144.270000,148.470000
Z" /> 
<path style="fill:#000000; fill-opacity:1.000000; stroke:none;fill-rule:evenodd;"
d="M 131.500000,141.750000
131.519030,141.654329
131.573223,141.573223
131.654329,141.519030
131.750000,141.500000
132.250000,141.500000
132.345671,141.519030
132.426777,141.573223
132.480970,141.654329
132.500000,141.750000
132.500000,144.750000
132.480970,144.845671
132.426777,144.926777
132.345671,144.980970
132.250000,145.000000
131.750000,145.000000
131.654329,144.980970
131.573223,144.926777
131.519030,144.845671
131.500000,144.750000
Z" /> 
<path style="fill:#000000; fill-opacity:1.000000; stroke:none;fill-rule:evenodd;"
d="M 133.500000,141.750000
133.519030,141.654329
133.573223,141.573223
133.654329,141.519030
133.750000,141.500000
134.250000,141.500000
134.345671,141.519030
134.426777,141.573223
134.480970,141.654329
134.500000,141.750000
134.500000,144.750000
134.480970,144.845671
134.426777,144.926777
134.345671,144.980970
134.250000,145.000000
133.750000,145.000000
133.654329,144.980970
133.573223,144.926777
133.519030,144.845671
133.500000,144.750000
Z" /> 
<path style="fill:#000000; fill-opacity:1.000000; stroke:none;fill-rule:evenodd;"
d="M 135.500000,141.750000
135.519030,141.654329
135.573223,141.573223
135.654329,141.519030
135.750000,141.500000
136.250000,141.500000
136.345671,141.519030
136.426777,141.573223
136.480970,141.654329
136.500000,141.750000
136.500000,144.750000
136.480970,144.845671
136.426777,144.926777
136.345671,144.980970
136.250000,145.000000
135.750000,145.000000
135.654329,144.980970
135.573223,144.926777
135.519030,144.845671
135.500000,144.750000
Z" /> 
<path style="fill:#000000; fill-opacity:1.000000; stroke:none;fill-rule:evenodd;"
d="M 137.500000,141.750000
137.519030,141.654329
137.573223,141.573223
137.654329,141.519030
137.750000,141.500000
138.250000,141.500000
138.345671,141.519030
138.426777,141.573223
138.480970,141.654329
138.500000,141.750000
138.500000,144.750000
138.480970,144.845671
138.426777,144.926777
138.345671,144.980970
138.250000,145.000000
137.750000,145.000000
137.654329,144.980970
137.573223,144.926777
137.519030,144.845671
137.500000,144.750000
Z" /> 
<path style="fill:#000000; fill-opacity:1.000000; stroke:none;fill-rule:evenodd;"
d="M 128.900000,147.550001
128.919030,147.454330
128.973224,147.373224
129.054330,147.319030
129.150002,147.300001
130.149999,147.300000
130.245670,147.319030
130.326776,147.373224
130.380970,147.454330
130.399999,147.550002
130.400000,150.449999
130.380970,150.545670
130.326776,150.626776
130.245670,150.680970
130.149998,150.699999
129.150001,150.700000
129.054330,150.680970
128.973224,150.626776
128.919030,150.545670
128.900001,150.449998
Z" /> 
<path style="fill:#000000; fill-opacity:1.000000; stroke:none;fill-rule:evenodd;"
d="M 139.600000,147.550001
139.619030,147.454330
139.673224,147.373224
139.754330,147.319030
139.850002,147.300001
140.849999,147.300000
140.945670,147.319030
141.026776,147.373224
141.080970,147.454330
141.099999,147.550002
141.100000,150.449999
141.080970,150.545670
141.026776,150.626776
140.945670,150.680970
140.849998,150.699999
139.850001,150.700000
139.754330,150.680970
139.673224,150.626776
139.619030,150.545670
139.600001,150.449998
Z" /> 
<path style="fill:#000000; fill-opacity:1.000000; stroke:none;fill-rule:evenodd;"
d="M 99.985000,85.675000
100.061537,85.690224
100.126421,85.733579
100.169776,85.798463
100.185000,85.875000
100.185000,86.275000
100.169776,86.351537
100.126421,86.416421
100.061537,86.459776
99.985000,86.475000
99.435000,86.475000
99.358463,86.459776
99.293579,86.416421
99.250224,86.351537
99.235000,86.275000
99.235000,85.875000
99.250224,85.798463
99.293579,85.733579
99.358463,85.690224
99.435000,85.675000
Z" /> 
<path style="fill:#000000; fill-opacity:1.000000; stroke:none;fill-rule:evenodd;"
d="M 99.985000,87.325000
100.061537,87.340224
100.126421,87.383579
100.169776,87.448463
100.185000,87.525000
100.185000,87.925000
100.169776,88.001537
100.126421,88.066421
100.061537,88.109776
99.985000,88.125000
99.435000,88.125000
99.358463,88.109776
99.293579,88.066421
99.250224,88.001537
99.235000,87.925000
99.235000,87.525000
99.250224,87.448463
99.293579,87.383579
99.358463,87.340224
99.435000,87.325000
Z" /> 
<path style="fill:#000000; fill-opacity:1.000000; stroke:none;fill-rule:evenodd;"
d="M 109.525000,120.000000
109.429329,119.980970
109.348223,119.926777
109.294030,119.845671
109.275000,119.750000
109.275000,119.250000
109.294030,119.154329
109.348223,119.073223
109.429329,119.019030
109.525000,119.000000
110.475000,119.000000
110.570671,119.019030
110.651777,119.073223
110.705970,119.154329
110.725000,119.250000
110.725000,119.750000
110.705970,119.845671
110.651777,119.926777
110.570671,119.980970
110.475000,120.000000
Z" /> 
<path style="fill:#000000; fill-opacity:1.000000; stroke:none;fill-rule:evenodd;"
d="M 109.525000,118.100000
109.429329,118.080970
109.348223,118.026777
109.294030,117.945671
109.275000,117.850000
109.275000,117.350000
109.294030,117.254329
109.348223,117.173223
109.429329,117.119030
109.525000,117.100000
110.475000,117.100000
110.570671,117.119030
110.651777,117.173223
110.705970,117.254329
110.725000,117.350000
110.725000,117.850000
110.705970,117.945671
110.651777,118.026777
110.570671,118.080970
110.475000,118.100000
Z" /> 
<path style="fill:#000000; fill-opacity:1.000000; stroke:none;fill-rule:evenodd;"
d="M 147.070000,140.685000
147.063149,140.719442
147.043640,140.748640
147.014442,140.768149
146.980000,140.775000
146.560000,140.775000
146.525558,140.768149
146.496360,140.748640
146.476851,140.719442
146.470000,140.685000
146.470000,139.315000
146.476851,139.280558
146.496360,139.251360
146.525558,139.231851
146.560000,139.225000
146.980000,139.225000
147.014442,139.231851
147.043640,139.251360
147.063149,139.280558
147.070000,139.315000
Z" /> 
<path style="fill:#000000; fill-opacity:1.000000; stroke:none;fill-rule:evenodd;"
d="M 145.800000,140.685000
145.793149,140.719442
145.773640,140.748640
145.744442,140.768149
145.710000,140.775000
145.290000,140.775000
145.255558,140.768149
145.226360,140.748640
145.206851,140.719442
145.200000,140.685000
145.200000,139.315000
145.206851,139.280558
145.226360,139.251360
145.255558,139.231851
145.290000,139.225000
145.710000,139.225000
145.744442,139.231851
145.773640,139.251360
145.793149,139.280558
145.800000,139.315000
Z" /> 
<path style="fill:#000000; fill-opacity:1.000000; stroke:none;fill-rule:evenodd;"
d="M 144.530000,140.685000
144.523149,140.719442
144.503640,140.748640
144.474442,140.768149
144.440000,140.775000
144.020000,140.775000
143.985558,140.768149
143.956360,140.748640
143.936851,140.719442
143.930000,140.685000
143.930000,139.315000
143.936851,139.280558
143.956360,139.251360
143.985558,139.231851
144.020000,139.225000
144.440000,139.225000
144.474442,139.231851
144.503640,139.251360
144.523149,139.280558
144.530000,139.315000
Z" /> 
<path style="fill:#000000; fill-opacity:1.000000; stroke:none;fill-rule:evenodd;"
d="M 143.260000,140.685000
143.253149,140.719442
143.233640,140.748640
143.204442,140.768149
143.170000,140.775000
142.750000,140.775000
142.715558,140.768149
142.686360,140.748640
142.666851,140.719442
142.660000,140.685000
142.660000,139.315000
142.666851,139.280558
142.686360,139.251360
142.715558,139.231851
142.750000,139.225000
143.170000,139.225000
143.204442,139.231851
143.233640,139.251360
143.253149,139.280558
143.260000,139.315000
Z" /> 
<path style="fill:#000000; fill-opacity:1.000000; stroke:none;fill-rule:evenodd;"
d="M 143.260000,146.085000
143.253149,146.119442
143.233640,146.148640
143.204442,146.168149
143.170000,146.175000
142.750000,146.175000
142.715558,146.168149
142.686360,146.148640
142.666851,146.119442
142.660000,146.085000
142.660000,144.715000
142.666851,144.680558
142.686360,144.651360
142.715558,144.631851
142.750000,144.625000
143.170000,144.625000
143.204442,144.631851
143.233640,144.651360
143.253149,144.680558
143.260000,144.715000
Z" /> 
<path style="fill:#000000; fill-opacity:1.000000; stroke:none;fill-rule:evenodd;"
d="M 144.530000,146.085000
144.523149,146.119442
144.503640,146.148640
144.474442,146.168149
144.440000,146.175000
144.020000,146.175000
143.985558,146.168149
143.956360,146.148640
143.936851,146.119442
143.930000,146.085000
143.930000,144.715000
143.936851,144.680558
143.956360,144.651360
143.985558,144.631851
144.020000,144.625000
144.440000,144.625000
144.474442,144.631851
144.503640,144.651360
144.523149,144.680558
144.530000,144.715000
Z" /> 
<path style="fill:#000000; fill-opacity:1.000000; stroke:none;fill-rule:evenodd;"
d="M 145.800000,146.085000
145.793149,146.119442
145.773640,146.148640
145.744442,146.168149
145.710000,146.175000
145.290000,146.175000
145.255558,146.168149
145.226360,146.148640
145.206851,146.119442
145.200000,146.085000
145.200000,144.715000
145.206851,144.680558
145.226360,144.651360
145.255558,144.631851
145.290000,144.625000
145.710000,144.625000
145.744442,144.631851
145.773640,144.651360
145.793149,144.680558
145.800000,144.715000
Z" /> 
<path style="fill:#000000; fill-opacity:1.000000; stroke:none;fill-rule:evenodd;"
d="M 147.070000,146.085000
147.063149,146.119442
147.043640,146.148640
147.014442,146.168149
146.980000,146.175000
146.560000,146.175000
146.525558,146.168149
146.496360,146.148640
146.476851,146.119442
146.470000,146.085000
146.470000,144.715000
146.476851,144.680558
146.496360,144.651360
146.525558,144.631851
146.560000,144.625000
146.980000,144.625000
147.014442,144.631851
147.043640,144.651360
147.063149,144.680558
147.070000,144.715000
Z" /> 
<path style="fill:#000000; fill-opacity:1.000000; stroke:none;fill-rule:evenodd;"
d="M 100.950000,126.900000
100.863896,126.882873
100.790901,126.834099
100.742127,126.761104
100.725000,126.675000
100.725000,126.225000
100.742127,126.138896
100.790901,126.065901
100.863896,126.017127
100.950000,126.000000
101.450000,126.000000
101.536104,126.017127
101.609099,126.065901
101.657873,126.138896
101.675000,126.225000
101.675000,126.675000
101.657873,126.761104
101.609099,126.834099
101.536104,126.882873
101.450000,126.900000
Z" /> 
<path style="fill:#000000; fill-opacity:1.000000; stroke:none;fill-rule:evenodd;"
d="M 100.950000,125.350000
100.863896,125.332873
100.790901,125.284099
100.742127,125.211104
100.725000,125.125000
100.725000,124.675000
100.742127,124.588896
100.790901,124.515901
100.863896,124.467127
100.950000,124.450000
101.450000,124.450000
101.536104,124.467127
101.609099,124.515901
101.657873,124.588896
101.675000,124.675000
101.675000,125.125000
101.657873,125.211104
101.609099,125.284099
101.536104,125.332873
101.450000,125.350000
Z" /> 
<path style="fill:#000000; fill-opacity:1.000000; stroke:none;fill-rule:evenodd;"
d="M 102.755000,126.970000
102.659329,126.950970
102.578223,126.896777
102.524030,126.815671
102.505000,126.720000
102.505000,126.220000
102.524030,126.124329
102.578223,126.043223
102.659329,125.989030
102.755000,125.970000
103.705000,125.970000
103.800671,125.989030
103.881777,126.043223
103.935970,126.124329
103.955000,126.220000
103.955000,126.720000
103.935970,126.815671
103.881777,126.896777
103.800671,126.950970
103.705000,126.970000
Z" /> 
<path style="fill:#000000; fill-opacity:1.000000; stroke:none;fill-rule:evenodd;"
d="M 102.755000,125.070000
102.659329,125.050970
102.578223,124.996777
102.524030,124.915671
102.505000,124.820000
102.505000,124.320000
102.524030,124.224329
102.578223,124.143223
102.659329,124.089030
102.755000,124.070000
103.705000,124.070000
103.800671,124.089030
103.881777,124.143223
103.935970,124.224329
103.955000,124.320000
103.955000,124.820000
103.935970,124.915671
103.881777,124.996777
103.800671,125.050970
103.705000,125.070000
Z" /> 
<path style="fill:#000000; fill-opacity:1.000000; stroke:none;fill-rule:evenodd;"
d="M 104.825000,126.960000
104.729329,126.940970
104.648223,126.886777
104.594030,126.805671
104.575000,126.710000
104.575000,126.210000
104.594030,126.114329
104.648223,126.033223
104.729329,125.979030
104.825000,125.960000
105.775000,125.960000
105.870671,125.979030
105.951777,126.033223
106.005970,126.114329
106.025000,126.210000
106.025000,126.710000
106.005970,126.805671
105.951777,126.886777
105.870671,126.940970
105.775000,126.960000
Z" /> 
<path style="fill:#000000; fill-opacity:1.000000; stroke:none;fill-rule:evenodd;"
d="M 104.825000,125.060000
104.729329,125.040970
104.648223,124.986777
104.594030,124.905671
104.575000,124.810000
104.575000,124.310000
104.594030,124.214329
104.648223,124.133223
104.729329,124.079030
104.825000,124.060000
105.775000,124.060000
105.870671,124.079030
105.951777,124.133223
106.005970,124.214329
106.025000,124.310000
106.025000,124.810000
106.005970,124.905671
105.951777,124.986777
105.870671,125.040970
105.775000,125.060000
Z" /> 
<path style="fill:#000000; fill-opacity:1.000000; stroke:none;fill-rule:evenodd;"
d="M 103.750000,128.200000
105.250000,128.200000
105.250000,130.200000
103.750000,130.200000
Z" /> 
<path style="fill:#000000; fill-opacity:1.000000; stroke:none;fill-rule:evenodd;"
d="M 100.300000,134.500000
104.100000,134.500000
104.100000,136.500000
100.300000,136.500000
Z" /> 
<path style="fill:#000000; fill-opacity:1.000000; stroke:none;fill-rule:evenodd;"
d="M 101.450000,128.200000
102.950000,128.200000
102.950000,130.200000
101.450000,130.200000
Z" /> 
<path style="fill:#000000; fill-opacity:1.000000; stroke:none;fill-rule:evenodd;"
d="M 99.150000,128.200000
100.650000,128.200000
100.650000,130.200000
99.150000,130.200000
Z" /> 
<path style="fill:#000000; fill-opacity:1.000000; stroke:none;fill-rule:evenodd;"
d="M 145.262500,137.025000
145.281530,136.929329
145.335723,136.848223
145.416829,136.794030
145.512500,136.775000
146.012500,136.775000
146.108171,136.794030
146.189277,136.848223
146.243470,136.929329
146.262500,137.025000
146.262500,137.975000
146.243470,138.070671
146.189277,138.151777
146.108171,138.205970
146.012500,138.225000
145.512500,138.225000
145.416829,138.205970
145.335723,138.151777
145.281530,138.070671
145.262500,137.975000
Z" /> 
<path style="fill:#000000; fill-opacity:1.000000; stroke:none;fill-rule:evenodd;"
d="M 147.162500,137.025000
147.181530,136.929329
147.235723,136.848223
147.316829,136.794030
147.412500,136.775000
147.912500,136.775000
148.008171,136.794030
148.089277,136.848223
148.143470,136.929329
148.162500,137.025000
148.162500,137.975000
148.143470,138.070671
148.089277,138.151777
148.008171,138.205970
147.912500,138.225000
147.412500,138.225000
147.316829,138.205970
147.235723,138.151777
147.181530,138.070671
147.162500,137.975000
Z" /> 
<path style="fill:#000000; fill-opacity:1.000000; stroke:none;fill-rule:evenodd;"
d="M 99.730000,82.890000
99.730000,84.090000
98.230000,84.090000
98.230000,82.890000
Z" /> 
<path style="fill:#000000; fill-opacity:1.000000; stroke:none;fill-rule:evenodd;"
d="M 92.030000,82.890000
92.030000,84.090000
90.530000,84.090000
90.530000,82.890000
Z" /> 
<path style="fill:#000000; fill-opacity:1.000000; stroke:none;fill-rule:evenodd;"
d="M 140.399000,128.988000
140.475537,129.003224
140.540421,129.046579
140.583776,129.111463
140.599000,129.188000
140.599000,129.588000
140.583776,129.664537
140.540421,129.729421
140.475537,129.772776
140.399000,129.788000
139.849000,129.788000
139.772463,129.772776
139.707579,129.729421
139.664224,129.664537
139.649000,129.588000
139.649000,129.188000
139.664224,129.111463
139.707579,129.046579
139.772463,129.003224
139.849000,128.988000
Z" /> 
<path style="fill:#000000; fill-opacity:1.000000; stroke:none;fill-rule:evenodd;"
d="M 140.399000,130.638000
140.475537,130.653224
140.540421,130.696579
140.583776,130.761463
140.599000,130.838000
140.599000,131.238000
140.583776,131.314537
140.540421,131.379421
140.475537,131.422776
140.399000,131.438000
139.849000,131.438000
139.772463,131.422776
139.707579,131.379421
139.664224,131.314537
139.649000,131.238000
139.649000,130.838000
139.664224,130.761463
139.707579,130.696579
139.772463,130.653224
139.849000,130.638000
Z" /> 
<path style="fill:#000000; fill-opacity:1.000000; stroke:none;fill-rule:evenodd;"
d="M 118.150000,141.750000
118.169030,141.654329
118.223223,141.573223
118.304329,141.519030
118.400000,141.500000
118.900000,141.500000
118.995671,141.519030
119.076777,141.573223
119.130970,141.654329
119.150000,141.750000
119.150000,144.750000
119.130970,144.845671
119.076777,144.926777
118.995671,144.980970
118.900000,145.000000
118.400000,145.000000
118.304329,144.980970
118.223223,144.926777
118.169030,144.845671
118.150000,144.750000
Z" /> 
<path style="fill:#000000; fill-opacity:1.000000; stroke:none;fill-rule:evenodd;"
d="M 120.150000,141.750000
120.169030,141.654329
120.223223,141.573223
120.304329,141.519030
120.400000,141.500000
120.900000,141.500000
120.995671,141.519030
121.076777,141.573223
121.130970,141.654329
121.150000,141.750000
121.150000,144.750000
121.130970,144.845671
121.076777,144.926777
120.995671,144.980970
120.900000,145.000000
120.400000,145.000000
120.304329,144.980970
120.223223,144.926777
120.169030,144.845671
120.150000,144.750000
Z" /> 
<path style="fill:#000000; fill-opacity:1.000000; stroke:none;fill-rule:evenodd;"
d="M 122.150000,141.750000
122.169030,141.654329
122.223223,141.573223
122.304329,141.519030
122.400000,141.500000
122.900000,141.500000
122.995671,141.519030
123.076777,141.573223
123.130970,141.654329
123.150000,141.750000
123.150000,144.750000
123.130970,144.845671
123.076777,144.926777
122.995671,144.980970
122.900000,145.000000
122.400000,145.000000
122.304329,144.980970
122.223223,144.926777
122.169030,144.845671
122.150000,144.750000
Z" /> 
<path style="fill:#000000; fill-opacity:1.000000; stroke:none;fill-rule:evenodd;"
d="M 124.150000,141.750000
124.169030,141.654329
124.223223,141.573223
124.304329,141.519030
124.400000,141.500000
124.900000,141.500000
124.995671,141.519030
125.076777,141.573223
125.130970,141.654329
125.150000,141.750000
125.150000,144.750000
125.130970,144.845671
125.076777,144.926777
124.995671,144.980970
124.900000,145.000000
124.400000,145.000000
124.304329,144.980970
124.223223,144.926777
124.169030,144.845671
124.150000,144.750000
Z" /> 
<path style="fill:#000000; fill-opacity:1.000000; stroke:none;fill-rule:evenodd;"
d="M 126.250000,147.550001
126.269030,147.454330
126.323224,147.373224
126.404330,147.319030
126.500002,147.300001
127.499999,147.300000
127.595670,147.319030
127.676776,147.373224
127.730970,147.454330
127.749999,147.550002
127.750000,150.449999
127.730970,150.545670
127.676776,150.626776
127.595670,150.680970
127.499998,150.699999
126.500001,150.700000
126.404330,150.680970
126.323224,150.626776
126.269030,150.545670
126.250001,150.449998
Z" /> 
<path style="fill:#000000; fill-opacity:1.000000; stroke:none;fill-rule:evenodd;"
d="M 115.550000,147.550001
115.569030,147.454330
115.623224,147.373224
115.704330,147.319030
115.800002,147.300001
116.799999,147.300000
116.895670,147.319030
116.976776,147.373224
117.030970,147.454330
117.049999,147.550002
117.050000,150.449999
117.030970,150.545670
116.976776,150.626776
116.895670,150.680970
116.799998,150.699999
115.800001,150.700000
115.704330,150.680970
115.623224,150.626776
115.569030,150.545670
115.550001,150.449998
Z" /> 
<path style="fill:#000000; fill-opacity:1.000000; stroke:none;fill-rule:evenodd;"
d="M 104.825000,62.830000
104.825000,61.930000
106.825000,61.930000
106.825000,62.830000
Z" /> 
<path style="fill:#000000; fill-opacity:1.000000; stroke:none;fill-rule:evenodd;"
d="M 104.825000,64.100000
104.825000,63.200000
106.825000,63.200000
106.825000,64.100000
Z" /> 
<path style="fill:#000000; fill-opacity:1.000000; stroke:none;fill-rule:evenodd;"
d="M 104.825000,65.370000
104.825000,64.470000
106.825000,64.470000
106.825000,65.370000
Z" /> 
<path style="fill:#000000; fill-opacity:1.000000; stroke:none;fill-rule:evenodd;"
d="M 104.825000,66.640000
104.825000,65.740000
106.825000,65.740000
106.825000,66.640000
Z" /> 
<path style="fill:#000000; fill-opacity:1.000000; stroke:none;fill-rule:evenodd;"
d="M 104.825000,67.910000
104.825000,67.010000
106.825000,67.010000
106.825000,67.910000
Z" /> 
<path style="fill:#000000; fill-opacity:1.000000; stroke:none;fill-rule:evenodd;"
d="M 104.825000,69.180000
104.825000,68.280000
106.825000,68.280000
106.825000,69.180000
Z" /> 
<path style="fill:#000000; fill-opacity:1.000000; stroke:none;fill-rule:evenodd;"
d="M 104.825000,70.450000
104.825000,69.550000
106.825000,69.550000
106.825000,70.450000
Z" /> 
<path style="fill:#000000; fill-opacity:1.000000; stroke:none;fill-rule:evenodd;"
d="M 104.825000,71.720000
104.825000,70.820000
106.825000,70.820000
106.825000,71.720000
Z" /> 
<path style="fill:#000000; fill-opacity:1.000000; stroke:none;fill-rule:evenodd;"
d="M 104.825000,72.990000
104.825000,72.090000
106.825000,72.090000
106.825000,72.990000
Z" /> 
<path style="fill:#000000; fill-opacity:1.000000; stroke:none;fill-rule:evenodd;"
d="M 104.825000,74.260000
104.825000,73.360000
106.825000,73.360000
106.825000,74.260000
Z" /> 
<path style="fill:#000000; fill-opacity:1.000000; stroke:none;fill-rule:evenodd;"
d="M 104.825000,75.530000
104.825000,74.630000
106.825000,74.630000
106.825000,75.530000
Z" /> 
<path style="fill:#000000; fill-opacity:1.000000; stroke:none;fill-rule:evenodd;"
d="M 104.825000,76.800000
104.825000,75.900000
106.825000,75.900000
106.825000,76.800000
Z" /> 
<path style="fill:#000000; fill-opacity:1.000000; stroke:none;fill-rule:evenodd;"
d="M 104.825000,78.070000
104.825000,77.170000
106.825000,77.170000
106.825000,78.070000
Z" /> 
<path style="fill:#000000; fill-opacity:1.000000; stroke:none;fill-rule:evenodd;"
d="M 104.825000,79.340000
104.825000,78.440000
106.825000,78.440000
106.825000,79.340000
Z" /> 
<path style="fill:#000000; fill-opacity:1.000000; stroke:none;fill-rule:evenodd;"
d="M 108.160000,78.890000
109.060000,78.890000
109.060000,80.890000
108.160000,80.890000
Z" /> 
<path style="fill:#000000; fill-opacity:1.000000; stroke:none;fill-rule:evenodd;"
d="M 110.330000,80.890000
109.430000,80.890000
109.430000,78.890000
110.330000,78.890000
Z" /> 
<path style="fill:#000000; fill-opacity:1.000000; stroke:none;fill-rule:evenodd;"
d="M 111.600000,80.890000
110.700000,80.890000
110.700000,78.890000
111.600000,78.890000
Z" /> 
<path style="fill:#000000; fill-opacity:1.000000; stroke:none;fill-rule:evenodd;"
d="M 112.870000,80.890000
111.970000,80.890000
111.970000,78.890000
112.870000,78.890000
Z" /> 
<path style="fill:#000000; fill-opacity:1.000000; stroke:none;fill-rule:evenodd;"
d="M 114.140000,80.890000
113.240000,80.890000
113.240000,78.890000
114.140000,78.890000
Z" /> 
<path style="fill:#000000; fill-opacity:1.000000; stroke:none;fill-rule:evenodd;"
d="M 115.410000,80.890000
114.510000,80.890000
114.510000,78.890000
115.410000,78.890000
Z" /> 
<path style="fill:#000000; fill-opacity:1.000000; stroke:none;fill-rule:evenodd;"
d="M 116.680000,80.890000
115.780000,80.890000
115.780000,78.890000
116.680000,78.890000
Z" /> 
<path style="fill:#000000; fill-opacity:1.000000; stroke:none;fill-rule:evenodd;"
d="M 117.950000,80.890000
117.050000,80.890000
117.050000,78.890000
117.950000,78.890000
Z" /> 
<path style="fill:#000000; fill-opacity:1.000000; stroke:none;fill-rule:evenodd;"
d="M 119.220000,80.890000
118.320000,80.890000
118.320000,78.890000
119.220000,78.890000
Z" /> 
<path style="fill:#000000; fill-opacity:1.000000; stroke:none;fill-rule:evenodd;"
d="M 120.490000,80.890000
119.590000,80.890000
119.590000,78.890000
120.490000,78.890000
Z" /> 
<path style="fill:#000000; fill-opacity:1.000000; stroke:none;fill-rule:evenodd;"
d="M 121.825000,79.340000
121.825000,78.440000
123.825000,78.440000
123.825000,79.340000
Z" /> 
<path style="fill:#000000; fill-opacity:1.000000; stroke:none;fill-rule:evenodd;"
d="M 121.825000,78.070000
121.825000,77.170000
123.825000,77.170000
123.825000,78.070000
Z" /> 
<path style="fill:#000000; fill-opacity:1.000000; stroke:none;fill-rule:evenodd;"
d="M 121.825000,76.800000
121.825000,75.900000
123.825000,75.900000
123.825000,76.800000
Z" /> 
<path style="fill:#000000; fill-opacity:1.000000; stroke:none;fill-rule:evenodd;"
d="M 121.825000,75.530000
121.825000,74.630000
123.825000,74.630000
123.825000,75.530000
Z" /> 
<path style="fill:#000000; fill-opacity:1.000000; stroke:none;fill-rule:evenodd;"
d="M 121.825000,74.260000
121.825000,73.360000
123.825000,73.360000
123.825000,74.260000
Z" /> 
<path style="fill:#000000; fill-opacity:1.000000; stroke:none;fill-rule:evenodd;"
d="M 121.825000,72.990000
121.825000,72.090000
123.825000,72.090000
123.825000,72.990000
Z" /> 
<path style="fill:#000000; fill-opacity:1.000000; stroke:none;fill-rule:evenodd;"
d="M 121.825000,71.720000
121.825000,70.820000
123.825000,70.820000
123.825000,71.720000
Z" /> 
<path style="fill:#000000; fill-opacity:1.000000; stroke:none;fill-rule:evenodd;"
d="M 121.825000,70.450000
121.825000,69.550000
123.825000,69.550000
123.825000,70.450000
Z" /> 
<path style="fill:#000000; fill-opacity:1.000000; stroke:none;fill-rule:evenodd;"
d="M 121.825000,69.180000
121.825000,68.280000
123.825000,68.280000
123.825000,69.180000
Z" /> 
<path style="fill:#000000; fill-opacity:1.000000; stroke:none;fill-rule:evenodd;"
d="M 121.825000,67.910000
121.825000,67.010000
123.825000,67.010000
123.825000,67.910000
Z" /> 
<path style="fill:#000000; fill-opacity:1.000000; stroke:none;fill-rule:evenodd;"
d="M 121.825000,66.640000
121.825000,65.740000
123.825000,65.740000
123.825000,66.640000
Z" /> 
<path style="fill:#000000; fill-opacity:1.000000; stroke:none;fill-rule:evenodd;"
d="M 121.825000,65.370000
121.825000,64.470000
123.825000,64.470000
123.825000,65.370000
Z" /> 
<path style="fill:#000000; fill-opacity:1.000000; stroke:none;fill-rule:evenodd;"
d="M 121.825000,64.100000
121.825000,63.200000
123.825000,63.200000
123.825000,64.100000
Z" /> 
<path style="fill:#000000; fill-opacity:1.000000; stroke:none;fill-rule:evenodd;"
d="M 121.825000,62.830000
121.825000,61.930000
123.825000,61.930000
123.825000,62.830000
Z" /> 
<path style="fill:#000000; fill-opacity:1.000000; stroke:none;fill-rule:evenodd;"
d="M 114.505000,67.515000
114.514896,67.465251
114.543076,67.423076
114.585251,67.394896
114.635000,67.385000
115.675000,67.385000
115.724749,67.394896
115.766924,67.423076
115.795104,67.465251
115.805000,67.515000
115.805000,68.555000
115.795104,68.604749
115.766924,68.646924
115.724749,68.675104
115.675000,68.685000
114.635000,68.685000
114.585251,68.675104
114.543076,68.646924
114.514896,68.604749
114.505000,68.555000
Z" /> 
<path style="fill:#000000; fill-opacity:1.000000; stroke:none;fill-rule:evenodd;"
d="M 114.505000,71.195000
114.514896,71.145251
114.543076,71.103076
114.585251,71.074896
114.635000,71.065000
115.675000,71.065000
115.724749,71.074896
115.766924,71.103076
115.795104,71.145251
115.805000,71.195000
115.805000,72.235000
115.795104,72.284749
115.766924,72.326924
115.724749,72.355104
115.675000,72.365000
114.635000,72.365000
114.585251,72.355104
114.543076,72.326924
114.514896,72.284749
114.505000,72.235000
Z" /> 
<path style="fill:#000000; fill-opacity:1.000000; stroke:none;fill-rule:evenodd;"
d="M 110.835000,69.365000
110.844896,69.315251
110.873076,69.273076
110.915251,69.244896
110.965000,69.235000
112.005000,69.235000
112.054749,69.244896
112.096924,69.273076
112.125104,69.315251
112.135000,69.365000
112.135000,70.405000
112.125104,70.454749
112.096924,70.496924
112.054749,70.525104
112.005000,70.535000
110.965000,70.535000
110.915251,70.525104
110.873076,70.496924
110.844896,70.454749
110.835000,70.405000
Z" /> 
<path style="fill:#000000; fill-opacity:1.000000; stroke:none;fill-rule:evenodd;"
d="M 112.715000,69.365000
112.724896,69.315251
112.753076,69.273076
112.795251,69.244896
112.845000,69.235000
113.885000,69.235000
113.934749,69.244896
113.976924,69.273076
114.005104,69.315251
114.015000,69.365000
114.015000,70.405000
114.005104,70.454749
113.976924,70.496924
113.934749,70.525104
113.885000,70.535000
112.845000,70.535000
112.795251,70.525104
112.753076,70.496924
112.724896,70.454749
112.715000,70.405000
Z" /> 
<path style="fill:#000000; fill-opacity:1.000000; stroke:none;fill-rule:evenodd;"
d="M 112.725000,67.515000
112.734896,67.465251
112.763076,67.423076
112.805251,67.394896
112.855000,67.385000
113.895000,67.385000
113.944749,67.394896
113.986924,67.423076
114.015104,67.465251
114.025000,67.515000
114.025000,68.555000
114.015104,68.604749
113.986924,68.646924
113.944749,68.675104
113.895000,68.685000
112.855000,68.685000
112.805251,68.675104
112.763076,68.646924
112.734896,68.604749
112.725000,68.555000
Z" /> 
<path style="fill:#000000; fill-opacity:1.000000; stroke:none;fill-rule:evenodd;"
d="M 110.845000,67.515000
110.854896,67.465251
110.883076,67.423076
110.925251,67.394896
110.975000,67.385000
112.015000,67.385000
112.064749,67.394896
112.106924,67.423076
112.135104,67.465251
112.145000,67.515000
112.145000,68.555000
112.135104,68.604749
112.106924,68.646924
112.064749,68.675104
112.015000,68.685000
110.975000,68.685000
110.925251,68.675104
110.883076,68.646924
110.854896,68.604749
110.845000,68.555000
Z" /> 
<path style="fill:#000000; fill-opacity:1.000000; stroke:none;fill-rule:evenodd;"
d="M 110.845000,71.195000
110.854896,71.145251
110.883076,71.103076
110.925251,71.074896
110.975000,71.065000
112.015000,71.065000
112.064749,71.074896
112.106924,71.103076
112.135104,71.145251
112.145000,71.195000
112.145000,72.235000
112.135104,72.284749
112.106924,72.326924
112.064749,72.355104
112.015000,72.365000
110.975000,72.365000
110.925251,72.355104
110.883076,72.326924
110.854896,72.284749
110.845000,72.235000
Z" /> 
<path style="fill:#000000; fill-opacity:1.000000; stroke:none;fill-rule:evenodd;"
d="M 114.495000,69.365000
114.504896,69.315251
114.533076,69.273076
114.575251,69.244896
114.625000,69.235000
115.665000,69.235000
115.714749,69.244896
115.756924,69.273076
115.785104,69.315251
115.795000,69.365000
115.795000,70.405000
115.785104,70.454749
115.756924,70.496924
115.714749,70.525104
115.665000,70.535000
114.625000,70.535000
114.575251,70.525104
114.533076,70.496924
114.504896,70.454749
114.495000,70.405000
Z" /> 
<path style="fill:#000000; fill-opacity:1.000000; stroke:none;fill-rule:evenodd;"
d="M 112.725000,71.195000
112.734896,71.145251
112.763076,71.103076
112.805251,71.074896
112.855000,71.065000
113.895000,71.065000
113.944749,71.074896
113.986924,71.103076
114.015104,71.145251
114.025000,71.195000
114.025000,72.235000
114.015104,72.284749
113.986924,72.326924
113.944749,72.355104
113.895000,72.365000
112.855000,72.365000
112.805251,72.355104
112.763076,72.326924
112.734896,72.284749
112.725000,72.235000
Z" /> 
<path style="fill:#000000; fill-opacity:1.000000; stroke:none;fill-rule:evenodd;"
d="M 126.800000,65.700000
126.857403,65.711418
126.906066,65.743934
126.938582,65.792597
126.950000,65.850000
126.950000,66.150000
126.938582,66.207403
126.906066,66.256066
126.857403,66.288582
126.800000,66.300000
125.550000,66.300000
125.492597,66.288582
125.443934,66.256066
125.411418,66.207403
125.400000,66.150000
125.400000,65.850000
125.411418,65.792597
125.443934,65.743934
125.492597,65.711418
125.550000,65.700000
Z" /> 
<path style="fill:#000000; fill-opacity:1.000000; stroke:none;fill-rule:evenodd;"
d="M 126.800000,66.700000
126.857403,66.711418
126.906066,66.743934
126.938582,66.792597
126.950000,66.850000
126.950000,67.150000
126.938582,67.207403
126.906066,67.256066
126.857403,67.288582
126.800000,67.300000
125.550000,67.300000
125.492597,67.288582
125.443934,67.256066
125.411418,67.207403
125.400000,67.150000
125.400000,66.850000
125.411418,66.792597
125.443934,66.743934
125.492597,66.711418
125.550000,66.700000
Z" /> 
<path style="fill:#000000; fill-opacity:1.000000; stroke:none;fill-rule:evenodd;"
d="M 126.800000,67.700000
126.857403,67.711418
126.906066,67.743934
126.938582,67.792597
126.950000,67.850000
126.950000,68.150000
126.938582,68.207403
126.906066,68.256066
126.857403,68.288582
126.800000,68.300000
125.550000,68.300000
125.492597,68.288582
125.443934,68.256066
125.411418,68.207403
125.400000,68.150000
125.400000,67.850000
125.411418,67.792597
125.443934,67.743934
125.492597,67.711418
125.550000,67.700000
Z" /> 
<path style="fill:#000000; fill-opacity:1.000000; stroke:none;fill-rule:evenodd;"
d="M 126.800000,68.700000
126.857403,68.711418
126.906066,68.743934
126.938582,68.792597
126.950000,68.850000
126.950000,69.150000
126.938582,69.207403
126.906066,69.256066
126.857403,69.288582
126.800000,69.300000
125.550000,69.300000
125.492597,69.288582
125.443934,69.256066
125.411418,69.207403
125.400000,69.150000
125.400000,68.850000
125.411418,68.792597
125.443934,68.743934
125.492597,68.711418
125.550000,68.700000
Z" /> 
<path style="fill:#000000; fill-opacity:1.000000; stroke:none;fill-rule:evenodd;"
d="M 126.800000,69.700000
126.857403,69.711418
126.906066,69.743934
126.938582,69.792597
126.950000,69.850000
126.950000,70.150000
126.938582,70.207403
126.906066,70.256066
126.857403,70.288582
126.800000,70.300000
125.550000,70.300000
125.492597,70.288582
125.443934,70.256066
125.411418,70.207403
125.400000,70.150000
125.400000,69.850000
125.411418,69.792597
125.443934,69.743934
125.492597,69.711418
125.550000,69.700000
Z" /> 
<path style="fill:#000000; fill-opacity:1.000000; stroke:none;fill-rule:evenodd;"
d="M 126.800000,70.700000
126.857403,70.711418
126.906066,70.743934
126.938582,70.792597
126.950000,70.850000
126.950000,71.150000
126.938582,71.207403
126.906066,71.256066
126.857403,71.288582
126.800000,71.300000
125.550000,71.300000
125.492597,71.288582
125.443934,71.256066
125.411418,71.207403
125.400000,71.150000
125.400000,70.850000
125.411418,70.792597
125.443934,70.743934
125.492597,70.711418
125.550000,70.700000
Z" /> 
<path style="fill:#000000; fill-opacity:1.000000; stroke:none;fill-rule:evenodd;"
d="M 129.350000,64.100000
129.445671,64.119030
129.526777,64.173223
129.580970,64.254329
129.600000,64.350000
129.600000,65.050000
129.580970,65.145671
129.526777,65.226777
129.445671,65.280970
129.350000,65.300000
128.050000,65.300000
127.954329,65.280970
127.873223,65.226777
127.819030,65.145671
127.800000,65.050000
127.800000,64.350000
127.819030,64.254329
127.873223,64.173223
127.954329,64.119030
128.050000,64.100000
Z" /> 
<path style="fill:#000000; fill-opacity:1.000000; stroke:none;fill-rule:evenodd;"
d="M 129.350000,71.700000
129.445671,71.719030
129.526777,71.773223
129.580970,71.854329
129.600000,71.950000
129.600000,72.650000
129.580970,72.745671
129.526777,72.826777
129.445671,72.880970
129.350000,72.900000
128.050000,72.900000
127.954329,72.880970
127.873223,72.826777
127.819030,72.745671
127.800000,72.650000
127.800000,71.950000
127.819030,71.854329
127.873223,71.773223
127.954329,71.719030
128.050000,71.700000
Z" /> 
<path style="fill:#000000; fill-opacity:1.000000; stroke:none;fill-rule:evenodd;"
d="M 144.137500,137.750000
144.120373,137.836104
144.071599,137.909099
143.998604,137.957873
143.912500,137.975000
143.462500,137.975000
143.376396,137.957873
143.303401,137.909099
143.254627,137.836104
143.237500,137.750000
143.237500,137.250000
143.254627,137.163896
143.303401,137.090901
143.376396,137.042127
143.462500,137.025000
143.912500,137.025000
143.998604,137.042127
144.071599,137.090901
144.120373,137.163896
144.137500,137.250000
Z" /> 
<path style="fill:#000000; fill-opacity:1.000000; stroke:none;fill-rule:evenodd;"
d="M 142.587500,137.750000
142.570373,137.836104
142.521599,137.909099
142.448604,137.957873
142.362500,137.975000
141.912500,137.975000
141.826396,137.957873
141.753401,137.909099
141.704627,137.836104
141.687500,137.750000
141.687500,137.250000
141.704627,137.163896
141.753401,137.090901
141.826396,137.042127
141.912500,137.025000
142.362500,137.025000
142.448604,137.042127
142.521599,137.090901
142.570373,137.163896
142.587500,137.250000
Z" /> 
<path style="fill:#000000; fill-opacity:1.000000; stroke:none;fill-rule:evenodd;"
d="M 140.854000,78.710000
140.836873,78.796104
140.788099,78.869099
140.715104,78.917873
140.629000,78.935000
140.179000,78.935000
140.092896,78.917873
140.019901,78.869099
139.971127,78.796104
139.954000,78.710000
139.954000,78.210000
139.971127,78.123896
140.019901,78.050901
140.092896,78.002127
140.179000,77.985000
140.629000,77.985000
140.715104,78.002127
140.788099,78.050901
140.836873,78.123896
140.854000,78.210000
Z" /> 
<path style="fill:#000000; fill-opacity:1.000000; stroke:none;fill-rule:evenodd;"
d="M 139.304000,78.710000
139.286873,78.796104
139.238099,78.869099
139.165104,78.917873
139.079000,78.935000
138.629000,78.935000
138.542896,78.917873
138.469901,78.869099
138.421127,78.796104
138.404000,78.710000
138.404000,78.210000
138.421127,78.123896
138.469901,78.050901
138.542896,78.002127
138.629000,77.985000
139.079000,77.985000
139.165104,78.002127
139.238099,78.050901
139.286873,78.123896
139.304000,78.210000
Z" /> 
<path style="fill:#000000; fill-opacity:1.000000; stroke:none;fill-rule:evenodd;"
d="M 96.825000,63.965000
96.809776,64.041537
96.766421,64.106421
96.701537,64.149776
96.625000,64.165000
96.225000,64.165000
96.148463,64.149776
96.083579,64.106421
96.040224,64.041537
96.025000,63.965000
96.025000,63.415000
96.040224,63.338463
96.083579,63.273579
96.148463,63.230224
96.225000,63.215000
96.625000,63.215000
96.701537,63.230224
96.766421,63.273579
96.809776,63.338463
96.825000,63.415000
Z" /> 
<path style="fill:#000000; fill-opacity:1.000000; stroke:none;fill-rule:evenodd;"
d="M 95.175000,63.965000
95.159776,64.041537
95.116421,64.106421
95.051537,64.149776
94.975000,64.165000
94.575000,64.165000
94.498463,64.149776
94.433579,64.106421
94.390224,64.041537
94.375000,63.965000
94.375000,63.415000
94.390224,63.338463
94.433579,63.273579
94.498463,63.230224
94.575000,63.215000
94.975000,63.215000
95.051537,63.230224
95.116421,63.273579
95.159776,63.338463
95.175000,63.415000
Z" /> 
<path style="fill:#000000; fill-opacity:1.000000; stroke:none;fill-rule:evenodd;"
d="M 112.100000,118.570000
112.100000,117.670000
114.100000,117.670000
114.100000,118.570000
Z" /> 
<path style="fill:#000000; fill-opacity:1.000000; stroke:none;fill-rule:evenodd;"
d="M 112.100000,119.840000
112.100000,118.940000
114.100000,118.940000
114.100000,119.840000
Z" /> 
<path style="fill:#000000; fill-opacity:1.000000; stroke:none;fill-rule:evenodd;"
d="M 112.100000,121.110000
112.100000,120.210000
114.100000,120.210000
114.100000,121.110000
Z" /> 
<path style="fill:#000000; fill-opacity:1.000000; stroke:none;fill-rule:evenodd;"
d="M 112.100000,122.380000
112.100000,121.480000
114.100000,121.480000
114.100000,122.380000
Z" /> 
<path style="fill:#000000; fill-opacity:1.000000; stroke:none;fill-rule:evenodd;"
d="M 112.100000,123.650000
112.100000,122.750000
114.100000,122.750000
114.100000,123.650000
Z" /> 
<path style="fill:#000000; fill-opacity:1.000000; stroke:none;fill-rule:evenodd;"
d="M 112.100000,124.920000
112.100000,124.020000
114.100000,124.020000
114.100000,124.920000
Z" /> 
<path style="fill:#000000; fill-opacity:1.000000; stroke:none;fill-rule:evenodd;"
d="M 112.100000,126.190000
112.100000,125.290000
114.100000,125.290000
114.100000,126.190000
Z" /> 
<path style="fill:#000000; fill-opacity:1.000000; stroke:none;fill-rule:evenodd;"
d="M 112.100000,127.460000
112.100000,126.560000
114.100000,126.560000
114.100000,127.460000
Z" /> 
<path style="fill:#000000; fill-opacity:1.000000; stroke:none;fill-rule:evenodd;"
d="M 112.100000,128.730000
112.100000,127.830000
114.100000,127.830000
114.100000,128.730000
Z" /> 
<path style="fill:#000000; fill-opacity:1.000000; stroke:none;fill-rule:evenodd;"
d="M 112.100000,130.000000
112.100000,129.100000
114.100000,129.100000
114.100000,130.000000
Z" /> 
<path style="fill:#000000; fill-opacity:1.000000; stroke:none;fill-rule:evenodd;"
d="M 112.100000,131.270000
112.100000,130.370000
114.100000,130.370000
114.100000,131.270000
Z" /> 
<path style="fill:#000000; fill-opacity:1.000000; stroke:none;fill-rule:evenodd;"
d="M 112.100000,132.540000
112.100000,131.640000
114.100000,131.640000
114.100000,132.540000
Z" /> 
<path style="fill:#000000; fill-opacity:1.000000; stroke:none;fill-rule:evenodd;"
d="M 112.100000,133.810000
112.100000,132.910000
114.100000,132.910000
114.100000,133.810000
Z" /> 
<path style="fill:#000000; fill-opacity:1.000000; stroke:none;fill-rule:evenodd;"
d="M 112.100000,135.080000
112.100000,134.180000
114.100000,134.180000
114.100000,135.080000
Z" /> 
<path style="fill:#000000; fill-opacity:1.000000; stroke:none;fill-rule:evenodd;"
d="M 115.435000,134.630000
116.335000,134.630000
116.335000,136.630000
115.435000,136.630000
Z" /> 
<path style="fill:#000000; fill-opacity:1.000000; stroke:none;fill-rule:evenodd;"
d="M 117.605000,136.630000
116.705000,136.630000
116.705000,134.630000
117.605000,134.630000
Z" /> 
<path style="fill:#000000; fill-opacity:1.000000; stroke:none;fill-rule:evenodd;"
d="M 118.875000,136.630000
117.975000,136.630000
117.975000,134.630000
118.875000,134.630000
Z" /> 
<path style="fill:#000000; fill-opacity:1.000000; stroke:none;fill-rule:evenodd;"
d="M 120.145000,136.630000
119.245000,136.630000
119.245000,134.630000
120.145000,134.630000
Z" /> 
<path style="fill:#000000; fill-opacity:1.000000; stroke:none;fill-rule:evenodd;"
d="M 121.415000,136.630000
120.515000,136.630000
120.515000,134.630000
121.415000,134.630000
Z" /> 
<path style="fill:#000000; fill-opacity:1.000000; stroke:none;fill-rule:evenodd;"
d="M 122.685000,136.630000
121.785000,136.630000
121.785000,134.630000
122.685000,134.630000
Z" /> 
<path style="fill:#000000; fill-opacity:1.000000; stroke:none;fill-rule:evenodd;"
d="M 123.955000,136.630000
123.055000,136.630000
123.055000,134.630000
123.955000,134.630000
Z" /> 
<path style="fill:#000000; fill-opacity:1.000000; stroke:none;fill-rule:evenodd;"
d="M 125.225000,136.630000
124.325000,136.630000
124.325000,134.630000
125.225000,134.630000
Z" /> 
<path style="fill:#000000; fill-opacity:1.000000; stroke:none;fill-rule:evenodd;"
d="M 126.495000,136.630000
125.595000,136.630000
125.595000,134.630000
126.495000,134.630000
Z" /> 
<path style="fill:#000000; fill-opacity:1.000000; stroke:none;fill-rule:evenodd;"
d="M 127.765000,136.630000
126.865000,136.630000
126.865000,134.630000
127.765000,134.630000
Z" /> 
<path style="fill:#000000; fill-opacity:1.000000; stroke:none;fill-rule:evenodd;"
d="M 129.100000,135.080000
129.100000,134.180000
131.100000,134.180000
131.100000,135.080000
Z" /> 
<path style="fill:#000000; fill-opacity:1.000000; stroke:none;fill-rule:evenodd;"
d="M 129.100000,133.810000
129.100000,132.910000
131.100000,132.910000
131.100000,133.810000
Z" /> 
<path style="fill:#000000; fill-opacity:1.000000; stroke:none;fill-rule:evenodd;"
d="M 129.100000,132.540000
129.100000,131.640000
131.100000,131.640000
131.100000,132.540000
Z" /> 
<path style="fill:#000000; fill-opacity:1.000000; stroke:none;fill-rule:evenodd;"
d="M 129.100000,131.270000
129.100000,130.370000
131.100000,130.370000
131.100000,131.270000
Z" /> 
<path style="fill:#000000; fill-opacity:1.000000; stroke:none;fill-rule:evenodd;"
d="M 129.100000,130.000000
129.100000,129.100000
131.100000,129.100000
131.100000,130.000000
Z" /> 
<path style="fill:#000000; fill-opacity:1.000000; stroke:none;fill-rule:evenodd;"
d="M 129.100000,128.730000
129.100000,127.830000
131.100000,127.830000
131.100000,128.730000
Z" /> 
<path style="fill:#000000; fill-opacity:1.000000; stroke:none;fill-rule:evenodd;"
d="M 129.100000,127.460000
129.100000,126.560000
131.100000,126.560000
131.100000,127.460000
Z" /> 
<path style="fill:#000000; fill-opacity:1.000000; stroke:none;fill-rule:evenodd;"
d="M 129.100000,126.190000
129.100000,125.290000
131.100000,125.290000
131.100000,126.190000
Z" /> 
<path style="fill:#000000; fill-opacity:1.000000; stroke:none;fill-rule:evenodd;"
d="M 129.100000,124.920000
129.100000,124.020000
131.100000,124.020000
131.100000,124.920000
Z" /> 
<path style="fill:#000000; fill-opacity:1.000000; stroke:none;fill-rule:evenodd;"
d="M 129.100000,123.650000
129.100000,122.750000
131.100000,122.750000
131.100000,123.650000
Z" /> 
<path style="fill:#000000; fill-opacity:1.000000; stroke:none;fill-rule:evenodd;"
d="M 129.100000,122.380000
129.100000,121.480000
131.100000,121.480000
131.100000,122.380000
Z" /> 
<path style="fill:#000000; fill-opacity:1.000000; stroke:none;fill-rule:evenodd;"
d="M 129.100000,121.110000
129.100000,120.210000
131.100000,120.210000
131.100000,121.110000
Z" /> 
<path style="fill:#000000; fill-opacity:1.000000; stroke:none;fill-rule:evenodd;"
d="M 129.100000,119.840000
129.100000,118.940000
131.100000,118.940000
131.100000,119.840000
Z" /> 
<path style="fill:#000000; fill-opacity:1.000000; stroke:none;fill-rule:evenodd;"
d="M 129.100000,118.570000
129.100000,117.670000
131.100000,117.670000
131.100000,118.570000
Z" /> 
<path style="fill:#000000; fill-opacity:1.000000; stroke:none;fill-rule:evenodd;"
d="M 118.120000,126.935000
118.129896,126.885251
118.158076,126.843076
118.200251,126.814896
118.250000,126.805000
119.290000,126.805000
119.339749,126.814896
119.381924,126.843076
119.410104,126.885251
119.420000,126.935000
119.420000,127.975000
119.410104,128.024749
119.381924,128.066924
119.339749,128.095104
119.290000,128.105000
118.250000,128.105000
118.200251,128.095104
118.158076,128.066924
118.129896,128.024749
118.120000,127.975000
Z" /> 
<path style="fill:#000000; fill-opacity:1.000000; stroke:none;fill-rule:evenodd;"
d="M 119.990000,125.105000
119.999896,125.055251
120.028076,125.013076
120.070251,124.984896
120.120000,124.975000
121.160000,124.975000
121.209749,124.984896
121.251924,125.013076
121.280104,125.055251
121.290000,125.105000
121.290000,126.145000
121.280104,126.194749
121.251924,126.236924
121.209749,126.265104
121.160000,126.275000
120.120000,126.275000
120.070251,126.265104
120.028076,126.236924
119.999896,126.194749
119.990000,126.145000
Z" /> 
<path style="fill:#000000; fill-opacity:1.000000; stroke:none;fill-rule:evenodd;"
d="M 120.000000,126.935000
120.009896,126.885251
120.038076,126.843076
120.080251,126.814896
120.130000,126.805000
121.170000,126.805000
121.219749,126.814896
121.261924,126.843076
121.290104,126.885251
121.300000,126.935000
121.300000,127.975000
121.290104,128.024749
121.261924,128.066924
121.219749,128.095104
121.170000,128.105000
120.130000,128.105000
120.080251,128.095104
120.038076,128.066924
120.009896,128.024749
120.000000,127.975000
Z" /> 
<path style="fill:#000000; fill-opacity:1.000000; stroke:none;fill-rule:evenodd;"
d="M 120.000000,123.255000
120.009896,123.205251
120.038076,123.163076
120.080251,123.134896
120.130000,123.125000
121.170000,123.125000
121.219749,123.134896
121.261924,123.163076
121.290104,123.205251
121.300000,123.255000
121.300000,124.295000
121.290104,124.344749
121.261924,124.386924
121.219749,124.415104
121.170000,124.425000
120.130000,124.425000
120.080251,124.415104
120.038076,124.386924
120.009896,124.344749
120.000000,124.295000
Z" /> 
<path style="fill:#000000; fill-opacity:1.000000; stroke:none;fill-rule:evenodd;"
d="M 121.780000,126.935000
121.789896,126.885251
121.818076,126.843076
121.860251,126.814896
121.910000,126.805000
122.950000,126.805000
122.999749,126.814896
123.041924,126.843076
123.070104,126.885251
123.080000,126.935000
123.080000,127.975000
123.070104,128.024749
123.041924,128.066924
122.999749,128.095104
122.950000,128.105000
121.910000,128.105000
121.860251,128.095104
121.818076,128.066924
121.789896,128.024749
121.780000,127.975000
Z" /> 
<path style="fill:#000000; fill-opacity:1.000000; stroke:none;fill-rule:evenodd;"
d="M 121.780000,123.255000
121.789896,123.205251
121.818076,123.163076
121.860251,123.134896
121.910000,123.125000
122.950000,123.125000
122.999749,123.134896
123.041924,123.163076
123.070104,123.205251
123.080000,123.255000
123.080000,124.295000
123.070104,124.344749
123.041924,124.386924
122.999749,124.415104
122.950000,124.425000
121.910000,124.425000
121.860251,124.415104
121.818076,124.386924
121.789896,124.344749
121.780000,124.295000
Z" /> 
<path style="fill:#000000; fill-opacity:1.000000; stroke:none;fill-rule:evenodd;"
d="M 118.120000,123.255000
118.129896,123.205251
118.158076,123.163076
118.200251,123.134896
118.250000,123.125000
119.290000,123.125000
119.339749,123.134896
119.381924,123.163076
119.410104,123.205251
119.420000,123.255000
119.420000,124.295000
119.410104,124.344749
119.381924,124.386924
119.339749,124.415104
119.290000,124.425000
118.250000,124.425000
118.200251,124.415104
118.158076,124.386924
118.129896,124.344749
118.120000,124.295000
Z" /> 
<path style="fill:#000000; fill-opacity:1.000000; stroke:none;fill-rule:evenodd;"
d="M 121.770000,125.105000
121.779896,125.055251
121.808076,125.013076
121.850251,124.984896
121.900000,124.975000
122.940000,124.975000
122.989749,124.984896
123.031924,125.013076
123.060104,125.055251
123.070000,125.105000
123.070000,126.145000
123.060104,126.194749
123.031924,126.236924
122.989749,126.265104
122.940000,126.275000
121.900000,126.275000
121.850251,126.265104
121.808076,126.236924
121.779896,126.194749
121.770000,126.145000
Z" /> 
<path style="fill:#000000; fill-opacity:1.000000; stroke:none;fill-rule:evenodd;"
d="M 118.110000,125.105000
118.119896,125.055251
118.148076,125.013076
118.190251,124.984896
118.240000,124.975000
119.280000,124.975000
119.329749,124.984896
119.371924,125.013076
119.400104,125.055251
119.410000,125.105000
119.410000,126.145000
119.400104,126.194749
119.371924,126.236924
119.329749,126.265104
119.280000,126.275000
118.240000,126.275000
118.190251,126.265104
118.148076,126.236924
118.119896,126.194749
118.110000,126.145000
Z" /> 
<path style="fill:#000000; fill-opacity:1.000000; stroke:none;fill-rule:evenodd;"
d="M 94.250000,140.900000
94.250000,139.100000
96.750000,139.100000
96.750000,140.900000
Z" /> 
<path style="fill:#000000; fill-opacity:1.000000; stroke:none;fill-rule:evenodd;"
d="M 98.250000,140.900000
98.250000,139.100000
100.750000,139.100000
100.750000,140.900000
Z" /> 
<path style="fill:#000000; fill-opacity:1.000000; stroke:none;fill-rule:evenodd;"
d="M 102.950000,68.975000
102.930970,69.070671
102.876777,69.151777
102.795671,69.205970
102.700000,69.225000
102.200000,69.225000
102.104329,69.205970
102.023223,69.151777
101.969030,69.070671
101.950000,68.975000
101.950000,68.025000
101.969030,67.929329
102.023223,67.848223
102.104329,67.794030
102.200000,67.775000
102.700000,67.775000
102.795671,67.794030
102.876777,67.848223
102.930970,67.929329
102.950000,68.025000
Z" /> 
<path style="fill:#000000; fill-opacity:1.000000; stroke:none;fill-rule:evenodd;"
d="M 101.050000,68.975000
101.030970,69.070671
100.976777,69.151777
100.895671,69.205970
100.800000,69.225000
100.300000,69.225000
100.204329,69.205970
100.123223,69.151777
100.069030,69.070671
100.050000,68.975000
100.050000,68.025000
100.069030,67.929329
100.123223,67.848223
100.204329,67.794030
100.300000,67.775000
100.800000,67.775000
100.895671,67.794030
100.976777,67.848223
101.030970,67.929329
101.050000,68.025000
Z" /> 
<path style="fill:#000000; fill-opacity:1.000000; stroke:none;fill-rule:evenodd;"
d="M 107.100000,134.725000
107.115224,134.648463
107.158579,134.583579
107.223463,134.540224
107.300000,134.525000
107.700000,134.525000
107.776537,134.540224
107.841421,134.583579
107.884776,134.648463
107.900000,134.725000
107.900000,135.275000
107.884776,135.351537
107.841421,135.416421
107.776537,135.459776
107.700000,135.475000
107.300000,135.475000
107.223463,135.459776
107.158579,135.416421
107.115224,135.351537
107.100000,135.275000
Z" /> 
<path style="fill:#000000; fill-opacity:1.000000; stroke:none;fill-rule:evenodd;"
d="M 108.750000,134.725000
108.765224,134.648463
108.808579,134.583579
108.873463,134.540224
108.950000,134.525000
109.350000,134.525000
109.426537,134.540224
109.491421,134.583579
109.534776,134.648463
109.550000,134.725000
109.550000,135.275000
109.534776,135.351537
109.491421,135.416421
109.426537,135.459776
109.350000,135.475000
108.950000,135.475000
108.873463,135.459776
108.808579,135.416421
108.765224,135.351537
108.750000,135.275000
Z" /> 
<path style="fill:#000000; fill-opacity:1.000000; stroke:none;fill-rule:evenodd;"
d="M 104.150000,94.695000
106.150000,94.695000
106.150000,95.305000
104.150000,95.305000
Z" /> 
<path style="fill:#000000; fill-opacity:1.000000; stroke:none;fill-rule:evenodd;"
d="M 104.150000,95.695000
106.150000,95.695000
106.150000,96.305000
104.150000,96.305000
Z" /> 
<path style="fill:#000000; fill-opacity:1.000000; stroke:none;fill-rule:evenodd;"
d="M 104.150000,96.695000
106.150000,96.695000
106.150000,97.305000
104.150000,97.305000
Z" /> 
<path style="fill:#000000; fill-opacity:1.000000; stroke:none;fill-rule:evenodd;"
d="M 104.150000,97.695000
106.150000,97.695000
106.150000,98.305000
104.150000,98.305000
Z" /> 
<path style="fill:#000000; fill-opacity:1.000000; stroke:none;fill-rule:evenodd;"
d="M 104.150000,98.695000
106.150000,98.695000
106.150000,99.305000
104.150000,99.305000
Z" /> 
<path style="fill:#000000; fill-opacity:1.000000; stroke:none;fill-rule:evenodd;"
d="M 104.150000,99.695000
106.150000,99.695000
106.150000,100.305000
104.150000,100.305000
Z" /> 
<path style="fill:#000000; fill-opacity:1.000000; stroke:none;fill-rule:evenodd;"
d="M 104.150000,100.695000
106.150000,100.695000
106.150000,101.305000
104.150000,101.305000
Z" /> 
<path style="fill:#000000; fill-opacity:1.000000; stroke:none;fill-rule:evenodd;"
d="M 104.150000,101.695000
106.150000,101.695000
106.150000,102.305000
104.150000,102.305000
Z" /> 
<path style="fill:#000000; fill-opacity:1.000000; stroke:none;fill-rule:evenodd;"
d="M 104.150000,102.695000
106.150000,102.695000
106.150000,103.305000
104.150000,103.305000
Z" /> 
<path style="fill:#000000; fill-opacity:1.000000; stroke:none;fill-rule:evenodd;"
d="M 104.150000,103.695000
106.150000,103.695000
106.150000,104.305000
104.150000,104.305000
Z" /> 
<path style="fill:#000000; fill-opacity:1.000000; stroke:none;fill-rule:evenodd;"
d="M 104.150000,104.695000
106.150000,104.695000
106.150000,105.305000
104.150000,105.305000
Z" /> 
<path style="fill:#000000; fill-opacity:1.000000; stroke:none;fill-rule:evenodd;"
d="M 104.150000,105.695000
106.150000,105.695000
106.150000,106.305000
104.150000,106.305000
Z" /> 
<path style="fill:#000000; fill-opacity:1.000000; stroke:none;fill-rule:evenodd;"
d="M 104.150000,106.695000
106.150000,106.695000
106.150000,107.305000
104.150000,107.305000
Z" /> 
<path style="fill:#000000; fill-opacity:1.000000; stroke:none;fill-rule:evenodd;"
d="M 104.150000,107.695000
106.150000,107.695000
106.150000,108.305000
104.150000,108.305000
Z" /> 
<path style="fill:#000000; fill-opacity:1.000000; stroke:none;fill-rule:evenodd;"
d="M 104.150000,108.695000
106.150000,108.695000
106.150000,109.305000
104.150000,109.305000
Z" /> 
<path style="fill:#000000; fill-opacity:1.000000; stroke:none;fill-rule:evenodd;"
d="M 104.150000,109.695000
106.150000,109.695000
106.150000,110.305000
104.150000,110.305000
Z" /> 
<path style="fill:#000000; fill-opacity:1.000000; stroke:none;fill-rule:evenodd;"
d="M 100.550000,90.670000
104.150000,90.670000
104.150000,93.350000
100.550000,93.350000
Z" /> 
<path style="fill:#000000; fill-opacity:1.000000; stroke:none;fill-rule:evenodd;"
d="M 100.550000,111.650000
104.150000,111.650000
104.150000,114.330000
100.550000,114.330000
Z" /> 
<path style="fill:#000000; fill-opacity:1.000000; stroke:none;fill-rule:evenodd;"
d="M 137.550000,75.200000
137.550000,76.800000
136.850000,76.800000
136.850000,75.200000
Z" /> 
<path style="fill:#000000; fill-opacity:1.000000; stroke:none;fill-rule:evenodd;"
d="M 138.650000,75.200000
138.650000,76.800000
137.950000,76.800000
137.950000,75.200000
Z" /> 
<path style="fill:#000000; fill-opacity:1.000000; stroke:none;fill-rule:evenodd;"
d="M 139.750000,75.200000
139.750000,76.800000
139.050000,76.800000
139.050000,75.200000
Z" /> 
<path style="fill:#000000; fill-opacity:1.000000; stroke:none;fill-rule:evenodd;"
d="M 140.850000,75.200000
140.850000,76.800000
140.150000,76.800000
140.150000,75.200000
Z" /> 
<path style="fill:#000000; fill-opacity:1.000000; stroke:none;fill-rule:evenodd;"
d="M 141.950000,75.200000
141.950000,76.800000
141.250000,76.800000
141.250000,75.200000
Z" /> 
<path style="fill:#000000; fill-opacity:1.000000; stroke:none;fill-rule:evenodd;"
d="M 143.050000,75.200000
143.050000,76.800000
142.350000,76.800000
142.350000,75.200000
Z" /> 
<path style="fill:#000000; fill-opacity:1.000000; stroke:none;fill-rule:evenodd;"
d="M 144.150000,75.200000
144.150000,76.800000
143.450000,76.800000
143.450000,75.200000
Z" /> 
<path style="fill:#000000; fill-opacity:1.000000; stroke:none;fill-rule:evenodd;"
d="M 145.250000,75.200000
145.250000,76.800000
144.550000,76.800000
144.550000,75.200000
Z" /> 
<path style="fill:#000000; fill-opacity:1.000000; stroke:none;fill-rule:evenodd;"
d="M 146.350000,75.200000
146.350000,76.800000
145.650000,76.800000
145.650000,75.200000
Z" /> 
<path style="fill:#000000; fill-opacity:1.000000; stroke:none;fill-rule:evenodd;"
d="M 133.350000,74.800000
133.350000,76.200000
131.750000,76.200000
131.750000,74.800000
Z" /> 
<path style="fill:#000000; fill-opacity:1.000000; stroke:none;fill-rule:evenodd;"
d="M 147.750000,74.800000
147.750000,76.200000
146.550000,76.200000
146.550000,74.800000
Z" /> 
<path style="fill:#000000; fill-opacity:1.000000; stroke:none;fill-rule:evenodd;"
d="M 132.250000,64.800000
132.250000,67.000000
131.050000,67.000000
131.050000,64.800000
Z" /> 
<path style="fill:#000000; fill-opacity:1.000000; stroke:none;fill-rule:evenodd;"
d="M 147.750000,64.800000
147.750000,67.000000
146.550000,67.000000
146.550000,64.800000
Z" /> 
<path style="fill:#000000; fill-opacity:1.000000; stroke:none;fill-rule:evenodd;"
d="M 97.435000,128.920000
97.530671,128.939030
97.611777,128.993223
97.665970,129.074329
97.685000,129.170000
97.685000,129.670000
97.665970,129.765671
97.611777,129.846777
97.530671,129.900970
97.435000,129.920000
96.485000,129.920000
96.389329,129.900970
96.308223,129.846777
96.254030,129.765671
96.235000,129.670000
96.235000,129.170000
96.254030,129.074329
96.308223,128.993223
96.389329,128.939030
96.485000,128.920000
Z" /> 
<path style="fill:#000000; fill-opacity:1.000000; stroke:none;fill-rule:evenodd;"
d="M 97.435000,130.820000
97.530671,130.839030
97.611777,130.893223
97.665970,130.974329
97.685000,131.070000
97.685000,131.570000
97.665970,131.665671
97.611777,131.746777
97.530671,131.800970
97.435000,131.820000
96.485000,131.820000
96.389329,131.800970
96.308223,131.746777
96.254030,131.665671
96.235000,131.570000
96.235000,131.070000
96.254030,130.974329
96.308223,130.893223
96.389329,130.839030
96.485000,130.820000
Z" /> 
<path style="fill:#000000; fill-opacity:1.000000; stroke:none;fill-rule:evenodd;"
d="M 101.165000,73.695000
101.088463,73.679776
101.023579,73.636421
100.980224,73.571537
100.965000,73.495000
100.965000,73.095000
100.980224,73.018463
101.023579,72.953579
101.088463,72.910224
101.165000,72.895000
101.715000,72.895000
101.791537,72.910224
101.856421,72.953579
101.899776,73.018463
101.915000,73.095000
101.915000,73.495000
101.899776,73.571537
101.856421,73.636421
101.791537,73.679776
101.715000,73.695000
Z" /> 
<path style="fill:#000000; fill-opacity:1.000000; stroke:none;fill-rule:evenodd;"
d="M 101.165000,72.045000
101.088463,72.029776
101.023579,71.986421
100.980224,71.921537
100.965000,71.845000
100.965000,71.445000
100.980224,71.368463
101.023579,71.303579
101.088463,71.260224
101.165000,71.245000
101.715000,71.245000
101.791537,71.260224
101.856421,71.303579
101.899776,71.368463
101.915000,71.445000
101.915000,71.845000
101.899776,71.921537
101.856421,71.986421
101.791537,72.029776
101.715000,72.045000
Z" /> 
<path style="fill:#000000; fill-opacity:1.000000; stroke:none;fill-rule:evenodd;"
d="M 102.025000,143.500000
101.929329,143.480970
101.848223,143.426777
101.794030,143.345671
101.775000,143.250000
101.775000,142.750000
101.794030,142.654329
101.848223,142.573223
101.929329,142.519030
102.025000,142.500000
102.975000,142.500000
103.070671,142.519030
103.151777,142.573223
103.205970,142.654329
103.225000,142.750000
103.225000,143.250000
103.205970,143.345671
103.151777,143.426777
103.070671,143.480970
102.975000,143.500000
Z" /> 
<path style="fill:#000000; fill-opacity:1.000000; stroke:none;fill-rule:evenodd;"
d="M 102.025000,141.600000
101.929329,141.580970
101.848223,141.526777
101.794030,141.445671
101.775000,141.350000
101.775000,140.850000
101.794030,140.754329
101.848223,140.673223
101.929329,140.619030
102.025000,140.600000
102.975000,140.600000
103.070671,140.619030
103.151777,140.673223
103.205970,140.754329
103.225000,140.850000
103.225000,141.350000
103.205970,141.445671
103.151777,141.526777
103.070671,141.580970
102.975000,141.600000
Z" /> 
<path style="fill:#000000; fill-opacity:1.000000; stroke:none;fill-rule:evenodd;"
d="M 91.260000,71.065000
91.275224,70.988463
91.318579,70.923579
91.383463,70.880224
91.460000,70.865000
91.860000,70.865000
91.936537,70.880224
92.001421,70.923579
92.044776,70.988463
92.060000,71.065000
92.060000,71.615000
92.044776,71.691537
92.001421,71.756421
91.936537,71.799776
91.860000,71.815000
91.460000,71.815000
91.383463,71.799776
91.318579,71.756421
91.275224,71.691537
91.260000,71.615000
Z" /> 
<path style="fill:#000000; fill-opacity:1.000000; stroke:none;fill-rule:evenodd;"
d="M 92.910000,71.065000
92.925224,70.988463
92.968579,70.923579
93.033463,70.880224
93.110000,70.865000
93.510000,70.865000
93.586537,70.880224
93.651421,70.923579
93.694776,70.988463
93.710000,71.065000
93.710000,71.615000
93.694776,71.691537
93.651421,71.756421
93.586537,71.799776
93.510000,71.815000
93.110000,71.815000
93.033463,71.799776
92.968579,71.756421
92.925224,71.691537
92.910000,71.615000
Z" /> 
<path style="fill:#000000; fill-opacity:1.000000; stroke:none;fill-rule:evenodd;"
d="M 80.950000,142.655000
80.965605,142.576550
81.010043,142.510043
81.076550,142.465605
81.155000,142.450000
84.845000,142.450000
84.923450,142.465605
84.989957,142.510043
85.034395,142.576550
85.050000,142.655000
85.050000,146.345000
85.034395,146.423450
84.989957,146.489957
84.923450,146.534395
84.845000,146.550000
81.155000,146.550000
81.076550,146.534395
81.010043,146.489957
80.965605,146.423450
80.950000,146.345000
Z" /> 
<path style="fill:#000000; fill-opacity:1.000000; stroke:none;fill-rule:evenodd;"
d="M 90.450000,142.655000
90.465605,142.576550
90.510043,142.510043
90.576550,142.465605
90.655000,142.450000
94.345000,142.450000
94.423450,142.465605
94.489957,142.510043
94.534395,142.576550
94.550000,142.655000
94.550000,146.345000
94.534395,146.423450
94.489957,146.489957
94.423450,146.534395
94.345000,146.550000
90.655000,146.550000
90.576550,146.534395
90.510043,146.489957
90.465605,146.423450
90.450000,146.345000
Z" /> 
<path style="fill:#000000; fill-opacity:1.000000; stroke:none;fill-rule:evenodd;"
d="M 134.090000,117.824000
134.147403,117.835418
134.196066,117.867934
134.228582,117.916597
134.240000,117.974000
134.240000,118.274000
134.228582,118.331403
134.196066,118.380066
134.147403,118.412582
134.090000,118.424000
132.840000,118.424000
132.782597,118.412582
132.733934,118.380066
132.701418,118.331403
132.690000,118.274000
132.690000,117.974000
132.701418,117.916597
132.733934,117.867934
132.782597,117.835418
132.840000,117.824000
Z" /> 
<path style="fill:#000000; fill-opacity:1.000000; stroke:none;fill-rule:evenodd;"
d="M 134.090000,118.824000
134.147403,118.835418
134.196066,118.867934
134.228582,118.916597
134.240000,118.974000
134.240000,119.274000
134.228582,119.331403
134.196066,119.380066
134.147403,119.412582
134.090000,119.424000
132.840000,119.424000
132.782597,119.412582
132.733934,119.380066
132.701418,119.331403
132.690000,119.274000
132.690000,118.974000
132.701418,118.916597
132.733934,118.867934
132.782597,118.835418
132.840000,118.824000
Z" /> 
<path style="fill:#000000; fill-opacity:1.000000; stroke:none;fill-rule:evenodd;"
d="M 134.090000,119.824000
134.147403,119.835418
134.196066,119.867934
134.228582,119.916597
134.240000,119.974000
134.240000,120.274000
134.228582,120.331403
134.196066,120.380066
134.147403,120.412582
134.090000,120.424000
132.840000,120.424000
132.782597,120.412582
132.733934,120.380066
132.701418,120.331403
132.690000,120.274000
132.690000,119.974000
132.701418,119.916597
132.733934,119.867934
132.782597,119.835418
132.840000,119.824000
Z" /> 
<path style="fill:#000000; fill-opacity:1.000000; stroke:none;fill-rule:evenodd;"
d="M 134.090000,120.824000
134.147403,120.835418
134.196066,120.867934
134.228582,120.916597
134.240000,120.974000
134.240000,121.274000
134.228582,121.331403
134.196066,121.380066
134.147403,121.412582
134.090000,121.424000
132.840000,121.424000
132.782597,121.412582
132.733934,121.380066
132.701418,121.331403
132.690000,121.274000
132.690000,120.974000
132.701418,120.916597
132.733934,120.867934
132.782597,120.835418
132.840000,120.824000
Z" /> 
<path style="fill:#000000; fill-opacity:1.000000; stroke:none;fill-rule:evenodd;"
d="M 134.090000,121.824000
134.147403,121.835418
134.196066,121.867934
134.228582,121.916597
134.240000,121.974000
134.240000,122.274000
134.228582,122.331403
134.196066,122.380066
134.147403,122.412582
134.090000,122.424000
132.840000,122.424000
132.782597,122.412582
132.733934,122.380066
132.701418,122.331403
132.690000,122.274000
132.690000,121.974000
132.701418,121.916597
132.733934,121.867934
132.782597,121.835418
132.840000,121.824000
Z" /> 
<path style="fill:#000000; fill-opacity:1.000000; stroke:none;fill-rule:evenodd;"
d="M 134.090000,122.824000
134.147403,122.835418
134.196066,122.867934
134.228582,122.916597
134.240000,122.974000
134.240000,123.274000
134.228582,123.331403
134.196066,123.380066
134.147403,123.412582
134.090000,123.424000
132.840000,123.424000
132.782597,123.412582
132.733934,123.380066
132.701418,123.331403
132.690000,123.274000
132.690000,122.974000
132.701418,122.916597
132.733934,122.867934
132.782597,122.835418
132.840000,122.824000
Z" /> 
<path style="fill:#000000; fill-opacity:1.000000; stroke:none;fill-rule:evenodd;"
d="M 136.640000,123.824000
136.735671,123.843030
136.816777,123.897223
136.870970,123.978329
136.890000,124.074000
136.890000,124.774000
136.870970,124.869671
136.816777,124.950777
136.735671,125.004970
136.640000,125.024000
135.340000,125.024000
135.244329,125.004970
135.163223,124.950777
135.109030,124.869671
135.090000,124.774000
135.090000,124.074000
135.109030,123.978329
135.163223,123.897223
135.244329,123.843030
135.340000,123.824000
Z" /> 
<path style="fill:#000000; fill-opacity:1.000000; stroke:none;fill-rule:evenodd;"
d="M 136.640000,116.224000
136.735671,116.243030
136.816777,116.297223
136.870970,116.378329
136.890000,116.474000
136.890000,117.174000
136.870970,117.269671
136.816777,117.350777
136.735671,117.404970
136.640000,117.424000
135.340000,117.424000
135.244329,117.404970
135.163223,117.350777
135.109030,117.269671
135.090000,117.174000
135.090000,116.474000
135.109030,116.378329
135.163223,116.297223
135.244329,116.243030
135.340000,116.224000
Z" /> 
<path style="fill:#000000; fill-opacity:1.000000; stroke:none;fill-rule:evenodd;"
d="M 94.375000,65.433750
94.391651,65.350038
94.439070,65.279070
94.510038,65.231651
94.593750,65.215000
95.031250,65.215000
95.114962,65.231651
95.185930,65.279070
95.233349,65.350038
95.250000,65.433750
95.250000,65.946250
95.233349,66.029962
95.185930,66.100930
95.114962,66.148349
95.031250,66.165000
94.593750,66.165000
94.510038,66.148349
94.439070,66.100930
94.391651,66.029962
94.375000,65.946250
Z" /> 
<path style="fill:#000000; fill-opacity:1.000000; stroke:none;fill-rule:evenodd;"
d="M 95.950000,65.433750
95.966651,65.350038
96.014070,65.279070
96.085038,65.231651
96.168750,65.215000
96.606250,65.215000
96.689962,65.231651
96.760930,65.279070
96.808349,65.350038
96.825000,65.433750
96.825000,65.946250
96.808349,66.029962
96.760930,66.100930
96.689962,66.148349
96.606250,66.165000
96.168750,66.165000
96.085038,66.148349
96.014070,66.100930
95.966651,66.029962
95.950000,65.946250
Z" /> 
<path style="fill:#000000; fill-opacity:1.000000; stroke:none;fill-rule:evenodd;"
d="M 102.950000,66.575000
102.930970,66.670671
102.876777,66.751777
102.795671,66.805970
102.700000,66.825000
102.200000,66.825000
102.104329,66.805970
102.023223,66.751777
101.969030,66.670671
101.950000,66.575000
101.950000,65.625000
101.969030,65.529329
102.023223,65.448223
102.104329,65.394030
102.200000,65.375000
102.700000,65.375000
102.795671,65.394030
102.876777,65.448223
102.930970,65.529329
102.950000,65.625000
Z" /> 
<path style="fill:#000000; fill-opacity:1.000000; stroke:none;fill-rule:evenodd;"
d="M 101.050000,66.575000
101.030970,66.670671
100.976777,66.751777
100.895671,66.805970
100.800000,66.825000
100.300000,66.825000
100.204329,66.805970
100.123223,66.751777
100.069030,66.670671
100.050000,66.575000
100.050000,65.625000
100.069030,65.529329
100.123223,65.448223
100.204329,65.394030
100.300000,65.375000
100.800000,65.375000
100.895671,65.394030
100.976777,65.448223
101.030970,65.529329
101.050000,65.625000
Z" /> 
<path style="fill:#000000; fill-opacity:1.000000; stroke:none;fill-rule:evenodd;"
d="M 81.400000,66.100000
81.400000,64.900000
82.900000,64.900000
82.900000,66.100000
Z" /> 
<path style="fill:#000000; fill-opacity:1.000000; stroke:none;fill-rule:evenodd;"
d="M 89.100000,66.100000
89.100000,64.900000
90.600000,64.900000
90.600000,66.100000
Z" /> 
<path style="fill:#000000; fill-opacity:1.000000; stroke:none;fill-rule:evenodd;"
d="M 115.200000,90.860000
115.182873,90.946104
115.134099,91.019099
115.061104,91.067873
114.975000,91.085000
114.525000,91.085000
114.438896,91.067873
114.365901,91.019099
114.317127,90.946104
114.300000,90.860000
114.300000,90.360000
114.317127,90.273896
114.365901,90.200901
114.438896,90.152127
114.525000,90.135000
114.975000,90.135000
115.061104,90.152127
115.134099,90.200901
115.182873,90.273896
115.200000,90.360000
Z" /> 
<path style="fill:#000000; fill-opacity:1.000000; stroke:none;fill-rule:evenodd;"
d="M 113.650000,90.860000
113.632873,90.946104
113.584099,91.019099
113.511104,91.067873
113.425000,91.085000
112.975000,91.085000
112.888896,91.067873
112.815901,91.019099
112.767127,90.946104
112.750000,90.860000
112.750000,90.360000
112.767127,90.273896
112.815901,90.200901
112.888896,90.152127
112.975000,90.135000
113.425000,90.135000
113.511104,90.152127
113.584099,90.200901
113.632873,90.273896
113.650000,90.360000
Z" /> 
<path style="fill:#000000; fill-opacity:1.000000; stroke:none;fill-rule:evenodd;"
d="M 108.250000,149.900000
108.154329,149.880970
108.073223,149.826777
108.019030,149.745671
108.000000,149.650000
108.000000,145.750000
108.019030,145.654329
108.073223,145.573223
108.154329,145.519030
108.250000,145.500000
110.250000,145.500000
110.345671,145.519030
110.426777,145.573223
110.480970,145.654329
110.500000,145.750000
110.500000,149.650000
110.480970,149.745671
110.426777,149.826777
110.345671,149.880970
110.250000,149.900000
Z" /> 
<path style="fill:#000000; fill-opacity:1.000000; stroke:none;fill-rule:evenodd;"
d="M 108.250000,141.500000
108.154329,141.480970
108.073223,141.426777
108.019030,141.345671
108.000000,141.250000
108.000000,137.350000
108.019030,137.254329
108.073223,137.173223
108.154329,137.119030
108.250000,137.100000
110.250000,137.100000
110.345671,137.119030
110.426777,137.173223
110.480970,137.254329
110.500000,137.350000
110.500000,141.250000
110.480970,141.345671
110.426777,141.426777
110.345671,141.480970
110.250000,141.500000
Z" /> 
<path style="fill:#000000; fill-opacity:1.000000; stroke:none;fill-rule:evenodd;"
d="M 94.150000,133.750000
94.130970,133.845671
94.076777,133.926777
93.995671,133.980970
93.900000,134.000000
90.000000,134.000000
89.904329,133.980970
89.823223,133.926777
89.769030,133.845671
89.750000,133.750000
89.750000,131.750000
89.769030,131.654329
89.823223,131.573223
89.904329,131.519030
90.000000,131.500000
93.900000,131.500000
93.995671,131.519030
94.076777,131.573223
94.130970,131.654329
94.150000,131.750000
Z" /> 
<path style="fill:#000000; fill-opacity:1.000000; stroke:none;fill-rule:evenodd;"
d="M 85.750000,133.750000
85.730970,133.845671
85.676777,133.926777
85.595671,133.980970
85.500000,134.000000
81.600000,134.000000
81.504329,133.980970
81.423223,133.926777
81.369030,133.845671
81.350000,133.750000
81.350000,131.750000
81.369030,131.654329
81.423223,131.573223
81.504329,131.519030
81.600000,131.500000
85.500000,131.500000
85.595671,131.519030
85.676777,131.573223
85.730970,131.654329
85.750000,131.750000
Z" /> 
<path style="fill:#000000; fill-opacity:1.000000; stroke:none;fill-rule:evenodd;"
d="M 90.450000,75.900000
90.450000,77.100000
88.950000,77.100000
88.950000,75.900000
Z" /> 
<path style="fill:#000000; fill-opacity:1.000000; stroke:none;fill-rule:evenodd;"
d="M 82.750000,75.900000
82.750000,77.100000
81.250000,77.100000
81.250000,75.900000
Z" /> 
<path style="fill:#000000; fill-opacity:1.000000; stroke:none;fill-rule:evenodd;"
d="M 95.525000,144.445000
95.536418,144.387597
95.568934,144.338934
95.617597,144.306418
95.675000,144.295000
97.325000,144.295000
97.382403,144.306418
97.431066,144.338934
97.463582,144.387597
97.475000,144.445000
97.475000,144.745000
97.463582,144.802403
97.431066,144.851066
97.382403,144.883582
97.325000,144.895000
95.675000,144.895000
95.617597,144.883582
95.568934,144.851066
95.536418,144.802403
95.525000,144.745000
Z" /> 
<path style="fill:#000000; fill-opacity:1.000000; stroke:none;fill-rule:evenodd;"
d="M 95.525000,145.715000
95.536418,145.657597
95.568934,145.608934
95.617597,145.576418
95.675000,145.565000
97.325000,145.565000
97.382403,145.576418
97.431066,145.608934
97.463582,145.657597
97.475000,145.715000
97.475000,146.015000
97.463582,146.072403
97.431066,146.121066
97.382403,146.153582
97.325000,146.165000
95.675000,146.165000
95.617597,146.153582
95.568934,146.121066
95.536418,146.072403
95.525000,146.015000
Z" /> 
<path style="fill:#000000; fill-opacity:1.000000; stroke:none;fill-rule:evenodd;"
d="M 95.525000,146.985000
95.536418,146.927597
95.568934,146.878934
95.617597,146.846418
95.675000,146.835000
97.325000,146.835000
97.382403,146.846418
97.431066,146.878934
97.463582,146.927597
97.475000,146.985000
97.475000,147.285000
97.463582,147.342403
97.431066,147.391066
97.382403,147.423582
97.325000,147.435000
95.675000,147.435000
95.617597,147.423582
95.568934,147.391066
95.536418,147.342403
95.525000,147.285000
Z" /> 
<path style="fill:#000000; fill-opacity:1.000000; stroke:none;fill-rule:evenodd;"
d="M 95.525000,148.255000
95.536418,148.197597
95.568934,148.148934
95.617597,148.116418
95.675000,148.105000
97.325000,148.105000
97.382403,148.116418
97.431066,148.148934
97.463582,148.197597
97.475000,148.255000
97.475000,148.555000
97.463582,148.612403
97.431066,148.661066
97.382403,148.693582
97.325000,148.705000
95.675000,148.705000
95.617597,148.693582
95.568934,148.661066
95.536418,148.612403
95.525000,148.555000
Z" /> 
<path style="fill:#000000; fill-opacity:1.000000; stroke:none;fill-rule:evenodd;"
d="M 100.475000,148.255000
100.486418,148.197597
100.518934,148.148934
100.567597,148.116418
100.625000,148.105000
102.275000,148.105000
102.332403,148.116418
102.381066,148.148934
102.413582,148.197597
102.425000,148.255000
102.425000,148.555000
102.413582,148.612403
102.381066,148.661066
102.332403,148.693582
102.275000,148.705000
100.625000,148.705000
100.567597,148.693582
100.518934,148.661066
100.486418,148.612403
100.475000,148.555000
Z" /> 
<path style="fill:#000000; fill-opacity:1.000000; stroke:none;fill-rule:evenodd;"
d="M 100.475000,146.985000
100.486418,146.927597
100.518934,146.878934
100.567597,146.846418
100.625000,146.835000
102.275000,146.835000
102.332403,146.846418
102.381066,146.878934
102.413582,146.927597
102.425000,146.985000
102.425000,147.285000
102.413582,147.342403
102.381066,147.391066
102.332403,147.423582
102.275000,147.435000
100.625000,147.435000
100.567597,147.423582
100.518934,147.391066
100.486418,147.342403
100.475000,147.285000
Z" /> 
<path style="fill:#000000; fill-opacity:1.000000; stroke:none;fill-rule:evenodd;"
d="M 100.475000,145.715000
100.486418,145.657597
100.518934,145.608934
100.567597,145.576418
100.625000,145.565000
102.275000,145.565000
102.332403,145.576418
102.381066,145.608934
102.413582,145.657597
102.425000,145.715000
102.425000,146.015000
102.413582,146.072403
102.381066,146.121066
102.332403,146.153582
102.275000,146.165000
100.625000,146.165000
100.567597,146.153582
100.518934,146.121066
100.486418,146.072403
100.475000,146.015000
Z" /> 
<path style="fill:#000000; fill-opacity:1.000000; stroke:none;fill-rule:evenodd;"
d="M 100.475000,144.445000
100.486418,144.387597
100.518934,144.338934
100.567597,144.306418
100.625000,144.295000
102.275000,144.295000
102.332403,144.306418
102.381066,144.338934
102.413582,144.387597
102.425000,144.445000
102.425000,144.745000
102.413582,144.802403
102.381066,144.851066
102.332403,144.883582
102.275000,144.895000
100.625000,144.895000
100.567597,144.883582
100.518934,144.851066
100.486418,144.802403
100.475000,144.745000
Z" /> 
<path style="fill:#000000; fill-opacity:1.000000; stroke:none;fill-rule:evenodd;"
d="M 94.920000,125.235000
94.900970,125.330671
94.846777,125.411777
94.765671,125.465970
94.670000,125.485000
94.170000,125.485000
94.074329,125.465970
93.993223,125.411777
93.939030,125.330671
93.920000,125.235000
93.920000,124.285000
93.939030,124.189329
93.993223,124.108223
94.074329,124.054030
94.170000,124.035000
94.670000,124.035000
94.765671,124.054030
94.846777,124.108223
94.900970,124.189329
94.920000,124.285000
Z" /> 
<path style="fill:#000000; fill-opacity:1.000000; stroke:none;fill-rule:evenodd;"
d="M 93.020000,125.235000
93.000970,125.330671
92.946777,125.411777
92.865671,125.465970
92.770000,125.485000
92.270000,125.485000
92.174329,125.465970
92.093223,125.411777
92.039030,125.330671
92.020000,125.235000
92.020000,124.285000
92.039030,124.189329
92.093223,124.108223
92.174329,124.054030
92.270000,124.035000
92.770000,124.035000
92.865671,124.054030
92.946777,124.108223
93.000970,124.189329
93.020000,124.285000
Z" /> 
<path style="fill:#000000; fill-opacity:1.000000; stroke:none;fill-rule:evenodd;"
d="M 107.250000,119.900000
107.250000,121.100000
105.750000,121.100000
105.750000,119.900000
Z" /> 
<path style="fill:#000000; fill-opacity:1.000000; stroke:none;fill-rule:evenodd;"
d="M 99.550000,119.900000
99.550000,121.100000
98.050000,121.100000
98.050000,119.900000
Z" /> 
<path style="fill:#000000; fill-opacity:1.000000; stroke:none;fill-rule:evenodd;"
d="M 118.635000,86.015000
118.711537,86.030224
118.776421,86.073579
118.819776,86.138463
118.835000,86.215000
118.835000,86.615000
118.819776,86.691537
118.776421,86.756421
118.711537,86.799776
118.635000,86.815000
118.085000,86.815000
118.008463,86.799776
117.943579,86.756421
117.900224,86.691537
117.885000,86.615000
117.885000,86.215000
117.900224,86.138463
117.943579,86.073579
118.008463,86.030224
118.085000,86.015000
Z" /> 
<path style="fill:#000000; fill-opacity:1.000000; stroke:none;fill-rule:evenodd;"
d="M 118.635000,87.665000
118.711537,87.680224
118.776421,87.723579
118.819776,87.788463
118.835000,87.865000
118.835000,88.265000
118.819776,88.341537
118.776421,88.406421
118.711537,88.449776
118.635000,88.465000
118.085000,88.465000
118.008463,88.449776
117.943579,88.406421
117.900224,88.341537
117.885000,88.265000
117.885000,87.865000
117.900224,87.788463
117.943579,87.723579
118.008463,87.680224
118.085000,87.665000
Z" /> 
<path style="fill:#000000; fill-opacity:1.000000; stroke:none;fill-rule:evenodd;"
d="M 115.970000,89.800000
115.987127,89.713896
116.035901,89.640901
116.108896,89.592127
116.195000,89.575000
116.645000,89.575000
116.731104,89.592127
116.804099,89.640901
116.852873,89.713896
116.870000,89.800000
116.870000,90.300000
116.852873,90.386104
116.804099,90.459099
116.731104,90.507873
116.645000,90.525000
116.195000,90.525000
116.108896,90.507873
116.035901,90.459099
115.987127,90.386104
115.970000,90.300000
Z" /> 
<path style="fill:#000000; fill-opacity:1.000000; stroke:none;fill-rule:evenodd;"
d="M 117.520000,89.800000
117.537127,89.713896
117.585901,89.640901
117.658896,89.592127
117.745000,89.575000
118.195000,89.575000
118.281104,89.592127
118.354099,89.640901
118.402873,89.713896
118.420000,89.800000
118.420000,90.300000
118.402873,90.386104
118.354099,90.459099
118.281104,90.507873
118.195000,90.525000
117.745000,90.525000
117.658896,90.507873
117.585901,90.459099
117.537127,90.386104
117.520000,90.300000
Z" /> 
<path style="fill:#000000; fill-opacity:1.000000; stroke:none;fill-rule:evenodd;"
d="M 116.410000,81.975000
116.467403,81.986418
116.516066,82.018934
116.548582,82.067597
116.560000,82.125000
116.560000,83.775000
116.548582,83.832403
116.516066,83.881066
116.467403,83.913582
116.410000,83.925000
116.110000,83.925000
116.052597,83.913582
116.003934,83.881066
115.971418,83.832403
115.960000,83.775000
115.960000,82.125000
115.971418,82.067597
116.003934,82.018934
116.052597,81.986418
116.110000,81.975000
Z" /> 
<path style="fill:#000000; fill-opacity:1.000000; stroke:none;fill-rule:evenodd;"
d="M 115.140000,81.975000
115.197403,81.986418
115.246066,82.018934
115.278582,82.067597
115.290000,82.125000
115.290000,83.775000
115.278582,83.832403
115.246066,83.881066
115.197403,83.913582
115.140000,83.925000
114.840000,83.925000
114.782597,83.913582
114.733934,83.881066
114.701418,83.832403
114.690000,83.775000
114.690000,82.125000
114.701418,82.067597
114.733934,82.018934
114.782597,81.986418
114.840000,81.975000
Z" /> 
<path style="fill:#000000; fill-opacity:1.000000; stroke:none;fill-rule:evenodd;"
d="M 113.870000,81.975000
113.927403,81.986418
113.976066,82.018934
114.008582,82.067597
114.020000,82.125000
114.020000,83.775000
114.008582,83.832403
113.976066,83.881066
113.927403,83.913582
113.870000,83.925000
113.570000,83.925000
113.512597,83.913582
113.463934,83.881066
113.431418,83.832403
113.420000,83.775000
113.420000,82.125000
113.431418,82.067597
113.463934,82.018934
113.512597,81.986418
113.570000,81.975000
Z" /> 
<path style="fill:#000000; fill-opacity:1.000000; stroke:none;fill-rule:evenodd;"
d="M 112.600000,81.975000
112.657403,81.986418
112.706066,82.018934
112.738582,82.067597
112.750000,82.125000
112.750000,83.775000
112.738582,83.832403
112.706066,83.881066
112.657403,83.913582
112.600000,83.925000
112.300000,83.925000
112.242597,83.913582
112.193934,83.881066
112.161418,83.832403
112.150000,83.775000
112.150000,82.125000
112.161418,82.067597
112.193934,82.018934
112.242597,81.986418
112.300000,81.975000
Z" /> 
<path style="fill:#000000; fill-opacity:1.000000; stroke:none;fill-rule:evenodd;"
d="M 112.600000,86.925000
112.657403,86.936418
112.706066,86.968934
112.738582,87.017597
112.750000,87.075000
112.750000,88.725000
112.738582,88.782403
112.706066,88.831066
112.657403,88.863582
112.600000,88.875000
112.300000,88.875000
112.242597,88.863582
112.193934,88.831066
112.161418,88.782403
112.150000,88.725000
112.150000,87.075000
112.161418,87.017597
112.193934,86.968934
112.242597,86.936418
112.300000,86.925000
Z" /> 
<path style="fill:#000000; fill-opacity:1.000000; stroke:none;fill-rule:evenodd;"
d="M 113.870000,86.925000
113.927403,86.936418
113.976066,86.968934
114.008582,87.017597
114.020000,87.075000
114.020000,88.725000
114.008582,88.782403
113.976066,88.831066
113.927403,88.863582
113.870000,88.875000
113.570000,88.875000
113.512597,88.863582
113.463934,88.831066
113.431418,88.782403
113.420000,88.725000
113.420000,87.075000
113.431418,87.017597
113.463934,86.968934
113.512597,86.936418
113.570000,86.925000
Z" /> 
<path style="fill:#000000; fill-opacity:1.000000; stroke:none;fill-rule:evenodd;"
d="M 115.140000,86.925000
115.197403,86.936418
115.246066,86.968934
115.278582,87.017597
115.290000,87.075000
115.290000,88.725000
115.278582,88.782403
115.246066,88.831066
115.197403,88.863582
115.140000,88.875000
114.840000,88.875000
114.782597,88.863582
114.733934,88.831066
114.701418,88.782403
114.690000,88.725000
114.690000,87.075000
114.701418,87.017597
114.733934,86.968934
114.782597,86.936418
114.840000,86.925000
Z" /> 
<path style="fill:#000000; fill-opacity:1.000000; stroke:none;fill-rule:evenodd;"
d="M 116.410000,86.925000
116.467403,86.936418
116.516066,86.968934
116.548582,87.017597
116.560000,87.075000
116.560000,88.725000
116.548582,88.782403
116.516066,88.831066
116.467403,88.863582
116.410000,88.875000
116.110000,88.875000
116.052597,88.863582
116.003934,88.831066
115.971418,88.782403
115.960000,88.725000
115.960000,87.075000
115.971418,87.017597
116.003934,86.968934
116.052597,86.936418
116.110000,86.925000
Z" /> 
<path style="fill:#000000; fill-opacity:1.000000; stroke:none;fill-rule:evenodd;"
d="M 91.275000,69.225000
91.290224,69.148463
91.333579,69.083579
91.398463,69.040224
91.475000,69.025000
91.875000,69.025000
91.951537,69.040224
92.016421,69.083579
92.059776,69.148463
92.075000,69.225000
92.075000,69.775000
92.059776,69.851537
92.016421,69.916421
91.951537,69.959776
91.875000,69.975000
91.475000,69.975000
91.398463,69.959776
91.333579,69.916421
91.290224,69.851537
91.275000,69.775000
Z" /> 
<path style="fill:#000000; fill-opacity:1.000000; stroke:none;fill-rule:evenodd;"
d="M 92.925000,69.225000
92.940224,69.148463
92.983579,69.083579
93.048463,69.040224
93.125000,69.025000
93.525000,69.025000
93.601537,69.040224
93.666421,69.083579
93.709776,69.148463
93.725000,69.225000
93.725000,69.775000
93.709776,69.851537
93.666421,69.916421
93.601537,69.959776
93.525000,69.975000
93.125000,69.975000
93.048463,69.959776
92.983579,69.916421
92.940224,69.851537
92.925000,69.775000
Z" /> 
<path style="fill:#000000; fill-opacity:1.000000; stroke:none;fill-rule:evenodd;"
d="M 102.950000,64.175000
102.930970,64.270671
102.876777,64.351777
102.795671,64.405970
102.700000,64.425000
102.200000,64.425000
102.104329,64.405970
102.023223,64.351777
101.969030,64.270671
101.950000,64.175000
101.950000,63.225000
101.969030,63.129329
102.023223,63.048223
102.104329,62.994030
102.200000,62.975000
102.700000,62.975000
102.795671,62.994030
102.876777,63.048223
102.930970,63.129329
102.950000,63.225000
Z" /> 
<path style="fill:#000000; fill-opacity:1.000000; stroke:none;fill-rule:evenodd;"
d="M 101.050000,64.175000
101.030970,64.270671
100.976777,64.351777
100.895671,64.405970
100.800000,64.425000
100.300000,64.425000
100.204329,64.405970
100.123223,64.351777
100.069030,64.270671
100.050000,64.175000
100.050000,63.225000
100.069030,63.129329
100.123223,63.048223
100.204329,62.994030
100.300000,62.975000
100.800000,62.975000
100.895671,62.994030
100.976777,63.048223
101.030970,63.129329
101.050000,63.225000
Z" /> 
<path style="fill:#000000; fill-opacity:1.000000; stroke:none;fill-rule:evenodd;"
d="M 123.000000,110.305000
121.000000,110.305000
121.000000,109.695000
123.000000,109.695000
Z" /> 
<path style="fill:#000000; fill-opacity:1.000000; stroke:none;fill-rule:evenodd;"
d="M 123.000000,109.305000
121.000000,109.305000
121.000000,108.695000
123.000000,108.695000
Z" /> 
<path style="fill:#000000; fill-opacity:1.000000; stroke:none;fill-rule:evenodd;"
d="M 123.000000,108.305000
121.000000,108.305000
121.000000,107.695000
123.000000,107.695000
Z" /> 
<path style="fill:#000000; fill-opacity:1.000000; stroke:none;fill-rule:evenodd;"
d="M 123.000000,107.305000
121.000000,107.305000
121.000000,106.695000
123.000000,106.695000
Z" /> 
<path style="fill:#000000; fill-opacity:1.000000; stroke:none;fill-rule:evenodd;"
d="M 123.000000,106.305000
121.000000,106.305000
121.000000,105.695000
123.000000,105.695000
Z" /> 
<path style="fill:#000000; fill-opacity:1.000000; stroke:none;fill-rule:evenodd;"
d="M 123.000000,105.305000
121.000000,105.305000
121.000000,104.695000
123.000000,104.695000
Z" /> 
<path style="fill:#000000; fill-opacity:1.000000; stroke:none;fill-rule:evenodd;"
d="M 123.000000,104.305000
121.000000,104.305000
121.000000,103.695000
123.000000,103.695000
Z" /> 
<path style="fill:#000000; fill-opacity:1.000000; stroke:none;fill-rule:evenodd;"
d="M 123.000000,103.305000
121.000000,103.305000
121.000000,102.695000
123.000000,102.695000
Z" /> 
<path style="fill:#000000; fill-opacity:1.000000; stroke:none;fill-rule:evenodd;"
d="M 123.000000,102.305000
121.000000,102.305000
121.000000,101.695000
123.000000,101.695000
Z" /> 
<path style="fill:#000000; fill-opacity:1.000000; stroke:none;fill-rule:evenodd;"
d="M 123.000000,101.305000
121.000000,101.305000
121.000000,100.695000
123.000000,100.695000
Z" /> 
<path style="fill:#000000; fill-opacity:1.000000; stroke:none;fill-rule:evenodd;"
d="M 123.000000,100.305000
121.000000,100.305000
121.000000,99.695000
123.000000,99.695000
Z" /> 
<path style="fill:#000000; fill-opacity:1.000000; stroke:none;fill-rule:evenodd;"
d="M 123.000000,99.305000
121.000000,99.305000
121.000000,98.695000
123.000000,98.695000
Z" /> 
<path style="fill:#000000; fill-opacity:1.000000; stroke:none;fill-rule:evenodd;"
d="M 123.000000,98.305000
121.000000,98.305000
121.000000,97.695000
123.000000,97.695000
Z" /> 
<path style="fill:#000000; fill-opacity:1.000000; stroke:none;fill-rule:evenodd;"
d="M 123.000000,97.305000
121.000000,97.305000
121.000000,96.695000
123.000000,96.695000
Z" /> 
<path style="fill:#000000; fill-opacity:1.000000; stroke:none;fill-rule:evenodd;"
d="M 123.000000,96.305000
121.000000,96.305000
121.000000,95.695000
123.000000,95.695000
Z" /> 
<path style="fill:#000000; fill-opacity:1.000000; stroke:none;fill-rule:evenodd;"
d="M 123.000000,95.305000
121.000000,95.305000
121.000000,94.695000
123.000000,94.695000
Z" /> 
<path style="fill:#000000; fill-opacity:1.000000; stroke:none;fill-rule:evenodd;"
d="M 126.600000,93.350000
123.000000,93.350000
123.000000,90.670000
126.600000,90.670000
Z" /> 
<path style="fill:#000000; fill-opacity:1.000000; stroke:none;fill-rule:evenodd;"
d="M 126.600000,114.330000
123.000000,114.330000
123.000000,111.650000
126.600000,111.650000
Z" /> 
<path style="fill:#000000; fill-opacity:1.000000; stroke:none;fill-rule:evenodd;"
d="M 107.720000,121.873000
107.735224,121.796463
107.778579,121.731579
107.843463,121.688224
107.920000,121.673000
108.320000,121.673000
108.396537,121.688224
108.461421,121.731579
108.504776,121.796463
108.520000,121.873000
108.520000,122.423000
108.504776,122.499537
108.461421,122.564421
108.396537,122.607776
108.320000,122.623000
107.920000,122.623000
107.843463,122.607776
107.778579,122.564421
107.735224,122.499537
107.720000,122.423000
Z" /> 
<path style="fill:#000000; fill-opacity:1.000000; stroke:none;fill-rule:evenodd;"
d="M 109.370000,121.873000
109.385224,121.796463
109.428579,121.731579
109.493463,121.688224
109.570000,121.673000
109.970000,121.673000
110.046537,121.688224
110.111421,121.731579
110.154776,121.796463
110.170000,121.873000
110.170000,122.423000
110.154776,122.499537
110.111421,122.564421
110.046537,122.607776
109.970000,122.623000
109.570000,122.623000
109.493463,122.607776
109.428579,122.564421
109.385224,122.499537
109.370000,122.423000
Z" /> 
</g> 
</svg>
