<?xml version="1.0" standalone="no"?>
 <!DOCTYPE svg PUBLIC "-//W3C//DTD SVG 1.1//EN" 
 "http://www.w3.org/Graphics/SVG/1.1/DTD/svg11.dtd"> 
<svg
  xmlns:svg="http://www.w3.org/2000/svg"
  xmlns="http://www.w3.org/2000/svg"
  xmlns:xlink="http://www.w3.org/1999/xlink"
  version="1.1"
  width="297.0022mm" height="210.0072mm" viewBox="0.0000 0.0000 297.0022 210.0072">
<title>SVG Image created as pnp_head_adapter-F_Paste.svg date 2026/02/24 23:33:17 </title>
  <desc>Image generated by PCBNEW </desc>
<g style="fill:#000000; fill-opacity:1.0000;stroke:#000000; stroke-opacity:1.0000;
stroke-linecap:round; stroke-linejoin:round;"
 transform="translate(0 0) scale(1 1)">
<path style="fill:#000000; fill-opacity:1.0000; stroke:none;fill-rule:evenodd;"
d="M 122.7300,85.0425
122.6439,85.0254
122.5709,84.9766
122.5221,84.9036
122.5050,84.8175
122.5050,84.3675
122.5221,84.2814
122.5709,84.2084
122.6439,84.1596
122.7300,84.1425
123.2300,84.1425
123.3161,84.1596
123.3891,84.2084
123.4379,84.2814
123.4550,84.3675
123.4550,84.8175
123.4379,84.9036
123.3891,84.9766
123.3161,85.0254
123.2300,85.0425
Z" /> 
<path style="fill:#000000; fill-opacity:1.0000; stroke:none;fill-rule:evenodd;"
d="M 122.7300,83.4925
122.6439,83.4754
122.5709,83.4266
122.5221,83.3536
122.5050,83.2675
122.5050,82.8175
122.5221,82.7314
122.5709,82.6584
122.6439,82.6096
122.7300,82.5925
123.2300,82.5925
123.3161,82.6096
123.3891,82.6584
123.4379,82.7314
123.4550,82.8175
123.4550,83.2675
123.4379,83.3536
123.3891,83.4266
123.3161,83.4754
123.2300,83.4925
Z" /> 
<path style="fill:#000000; fill-opacity:1.0000; stroke:none;fill-rule:evenodd;"
d="M 129.4350,116.8900
129.3585,116.8748
129.2936,116.8314
129.2502,116.7665
129.2350,116.6900
129.2350,116.2900
129.2502,116.2135
129.2936,116.1486
129.3585,116.1052
129.4350,116.0900
129.9850,116.0900
130.0615,116.1052
130.1264,116.1486
130.1698,116.2135
130.1850,116.2900
130.1850,116.6900
130.1698,116.7665
130.1264,116.8314
130.0615,116.8748
129.9850,116.8900
Z" /> 
<path style="fill:#000000; fill-opacity:1.0000; stroke:none;fill-rule:evenodd;"
d="M 129.4350,115.2400
129.3585,115.2248
129.2936,115.1814
129.2502,115.1165
129.2350,115.0400
129.2350,114.6400
129.2502,114.5635
129.2936,114.4986
129.3585,114.4552
129.4350,114.4400
129.9850,114.4400
130.0615,114.4552
130.1264,114.4986
130.1698,114.5635
130.1850,114.6400
130.1850,115.0400
130.1698,115.1165
130.1264,115.1814
130.0615,115.2248
129.9850,115.2400
Z" /> 
<path style="fill:#000000; fill-opacity:1.0000; stroke:none;fill-rule:evenodd;"
d="M 130.4500,92.5550
130.4348,92.6315
130.3914,92.6964
130.3265,92.7398
130.2500,92.7550
129.8500,92.7550
129.7735,92.7398
129.7086,92.6964
129.6652,92.6315
129.6500,92.5550
129.6500,92.0050
129.6652,91.9285
129.7086,91.8636
129.7735,91.8202
129.8500,91.8050
130.2500,91.8050
130.3265,91.8202
130.3914,91.8636
130.4348,91.9285
130.4500,92.0050
Z" /> 
<path style="fill:#000000; fill-opacity:1.0000; stroke:none;fill-rule:evenodd;"
d="M 128.8000,92.5550
128.7848,92.6315
128.7414,92.6964
128.6765,92.7398
128.6000,92.7550
128.2000,92.7550
128.1235,92.7398
128.0586,92.6964
128.0152,92.6315
128.0000,92.5550
128.0000,92.0050
128.0152,91.9285
128.0586,91.8636
128.1235,91.8202
128.2000,91.8050
128.6000,91.8050
128.6765,91.8202
128.7414,91.8636
128.7848,91.9285
128.8000,92.0050
Z" /> 
<path style="fill:#000000; fill-opacity:1.0000; stroke:none;fill-rule:evenodd;"
d="M 130.5200,98.8200
130.5200,100.0200
129.3200,100.0200
129.3200,98.8200
Z" /> 
<path style="fill:#000000; fill-opacity:1.0000; stroke:none;fill-rule:evenodd;"
d="M 127.4200,97.6200
127.4200,99.2200
125.9200,99.2200
125.9200,97.6200
Z" /> 
<path style="fill:#000000; fill-opacity:1.0000; stroke:none;fill-rule:evenodd;"
d="M 130.5200,96.8200
130.5200,98.0200
129.3200,98.0200
129.3200,96.8200
Z" /> 
<path style="fill:#000000; fill-opacity:1.0000; stroke:none;fill-rule:evenodd;"
d="M 114.2550,92.5675
114.2398,92.6440
114.1964,92.7089
114.1315,92.7523
114.0550,92.7675
113.6550,92.7675
113.5785,92.7523
113.5136,92.7089
113.4702,92.6440
113.4550,92.5675
113.4550,92.0175
113.4702,91.9410
113.5136,91.8761
113.5785,91.8327
113.6550,91.8175
114.0550,91.8175
114.1315,91.8327
114.1964,91.8761
114.2398,91.9410
114.2550,92.0175
Z" /> 
<path style="fill:#000000; fill-opacity:1.0000; stroke:none;fill-rule:evenodd;"
d="M 112.6050,92.5675
112.5898,92.6440
112.5464,92.7089
112.4815,92.7523
112.4050,92.7675
112.0050,92.7675
111.9285,92.7523
111.8636,92.7089
111.8202,92.6440
111.8050,92.5675
111.8050,92.0175
111.8202,91.9410
111.8636,91.8761
111.9285,91.8327
112.0050,91.8175
112.4050,91.8175
112.4815,91.8327
112.5464,91.8761
112.5898,91.9410
112.6050,92.0175
Z" /> 
<path style="fill:#000000; fill-opacity:1.0000; stroke:none;fill-rule:evenodd;"
d="M 136.0500,79.7800
135.9543,79.7610
135.8732,79.7068
135.8190,79.6257
135.8000,79.5300
135.8000,79.0300
135.8190,78.9343
135.8732,78.8532
135.9543,78.7990
136.0500,78.7800
137.0000,78.7800
137.0957,78.7990
137.1768,78.8532
137.2310,78.9343
137.2500,79.0300
137.2500,79.5300
137.2310,79.6257
137.1768,79.7068
137.0957,79.7610
137.0000,79.7800
Z" /> 
<path style="fill:#000000; fill-opacity:1.0000; stroke:none;fill-rule:evenodd;"
d="M 136.0500,77.8800
135.9543,77.8610
135.8732,77.8068
135.8190,77.7257
135.8000,77.6300
135.8000,77.1300
135.8190,77.0343
135.8732,76.9532
135.9543,76.8990
136.0500,76.8800
137.0000,76.8800
137.0957,76.8990
137.1768,76.9532
137.2310,77.0343
137.2500,77.1300
137.2500,77.6300
137.2310,77.7257
137.1768,77.8068
137.0957,77.8610
137.0000,77.8800
Z" /> 
<path style="fill:#000000; fill-opacity:1.0000; stroke:none;fill-rule:evenodd;"
d="M 127.7817,116.8900
127.7051,116.8748
127.6402,116.8314
127.5969,116.7665
127.5817,116.6900
127.5817,116.2900
127.5969,116.2135
127.6402,116.1486
127.7051,116.1052
127.7817,116.0900
128.3317,116.0900
128.4082,116.1052
128.4731,116.1486
128.5164,116.2135
128.5317,116.2900
128.5317,116.6900
128.5164,116.7665
128.4731,116.8314
128.4082,116.8748
128.3317,116.8900
Z" /> 
<path style="fill:#000000; fill-opacity:1.0000; stroke:none;fill-rule:evenodd;"
d="M 127.7817,115.2400
127.7051,115.2248
127.6402,115.1814
127.5969,115.1165
127.5817,115.0400
127.5817,114.6400
127.5969,114.5635
127.6402,114.4986
127.7051,114.4552
127.7817,114.4400
128.3317,114.4400
128.4082,114.4552
128.4731,114.4986
128.5164,114.5635
128.5317,114.6400
128.5317,115.0400
128.5164,115.1165
128.4731,115.1814
128.4082,115.2248
128.3317,115.2400
Z" /> 
<path style="fill:#000000; fill-opacity:1.0000; stroke:none;fill-rule:evenodd;"
d="M 126.4500,90.5800
126.3639,90.5629
126.2909,90.5141
126.2421,90.4411
126.2250,90.3550
126.2250,89.9050
126.2421,89.8189
126.2909,89.7459
126.3639,89.6971
126.4500,89.6800
126.9500,89.6800
127.0361,89.6971
127.1091,89.7459
127.1579,89.8189
127.1750,89.9050
127.1750,90.3550
127.1579,90.4411
127.1091,90.5141
127.0361,90.5629
126.9500,90.5800
Z" /> 
<path style="fill:#000000; fill-opacity:1.0000; stroke:none;fill-rule:evenodd;"
d="M 126.4500,89.0300
126.3639,89.0129
126.2909,88.9641
126.2421,88.8911
126.2250,88.8050
126.2250,88.3550
126.2421,88.2689
126.2909,88.1959
126.3639,88.1471
126.4500,88.1300
126.9500,88.1300
127.0361,88.1471
127.1091,88.1959
127.1579,88.2689
127.1750,88.3550
127.1750,88.8050
127.1579,88.8911
127.1091,88.9641
127.0361,89.0129
126.9500,89.0300
Z" /> 
<path style="fill:#000000; fill-opacity:1.0000; stroke:none;fill-rule:evenodd;"
d="M 128.6400,117.7100
130.1400,117.7100
130.1400,119.7100
128.6400,119.7100
Z" /> 
<path style="fill:#000000; fill-opacity:1.0000; stroke:none;fill-rule:evenodd;"
d="M 126.3400,117.7100
127.8400,117.7100
127.8400,119.7100
126.3400,119.7100
Z" /> 
<path style="fill:#000000; fill-opacity:1.0000; stroke:none;fill-rule:evenodd;"
d="M 125.1900,124.0100
128.9900,124.0100
128.9900,126.0100
125.1900,126.0100
Z" /> 
<path style="fill:#000000; fill-opacity:1.0000; stroke:none;fill-rule:evenodd;"
d="M 124.0400,117.7100
125.5400,117.7100
125.5400,119.7100
124.0400,119.7100
Z" /> 
<path style="fill:#000000; fill-opacity:1.0000; stroke:none;fill-rule:evenodd;"
d="M 143.3600,117.4800
143.3410,117.5757
143.2868,117.6568
143.2057,117.7110
143.1100,117.7300
142.6100,117.7300
142.5143,117.7110
142.4332,117.6568
142.3790,117.5757
142.3600,117.4800
142.3600,112.4800
142.3790,112.3843
142.4332,112.3032
142.5143,112.2490
142.6100,112.2300
143.1100,112.2300
143.2057,112.2490
143.2868,112.3032
143.3410,112.3843
143.3600,112.4800
Z" /> 
<path style="fill:#000000; fill-opacity:1.0000; stroke:none;fill-rule:evenodd;"
d="M 141.3600,117.4800
141.3410,117.5757
141.2868,117.6568
141.2057,117.7110
141.1100,117.7300
140.6100,117.7300
140.5143,117.7110
140.4332,117.6568
140.3790,117.5757
140.3600,117.4800
140.3600,112.4800
140.3790,112.3843
140.4332,112.3032
140.5143,112.2490
140.6100,112.2300
141.1100,112.2300
141.2057,112.2490
141.2868,112.3032
141.3410,112.3843
141.3600,112.4800
Z" /> 
<path style="fill:#000000; fill-opacity:1.0000; stroke:none;fill-rule:evenodd;"
d="M 139.3600,117.4800
139.3410,117.5757
139.2868,117.6568
139.2057,117.7110
139.1100,117.7300
138.6100,117.7300
138.5143,117.7110
138.4332,117.6568
138.3790,117.5757
138.3600,117.4800
138.3600,112.4800
138.3790,112.3843
138.4332,112.3032
138.5143,112.2490
138.6100,112.2300
139.1100,112.2300
139.2057,112.2490
139.2868,112.3032
139.3410,112.3843
139.3600,112.4800
Z" /> 
<path style="fill:#000000; fill-opacity:1.0000; stroke:none;fill-rule:evenodd;"
d="M 137.3600,117.4800
137.3410,117.5757
137.2868,117.6568
137.2057,117.7110
137.1100,117.7300
136.6100,117.7300
136.5143,117.7110
136.4332,117.6568
136.3790,117.5757
136.3600,117.4800
136.3600,112.4800
136.3790,112.3843
136.4332,112.3032
136.5143,112.2490
136.6100,112.2300
137.1100,112.2300
137.2057,112.2490
137.2868,112.3032
137.3410,112.3843
137.3600,112.4800
Z" /> 
<path style="fill:#000000; fill-opacity:1.0000; stroke:none;fill-rule:evenodd;"
d="M 146.0600,118.4800
146.0410,118.5757
145.9868,118.6568
145.9057,118.7110
145.8100,118.7300
144.7100,118.7300
144.6143,118.7110
144.5332,118.6568
144.4790,118.5757
144.4600,118.4800
144.4600,115.9800
144.4790,115.8843
144.5332,115.8032
144.6143,115.7490
144.7100,115.7300
145.8100,115.7300
145.9057,115.7490
145.9868,115.8032
146.0410,115.8843
146.0600,115.9800
Z" /> 
<path style="fill:#000000; fill-opacity:1.0000; stroke:none;fill-rule:evenodd;"
d="M 135.2600,118.4800
135.2410,118.5757
135.1868,118.6568
135.1057,118.7110
135.0100,118.7300
133.9100,118.7300
133.8143,118.7110
133.7332,118.6568
133.6790,118.5757
133.6600,118.4800
133.6600,115.9800
133.6790,115.8843
133.7332,115.8032
133.8143,115.7490
133.9100,115.7300
135.0100,115.7300
135.1057,115.7490
135.1868,115.8032
135.2410,115.8843
135.2600,115.9800
Z" /> 
<path style="fill:#000000; fill-opacity:1.0000; stroke:none;fill-rule:evenodd;"
d="M 126.1283,116.8900
126.0518,116.8748
125.9869,116.8314
125.9436,116.7665
125.9283,116.6900
125.9283,116.2900
125.9436,116.2135
125.9869,116.1486
126.0518,116.1052
126.1283,116.0900
126.6783,116.0900
126.7549,116.1052
126.8198,116.1486
126.8631,116.2135
126.8783,116.2900
126.8783,116.6900
126.8631,116.7665
126.8198,116.8314
126.7549,116.8748
126.6783,116.8900
Z" /> 
<path style="fill:#000000; fill-opacity:1.0000; stroke:none;fill-rule:evenodd;"
d="M 126.1283,115.2400
126.0518,115.2248
125.9869,115.1814
125.9436,115.1165
125.9283,115.0400
125.9283,114.6400
125.9436,114.5635
125.9869,114.4986
126.0518,114.4552
126.1283,114.4400
126.6783,114.4400
126.7549,114.4552
126.8198,114.4986
126.8631,114.5635
126.8783,114.6400
126.8783,115.0400
126.8631,115.1165
126.8198,115.1814
126.7549,115.2248
126.6783,115.2400
Z" /> 
<path style="fill:#000000; fill-opacity:1.0000; stroke:none;fill-rule:evenodd;"
d="M 125.0062,114.4600
125.0900,114.4767
125.1609,114.5241
125.2083,114.5950
125.2250,114.6787
125.2250,115.1162
125.2083,115.2000
125.1609,115.2709
125.0900,115.3183
125.0062,115.3350
124.4937,115.3350
124.4100,115.3183
124.3391,115.2709
124.2917,115.2000
124.2750,115.1162
124.2750,114.6787
124.2917,114.5950
124.3391,114.5241
124.4100,114.4767
124.4937,114.4600
Z" /> 
<path style="fill:#000000; fill-opacity:1.0000; stroke:none;fill-rule:evenodd;"
d="M 125.0062,116.0350
125.0900,116.0517
125.1609,116.0991
125.2083,116.1700
125.2250,116.2537
125.2250,116.6912
125.2083,116.7750
125.1609,116.8459
125.0900,116.8933
125.0062,116.9100
124.4937,116.9100
124.4100,116.8933
124.3391,116.8459
124.2917,116.7750
124.2750,116.6912
124.2750,116.2537
124.2917,116.1700
124.3391,116.0991
124.4100,116.0517
124.4937,116.0350
Z" /> 
<path style="fill:#000000; fill-opacity:1.0000; stroke:none;fill-rule:evenodd;"
d="M 139.2000,104.8850
139.2000,106.6350
138.7000,106.6350
138.7000,104.8850
Z" /> 
<path style="fill:#000000; fill-opacity:1.0000; stroke:none;fill-rule:evenodd;"
d="M 138.2000,108.6350
138.2000,110.3850
137.7000,110.3850
137.7000,108.6350
Z" /> 
<path style="fill:#000000; fill-opacity:1.0000; stroke:none;fill-rule:evenodd;"
d="M 137.2000,104.8850
137.2000,106.6350
136.7000,106.6350
136.7000,104.8850
Z" /> 
<path style="fill:#000000; fill-opacity:1.0000; stroke:none;fill-rule:evenodd;"
d="M 136.2000,108.6350
136.2000,110.3850
135.7000,110.3850
135.7000,108.6350
Z" /> 
<path style="fill:#000000; fill-opacity:1.0000; stroke:none;fill-rule:evenodd;"
d="M 135.2000,104.8850
135.2000,106.6350
134.7000,106.6350
134.7000,104.8850
Z" /> 
<path style="fill:#000000; fill-opacity:1.0000; stroke:none;fill-rule:evenodd;"
d="M 134.2000,108.6350
134.2000,110.3850
133.7000,110.3850
133.7000,108.6350
Z" /> 
<path style="fill:#000000; fill-opacity:1.0000; stroke:none;fill-rule:evenodd;"
d="M 133.2000,104.8850
133.2000,106.6350
132.7000,106.6350
132.7000,104.8850
Z" /> 
<path style="fill:#000000; fill-opacity:1.0000; stroke:none;fill-rule:evenodd;"
d="M 132.2000,108.6350
132.2000,110.3850
131.7000,110.3850
131.7000,108.6350
Z" /> 
<path style="fill:#000000; fill-opacity:1.0000; stroke:none;fill-rule:evenodd;"
d="M 131.2000,104.8850
131.2000,106.6350
130.7000,106.6350
130.7000,104.8850
Z" /> 
<path style="fill:#000000; fill-opacity:1.0000; stroke:none;fill-rule:evenodd;"
d="M 130.2000,108.6350
130.2000,110.3850
129.7000,110.3850
129.7000,108.6350
Z" /> 
<path style="fill:#000000; fill-opacity:1.0000; stroke:none;fill-rule:evenodd;"
d="M 129.2000,104.8850
129.2000,106.6350
128.7000,106.6350
128.7000,104.8850
Z" /> 
<path style="fill:#000000; fill-opacity:1.0000; stroke:none;fill-rule:evenodd;"
d="M 128.2000,108.6350
128.2000,110.3850
127.7000,110.3850
127.7000,108.6350
Z" /> 
<path style="fill:#000000; fill-opacity:1.0000; stroke:none;fill-rule:evenodd;"
d="M 127.2000,104.8850
127.2000,106.6350
126.7000,106.6350
126.7000,104.8850
Z" /> 
<path style="fill:#000000; fill-opacity:1.0000; stroke:none;fill-rule:evenodd;"
d="M 126.2000,108.6350
126.2000,110.3850
125.7000,110.3850
125.7000,108.6350
Z" /> 
<path style="fill:#000000; fill-opacity:1.0000; stroke:none;fill-rule:evenodd;"
d="M 125.2000,104.8850
125.2000,106.6350
124.7000,106.6350
124.7000,104.8850
Z" /> 
<path style="fill:#000000; fill-opacity:1.0000; stroke:none;fill-rule:evenodd;"
d="M 124.2000,108.6350
124.2000,110.3850
123.7000,110.3850
123.7000,108.6350
Z" /> 
<path style="fill:#000000; fill-opacity:1.0000; stroke:none;fill-rule:evenodd;"
d="M 123.2000,104.8850
123.2000,106.6350
122.7000,106.6350
122.7000,104.8850
Z" /> 
<path style="fill:#000000; fill-opacity:1.0000; stroke:none;fill-rule:evenodd;"
d="M 122.2000,108.6350
122.2000,110.3850
121.7000,110.3850
121.7000,108.6350
Z" /> 
<path style="fill:#000000; fill-opacity:1.0000; stroke:none;fill-rule:evenodd;"
d="M 121.2000,104.8850
121.2000,106.6350
120.7000,106.6350
120.7000,104.8850
Z" /> 
<path style="fill:#000000; fill-opacity:1.0000; stroke:none;fill-rule:evenodd;"
d="M 120.2000,108.6350
120.2000,110.3850
119.7000,110.3850
119.7000,108.6350
Z" /> 
<path style="fill:#000000; fill-opacity:1.0000; stroke:none;fill-rule:evenodd;"
d="M 119.2000,104.8850
119.2000,106.6350
118.7000,106.6350
118.7000,104.8850
Z" /> 
<path style="fill:#000000; fill-opacity:1.0000; stroke:none;fill-rule:evenodd;"
d="M 118.2000,108.6350
118.2000,110.3850
117.7000,110.3850
117.7000,108.6350
Z" /> 
<path style="fill:#000000; fill-opacity:1.0000; stroke:none;fill-rule:evenodd;"
d="M 117.2000,104.8850
117.2000,106.6350
116.7000,106.6350
116.7000,104.8850
Z" /> 
<path style="fill:#000000; fill-opacity:1.0000; stroke:none;fill-rule:evenodd;"
d="M 116.2000,108.6350
116.2000,110.3850
115.7000,110.3850
115.7000,108.6350
Z" /> 
<path style="fill:#000000; fill-opacity:1.0000; stroke:none;fill-rule:evenodd;"
d="M 115.2000,104.8850
115.2000,106.6350
114.7000,106.6350
114.7000,104.8850
Z" /> 
<path style="fill:#000000; fill-opacity:1.0000; stroke:none;fill-rule:evenodd;"
d="M 114.2000,108.6350
114.2000,110.3850
113.7000,110.3850
113.7000,108.6350
Z" /> 
<path style="fill:#000000; fill-opacity:1.0000; stroke:none;fill-rule:evenodd;"
d="M 113.2000,104.8850
113.2000,106.6350
112.7000,106.6350
112.7000,104.8850
Z" /> 
<path style="fill:#000000; fill-opacity:1.0000; stroke:none;fill-rule:evenodd;"
d="M 112.2000,108.6350
112.2000,110.3850
111.7000,110.3850
111.7000,108.6350
Z" /> 
<path style="fill:#000000; fill-opacity:1.0000; stroke:none;fill-rule:evenodd;"
d="M 111.2000,104.8850
111.2000,106.6350
110.7000,106.6350
110.7000,104.8850
Z" /> 
<path style="fill:#000000; fill-opacity:1.0000; stroke:none;fill-rule:evenodd;"
d="M 110.2000,108.6350
110.2000,110.3850
109.7000,110.3850
109.7000,108.6350
Z" /> 
<path style="fill:#000000; fill-opacity:1.0000; stroke:none;fill-rule:evenodd;"
d="M 108.5500,106.8350
108.5500,108.4350
106.5500,108.4350
106.5500,106.8350
Z" /> 
<path style="fill:#000000; fill-opacity:1.0000; stroke:none;fill-rule:evenodd;"
d="M 142.3500,106.8350
142.3500,108.4350
140.3500,108.4350
140.3500,106.8350
Z" /> 
<path style="fill:#000000; fill-opacity:1.0000; stroke:none;fill-rule:evenodd;"
d="M 110.2550,90.5925
110.1689,90.5754
110.0959,90.5266
110.0471,90.4536
110.0300,90.3675
110.0300,89.9175
110.0471,89.8314
110.0959,89.7584
110.1689,89.7096
110.2550,89.6925
110.7550,89.6925
110.8411,89.7096
110.9141,89.7584
110.9629,89.8314
110.9800,89.9175
110.9800,90.3675
110.9629,90.4536
110.9141,90.5266
110.8411,90.5754
110.7550,90.5925
Z" /> 
<path style="fill:#000000; fill-opacity:1.0000; stroke:none;fill-rule:evenodd;"
d="M 110.2550,89.0425
110.1689,89.0254
110.0959,88.9766
110.0471,88.9036
110.0300,88.8175
110.0300,88.3675
110.0471,88.2814
110.0959,88.2084
110.1689,88.1596
110.2550,88.1425
110.7550,88.1425
110.8411,88.1596
110.9141,88.2084
110.9629,88.2814
110.9800,88.3675
110.9800,88.8175
110.9629,88.9036
110.9141,88.9766
110.8411,89.0254
110.7550,89.0425
Z" /> 
<path style="fill:#000000; fill-opacity:1.0000; stroke:none;fill-rule:evenodd;"
d="M 135.0000,81.1550
135.0190,81.0593
135.0732,80.9782
135.1543,80.9240
135.2500,80.9050
135.7500,80.9050
135.8457,80.9240
135.9268,80.9782
135.9810,81.0593
136.0000,81.1550
136.0000,82.1050
135.9810,82.2007
135.9268,82.2818
135.8457,82.3360
135.7500,82.3550
135.2500,82.3550
135.1543,82.3360
135.0732,82.2818
135.0190,82.2007
135.0000,82.1050
Z" /> 
<path style="fill:#000000; fill-opacity:1.0000; stroke:none;fill-rule:evenodd;"
d="M 136.9000,81.1550
136.9190,81.0593
136.9732,80.9782
137.0543,80.9240
137.1500,80.9050
137.6500,80.9050
137.7457,80.9240
137.8268,80.9782
137.8810,81.0593
137.9000,81.1550
137.9000,82.1050
137.8810,82.2007
137.8268,82.2818
137.7457,82.3360
137.6500,82.3550
137.1500,82.3550
137.0543,82.3360
136.9732,82.2818
136.9190,82.2007
136.9000,82.1050
Z" /> 
<path style="fill:#000000; fill-opacity:1.0000; stroke:none;fill-rule:evenodd;"
d="M 136.3900,62.8975
136.3710,62.9932
136.3168,63.0743
136.2357,63.1285
136.1400,63.1475
133.1400,63.1475
133.0443,63.1285
132.9632,63.0743
132.9090,62.9932
132.8900,62.8975
132.8900,61.7975
132.9090,61.7018
132.9632,61.6207
133.0443,61.5665
133.1400,61.5475
136.1400,61.5475
136.2357,61.5665
136.3168,61.6207
136.3710,61.7018
136.3900,61.7975
Z" /> 
<path style="fill:#000000; fill-opacity:1.0000; stroke:none;fill-rule:evenodd;"
d="M 130.9900,62.8975
130.9710,62.9932
130.9168,63.0743
130.8357,63.1285
130.7400,63.1475
127.7400,63.1475
127.6443,63.1285
127.5632,63.0743
127.5090,62.9932
127.4900,62.8975
127.4900,61.7975
127.5090,61.7018
127.5632,61.6207
127.6443,61.5665
127.7400,61.5475
130.7400,61.5475
130.8357,61.5665
130.9168,61.6207
130.9710,61.7018
130.9900,61.7975
Z" /> 
<path style="fill:#000000; fill-opacity:1.0000; stroke:none;fill-rule:evenodd;"
d="M 119.4450,66.1225
119.4549,66.0728
119.4831,66.0306
119.5253,66.0024
119.5750,65.9925
120.6150,65.9925
120.6647,66.0024
120.7069,66.0306
120.7351,66.0728
120.7450,66.1225
120.7450,70.3625
120.7351,70.4122
120.7069,70.4544
120.6647,70.4826
120.6150,70.4925
119.5750,70.4925
119.5253,70.4826
119.4831,70.4544
119.4549,70.4122
119.4450,70.3625
Z" /> 
<path style="fill:#000000; fill-opacity:1.0000; stroke:none;fill-rule:evenodd;"
d="M 116.9450,66.1225
116.9549,66.0728
116.9831,66.0306
117.0253,66.0024
117.0750,65.9925
118.1150,65.9925
118.1647,66.0024
118.2069,66.0306
118.2351,66.0728
118.2450,66.1225
118.2450,70.3625
118.2351,70.4122
118.2069,70.4544
118.1647,70.4826
118.1150,70.4925
117.0750,70.4925
117.0253,70.4826
116.9831,70.4544
116.9549,70.4122
116.9450,70.3625
Z" /> 
<path style="fill:#000000; fill-opacity:1.0000; stroke:none;fill-rule:evenodd;"
d="M 114.4450,66.1225
114.4549,66.0728
114.4831,66.0306
114.5253,66.0024
114.5750,65.9925
115.6150,65.9925
115.6647,66.0024
115.7069,66.0306
115.7351,66.0728
115.7450,66.1225
115.7450,70.3625
115.7351,70.4122
115.7069,70.4544
115.6647,70.4826
115.6150,70.4925
114.5750,70.4925
114.5253,70.4826
114.4831,70.4544
114.4549,70.4122
114.4450,70.3625
Z" /> 
<path style="fill:#000000; fill-opacity:1.0000; stroke:none;fill-rule:evenodd;"
d="M 111.9450,66.1225
111.9549,66.0728
111.9831,66.0306
112.0253,66.0024
112.0750,65.9925
113.1150,65.9925
113.1647,66.0024
113.2069,66.0306
113.2351,66.0728
113.2450,66.1225
113.2450,70.3625
113.2351,70.4122
113.2069,70.4544
113.1647,70.4826
113.1150,70.4925
112.0750,70.4925
112.0253,70.4826
111.9831,70.4544
111.9549,70.4122
111.9450,70.3625
Z" /> 
<path style="fill:#000000; fill-opacity:1.0000; stroke:none;fill-rule:evenodd;"
d="M 108.4950,69.9725
108.5087,69.9036
108.5477,69.8452
108.6061,69.8062
108.6750,69.7925
110.1150,69.7925
110.1839,69.8062
110.2423,69.8452
110.2813,69.9036
110.2950,69.9725
110.2950,73.5125
110.2813,73.5814
110.2423,73.6398
110.1839,73.6788
110.1150,73.6925
108.6750,73.6925
108.6061,73.6788
108.5477,73.6398
108.5087,73.5814
108.4950,73.5125
Z" /> 
<path style="fill:#000000; fill-opacity:1.0000; stroke:none;fill-rule:evenodd;"
d="M 122.3950,69.9725
122.4087,69.9036
122.4477,69.8452
122.5061,69.8062
122.5750,69.7925
124.0150,69.7925
124.0839,69.8062
124.1423,69.8452
124.1813,69.9036
124.1950,69.9725
124.1950,73.5125
124.1813,73.5814
124.1423,73.6398
124.0839,73.6788
124.0150,73.6925
122.5750,73.6925
122.5061,73.6788
122.4477,73.6398
122.4087,73.5814
122.3950,73.5125
Z" /> 
<path style="fill:#000000; fill-opacity:1.0000; stroke:none;fill-rule:evenodd;"
d="M 121.0300,119.7600
121.0797,119.7699
121.1219,119.7981
121.1501,119.8403
121.1600,119.8900
121.1600,120.9300
121.1501,120.9797
121.1219,121.0219
121.0797,121.0501
121.0300,121.0600
116.7900,121.0600
116.7403,121.0501
116.6981,121.0219
116.6699,120.9797
116.6600,120.9300
116.6600,119.8900
116.6699,119.8403
116.6981,119.7981
116.7403,119.7699
116.7900,119.7600
Z" /> 
<path style="fill:#000000; fill-opacity:1.0000; stroke:none;fill-rule:evenodd;"
d="M 121.0300,117.2600
121.0797,117.2699
121.1219,117.2981
121.1501,117.3403
121.1600,117.3900
121.1600,118.4300
121.1501,118.4797
121.1219,118.5219
121.0797,118.5501
121.0300,118.5600
116.7900,118.5600
116.7403,118.5501
116.6981,118.5219
116.6699,118.4797
116.6600,118.4300
116.6600,117.3900
116.6699,117.3403
116.6981,117.2981
116.7403,117.2699
116.7900,117.2600
Z" /> 
<path style="fill:#000000; fill-opacity:1.0000; stroke:none;fill-rule:evenodd;"
d="M 117.1800,113.8100
117.2489,113.8237
117.3073,113.8627
117.3463,113.9211
117.3600,113.9900
117.3600,115.4300
117.3463,115.4989
117.3073,115.5573
117.2489,115.5963
117.1800,115.6100
113.6400,115.6100
113.5711,115.5963
113.5127,115.5573
113.4737,115.4989
113.4600,115.4300
113.4600,113.9900
113.4737,113.9211
113.5127,113.8627
113.5711,113.8237
113.6400,113.8100
Z" /> 
<path style="fill:#000000; fill-opacity:1.0000; stroke:none;fill-rule:evenodd;"
d="M 117.1800,122.7100
117.2489,122.7237
117.3073,122.7627
117.3463,122.8211
117.3600,122.8900
117.3600,124.3300
117.3463,124.3989
117.3073,124.4573
117.2489,124.4963
117.1800,124.5100
113.6400,124.5100
113.5711,124.4963
113.5127,124.4573
113.4737,124.3989
113.4600,124.3300
113.4600,122.8900
113.4737,122.8211
113.5127,122.7627
113.5711,122.7237
113.6400,122.7100
Z" /> 
<path style="fill:#000000; fill-opacity:1.0000; stroke:none;fill-rule:evenodd;"
d="M 119.4650,85.6325
120.8650,85.6325
120.8650,87.0325
119.4650,87.0325
Z" /> 
<path style="fill:#000000; fill-opacity:1.0000; stroke:none;fill-rule:evenodd;"
d="M 117.6850,85.6325
119.0850,85.6325
119.0850,87.0325
117.6850,87.0325
Z" /> 
<path style="fill:#000000; fill-opacity:1.0000; stroke:none;fill-rule:evenodd;"
d="M 115.9050,85.6325
117.3050,85.6325
117.3050,87.0325
115.9050,87.0325
Z" /> 
<path style="fill:#000000; fill-opacity:1.0000; stroke:none;fill-rule:evenodd;"
d="M 114.1250,85.6325
115.5250,85.6325
115.5250,87.0325
114.1250,87.0325
Z" /> 
<path style="fill:#000000; fill-opacity:1.0000; stroke:none;fill-rule:evenodd;"
d="M 112.3450,85.6325
113.7450,85.6325
113.7450,87.0325
112.3450,87.0325
Z" /> 
<path style="fill:#000000; fill-opacity:1.0000; stroke:none;fill-rule:evenodd;"
d="M 119.4650,87.3325
120.8650,87.3325
120.8650,88.7325
119.4650,88.7325
Z" /> 
<path style="fill:#000000; fill-opacity:1.0000; stroke:none;fill-rule:evenodd;"
d="M 117.6850,87.3325
119.0850,87.3325
119.0850,88.7325
117.6850,88.7325
Z" /> 
<path style="fill:#000000; fill-opacity:1.0000; stroke:none;fill-rule:evenodd;"
d="M 115.9050,87.3325
117.3050,87.3325
117.3050,88.7325
115.9050,88.7325
Z" /> 
<path style="fill:#000000; fill-opacity:1.0000; stroke:none;fill-rule:evenodd;"
d="M 114.1250,87.3325
115.5250,87.3325
115.5250,88.7325
114.1250,88.7325
Z" /> 
<path style="fill:#000000; fill-opacity:1.0000; stroke:none;fill-rule:evenodd;"
d="M 112.3450,87.3325
113.7450,87.3325
113.7450,88.7325
112.3450,88.7325
Z" /> 
<path style="fill:#000000; fill-opacity:1.0000; stroke:none;fill-rule:evenodd;"
d="M 120.6300,83.7825
121.0300,83.7825
121.0300,84.8825
120.6300,84.8825
Z" /> 
<path style="fill:#000000; fill-opacity:1.0000; stroke:none;fill-rule:evenodd;"
d="M 119.9800,83.7825
120.3800,83.7825
120.3800,84.8825
119.9800,84.8825
Z" /> 
<path style="fill:#000000; fill-opacity:1.0000; stroke:none;fill-rule:evenodd;"
d="M 119.3300,83.7825
119.7300,83.7825
119.7300,84.8825
119.3300,84.8825
Z" /> 
<path style="fill:#000000; fill-opacity:1.0000; stroke:none;fill-rule:evenodd;"
d="M 118.6800,83.7825
119.0800,83.7825
119.0800,84.8825
118.6800,84.8825
Z" /> 
<path style="fill:#000000; fill-opacity:1.0000; stroke:none;fill-rule:evenodd;"
d="M 118.0300,83.7825
118.4300,83.7825
118.4300,84.8825
118.0300,84.8825
Z" /> 
<path style="fill:#000000; fill-opacity:1.0000; stroke:none;fill-rule:evenodd;"
d="M 117.3800,83.7825
117.7800,83.7825
117.7800,84.8825
117.3800,84.8825
Z" /> 
<path style="fill:#000000; fill-opacity:1.0000; stroke:none;fill-rule:evenodd;"
d="M 116.7300,83.7825
117.1300,83.7825
117.1300,84.8825
116.7300,84.8825
Z" /> 
<path style="fill:#000000; fill-opacity:1.0000; stroke:none;fill-rule:evenodd;"
d="M 116.0800,83.7825
116.4800,83.7825
116.4800,84.8825
116.0800,84.8825
Z" /> 
<path style="fill:#000000; fill-opacity:1.0000; stroke:none;fill-rule:evenodd;"
d="M 115.4300,83.7825
115.8300,83.7825
115.8300,84.8825
115.4300,84.8825
Z" /> 
<path style="fill:#000000; fill-opacity:1.0000; stroke:none;fill-rule:evenodd;"
d="M 114.7800,83.7825
115.1800,83.7825
115.1800,84.8825
114.7800,84.8825
Z" /> 
<path style="fill:#000000; fill-opacity:1.0000; stroke:none;fill-rule:evenodd;"
d="M 114.1300,83.7825
114.5300,83.7825
114.5300,84.8825
114.1300,84.8825
Z" /> 
<path style="fill:#000000; fill-opacity:1.0000; stroke:none;fill-rule:evenodd;"
d="M 113.4800,83.7825
113.8800,83.7825
113.8800,84.8825
113.4800,84.8825
Z" /> 
<path style="fill:#000000; fill-opacity:1.0000; stroke:none;fill-rule:evenodd;"
d="M 112.8300,83.7825
113.2300,83.7825
113.2300,84.8825
112.8300,84.8825
Z" /> 
<path style="fill:#000000; fill-opacity:1.0000; stroke:none;fill-rule:evenodd;"
d="M 112.1800,83.7825
112.5800,83.7825
112.5800,84.8825
112.1800,84.8825
Z" /> 
<path style="fill:#000000; fill-opacity:1.0000; stroke:none;fill-rule:evenodd;"
d="M 112.1800,89.4825
112.5800,89.4825
112.5800,90.5825
112.1800,90.5825
Z" /> 
<path style="fill:#000000; fill-opacity:1.0000; stroke:none;fill-rule:evenodd;"
d="M 112.8300,89.4825
113.2300,89.4825
113.2300,90.5825
112.8300,90.5825
Z" /> 
<path style="fill:#000000; fill-opacity:1.0000; stroke:none;fill-rule:evenodd;"
d="M 113.4800,89.4825
113.8800,89.4825
113.8800,90.5825
113.4800,90.5825
Z" /> 
<path style="fill:#000000; fill-opacity:1.0000; stroke:none;fill-rule:evenodd;"
d="M 114.1300,89.4825
114.5300,89.4825
114.5300,90.5825
114.1300,90.5825
Z" /> 
<path style="fill:#000000; fill-opacity:1.0000; stroke:none;fill-rule:evenodd;"
d="M 114.7800,89.4825
115.1800,89.4825
115.1800,90.5825
114.7800,90.5825
Z" /> 
<path style="fill:#000000; fill-opacity:1.0000; stroke:none;fill-rule:evenodd;"
d="M 115.4300,89.4825
115.8300,89.4825
115.8300,90.5825
115.4300,90.5825
Z" /> 
<path style="fill:#000000; fill-opacity:1.0000; stroke:none;fill-rule:evenodd;"
d="M 116.0800,89.4825
116.4800,89.4825
116.4800,90.5825
116.0800,90.5825
Z" /> 
<path style="fill:#000000; fill-opacity:1.0000; stroke:none;fill-rule:evenodd;"
d="M 116.7300,89.4825
117.1300,89.4825
117.1300,90.5825
116.7300,90.5825
Z" /> 
<path style="fill:#000000; fill-opacity:1.0000; stroke:none;fill-rule:evenodd;"
d="M 117.3800,89.4825
117.7800,89.4825
117.7800,90.5825
117.3800,90.5825
Z" /> 
<path style="fill:#000000; fill-opacity:1.0000; stroke:none;fill-rule:evenodd;"
d="M 118.0300,89.4825
118.4300,89.4825
118.4300,90.5825
118.0300,90.5825
Z" /> 
<path style="fill:#000000; fill-opacity:1.0000; stroke:none;fill-rule:evenodd;"
d="M 118.6800,89.4825
119.0800,89.4825
119.0800,90.5825
118.6800,90.5825
Z" /> 
<path style="fill:#000000; fill-opacity:1.0000; stroke:none;fill-rule:evenodd;"
d="M 119.3300,89.4825
119.7300,89.4825
119.7300,90.5825
119.3300,90.5825
Z" /> 
<path style="fill:#000000; fill-opacity:1.0000; stroke:none;fill-rule:evenodd;"
d="M 119.9800,89.4825
120.3800,89.4825
120.3800,90.5825
119.9800,90.5825
Z" /> 
<path style="fill:#000000; fill-opacity:1.0000; stroke:none;fill-rule:evenodd;"
d="M 120.6300,89.4825
121.0300,89.4825
121.0300,90.5825
120.6300,90.5825
Z" /> 
<path style="fill:#000000; fill-opacity:1.0000; stroke:none;fill-rule:evenodd;"
d="M 127.7000,81.1800
127.7190,81.0843
127.7732,81.0032
127.8543,80.9490
127.9500,80.9300
128.4500,80.9300
128.5457,80.9490
128.6268,81.0032
128.6810,81.0843
128.7000,81.1800
128.7000,82.1300
128.6810,82.2257
128.6268,82.3068
128.5457,82.3610
128.4500,82.3800
127.9500,82.3800
127.8543,82.3610
127.7732,82.3068
127.7190,82.2257
127.7000,82.1300
Z" /> 
<path style="fill:#000000; fill-opacity:1.0000; stroke:none;fill-rule:evenodd;"
d="M 129.6000,81.1800
129.6190,81.0843
129.6732,81.0032
129.7543,80.9490
129.8500,80.9300
130.3500,80.9300
130.4457,80.9490
130.5268,81.0032
130.5810,81.0843
130.6000,81.1800
130.6000,82.1300
130.5810,82.2257
130.5268,82.3068
130.4457,82.3610
130.3500,82.3800
129.8500,82.3800
129.7543,82.3610
129.6732,82.3068
129.6190,82.2257
129.6000,82.1300
Z" /> 
<path style="fill:#000000; fill-opacity:1.0000; stroke:none;fill-rule:evenodd;"
d="M 114.2550,94.1425
114.2398,94.2190
114.1964,94.2839
114.1315,94.3273
114.0550,94.3425
113.6550,94.3425
113.5785,94.3273
113.5136,94.2839
113.4702,94.2190
113.4550,94.1425
113.4550,93.5925
113.4702,93.5160
113.5136,93.4511
113.5785,93.4077
113.6550,93.3925
114.0550,93.3925
114.1315,93.4077
114.1964,93.4511
114.2398,93.5160
114.2550,93.5925
Z" /> 
<path style="fill:#000000; fill-opacity:1.0000; stroke:none;fill-rule:evenodd;"
d="M 112.6050,94.1425
112.5898,94.2190
112.5464,94.2839
112.4815,94.3273
112.4050,94.3425
112.0050,94.3425
111.9285,94.3273
111.8636,94.2839
111.8202,94.2190
111.8050,94.1425
111.8050,93.5925
111.8202,93.5160
111.8636,93.4511
111.9285,93.4077
112.0050,93.3925
112.4050,93.3925
112.4815,93.4077
112.5464,93.4511
112.5898,93.5160
112.6050,93.5925
Z" /> 
<path style="fill:#000000; fill-opacity:1.0000; stroke:none;fill-rule:evenodd;"
d="M 139.0750,76.8800
139.1707,76.8990
139.2518,76.9532
139.3060,77.0343
139.3250,77.1300
139.3250,77.6300
139.3060,77.7257
139.2518,77.8068
139.1707,77.8610
139.0750,77.8800
138.1250,77.8800
138.0293,77.8610
137.9482,77.8068
137.8940,77.7257
137.8750,77.6300
137.8750,77.1300
137.8940,77.0343
137.9482,76.9532
138.0293,76.8990
138.1250,76.8800
Z" /> 
<path style="fill:#000000; fill-opacity:1.0000; stroke:none;fill-rule:evenodd;"
d="M 139.0750,78.7800
139.1707,78.7990
139.2518,78.8532
139.3060,78.9343
139.3250,79.0300
139.3250,79.5300
139.3060,79.6257
139.2518,79.7068
139.1707,79.7610
139.0750,79.7800
138.1250,79.7800
138.0293,79.7610
137.9482,79.7068
137.8940,79.6257
137.8750,79.5300
137.8750,79.0300
137.8940,78.9343
137.9482,78.8532
138.0293,78.7990
138.1250,78.7800
Z" /> 
<path style="fill:#000000; fill-opacity:1.0000; stroke:none;fill-rule:evenodd;"
d="M 136.7750,92.1300
136.7598,92.2065
136.7164,92.2714
136.6515,92.3148
136.5750,92.3300
136.1750,92.3300
136.0985,92.3148
136.0336,92.2714
135.9902,92.2065
135.9750,92.1300
135.9750,91.5800
135.9902,91.5035
136.0336,91.4386
136.0985,91.3952
136.1750,91.3800
136.5750,91.3800
136.6515,91.3952
136.7164,91.4386
136.7598,91.5035
136.7750,91.5800
Z" /> 
<path style="fill:#000000; fill-opacity:1.0000; stroke:none;fill-rule:evenodd;"
d="M 135.1250,92.1300
135.1098,92.2065
135.0664,92.2714
135.0015,92.3148
134.9250,92.3300
134.5250,92.3300
134.4485,92.3148
134.3836,92.2714
134.3402,92.2065
134.3250,92.1300
134.3250,91.5800
134.3402,91.5035
134.3836,91.4386
134.4485,91.3952
134.5250,91.3800
134.9250,91.3800
135.0015,91.3952
135.0664,91.4386
135.1098,91.5035
135.1250,91.5800
Z" /> 
<path style="fill:#000000; fill-opacity:1.0000; stroke:none;fill-rule:evenodd;"
d="M 109.2600,121.9000
109.3557,121.9190
109.4368,121.9732
109.4910,122.0543
109.5100,122.1500
109.5100,122.6500
109.4910,122.7457
109.4368,122.8268
109.3557,122.8810
109.2600,122.9000
106.2600,122.9000
106.1643,122.8810
106.0832,122.8268
106.0290,122.7457
106.0100,122.6500
106.0100,122.1500
106.0290,122.0543
106.0832,121.9732
106.1643,121.9190
106.2600,121.9000
Z" /> 
<path style="fill:#000000; fill-opacity:1.0000; stroke:none;fill-rule:evenodd;"
d="M 109.2600,123.9000
109.3557,123.9190
109.4368,123.9732
109.4910,124.0543
109.5100,124.1500
109.5100,124.6500
109.4910,124.7457
109.4368,124.8268
109.3557,124.8810
109.2600,124.9000
106.2600,124.9000
106.1643,124.8810
106.0832,124.8268
106.0290,124.7457
106.0100,124.6500
106.0100,124.1500
106.0290,124.0543
106.0832,123.9732
106.1643,123.9190
106.2600,123.9000
Z" /> 
<path style="fill:#000000; fill-opacity:1.0000; stroke:none;fill-rule:evenodd;"
d="M 103.4600,119.3000
103.5557,119.3190
103.6368,119.3732
103.6910,119.4543
103.7100,119.5500
103.7100,120.5500
103.6910,120.6457
103.6368,120.7268
103.5557,120.7810
103.4600,120.8000
100.5600,120.8000
100.4643,120.7810
100.3832,120.7268
100.3290,120.6457
100.3100,120.5500
100.3100,119.5500
100.3290,119.4543
100.3832,119.3732
100.4643,119.3190
100.5600,119.3000
Z" /> 
<path style="fill:#000000; fill-opacity:1.0000; stroke:none;fill-rule:evenodd;"
d="M 103.4600,126.0000
103.5557,126.0190
103.6368,126.0732
103.6910,126.1543
103.7100,126.2500
103.7100,127.2500
103.6910,127.3457
103.6368,127.4268
103.5557,127.4810
103.4600,127.5000
100.5600,127.5000
100.4643,127.4810
100.3832,127.4268
100.3290,127.3457
100.3100,127.2500
100.3100,126.2500
100.3290,126.1543
100.3832,126.0732
100.4643,126.0190
100.5600,126.0000
Z" /> 
<path style="fill:#000000; fill-opacity:1.0000; stroke:none;fill-rule:evenodd;"
d="M 138.9250,85.0300
138.8389,85.0129
138.7659,84.9641
138.7171,84.8911
138.7000,84.8050
138.7000,84.3550
138.7171,84.2689
138.7659,84.1959
138.8389,84.1471
138.9250,84.1300
139.4250,84.1300
139.5111,84.1471
139.5841,84.1959
139.6329,84.2689
139.6500,84.3550
139.6500,84.8050
139.6329,84.8911
139.5841,84.9641
139.5111,85.0129
139.4250,85.0300
Z" /> 
<path style="fill:#000000; fill-opacity:1.0000; stroke:none;fill-rule:evenodd;"
d="M 138.9250,83.4800
138.8389,83.4629
138.7659,83.4141
138.7171,83.3411
138.7000,83.2550
138.7000,82.8050
138.7171,82.7189
138.7659,82.6459
138.8389,82.5971
138.9250,82.5800
139.4250,82.5800
139.5111,82.5971
139.5841,82.6459
139.6329,82.7189
139.6500,82.8050
139.6500,83.2550
139.6329,83.3411
139.5841,83.4141
139.5111,83.4629
139.4250,83.4800
Z" /> 
<path style="fill:#000000; fill-opacity:1.0000; stroke:none;fill-rule:evenodd;"
d="M 115.4700,100.0500
115.4700,101.2500
114.2700,101.2500
114.2700,100.0500
Z" /> 
<path style="fill:#000000; fill-opacity:1.0000; stroke:none;fill-rule:evenodd;"
d="M 112.3700,98.8500
112.3700,100.4500
110.8700,100.4500
110.8700,98.8500
Z" /> 
<path style="fill:#000000; fill-opacity:1.0000; stroke:none;fill-rule:evenodd;"
d="M 115.4700,98.0500
115.4700,99.2500
114.2700,99.2500
114.2700,98.0500
Z" /> 
<path style="fill:#000000; fill-opacity:1.0000; stroke:none;fill-rule:evenodd;"
d="M 131.8000,76.0800
131.8957,76.0990
131.9768,76.1532
132.0310,76.2343
132.0500,76.3300
132.0500,76.8550
132.0310,76.9507
131.9768,77.0318
131.8957,77.0860
131.8000,77.1050
130.9000,77.1050
130.8043,77.0860
130.7232,77.0318
130.6690,76.9507
130.6500,76.8550
130.6500,76.3300
130.6690,76.2343
130.7232,76.1532
130.8043,76.0990
130.9000,76.0800
Z" /> 
<path style="fill:#000000; fill-opacity:1.0000; stroke:none;fill-rule:evenodd;"
d="M 131.8000,77.9050
131.8957,77.9240
131.9768,77.9782
132.0310,78.0593
132.0500,78.1550
132.0500,78.6800
132.0310,78.7757
131.9768,78.8568
131.8957,78.9110
131.8000,78.9300
130.9000,78.9300
130.8043,78.9110
130.7232,78.8568
130.6690,78.7757
130.6500,78.6800
130.6500,78.1550
130.6690,78.0593
130.7232,77.9782
130.8043,77.9240
130.9000,77.9050
Z" /> 
<path style="fill:#000000; fill-opacity:1.0000; stroke:none;fill-rule:evenodd;"
d="M 111.5050,81.1925
111.5240,81.0968
111.5782,81.0157
111.6593,80.9615
111.7550,80.9425
112.2550,80.9425
112.3507,80.9615
112.4318,81.0157
112.4860,81.0968
112.5050,81.1925
112.5050,82.1425
112.4860,82.2382
112.4318,82.3193
112.3507,82.3735
112.2550,82.3925
111.7550,82.3925
111.6593,82.3735
111.5782,82.3193
111.5240,82.2382
111.5050,82.1425
Z" /> 
<path style="fill:#000000; fill-opacity:1.0000; stroke:none;fill-rule:evenodd;"
d="M 113.4050,81.1925
113.4240,81.0968
113.4782,81.0157
113.5593,80.9615
113.6550,80.9425
114.1550,80.9425
114.2507,80.9615
114.3318,81.0157
114.3860,81.0968
114.4050,81.1925
114.4050,82.1425
114.3860,82.2382
114.3318,82.3193
114.2507,82.3735
114.1550,82.3925
113.6550,82.3925
113.5593,82.3735
113.4782,82.3193
113.4240,82.2382
113.4050,82.1425
Z" /> 
<path style="fill:#000000; fill-opacity:1.0000; stroke:none;fill-rule:evenodd;"
d="M 115.6050,76.0925
115.7007,76.1115
115.7818,76.1657
115.8360,76.2468
115.8550,76.3425
115.8550,76.8675
115.8360,76.9632
115.7818,77.0443
115.7007,77.0985
115.6050,77.1175
114.7050,77.1175
114.6093,77.0985
114.5282,77.0443
114.4740,76.9632
114.4550,76.8675
114.4550,76.3425
114.4740,76.2468
114.5282,76.1657
114.6093,76.1115
114.7050,76.0925
Z" /> 
<path style="fill:#000000; fill-opacity:1.0000; stroke:none;fill-rule:evenodd;"
d="M 115.6050,77.9175
115.7007,77.9365
115.7818,77.9907
115.8360,78.0718
115.8550,78.1675
115.8550,78.6925
115.8360,78.7882
115.7818,78.8693
115.7007,78.9235
115.6050,78.9425
114.7050,78.9425
114.6093,78.9235
114.5282,78.8693
114.4740,78.7882
114.4550,78.6925
114.4550,78.1675
114.4740,78.0718
114.5282,77.9907
114.6093,77.9365
114.7050,77.9175
Z" /> 
<path style="fill:#000000; fill-opacity:1.0000; stroke:none;fill-rule:evenodd;"
d="M 118.8050,81.1675
118.8240,81.0718
118.8782,80.9907
118.9593,80.9365
119.0550,80.9175
119.5550,80.9175
119.6507,80.9365
119.7318,80.9907
119.7860,81.0718
119.8050,81.1675
119.8050,82.1175
119.7860,82.2132
119.7318,82.2943
119.6507,82.3485
119.5550,82.3675
119.0550,82.3675
118.9593,82.3485
118.8782,82.2943
118.8240,82.2132
118.8050,82.1175
Z" /> 
<path style="fill:#000000; fill-opacity:1.0000; stroke:none;fill-rule:evenodd;"
d="M 120.7050,81.1675
120.7240,81.0718
120.7782,80.9907
120.8593,80.9365
120.9550,80.9175
121.4550,80.9175
121.5507,80.9365
121.6318,80.9907
121.6860,81.0718
121.7050,81.1675
121.7050,82.1175
121.6860,82.2132
121.6318,82.2943
121.5507,82.3485
121.4550,82.3675
120.9550,82.3675
120.8593,82.3485
120.7782,82.2943
120.7240,82.2132
120.7050,82.1175
Z" /> 
<path style="fill:#000000; fill-opacity:1.0000; stroke:none;fill-rule:evenodd;"
d="M 135.6400,66.1100
135.6499,66.0603
135.6781,66.0181
135.7203,65.9899
135.7700,65.9800
136.8100,65.9800
136.8597,65.9899
136.9019,66.0181
136.9301,66.0603
136.9400,66.1100
136.9400,70.3500
136.9301,70.3997
136.9019,70.4419
136.8597,70.4701
136.8100,70.4800
135.7700,70.4800
135.7203,70.4701
135.6781,70.4419
135.6499,70.3997
135.6400,70.3500
Z" /> 
<path style="fill:#000000; fill-opacity:1.0000; stroke:none;fill-rule:evenodd;"
d="M 133.1400,66.1100
133.1499,66.0603
133.1781,66.0181
133.2203,65.9899
133.2700,65.9800
134.3100,65.9800
134.3597,65.9899
134.4019,66.0181
134.4301,66.0603
134.4400,66.1100
134.4400,70.3500
134.4301,70.3997
134.4019,70.4419
134.3597,70.4701
134.3100,70.4800
133.2700,70.4800
133.2203,70.4701
133.1781,70.4419
133.1499,70.3997
133.1400,70.3500
Z" /> 
<path style="fill:#000000; fill-opacity:1.0000; stroke:none;fill-rule:evenodd;"
d="M 130.6400,66.1100
130.6499,66.0603
130.6781,66.0181
130.7203,65.9899
130.7700,65.9800
131.8100,65.9800
131.8597,65.9899
131.9019,66.0181
131.9301,66.0603
131.9400,66.1100
131.9400,70.3500
131.9301,70.3997
131.9019,70.4419
131.8597,70.4701
131.8100,70.4800
130.7700,70.4800
130.7203,70.4701
130.6781,70.4419
130.6499,70.3997
130.6400,70.3500
Z" /> 
<path style="fill:#000000; fill-opacity:1.0000; stroke:none;fill-rule:evenodd;"
d="M 128.1400,66.1100
128.1499,66.0603
128.1781,66.0181
128.2203,65.9899
128.2700,65.9800
129.3100,65.9800
129.3597,65.9899
129.4019,66.0181
129.4301,66.0603
129.4400,66.1100
129.4400,70.3500
129.4301,70.3997
129.4019,70.4419
129.3597,70.4701
129.3100,70.4800
128.2700,70.4800
128.2203,70.4701
128.1781,70.4419
128.1499,70.3997
128.1400,70.3500
Z" /> 
<path style="fill:#000000; fill-opacity:1.0000; stroke:none;fill-rule:evenodd;"
d="M 124.6900,69.9600
124.7037,69.8911
124.7427,69.8327
124.8011,69.7937
124.8700,69.7800
126.3100,69.7800
126.3789,69.7937
126.4373,69.8327
126.4763,69.8911
126.4900,69.9600
126.4900,73.5000
126.4763,73.5689
126.4373,73.6273
126.3789,73.6663
126.3100,73.6800
124.8700,73.6800
124.8011,73.6663
124.7427,73.6273
124.7037,73.5689
124.6900,73.5000
Z" /> 
<path style="fill:#000000; fill-opacity:1.0000; stroke:none;fill-rule:evenodd;"
d="M 138.5900,69.9600
138.6037,69.8911
138.6427,69.8327
138.7011,69.7937
138.7700,69.7800
140.2100,69.7800
140.2789,69.7937
140.3373,69.8327
140.3763,69.8911
140.3900,69.9600
140.3900,73.5000
140.3763,73.5689
140.3373,73.6273
140.2789,73.6663
140.2100,73.6800
138.7700,73.6800
138.7011,73.6663
138.6427,73.6273
138.6037,73.5689
138.5900,73.5000
Z" /> 
<path style="fill:#000000; fill-opacity:1.0000; stroke:none;fill-rule:evenodd;"
d="M 135.6600,85.6200
137.0600,85.6200
137.0600,87.0200
135.6600,87.0200
Z" /> 
<path style="fill:#000000; fill-opacity:1.0000; stroke:none;fill-rule:evenodd;"
d="M 133.8800,85.6200
135.2800,85.6200
135.2800,87.0200
133.8800,87.0200
Z" /> 
<path style="fill:#000000; fill-opacity:1.0000; stroke:none;fill-rule:evenodd;"
d="M 132.1000,85.6200
133.5000,85.6200
133.5000,87.0200
132.1000,87.0200
Z" /> 
<path style="fill:#000000; fill-opacity:1.0000; stroke:none;fill-rule:evenodd;"
d="M 130.3200,85.6200
131.7200,85.6200
131.7200,87.0200
130.3200,87.0200
Z" /> 
<path style="fill:#000000; fill-opacity:1.0000; stroke:none;fill-rule:evenodd;"
d="M 128.5400,85.6200
129.9400,85.6200
129.9400,87.0200
128.5400,87.0200
Z" /> 
<path style="fill:#000000; fill-opacity:1.0000; stroke:none;fill-rule:evenodd;"
d="M 135.6600,87.3200
137.0600,87.3200
137.0600,88.7200
135.6600,88.7200
Z" /> 
<path style="fill:#000000; fill-opacity:1.0000; stroke:none;fill-rule:evenodd;"
d="M 133.8800,87.3200
135.2800,87.3200
135.2800,88.7200
133.8800,88.7200
Z" /> 
<path style="fill:#000000; fill-opacity:1.0000; stroke:none;fill-rule:evenodd;"
d="M 132.1000,87.3200
133.5000,87.3200
133.5000,88.7200
132.1000,88.7200
Z" /> 
<path style="fill:#000000; fill-opacity:1.0000; stroke:none;fill-rule:evenodd;"
d="M 130.3200,87.3200
131.7200,87.3200
131.7200,88.7200
130.3200,88.7200
Z" /> 
<path style="fill:#000000; fill-opacity:1.0000; stroke:none;fill-rule:evenodd;"
d="M 128.5400,87.3200
129.9400,87.3200
129.9400,88.7200
128.5400,88.7200
Z" /> 
<path style="fill:#000000; fill-opacity:1.0000; stroke:none;fill-rule:evenodd;"
d="M 136.8250,83.7700
137.2250,83.7700
137.2250,84.8700
136.8250,84.8700
Z" /> 
<path style="fill:#000000; fill-opacity:1.0000; stroke:none;fill-rule:evenodd;"
d="M 136.1750,83.7700
136.5750,83.7700
136.5750,84.8700
136.1750,84.8700
Z" /> 
<path style="fill:#000000; fill-opacity:1.0000; stroke:none;fill-rule:evenodd;"
d="M 135.5250,83.7700
135.9250,83.7700
135.9250,84.8700
135.5250,84.8700
Z" /> 
<path style="fill:#000000; fill-opacity:1.0000; stroke:none;fill-rule:evenodd;"
d="M 134.8750,83.7700
135.2750,83.7700
135.2750,84.8700
134.8750,84.8700
Z" /> 
<path style="fill:#000000; fill-opacity:1.0000; stroke:none;fill-rule:evenodd;"
d="M 134.2250,83.7700
134.6250,83.7700
134.6250,84.8700
134.2250,84.8700
Z" /> 
<path style="fill:#000000; fill-opacity:1.0000; stroke:none;fill-rule:evenodd;"
d="M 133.5750,83.7700
133.9750,83.7700
133.9750,84.8700
133.5750,84.8700
Z" /> 
<path style="fill:#000000; fill-opacity:1.0000; stroke:none;fill-rule:evenodd;"
d="M 132.9250,83.7700
133.3250,83.7700
133.3250,84.8700
132.9250,84.8700
Z" /> 
<path style="fill:#000000; fill-opacity:1.0000; stroke:none;fill-rule:evenodd;"
d="M 132.2750,83.7700
132.6750,83.7700
132.6750,84.8700
132.2750,84.8700
Z" /> 
<path style="fill:#000000; fill-opacity:1.0000; stroke:none;fill-rule:evenodd;"
d="M 131.6250,83.7700
132.0250,83.7700
132.0250,84.8700
131.6250,84.8700
Z" /> 
<path style="fill:#000000; fill-opacity:1.0000; stroke:none;fill-rule:evenodd;"
d="M 130.9750,83.7700
131.3750,83.7700
131.3750,84.8700
130.9750,84.8700
Z" /> 
<path style="fill:#000000; fill-opacity:1.0000; stroke:none;fill-rule:evenodd;"
d="M 130.3250,83.7700
130.7250,83.7700
130.7250,84.8700
130.3250,84.8700
Z" /> 
<path style="fill:#000000; fill-opacity:1.0000; stroke:none;fill-rule:evenodd;"
d="M 129.6750,83.7700
130.0750,83.7700
130.0750,84.8700
129.6750,84.8700
Z" /> 
<path style="fill:#000000; fill-opacity:1.0000; stroke:none;fill-rule:evenodd;"
d="M 129.0250,83.7700
129.4250,83.7700
129.4250,84.8700
129.0250,84.8700
Z" /> 
<path style="fill:#000000; fill-opacity:1.0000; stroke:none;fill-rule:evenodd;"
d="M 128.3750,83.7700
128.7750,83.7700
128.7750,84.8700
128.3750,84.8700
Z" /> 
<path style="fill:#000000; fill-opacity:1.0000; stroke:none;fill-rule:evenodd;"
d="M 128.3750,89.4700
128.7750,89.4700
128.7750,90.5700
128.3750,90.5700
Z" /> 
<path style="fill:#000000; fill-opacity:1.0000; stroke:none;fill-rule:evenodd;"
d="M 129.0250,89.4700
129.4250,89.4700
129.4250,90.5700
129.0250,90.5700
Z" /> 
<path style="fill:#000000; fill-opacity:1.0000; stroke:none;fill-rule:evenodd;"
d="M 129.6750,89.4700
130.0750,89.4700
130.0750,90.5700
129.6750,90.5700
Z" /> 
<path style="fill:#000000; fill-opacity:1.0000; stroke:none;fill-rule:evenodd;"
d="M 130.3250,89.4700
130.7250,89.4700
130.7250,90.5700
130.3250,90.5700
Z" /> 
<path style="fill:#000000; fill-opacity:1.0000; stroke:none;fill-rule:evenodd;"
d="M 130.9750,89.4700
131.3750,89.4700
131.3750,90.5700
130.9750,90.5700
Z" /> 
<path style="fill:#000000; fill-opacity:1.0000; stroke:none;fill-rule:evenodd;"
d="M 131.6250,89.4700
132.0250,89.4700
132.0250,90.5700
131.6250,90.5700
Z" /> 
<path style="fill:#000000; fill-opacity:1.0000; stroke:none;fill-rule:evenodd;"
d="M 132.2750,89.4700
132.6750,89.4700
132.6750,90.5700
132.2750,90.5700
Z" /> 
<path style="fill:#000000; fill-opacity:1.0000; stroke:none;fill-rule:evenodd;"
d="M 132.9250,89.4700
133.3250,89.4700
133.3250,90.5700
132.9250,90.5700
Z" /> 
<path style="fill:#000000; fill-opacity:1.0000; stroke:none;fill-rule:evenodd;"
d="M 133.5750,89.4700
133.9750,89.4700
133.9750,90.5700
133.5750,90.5700
Z" /> 
<path style="fill:#000000; fill-opacity:1.0000; stroke:none;fill-rule:evenodd;"
d="M 134.2250,89.4700
134.6250,89.4700
134.6250,90.5700
134.2250,90.5700
Z" /> 
<path style="fill:#000000; fill-opacity:1.0000; stroke:none;fill-rule:evenodd;"
d="M 134.8750,89.4700
135.2750,89.4700
135.2750,90.5700
134.8750,90.5700
Z" /> 
<path style="fill:#000000; fill-opacity:1.0000; stroke:none;fill-rule:evenodd;"
d="M 135.5250,89.4700
135.9250,89.4700
135.9250,90.5700
135.5250,90.5700
Z" /> 
<path style="fill:#000000; fill-opacity:1.0000; stroke:none;fill-rule:evenodd;"
d="M 136.1750,89.4700
136.5750,89.4700
136.5750,90.5700
136.1750,90.5700
Z" /> 
<path style="fill:#000000; fill-opacity:1.0000; stroke:none;fill-rule:evenodd;"
d="M 136.8250,89.4700
137.2250,89.4700
137.2250,90.5700
136.8250,90.5700
Z" /> 
<path style="fill:#000000; fill-opacity:1.0000; stroke:none;fill-rule:evenodd;"
d="M 130.4500,94.1300
130.4348,94.2065
130.3914,94.2714
130.3265,94.3148
130.2500,94.3300
129.8500,94.3300
129.7735,94.3148
129.7086,94.2714
129.6652,94.2065
129.6500,94.1300
129.6500,93.5800
129.6652,93.5035
129.7086,93.4386
129.7735,93.3952
129.8500,93.3800
130.2500,93.3800
130.3265,93.3952
130.3914,93.4386
130.4348,93.5035
130.4500,93.5800
Z" /> 
<path style="fill:#000000; fill-opacity:1.0000; stroke:none;fill-rule:evenodd;"
d="M 128.8000,94.1300
128.7848,94.2065
128.7414,94.2714
128.6765,94.3148
128.6000,94.3300
128.2000,94.3300
128.1235,94.3148
128.0586,94.2714
128.0152,94.2065
128.0000,94.1300
128.0000,93.5800
128.0152,93.5035
128.0586,93.4386
128.1235,93.3952
128.2000,93.3800
128.6000,93.3800
128.6765,93.3952
128.7414,93.4386
128.7848,93.5035
128.8000,93.5800
Z" /> 
<path style="fill:#000000; fill-opacity:1.0000; stroke:none;fill-rule:evenodd;"
d="M 136.4000,103.0000
136.3043,102.9810
136.2232,102.9268
136.1690,102.8457
136.1500,102.7500
136.1500,99.7500
136.1690,99.6543
136.2232,99.5732
136.3043,99.5190
136.4000,99.5000
137.5000,99.5000
137.5957,99.5190
137.6768,99.5732
137.7310,99.6543
137.7500,99.7500
137.7500,102.7500
137.7310,102.8457
137.6768,102.9268
137.5957,102.9810
137.5000,103.0000
Z" /> 
<path style="fill:#000000; fill-opacity:1.0000; stroke:none;fill-rule:evenodd;"
d="M 136.4000,97.6000
136.3043,97.5810
136.2232,97.5268
136.1690,97.4457
136.1500,97.3500
136.1500,94.3500
136.1690,94.2543
136.2232,94.1732
136.3043,94.1190
136.4000,94.1000
137.5000,94.1000
137.5957,94.1190
137.6768,94.1732
137.7310,94.2543
137.7500,94.3500
137.7500,97.3500
137.7310,97.4457
137.6768,97.5268
137.5957,97.5810
137.5000,97.6000
Z" /> 
<path style="fill:#000000; fill-opacity:1.0000; stroke:none;fill-rule:evenodd;"
d="M 121.9300,79.7925
121.8343,79.7735
121.7532,79.7193
121.6990,79.6382
121.6800,79.5425
121.6800,79.0425
121.6990,78.9468
121.7532,78.8657
121.8343,78.8115
121.9300,78.7925
122.8800,78.7925
122.9757,78.8115
123.0568,78.8657
123.1110,78.9468
123.1300,79.0425
123.1300,79.5425
123.1110,79.6382
123.0568,79.7193
122.9757,79.7735
122.8800,79.7925
Z" /> 
<path style="fill:#000000; fill-opacity:1.0000; stroke:none;fill-rule:evenodd;"
d="M 121.9300,77.8925
121.8343,77.8735
121.7532,77.8193
121.6990,77.7382
121.6800,77.6425
121.6800,77.1425
121.6990,77.0468
121.7532,76.9657
121.8343,76.9115
121.9300,76.8925
122.8800,76.8925
122.9757,76.9115
123.0568,76.9657
123.1110,77.0468
123.1300,77.1425
123.1300,77.6425
123.1110,77.7382
123.0568,77.8193
122.9757,77.8735
122.8800,77.8925
Z" /> 
<path style="fill:#000000; fill-opacity:1.0000; stroke:none;fill-rule:evenodd;"
d="M 118.4800,76.1175
118.5757,76.1365
118.6568,76.1907
118.7110,76.2718
118.7300,76.3675
118.7300,76.8925
118.7110,76.9882
118.6568,77.0693
118.5757,77.1235
118.4800,77.1425
117.5800,77.1425
117.4843,77.1235
117.4032,77.0693
117.3490,76.9882
117.3300,76.8925
117.3300,76.3675
117.3490,76.2718
117.4032,76.1907
117.4843,76.1365
117.5800,76.1175
Z" /> 
<path style="fill:#000000; fill-opacity:1.0000; stroke:none;fill-rule:evenodd;"
d="M 118.4800,77.9425
118.5757,77.9615
118.6568,78.0157
118.7110,78.0968
118.7300,78.1925
118.7300,78.7175
118.7110,78.8132
118.6568,78.8943
118.5757,78.9485
118.4800,78.9675
117.5800,78.9675
117.4843,78.9485
117.4032,78.8943
117.3490,78.8132
117.3300,78.7175
117.3300,78.1925
117.3490,78.0968
117.4032,78.0157
117.4843,77.9615
117.5800,77.9425
Z" /> 
<path style="fill:#000000; fill-opacity:1.0000; stroke:none;fill-rule:evenodd;"
d="M 143.3500,126.0800
143.3310,126.1757
143.2768,126.2568
143.1957,126.3110
143.1000,126.3300
142.6000,126.3300
142.5043,126.3110
142.4232,126.2568
142.3690,126.1757
142.3500,126.0800
142.3500,121.0800
142.3690,120.9843
142.4232,120.9032
142.5043,120.8490
142.6000,120.8300
143.1000,120.8300
143.1957,120.8490
143.2768,120.9032
143.3310,120.9843
143.3500,121.0800
Z" /> 
<path style="fill:#000000; fill-opacity:1.0000; stroke:none;fill-rule:evenodd;"
d="M 141.3500,126.0800
141.3310,126.1757
141.2768,126.2568
141.1957,126.3110
141.1000,126.3300
140.6000,126.3300
140.5043,126.3110
140.4232,126.2568
140.3690,126.1757
140.3500,126.0800
140.3500,121.0800
140.3690,120.9843
140.4232,120.9032
140.5043,120.8490
140.6000,120.8300
141.1000,120.8300
141.1957,120.8490
141.2768,120.9032
141.3310,120.9843
141.3500,121.0800
Z" /> 
<path style="fill:#000000; fill-opacity:1.0000; stroke:none;fill-rule:evenodd;"
d="M 139.3500,126.0800
139.3310,126.1757
139.2768,126.2568
139.1957,126.3110
139.1000,126.3300
138.6000,126.3300
138.5043,126.3110
138.4232,126.2568
138.3690,126.1757
138.3500,126.0800
138.3500,121.0800
138.3690,120.9843
138.4232,120.9032
138.5043,120.8490
138.6000,120.8300
139.1000,120.8300
139.1957,120.8490
139.2768,120.9032
139.3310,120.9843
139.3500,121.0800
Z" /> 
<path style="fill:#000000; fill-opacity:1.0000; stroke:none;fill-rule:evenodd;"
d="M 137.3500,126.0800
137.3310,126.1757
137.2768,126.2568
137.1957,126.3110
137.1000,126.3300
136.6000,126.3300
136.5043,126.3110
136.4232,126.2568
136.3690,126.1757
136.3500,126.0800
136.3500,121.0800
136.3690,120.9843
136.4232,120.9032
136.5043,120.8490
136.6000,120.8300
137.1000,120.8300
137.1957,120.8490
137.2768,120.9032
137.3310,120.9843
137.3500,121.0800
Z" /> 
<path style="fill:#000000; fill-opacity:1.0000; stroke:none;fill-rule:evenodd;"
d="M 146.0500,127.0800
146.0310,127.1757
145.9768,127.2568
145.8957,127.3110
145.8000,127.3300
144.7000,127.3300
144.6043,127.3110
144.5232,127.2568
144.4690,127.1757
144.4500,127.0800
144.4500,124.5800
144.4690,124.4843
144.5232,124.4032
144.6043,124.3490
144.7000,124.3300
145.8000,124.3300
145.8957,124.3490
145.9768,124.4032
146.0310,124.4843
146.0500,124.5800
Z" /> 
<path style="fill:#000000; fill-opacity:1.0000; stroke:none;fill-rule:evenodd;"
d="M 135.2500,127.0800
135.2310,127.1757
135.1768,127.2568
135.0957,127.3110
135.0000,127.3300
133.9000,127.3300
133.8043,127.3110
133.7232,127.2568
133.6690,127.1757
133.6500,127.0800
133.6500,124.5800
133.6690,124.4843
133.7232,124.4032
133.8043,124.3490
133.9000,124.3300
135.0000,124.3300
135.0957,124.3490
135.1768,124.4032
135.2310,124.4843
135.2500,124.5800
Z" /> 
<path style="fill:#000000; fill-opacity:1.0000; stroke:none;fill-rule:evenodd;"
d="M 134.6750,76.1050
134.7707,76.1240
134.8518,76.1782
134.9060,76.2593
134.9250,76.3550
134.9250,76.8800
134.9060,76.9757
134.8518,77.0568
134.7707,77.1110
134.6750,77.1300
133.7750,77.1300
133.6793,77.1110
133.5982,77.0568
133.5440,76.9757
133.5250,76.8800
133.5250,76.3550
133.5440,76.2593
133.5982,76.1782
133.6793,76.1240
133.7750,76.1050
Z" /> 
<path style="fill:#000000; fill-opacity:1.0000; stroke:none;fill-rule:evenodd;"
d="M 134.6750,77.9300
134.7707,77.9490
134.8518,78.0032
134.9060,78.0843
134.9250,78.1800
134.9250,78.7050
134.9060,78.8007
134.8518,78.8818
134.7707,78.9360
134.6750,78.9550
133.7750,78.9550
133.6793,78.9360
133.5982,78.8818
133.5440,78.8007
133.5250,78.7050
133.5250,78.1800
133.5440,78.0843
133.5982,78.0032
133.6793,77.9490
133.7750,77.9300
Z" /> 
<path style="fill:#000000; fill-opacity:1.0000; stroke:none;fill-rule:evenodd;"
d="M 120.8050,76.8925
120.9007,76.9115
120.9818,76.9657
121.0360,77.0468
121.0550,77.1425
121.0550,77.6425
121.0360,77.7382
120.9818,77.8193
120.9007,77.8735
120.8050,77.8925
119.8550,77.8925
119.7593,77.8735
119.6782,77.8193
119.6240,77.7382
119.6050,77.6425
119.6050,77.1425
119.6240,77.0468
119.6782,76.9657
119.7593,76.9115
119.8550,76.8925
Z" /> 
<path style="fill:#000000; fill-opacity:1.0000; stroke:none;fill-rule:evenodd;"
d="M 120.8050,78.7925
120.9007,78.8115
120.9818,78.8657
121.0360,78.9468
121.0550,79.0425
121.0550,79.5425
121.0360,79.6382
120.9818,79.7193
120.9007,79.7735
120.8050,79.7925
119.8550,79.7925
119.7593,79.7735
119.6782,79.7193
119.6240,79.6382
119.6050,79.5425
119.6050,79.0425
119.6240,78.9468
119.6782,78.8657
119.7593,78.8115
119.8550,78.7925
Z" /> 
<path style="fill:#000000; fill-opacity:1.0000; stroke:none;fill-rule:evenodd;"
d="M 120.1950,62.9100
120.1760,63.0057
120.1218,63.0868
120.0407,63.1410
119.9450,63.1600
116.9450,63.1600
116.8493,63.1410
116.7682,63.0868
116.7140,63.0057
116.6950,62.9100
116.6950,61.8100
116.7140,61.7143
116.7682,61.6332
116.8493,61.5790
116.9450,61.5600
119.9450,61.5600
120.0407,61.5790
120.1218,61.6332
120.1760,61.7143
120.1950,61.8100
Z" /> 
<path style="fill:#000000; fill-opacity:1.0000; stroke:none;fill-rule:evenodd;"
d="M 114.7950,62.9100
114.7760,63.0057
114.7218,63.0868
114.6407,63.1410
114.5450,63.1600
111.5450,63.1600
111.4493,63.1410
111.3682,63.0868
111.3140,63.0057
111.2950,62.9100
111.2950,61.8100
111.3140,61.7143
111.3682,61.6332
111.4493,61.5790
111.5450,61.5600
114.5450,61.5600
114.6407,61.5790
114.7218,61.6332
114.7760,61.7143
114.7950,61.8100
Z" /> 
<path style="fill:#000000; fill-opacity:1.0000; stroke:none;fill-rule:evenodd;"
d="M 103.7100,114.9500
103.7100,113.1500
106.2100,113.1500
106.2100,114.9500
Z" /> 
<path style="fill:#000000; fill-opacity:1.0000; stroke:none;fill-rule:evenodd;"
d="M 107.7100,114.9500
107.7100,113.1500
110.2100,113.1500
110.2100,114.9500
Z" /> 
<path style="fill:#000000; fill-opacity:1.0000; stroke:none;fill-rule:evenodd;"
d="M 120.5800,92.1425
120.5648,92.2190
120.5214,92.2839
120.4565,92.3273
120.3800,92.3425
119.9800,92.3425
119.9035,92.3273
119.8386,92.2839
119.7952,92.2190
119.7800,92.1425
119.7800,91.5925
119.7952,91.5160
119.8386,91.4511
119.9035,91.4077
119.9800,91.3925
120.3800,91.3925
120.4565,91.4077
120.5214,91.4511
120.5648,91.5160
120.5800,91.5925
Z" /> 
<path style="fill:#000000; fill-opacity:1.0000; stroke:none;fill-rule:evenodd;"
d="M 118.9300,92.1425
118.9148,92.2190
118.8714,92.2839
118.8065,92.3273
118.7300,92.3425
118.3300,92.3425
118.2535,92.3273
118.1886,92.2839
118.1452,92.2190
118.1300,92.1425
118.1300,91.5925
118.1452,91.5160
118.1886,91.4511
118.2535,91.4077
118.3300,91.3925
118.7300,91.3925
118.8065,91.4077
118.8714,91.4511
118.9148,91.5160
118.9300,91.5925
Z" /> 
</g> 
</svg>
